<?xml version="1.0" encoding="utf-8"?>
<!-- Generator: Adobe Illustrator 26.0.1, SVG Export Plug-In . SVG Version: 6.00 Build 0)  -->
<svg version="1.1" id="Capa_1" xmlns="http://www.w3.org/2000/svg" xmlns:xlink="http://www.w3.org/1999/xlink" x="0px" y="0px"
	 viewBox="0 0 1878.2 449.6" style="enable-background:new 0 0 1878.2 449.6;" xml:space="preserve">
<style type="text/css">
	.st0{fill:#7A7163;}
	.st1{fill:#3C3832;}
	.st2{fill:none;stroke:#4D4D4D;stroke-miterlimit:10;}
	.st3{fill:none;stroke:#4D4D4D;stroke-miterlimit:10;stroke-dasharray:5.9962,5.9962;}
	.st4{fill:none;stroke:#4D4D4D;stroke-miterlimit:10;stroke-dasharray:5.9488,5.9488;}
	.st5{fill:none;stroke:#4D4D4D;stroke-miterlimit:10;stroke-dasharray:6.0374,6.0374;}
	.st6{fill:#63605B;}
	.st7{fill:#8A8884;}
	.st8{fill:#A74F33;}
	.st9{fill:#494541;}
	.st10{fill:none;stroke:#4D4D4D;stroke-miterlimit:10;stroke-dasharray:6;}
</style>
<path class="st0" d="M285.7,295.3c2.7,14.2,2.7,80,2.7,80H275l0.1-9.6c-0.7-51.1,2.2-70.1,2.2-70.1l0.2,0.1l0.5,1.4v0.7l0.4-0.2
	l0.1-1.8l0.3-0.8h4.7l0.2,2.4l0.7,0.1v1.6l1-1.5l-0.1-2.3L285.7,295.3z"/>
<path class="st1" d="M935.4,298.6l96.3-61.6l22-3.2l18.7-24.5l9-7.1h17.4l76.9-56.1l11.6-7.9l17.9-17.4l20.9-4.7l15.5-3.2l22,7.9
	h20.7l20,11.1l10.3,2.4l14.2,1.6l56.2-27.1l21.3-14.5h25.2l25.2-12.1h26.5l43.9,18.2l77.5,71.9l14.9,1.6l77.5,71.9
	c0,0,27.7,26.8,32.3,43.5c1.5,5.3,52,33.3,60.7,34.5c15.3,2.2,20.5,51.7,20.5,51.7l-153.7-0.3l-178.3-40.1L1190,375l-287.7,1l0,0
	l12.4-50.5L935.4,298.6z"/>
<g>
	<g>
		<line class="st2" x1="175.5" y1="82.1" x2="178.5" y2="82.1"/>
		<line class="st3" x1="184.5" y1="82.1" x2="1464.7" y2="82.1"/>
		<line class="st2" x1="1467.7" y1="82.1" x2="1470.7" y2="82.1"/>
	</g>
</g>
<g>
	<g>
		<line class="st2" x1="175.5" y1="295" x2="178.5" y2="295"/>
		<line class="st4" x1="184.5" y1="295" x2="431.4" y2="295"/>
		<line class="st2" x1="434.3" y1="295" x2="437.3" y2="295"/>
	</g>
</g>
<line class="st2" x1="175.5" y1="375.3" x2="1855.2" y2="375.3"/>
<path class="st0" d="M401.2,373.8c0,0,1.2-22.2,10.3-28.3c9.1-6.1,14.2-12.7,14.2-12.7v-7.6l5.6-4.6v-11.1l6.1-7.6
	c0,0,15.2-18.7,16.7-18.7s8.6-2.5,8.6-2.5l6.6-11.1h10.6c0,0-1,4.6,0,4.6s6.6-4.6,6.6-4.6l2.5,4.6l8.6-4.6l3.5-11.1l5.1-6.6
	l7.6-10.6l5.1-4.1l5.1,3l5.1-3h6.1l4.8-3.5l5.8-3l5.1-8.1l6.1-2.5l3.5,4.6l2-4.6h4.6l8.1-5.6l4.6,2.5l6.6-19.7l2.5,13.7l6.1-4.1
	l4.6,2.5l11.1-0.5l6.6-3.5l5.1-5.1l6.6-3v7.6l6.1-4.1l5.6-3.5l6.5,5.1l6.6,5.6l-8.1,5.6l2.5,5.1l5.6,2l6.6-1.5l2.5-8.1l3.4,6.1
	l4.7,2v4.6l13.2,3.5l5.1-1.5l5.1,4.1l4.6,3l7.1-1.5l6.1-2.5l5.1,4.6l3,6.1l5.1,3.5l8.6,6.6l5.1,6.1c0,0,14.2-1,15.7,2
	c1.5,3,10.6,8.1,10.6,8.1l8.1,3.5l11.1,3.5l6.6,12.7l12.2,2.5l4.6,5.1l2.5,17.1l15.2,14.2l7.1,14.2l3.5,23.3l14.2,8.7l3.2,5.6
	L401.2,373.8z"/>
<g>
	<g>
		<line class="st2" x1="175.5" y1="197.2" x2="178.5" y2="197.2"/>
		<line class="st5" x1="184.6" y1="197.2" x2="1099.2" y2="197.2"/>
		<line class="st2" x1="1102.3" y1="197.2" x2="1105.3" y2="197.2"/>
	</g>
</g>
<path class="st6" d="M1190,375l6.8-50.2c0,0,36.1-62.4,60.4-66.3c24.4-3.9,40.9-4.9,40.9-4.9l23.4-24.7l19.5-10.4l30.2-8.8
	l34.1-27.3l23.4-47.8l14.5-35.5h59.6c0,0,31.2,61.9,31.2,70.6c0,8.8,16.6,48.7,16.6,48.7l50.7,30.2l26.3,57.5l29.2,24.4v44.3
	l-172.5-11.2L1190,375z"/>
<path class="st7" d="M1502.9,99.3c14.6,19.9,17.6,266.9,17.6,266.9l-36.1-2.3l-46.7,1.8c-13.2-149.1,5.6-266.3,5.6-266.3
	L1502.9,99.3L1502.9,99.3z"/>
<path class="st8" d="M1459,105.6c0,0-16.8,85.3,0,250.5h42.9c0,0,1.4-179.4-9.7-250.5H1459z"/>
<polygon class="st9" points="914.7,325.5 1196.9,324.9 1190,375 902.3,376 "/>
<path class="st9" d="M1799.8,332.6c0,0-79.6,1.5-142.9-1.9V375l153.7,0.3C1810.6,375.3,1806.9,336.3,1799.8,332.6z"/>
<g>
	<g>
		<path d="M37.9,304.5v-1.4l4.9-5.4c0.6-0.6,1-1.2,1.4-1.7c0.3-0.5,0.6-0.9,0.7-1.3s0.2-0.8,0.2-1.2c0-0.7-0.2-1.4-0.7-1.9
			s-1.1-0.8-1.9-0.8c-0.9,0-1.6,0.3-2,0.8s-0.7,1.3-0.7,2.2h-1.9v-0.1c0-0.9,0.2-1.6,0.5-2.3c0.4-0.7,0.9-1.2,1.7-1.6
			c0.7-0.4,1.6-0.6,2.6-0.6c0.9,0,1.8,0.2,2.4,0.5c0.7,0.4,1.2,0.8,1.6,1.5s0.6,1.3,0.6,2.1c0,0.5-0.1,1.1-0.3,1.6s-0.5,1.1-0.9,1.7
			c-0.4,0.6-0.9,1.2-1.5,1.8l-3.9,4.3v0.1H46l0.2-1.7h1.7v3.3h-10V304.5z"/>
		<path d="M53.8,304.7c-0.5,0-1.1,0-1.6-0.1s-1-0.3-1.5-0.5l0.3-1.5c0.4,0.2,0.8,0.3,1.3,0.4c0.4,0.1,0.9,0.1,1.5,0.1
			c1,0,1.7-0.4,2.3-1.1c0.6-0.7,0.9-1.9,0.9-3.6v-0.1c-0.3,0.5-0.7,0.8-1.1,1.1s-1,0.4-1.7,0.4c-1,0-1.8-0.2-2.5-0.6s-1.2-1-1.6-1.8
			s-0.6-1.7-0.6-2.8c0-1,0.2-2,0.6-2.8s1-1.4,1.7-1.9s1.5-0.7,2.3-0.7c1,0,1.9,0.2,2.7,0.7c0.8,0.4,1.3,1.1,1.7,1.9
			c0.4,0.9,0.6,1.9,0.6,3.2v2.7c0,1.6-0.2,2.8-0.7,3.9s-1.1,1.8-1.8,2.3C55.8,304.4,54.8,304.7,53.8,304.7z M54.1,298.2
			c0.7,0,1.4-0.2,1.9-0.5s0.9-0.7,1.1-1.2v-1.6c0-1.3-0.3-2.3-0.8-3s-1.2-1-2.2-1c-0.5,0-1,0.2-1.4,0.5s-0.7,0.8-1,1.3
			c-0.2,0.6-0.4,1.2-0.4,1.9s0.1,1.3,0.3,1.9c0.2,0.5,0.5,0.9,0.9,1.2C53.1,298,53.5,298.2,54.1,298.2z"/>
		<path d="M64,304.5l0.2-1.6c0.2-1.6,0.5-3,0.9-4.4s1-2.6,1.7-3.8s1.5-2.4,2.5-3.6h-6.2l-0.2,1.7h-1.7v-3.3h10.1v1.6
			c-0.9,1.1-1.6,2.1-2.2,3s-1.1,1.8-1.4,2.7c-0.4,0.9-0.6,1.8-0.8,2.8s-0.4,2-0.5,3.2l-0.2,1.6L64,304.5L64,304.5z"/>
		<path d="M77.9,304.5v-1.3l1.7-0.3V295l-1.7-0.3v-1.3h3.5l0.1,1.4c0.4-0.5,0.8-0.9,1.4-1.2s1.2-0.4,1.9-0.4s1.4,0.2,1.9,0.5
			s0.9,0.9,1.2,1.5c0.3-0.6,0.8-1.1,1.4-1.5s1.2-0.6,2-0.6c1.1,0,2,0.4,2.7,1.2s1,1.9,1,3.5v5.1l1.7,0.3v1.3h-5.4v-1.3l1.7-0.3v-5.1
			c0-1.1-0.2-1.9-0.6-2.3c-0.4-0.5-0.9-0.7-1.7-0.7c-0.7,0-1.3,0.2-1.7,0.7c-0.4,0.5-0.7,1.1-0.7,1.9v5.5l1.7,0.3v1.3h-5.4v-1.3
			l1.7-0.3v-5.1c0-1-0.2-1.8-0.6-2.3s-0.9-0.7-1.7-0.7c-0.6,0-1.1,0.1-1.5,0.4s-0.7,0.6-0.9,1.1v6.6l1.7,0.3v1.3L77.9,304.5
			L77.9,304.5z"/>
		<path d="M102.7,304.7c-0.7,0-1.4-0.1-2.1-0.2c-0.6-0.2-1.3-0.4-2.1-0.7v-2.6h1.5l0.4,1.6c0.4,0.2,0.8,0.3,1.1,0.3
			c0.4,0.1,0.7,0.1,1.2,0.1c0.8,0,1.4-0.2,1.8-0.5s0.5-0.7,0.5-1.2c0-0.4-0.2-0.8-0.5-1.1c-0.4-0.3-1-0.6-2-0.8
			c-1.3-0.3-2.3-0.7-3-1.2c-0.6-0.5-0.9-1.2-0.9-2.1c0-0.6,0.2-1.1,0.5-1.6s0.8-0.9,1.5-1.1s1.3-0.4,2.2-0.4c0.8,0,1.6,0.1,2.2,0.3
			s1.1,0.4,1.6,0.8l0.1,2.5h-1.5l-0.3-1.5c-0.2-0.2-0.5-0.3-0.9-0.4s-0.7-0.1-1.1-0.1c-0.6,0-1.1,0.1-1.5,0.4
			c-0.4,0.3-0.6,0.7-0.6,1.1c0,0.3,0.1,0.5,0.2,0.7s0.3,0.4,0.7,0.5c0.3,0.2,0.8,0.3,1.4,0.5c1.5,0.4,2.6,0.8,3.2,1.4
			c0.6,0.6,0.9,1.3,0.9,2.1c0,0.9-0.3,1.7-1,2.4C105.3,304.4,104.2,304.7,102.7,304.7z"/>
		<path d="M109.4,304.5v-2.1h2v2.1H109.4z"/>
		<path d="M113.7,304.5v-1.3l1.7-0.3V295l-1.7-0.3v-1.3h3.5l0.1,1.7c0.4-0.6,0.8-1,1.4-1.4c0.6-0.3,1.2-0.5,1.9-0.5
			c1.2,0,2.1,0.4,2.8,1.1c0.7,0.7,1,1.8,1,3.2v5.4l1.7,0.3v1.3h-5.4v-1.3l1.7-0.3v-5.4c0-1-0.2-1.7-0.6-2.1c-0.4-0.4-1-0.6-1.8-0.6
			c-0.6,0-1.1,0.1-1.5,0.4s-0.8,0.7-1.1,1.1v6.5l1.7,0.3v1.3L113.7,304.5L113.7,304.5z"/>
		<path d="M128.2,304.5v-2.1h2v2.1H128.2z"/>
		<path d="M132.5,304.5v-1.3l1.7-0.3V295l-1.7-0.3v-1.3h3.5l0.1,1.4c0.4-0.5,0.8-0.9,1.4-1.2s1.2-0.4,1.9-0.4s1.4,0.2,1.9,0.5
			s0.9,0.9,1.2,1.5c0.3-0.6,0.8-1.1,1.4-1.5s1.2-0.6,2-0.6c1.1,0,2,0.4,2.7,1.2s1,1.9,1,3.5v5.1l1.7,0.3v1.3h-5.4v-1.3l1.7-0.3v-5.1
			c0-1.1-0.2-1.9-0.6-2.3c-0.4-0.5-0.9-0.7-1.7-0.7c-0.7,0-1.3,0.2-1.7,0.7s-0.7,1.1-0.7,1.9v5.5l1.7,0.3v1.3h-5.4v-1.3l1.7-0.3
			v-5.1c0-1-0.2-1.8-0.6-2.3c-0.4-0.5-0.9-0.7-1.7-0.7c-0.6,0-1.1,0.1-1.5,0.4s-0.7,0.6-0.9,1.1v6.6l1.7,0.3v1.3L132.5,304.5
			L132.5,304.5z"/>
	</g>
</g>
<g>
	<g>
		<path d="M43.2,204.9c-1,0-1.8-0.2-2.6-0.7s-1.4-1.2-1.8-2.1s-0.7-2-0.7-3.3v-2c0-1.6,0.2-2.9,0.7-4s1.1-1.9,2-2.4s1.8-0.8,2.9-0.8
			c0.5,0,1,0.1,1.5,0.2c0.5,0.1,0.9,0.3,1.2,0.4l-0.4,1.5c-0.3-0.2-0.7-0.3-1.1-0.4c-0.4-0.1-0.8-0.1-1.3-0.1c-1,0-1.9,0.4-2.5,1.2
			s-0.9,2-1,3.6l0,0c0.4-0.4,0.9-0.6,1.4-0.8c0.6-0.2,1.2-0.3,1.8-0.3c0.9,0,1.7,0.2,2.3,0.6c0.7,0.4,1.2,1,1.5,1.7
			c0.4,0.7,0.5,1.6,0.5,2.5c0,1-0.2,1.9-0.6,2.7s-0.9,1.4-1.6,1.8S44.2,204.9,43.2,204.9z M43.2,203.3c0.6,0,1-0.2,1.4-0.5
			s0.7-0.8,0.9-1.3c0.2-0.6,0.3-1.2,0.3-1.9c0-1-0.2-1.8-0.7-2.4c-0.5-0.6-1.2-1-2.1-1c-0.5,0-0.9,0.1-1.2,0.2
			c-0.4,0.1-0.7,0.3-1,0.5s-0.5,0.5-0.7,0.8v1.2c0,1.4,0.3,2.5,0.9,3.2C41.6,202.9,42.4,203.3,43.2,203.3z"/>
		<path d="M49.7,204.7v-1.4l4.9-5.4c0.6-0.6,1-1.2,1.4-1.7c0.3-0.5,0.6-0.9,0.7-1.3s0.2-0.8,0.2-1.2c0-0.7-0.2-1.4-0.7-1.9
			s-1.1-0.8-1.9-0.8c-0.9,0-1.6,0.3-2,0.8s-0.7,1.3-0.7,2.2h-1.9v-0.1c0-0.9,0.2-1.6,0.5-2.3c0.4-0.7,0.9-1.2,1.7-1.6
			c0.7-0.4,1.6-0.6,2.6-0.6c0.9,0,1.8,0.2,2.4,0.5c0.7,0.4,1.2,0.8,1.6,1.5s0.6,1.3,0.6,2.1c0,0.5-0.1,1.1-0.3,1.6
			c-0.2,0.5-0.5,1.1-0.9,1.7s-0.9,1.2-1.5,1.8l-3.9,4.3v0.1h5.3l0.2-1.7h1.3v3.3h-9.6V204.7z"/>
		<path d="M65.5,204.9c-0.5,0-1.1,0-1.6-0.1s-1-0.3-1.5-0.5l0.3-1.5c0.4,0.2,0.8,0.3,1.3,0.4c0.4,0.1,0.9,0.1,1.5,0.1
			c1,0,1.7-0.4,2.3-1.1c0.6-0.7,0.9-1.9,0.9-3.6v-0.1c-0.3,0.5-0.7,0.8-1.1,1.1s-1,0.4-1.7,0.4c-1,0-1.8-0.2-2.5-0.6s-1.2-1-1.6-1.8
			s-0.6-1.7-0.6-2.8c0-1,0.2-2,0.6-2.8s1-1.4,1.7-1.9s1.5-0.7,2.3-0.7c1,0,1.9,0.2,2.7,0.7c0.8,0.4,1.3,1.1,1.7,1.9
			c0.4,0.9,0.6,1.9,0.6,3.2v2.7c0,1.6-0.2,2.8-0.7,3.9s-1.1,1.8-1.8,2.3C67.5,204.6,66.6,204.9,65.5,204.9z M65.8,198.4
			c0.7,0,1.4-0.2,1.9-0.5s0.9-0.7,1.1-1.2v-1.6c0-1.3-0.3-2.3-0.8-3s-1.2-1-2.2-1c-0.5,0-1,0.2-1.4,0.5s-0.7,0.8-1,1.3
			c-0.2,0.6-0.4,1.2-0.4,1.9s0.1,1.3,0.3,1.9c0.2,0.5,0.5,0.9,0.9,1.2S65.3,198.4,65.8,198.4z"/>
		<path d="M78.1,204.7v-1.3l1.7-0.3v-7.9l-1.7-0.3v-1.3h3.5l0.1,1.4c0.4-0.5,0.8-0.9,1.4-1.2s1.2-0.4,1.9-0.4s1.4,0.2,1.9,0.5
			s0.9,0.9,1.2,1.5c0.3-0.6,0.8-1.1,1.4-1.5s1.2-0.6,2-0.6c1.1,0,2,0.4,2.7,1.2s1,1.9,1,3.5v5.1l1.7,0.3v1.3h-5.4v-1.3l1.7-0.3V198
			c0-1.1-0.2-1.9-0.6-2.3c-0.4-0.5-0.9-0.7-1.7-0.7c-0.7,0-1.3,0.2-1.7,0.7c-0.4,0.5-0.7,1.1-0.7,1.9v5.5l1.7,0.3v1.3h-5.4v-1.3
			l1.7-0.3V198c0-1-0.2-1.8-0.6-2.3S85,195,84.2,195c-0.6,0-1.1,0.1-1.5,0.4s-0.7,0.6-0.9,1.1v6.6l1.7,0.3v1.3L78.1,204.7
			L78.1,204.7z"/>
		<path d="M102.8,204.9c-0.7,0-1.4-0.1-2.1-0.2s-1.3-0.4-2.1-0.7v-2.6h1.5l0.4,1.6c0.4,0.2,0.8,0.3,1.1,0.3c0.4,0.1,0.7,0.1,1.2,0.1
			c0.8,0,1.4-0.2,1.8-0.5s0.5-0.7,0.5-1.2c0-0.4-0.2-0.8-0.5-1.1c-0.4-0.3-1-0.6-2-0.8c-1.3-0.3-2.3-0.7-3-1.2
			c-0.6-0.5-0.9-1.2-0.9-2.1c0-0.6,0.2-1.1,0.5-1.6s0.8-0.9,1.5-1.1s1.3-0.4,2.2-0.4c0.8,0,1.6,0.1,2.2,0.3s1.1,0.4,1.6,0.8l0.1,2.5
			h-1.5l-0.3-1.5c-0.2-0.2-0.5-0.3-0.9-0.4s-0.7-0.1-1.1-0.1c-0.6,0-1.1,0.1-1.5,0.4c-0.4,0.3-0.6,0.7-0.6,1.1
			c0,0.3,0.1,0.5,0.2,0.7s0.3,0.4,0.7,0.5c0.3,0.2,0.8,0.3,1.4,0.5c1.5,0.4,2.6,0.8,3.2,1.4c0.6,0.6,0.9,1.3,0.9,2.1
			c0,0.9-0.3,1.7-1,2.4C105.4,204.6,104.3,204.9,102.8,204.9z"/>
		<path d="M109.6,204.7v-2.1h2v2.1H109.6z"/>
		<path d="M113.9,204.7v-1.3l1.7-0.3v-7.9l-1.7-0.3v-1.3h3.5l0.1,1.7c0.4-0.6,0.8-1,1.4-1.4c0.6-0.3,1.2-0.5,1.9-0.5
			c1.2,0,2.1,0.4,2.8,1.1c0.7,0.7,1,1.8,1,3.2v5.4l1.7,0.3v1.3h-5.4v-1.3l1.7-0.3v-5.4c0-1-0.2-1.7-0.6-2.1c-0.4-0.4-1-0.6-1.8-0.6
			c-0.6,0-1.1,0.1-1.5,0.4s-0.8,0.7-1.1,1.1v6.5l1.7,0.3v1.3L113.9,204.7L113.9,204.7z"/>
		<path d="M128.4,204.7v-2.1h2v2.1H128.4z"/>
		<path d="M132.7,204.7v-1.3l1.7-0.3v-7.9l-1.7-0.3v-1.3h3.5l0.1,1.4c0.4-0.5,0.8-0.9,1.4-1.2s1.2-0.4,1.9-0.4s1.4,0.2,1.9,0.5
			s0.9,0.9,1.2,1.5c0.3-0.6,0.8-1.1,1.4-1.5s1.2-0.6,2-0.6c1.1,0,2,0.4,2.7,1.2s1,1.9,1,3.5v5.1l1.7,0.3v1.3h-5.4v-1.3l1.7-0.3V198
			c0-1.1-0.2-1.9-0.6-2.3c-0.4-0.5-0.9-0.7-1.7-0.7c-0.7,0-1.3,0.2-1.7,0.7s-0.7,1.1-0.7,1.9v5.5l1.7,0.3v1.3h-5.4v-1.3l1.7-0.3V198
			c0-1-0.2-1.8-0.6-2.3c-0.4-0.5-0.9-0.7-1.7-0.7c-0.6,0-1.1,0.1-1.5,0.4s-0.7,0.6-0.9,1.1v6.6l1.7,0.3v1.3L132.7,204.7L132.7,204.7
			z"/>
	</g>
</g>
<g>
	<g>
		<path d="M42.2,90.1c-0.5,0-1.1,0-1.6-0.1s-1-0.3-1.5-0.5l0.3-1.5c0.4,0.2,0.8,0.3,1.3,0.4c0.4,0.1,0.9,0.1,1.5,0.1
			c1,0,1.7-0.4,2.3-1.1s0.9-1.9,0.9-3.6v-0.1c-0.3,0.5-0.7,0.8-1.1,1.1s-1,0.4-1.7,0.4c-1,0-1.8-0.2-2.5-0.6s-1.2-1-1.6-1.8
			c-0.4-0.8-0.6-1.7-0.6-2.8c0-1,0.2-2,0.6-2.8s1-1.4,1.7-1.9s1.5-0.7,2.3-0.7c1,0,1.9,0.2,2.7,0.7c0.8,0.4,1.3,1.1,1.7,1.9
			s0.6,1.9,0.6,3.2v2.7c0,1.6-0.2,2.8-0.7,3.9s-1.1,1.8-1.8,2.3C44.2,89.9,43.2,90.1,42.2,90.1z M42.5,83.6c0.7,0,1.4-0.2,1.9-0.5
			s0.9-0.7,1.1-1.2v-1.6c0-1.3-0.3-2.3-0.8-3s-1.2-1-2.2-1c-0.5,0-1,0.2-1.4,0.5s-0.7,0.8-1,1.3c-0.2,0.6-0.4,1.2-0.4,1.9
			c0,0.7,0.1,1.3,0.3,1.9c0.2,0.5,0.5,0.9,0.9,1.2S41.9,83.6,42.5,83.6z"/>
		<path d="M55.1,90.1c-1,0-1.8-0.2-2.6-0.7s-1.4-1.2-1.8-2.1S50,85.3,50,84v-2c0-1.6,0.2-2.9,0.7-4s1.1-1.9,2-2.4s1.8-0.8,2.9-0.8
			c0.5,0,1,0.1,1.5,0.2s0.9,0.3,1.2,0.4l-0.4,1.5c-0.3-0.2-0.7-0.3-1.1-0.4s-0.8-0.1-1.3-0.1c-1,0-1.9,0.4-2.5,1.2
			c-0.6,0.8-0.9,2-1,3.6l0,0c0.4-0.4,0.9-0.6,1.4-0.8s1.2-0.3,1.8-0.3c0.9,0,1.7,0.2,2.3,0.6c0.7,0.4,1.2,1,1.5,1.7
			c0.4,0.7,0.5,1.6,0.5,2.5c0,1-0.2,1.9-0.6,2.7S58,89,57.3,89.4S56,90.1,55.1,90.1z M55.1,88.6c0.6,0,1-0.2,1.4-0.5
			s0.7-0.8,0.9-1.3c0.2-0.6,0.3-1.2,0.3-1.9c0-1-0.2-1.8-0.7-2.4s-1.2-1-2.1-1c-0.5,0-0.9,0.1-1.2,0.2c-0.4,0.1-0.7,0.3-1,0.5
			S52.2,82.7,52,83v1.2c0,1.4,0.3,2.5,0.9,3.2C53.5,88.2,54.2,88.6,55.1,88.6z"/>
		<path d="M65.8,90.1c-0.8,0-1.6-0.2-2.3-0.5c-0.7-0.3-1.2-0.8-1.6-1.4s-0.6-1.4-0.5-2.3v-0.1h1.9c0,0.8,0.2,1.4,0.7,1.9
			s1.1,0.7,1.8,0.7c0.9,0,1.5-0.3,2-0.9s0.7-1.4,0.7-2.5c0-1-0.2-1.8-0.7-2.4s-1.1-0.9-2-0.9c-0.8,0-1.4,0.1-1.7,0.4
			c-0.4,0.2-0.6,0.6-0.8,1.1L61.6,83l0.9-8.2h7.9v3h-1.5l-0.2-1.2h-4.5l-0.5,4.2c0.2-0.2,0.4-0.3,0.7-0.4s0.5-0.2,0.8-0.3
			c0.3-0.1,0.6-0.1,0.9-0.1c0.9,0,1.7,0.2,2.4,0.6s1.2,1,1.5,1.7s0.5,1.6,0.5,2.7c0,1-0.2,1.9-0.5,2.6c-0.4,0.7-0.9,1.3-1.6,1.7
			C67.7,89.9,66.9,90.1,65.8,90.1z"/>
		<path d="M77.6,89.9v-1.3l1.7-0.3v-7.9l-1.7-0.3v-1.3h3.5l0.1,1.4c0.4-0.5,0.8-0.9,1.4-1.2s1.2-0.4,1.9-0.4s1.4,0.2,1.9,0.5
			s0.9,0.9,1.2,1.5c0.3-0.6,0.8-1.1,1.4-1.5s1.2-0.6,2-0.6c1.1,0,2,0.4,2.7,1.2s1,1.9,1,3.5v5.1l1.7,0.3v1.3H91v-1.3l1.7-0.3v-5.1
			c0-1.1-0.2-1.9-0.6-2.3c-0.4-0.5-0.9-0.7-1.7-0.7c-0.7,0-1.3,0.2-1.7,0.7C88.3,81.4,88,82,88,82.8v5.5l1.7,0.3v1.3h-5.4v-1.3
			l1.7-0.3v-5.1c0-1-0.2-1.8-0.6-2.3s-0.9-0.7-1.7-0.7c-0.6,0-1.1,0.1-1.5,0.4s-0.7,0.6-0.9,1.1v6.6l1.7,0.3v1.3L77.6,89.9
			L77.6,89.9z"/>
		<path d="M102.3,90.1c-0.7,0-1.4-0.1-2.1-0.2s-1.3-0.4-2.1-0.7v-2.6h1.5l0.4,1.6c0.4,0.2,0.8,0.3,1.1,0.3c0.4,0.1,0.7,0.1,1.2,0.1
			c0.8,0,1.4-0.2,1.8-0.5s0.5-0.7,0.5-1.2c0-0.4-0.2-0.8-0.5-1.1c-0.4-0.3-1-0.6-2-0.8c-1.3-0.3-2.3-0.7-3-1.2
			c-0.6-0.5-0.9-1.2-0.9-2.1c0-0.6,0.2-1.1,0.5-1.6s0.8-0.9,1.5-1.1s1.3-0.4,2.2-0.4c0.8,0,1.6,0.1,2.2,0.3c0.6,0.2,1.1,0.4,1.6,0.8
			l0.1,2.5h-1.5l-0.3-1.5c-0.2-0.2-0.5-0.3-0.9-0.4s-0.7-0.1-1.1-0.1c-0.6,0-1.1,0.1-1.5,0.4s-0.6,0.7-0.6,1.1
			c0,0.3,0.1,0.5,0.2,0.7s0.3,0.4,0.7,0.5c0.3,0.2,0.8,0.3,1.4,0.5c1.5,0.4,2.6,0.8,3.2,1.4s0.9,1.3,0.9,2.1c0,0.9-0.3,1.7-1,2.4
			C104.9,89.8,103.8,90.1,102.3,90.1z"/>
		<path d="M109,89.9v-2.1h2v2.1H109z"/>
		<path d="M113.4,89.9v-1.3l1.7-0.3v-7.9l-1.7-0.3v-1.3h3.5l0.1,1.7c0.4-0.6,0.8-1,1.4-1.4s1.2-0.5,1.9-0.5c1.2,0,2.1,0.4,2.8,1.1
			s1,1.8,1,3.2v5.4l1.7,0.3v1.3h-5.5v-1.3l1.7-0.3v-5.4c0-1-0.2-1.7-0.6-2.1c-0.4-0.4-1-0.6-1.8-0.6c-0.6,0-1.1,0.1-1.5,0.4
			s-0.8,0.7-1.1,1.1v6.5l1.7,0.3v1.3L113.4,89.9L113.4,89.9z"/>
		<path d="M127.9,89.9v-2.1h2v2.1H127.9z"/>
		<path d="M132.2,89.9v-1.3l1.7-0.3v-7.9l-1.7-0.3v-1.3h3.5l0.1,1.4c0.4-0.5,0.8-0.9,1.4-1.2s1.2-0.4,1.9-0.4s1.4,0.2,1.9,0.5
			s0.9,0.9,1.2,1.5c0.3-0.6,0.8-1.1,1.4-1.5s1.2-0.6,2-0.6c1.1,0,2,0.4,2.7,1.2s1,1.9,1,3.5v5.1l1.7,0.3v1.3h-5.4v-1.3l1.7-0.3v-5.1
			c0-1.1-0.2-1.9-0.6-2.3c-0.4-0.5-0.9-0.7-1.7-0.7c-0.7,0-1.3,0.2-1.7,0.7s-0.7,1.1-0.7,1.9v5.5l1.7,0.3v1.3h-5.4v-1.3l1.7-0.3
			v-5.1c0-1-0.2-1.8-0.6-2.3c-0.4-0.5-0.9-0.7-1.7-0.7c-0.6,0-1.1,0.1-1.5,0.4s-0.7,0.6-0.9,1.1v6.6l1.7,0.3v1.3L132.2,89.9
			L132.2,89.9z"/>
	</g>
</g>
<line class="st10" x1="1810.6" y1="397.4" x2="902.3" y2="397.4"/>
<line class="st2" x1="902.3" y1="378.5" x2="902.3" y2="412.4"/>
<line class="st2" x1="1810.6" y1="381.5" x2="1810.6" y2="415.4"/>
<g>
	<g>
		<path d="M1334,428.6v-1.3l2.3-0.3v-11.2h-2.3v-1.3l4.4-0.9v13.5l2.3,0.3v1.3L1334,428.6L1334,428.6z"/>
		<path d="M1347.2,428.9c-1,0-1.8-0.2-2.6-0.5c-0.7-0.3-1.3-0.8-1.7-1.4c-0.4-0.6-0.6-1.4-0.6-2.3c0-0.8,0.3-1.6,0.8-2.2
			s1.2-1.1,2.1-1.4c-0.7-0.3-1.3-0.7-1.8-1.3c-0.4-0.6-0.6-1.3-0.6-2c0-0.9,0.2-1.6,0.6-2.2c0.4-0.6,0.9-1.1,1.5-1.4
			s1.4-0.5,2.3-0.5s1.6,0.2,2.3,0.5s1.2,0.8,1.6,1.4c0.4,0.6,0.6,1.4,0.6,2.2s-0.2,1.5-0.7,2c-0.4,0.6-1,1-1.8,1.3
			c0.9,0.3,1.5,0.8,2.1,1.4c0.5,0.6,0.8,1.4,0.8,2.2c0,0.9-0.2,1.7-0.6,2.3s-1,1.1-1.7,1.4C1349,428.7,1348.1,428.9,1347.2,428.9z
			 M1347.2,427.3c0.6,0,1.1-0.1,1.5-0.3s0.8-0.5,1-0.9s0.4-0.9,0.4-1.5c0-0.5-0.1-1-0.4-1.5s-0.6-0.8-1-1s-0.9-0.4-1.5-0.4
			s-1,0.1-1.5,0.4s-0.8,0.6-1,1s-0.4,0.9-0.4,1.5c0,0.8,0.3,1.5,0.8,2C1345.6,427,1346.3,427.3,1347.2,427.3z M1347.2,420.2
			c0.5,0,0.9-0.1,1.3-0.3s0.7-0.5,0.9-0.9s0.3-0.8,0.3-1.3s-0.1-0.9-0.3-1.3c-0.2-0.4-0.5-0.7-0.9-0.9s-0.8-0.3-1.3-0.3
			c-0.7,0-1.3,0.2-1.7,0.7c-0.4,0.5-0.7,1.1-0.7,1.9c0,0.8,0.2,1.4,0.7,1.8S1346.4,420.2,1347.2,420.2z"/>
		<path d="M1354.3,431.8l-1.1-0.8c0.3-0.5,0.6-1,0.7-1.5s0.2-1.1,0.2-1.6v-1.6h2v1.5c0,0.7-0.2,1.4-0.5,2.1
			S1354.9,431.4,1354.3,431.8z"/>
		<path d="M1362.5,428.9c-0.8,0-1.6-0.2-2.3-0.5c-0.7-0.3-1.2-0.8-1.6-1.4c-0.4-0.6-0.6-1.4-0.5-2.3v-0.1h1.8c0,0.8,0.2,1.4,0.7,1.9
			s1.1,0.7,1.8,0.7c0.9,0,1.5-0.3,2-0.9s0.7-1.4,0.7-2.5c0-1-0.2-1.8-0.7-2.4c-0.5-0.6-1.1-0.9-2-0.9c-0.8,0-1.4,0.1-1.7,0.4
			c-0.4,0.2-0.6,0.6-0.8,1.1l-1.7-0.2l0.9-8.2h7.9v3h-1.5l-0.2-1.2h-4.5l-0.5,4.2c0.2-0.2,0.4-0.3,0.7-0.4c0.2-0.1,0.5-0.2,0.8-0.3
			s0.6-0.1,0.9-0.1c0.9,0,1.7,0.2,2.4,0.6c0.7,0.4,1.2,1,1.5,1.7c0.4,0.8,0.5,1.6,0.5,2.7c0,1-0.2,1.9-0.5,2.6
			c-0.4,0.7-0.9,1.3-1.6,1.7C1364.4,428.7,1363.5,428.9,1362.5,428.9z"/>
		<path d="M1374.1,428.6v-1.3l1.7-0.3v-12.8l-1.7-0.3v-1.3h3.7v14.5l1.7,0.3v1.3L1374.1,428.6L1374.1,428.6z M1377.6,425.4l-0.7-1.6
			l4.8-4.8l0.1-0.1l-1.2-0.1v-1.3h4.8v1.3l-1.4,0.3L1377.6,425.4z M1381.2,428.6v-1.3l1.1-0.1l0,0l-3.2-4.1l1-1.6l4.5,5.7l1.6,0.2
			v1.3h-5V428.6z"/>
		<path d="M1387.4,428.6v-1.3l1.7-0.3v-7.9l-1.7-0.3v-1.3h3.5l0.1,1.4c0.4-0.5,0.8-0.9,1.4-1.2s1.2-0.4,1.9-0.4s1.4,0.2,1.9,0.5
			s0.9,0.9,1.2,1.5c0.3-0.6,0.8-1.1,1.4-1.5s1.2-0.6,2-0.6c1.1,0,2,0.4,2.7,1.2s1,1.9,1,3.5v5.1l1.7,0.3v1.3h-5.4v-1.3l1.7-0.3v-5.1
			c0-1.1-0.2-1.9-0.6-2.3c-0.4-0.5-0.9-0.7-1.7-0.7c-0.7,0-1.3,0.2-1.7,0.7c-0.4,0.5-0.7,1.1-0.7,1.9v5.5l1.7,0.3v1.3h-5.4v-1.3
			l1.7-0.3v-5.1c0-1-0.2-1.8-0.6-2.3s-0.9-0.7-1.7-0.7c-0.6,0-1.1,0.1-1.5,0.4s-0.7,0.6-0.9,1.1v6.6l1.7,0.3v1.3L1387.4,428.6
			L1387.4,428.6z"/>
	</g>
</g>
<g>
	<g>
		<path d="M221.3,47.1c-1.5,0-2.7-0.3-3.7-1s-1.8-1.6-2.3-2.7s-0.8-2.4-0.8-3.9v-0.2c0-1.5,0.3-2.8,0.8-3.9s1.3-2,2.3-2.7
			c1-0.7,2.2-1,3.5-1c1,0,1.8,0.2,2.6,0.5c0.8,0.3,1.5,0.7,2,1.1v3.2h-1.6l-0.2-2.4c-0.2-0.2-0.5-0.3-0.8-0.4s-0.6-0.2-0.9-0.3
			s-0.7-0.1-1.1-0.1c-1,0-1.8,0.3-2.5,0.8s-1.2,1.2-1.5,2.1s-0.5,1.9-0.5,3.1v0.2c0,1.3,0.2,2.3,0.6,3.2s0.9,1.6,1.6,2
			c0.7,0.5,1.6,0.7,2.6,0.7c0.5,0,0.9-0.1,1.4-0.2s0.8-0.3,1.1-0.5l0.2-2.1h1.6v3.2c-0.6,0.3-1.2,0.6-2,0.8
			C222.9,47,222.1,47.1,221.3,47.1z"/>
		<path d="M232.7,47.1c-1,0-1.9-0.2-2.7-0.7c-0.7-0.5-1.3-1.1-1.7-2s-0.6-1.8-0.6-2.9v-0.2c0-1.1,0.2-2.1,0.6-2.9
			c0.4-0.9,1-1.5,1.7-2s1.6-0.7,2.6-0.7s1.9,0.2,2.7,0.7c0.7,0.5,1.3,1.2,1.7,2s0.6,1.8,0.6,2.9v0.2c0,1.1-0.2,2.1-0.6,2.9
			c-0.4,0.9-1,1.5-1.7,2S233.8,47.1,232.7,47.1z M232.7,45.5c0.6,0,1.2-0.2,1.6-0.5s0.8-0.8,1-1.4s0.3-1.3,0.3-2.1v-0.2
			c0-0.8-0.1-1.5-0.3-2.1s-0.6-1.1-1-1.4c-0.4-0.4-1-0.5-1.6-0.5s-1.2,0.2-1.6,0.5c-0.4,0.4-0.8,0.8-1,1.4s-0.3,1.3-0.3,2.1v0.2
			c0,0.8,0.1,1.5,0.3,2.1s0.5,1.1,1,1.4C231.5,45.3,232.1,45.5,232.7,45.5z"/>
		<path d="M243.7,47.1c-0.7,0-1.4-0.1-2.1-0.2s-1.3-0.4-2.1-0.7v-2.6h1.5l0.4,1.6c0.4,0.2,0.8,0.3,1.1,0.3c0.4,0.1,0.7,0.1,1.2,0.1
			c0.8,0,1.4-0.2,1.8-0.5s0.5-0.7,0.5-1.2c0-0.4-0.2-0.8-0.5-1.1c-0.4-0.3-1-0.6-2-0.8c-1.3-0.3-2.3-0.7-3-1.2
			c-0.6-0.5-0.9-1.2-0.9-2.1c0-0.6,0.2-1.1,0.5-1.6s0.8-0.9,1.5-1.1c0.7-0.2,1.3-0.4,2.2-0.4c0.8,0,1.6,0.1,2.2,0.3
			c0.6,0.2,1.1,0.4,1.6,0.8l0.1,2.5h-1.5l-0.3-1.5c-0.2-0.2-0.5-0.3-0.9-0.4s-0.7-0.1-1.1-0.1c-0.6,0-1.1,0.1-1.5,0.4
			s-0.6,0.7-0.6,1.1c0,0.3,0.1,0.5,0.2,0.7s0.3,0.4,0.7,0.5c0.3,0.2,0.8,0.3,1.4,0.5c1.5,0.4,2.6,0.8,3.2,1.4s0.9,1.3,0.9,2.1
			c0,0.9-0.3,1.7-1,2.4C246.3,46.8,245.2,47.1,243.7,47.1z"/>
		<path d="M253.6,47.1c-0.8,0-1.5-0.2-2-0.7s-0.7-1.3-0.7-2.3v-6.7h-1.8v-1.5h1.8v-2.8h2v2.7h2.4v1.5h-2.4V44c0,0.5,0.1,0.9,0.3,1.2
			s0.5,0.4,0.9,0.4c0.2,0,0.5,0,0.8-0.1c0.3,0,0.5-0.1,0.7-0.1l0.3,1.3c-0.3,0.1-0.7,0.2-1.1,0.2S254,47.1,253.6,47.1z"/>
		<path d="M260.8,47.1c-1.2,0-2-0.3-2.6-0.8c-0.6-0.6-0.9-1.4-0.9-2.4c0-0.7,0.2-1.3,0.6-1.8s0.9-0.9,1.7-1.2s1.6-0.4,2.6-0.4h2
			v-1.1c0-0.7-0.2-1.2-0.6-1.6s-1-0.6-1.7-0.6c-0.5,0-0.9,0.1-1.2,0.2c-0.3,0.1-0.7,0.3-0.9,0.5l-0.2,1.5H258v-2.5
			c0.5-0.4,1.1-0.7,1.7-0.9c0.7-0.2,1.4-0.3,2.2-0.3c1.3,0,2.4,0.3,3.2,1s1.1,1.6,1.1,2.8v5.3c0,0.1,0,0.3,0,0.4s0,0.3,0,0.4
			l1.1,0.1V47h-3c-0.1-0.3-0.1-0.6-0.1-0.8s-0.1-0.5-0.1-0.7c-0.4,0.5-0.9,0.9-1.5,1.2C262.1,46.9,261.5,47.1,260.8,47.1z
			 M261.1,45.4c0.7,0,1.3-0.2,1.8-0.5s1-0.7,1.2-1.2v-2H262c-0.9,0-1.6,0.2-2.1,0.7s-0.7,0.9-0.7,1.5c0,0.5,0.2,0.9,0.5,1.1
			C260,45.3,260.5,45.4,261.1,45.4z"/>
		<path d="M268.8,46.9v-1.3l1.7-0.3v-7.9l-1.7-0.3v-1.3h3.5l0.1,1.7c0.4-0.6,0.8-1,1.4-1.4s1.2-0.5,1.9-0.5c1.2,0,2.1,0.4,2.8,1.1
			c0.7,0.7,1,1.8,1,3.2v5.4l1.7,0.3v1.3h-5.4v-1.3l1.7-0.3v-5.4c0-1-0.2-1.7-0.6-2.1s-1-0.6-1.8-0.6c-0.6,0-1.1,0.1-1.5,0.4
			s-0.8,0.7-1.1,1.1v6.5l1.7,0.3v1.3L268.8,46.9L268.8,46.9z"/>
		<path d="M287.6,47.1c-1,0-1.9-0.2-2.7-0.7c-0.8-0.5-1.3-1.1-1.8-2s-0.6-1.8-0.6-2.9v-0.4c0-1.1,0.2-2,0.7-2.8c0.4-0.8,1-1.5,1.7-2
			s1.5-0.7,2.4-0.7c1,0,1.8,0.2,2.5,0.6s1.2,1,1.5,1.7s0.5,1.6,0.5,2.6v1.3h-7.2v0.1c0,0.7,0.1,1.3,0.4,1.9c0.2,0.6,0.6,1,1,1.3
			s1,0.5,1.6,0.5c0.7,0,1.3-0.1,1.8-0.3c0.5-0.2,1-0.5,1.3-0.8l0.8,1.3c-0.4,0.4-0.9,0.7-1.6,1C289.3,47,288.6,47.1,287.6,47.1z
			 M284.7,40.2h5.1v-0.3c0-0.5-0.1-1-0.3-1.4c-0.2-0.4-0.5-0.8-0.8-1c-0.4-0.2-0.8-0.4-1.4-0.4c-0.5,0-0.9,0.1-1.2,0.4
			s-0.7,0.6-0.9,1.1S284.8,39.6,284.7,40.2L284.7,40.2z"/>
		<path d="M293.4,46.9v-1.3l1.7-0.3v-7.9l-1.7-0.3v-1.3h3.5l0.2,1.4v0.2c0.3-0.6,0.7-1,1.2-1.3s1-0.5,1.6-0.5c0.2,0,0.4,0,0.7,0.1
			c0.2,0,0.4,0.1,0.5,0.1l-0.3,1.9l-1.4-0.1c-0.5,0-1,0.1-1.3,0.4c-0.4,0.3-0.6,0.6-0.8,1.1v6.3l1.7,0.3V47h-5.6V46.9z"/>
		<path d="M305.8,47.1c-1.2,0-2-0.3-2.6-0.8c-0.6-0.6-0.9-1.4-0.9-2.4c0-0.7,0.2-1.3,0.6-1.8s0.9-0.9,1.7-1.2s1.6-0.4,2.6-0.4h2
			v-1.1c0-0.7-0.2-1.2-0.6-1.6s-1-0.6-1.7-0.6c-0.5,0-0.9,0.1-1.2,0.2c-0.3,0.1-0.7,0.3-0.9,0.5l-0.2,1.5H303v-2.5
			c0.5-0.4,1.1-0.7,1.7-0.9c0.7-0.2,1.4-0.3,2.2-0.3c1.3,0,2.4,0.3,3.2,1s1.1,1.6,1.1,2.8v5.3c0,0.1,0,0.3,0,0.4s0,0.3,0,0.4
			l1.1,0.1V47h-3c-0.1-0.3-0.1-0.6-0.1-0.8s-0.1-0.5-0.1-0.7c-0.4,0.5-0.9,0.9-1.5,1.2C307.1,46.9,306.5,47.1,305.8,47.1z
			 M306.1,45.4c0.7,0,1.3-0.2,1.8-0.5s1-0.7,1.2-1.2v-2H307c-0.9,0-1.6,0.2-2.1,0.7s-0.7,0.9-0.7,1.5c0,0.5,0.2,0.9,0.5,1.1
			C305,45.3,305.5,45.4,306.1,45.4z"/>
		<path d="M324,47.1c-1,0-1.9-0.2-2.6-0.7s-1.3-1.1-1.7-2s-0.6-1.8-0.6-2.9v-0.4c0-1.1,0.2-2,0.6-2.8s1-1.5,1.7-2s1.6-0.7,2.7-0.7
			c0.9,0,1.7,0.1,2.4,0.4s1.2,0.7,1.7,1.2l0.1,2.7h-1.6l-0.3-1.9c-0.2-0.2-0.5-0.4-0.9-0.6s-0.8-0.2-1.2-0.2c-0.6,0-1.1,0.2-1.6,0.5
			c-0.5,0.4-0.8,0.8-1.1,1.4s-0.4,1.3-0.4,2v0.4c0,0.8,0.1,1.5,0.4,2.1c0.2,0.6,0.6,1.1,1,1.4s1,0.5,1.6,0.5c0.7,0,1.3-0.2,1.7-0.6
			s0.7-0.9,0.8-1.5h1.8v0.1c0,0.6-0.2,1.2-0.6,1.8s-0.8,1-1.5,1.3C325.7,46.9,325,47.1,324,47.1z"/>
		<path d="M335,47.1c-1,0-1.9-0.2-2.7-0.7c-0.8-0.5-1.3-1.1-1.8-2s-0.6-1.8-0.6-2.9v-0.4c0-1.1,0.2-2,0.7-2.8c0.4-0.8,1-1.5,1.7-2
			s1.5-0.7,2.4-0.7c1,0,1.8,0.2,2.5,0.6s1.2,1,1.5,1.7s0.5,1.6,0.5,2.6v1.3H332v0.1c0,0.7,0.1,1.3,0.4,1.9c0.2,0.6,0.6,1,1,1.3
			s1,0.5,1.6,0.5c0.7,0,1.3-0.1,1.8-0.3c0.5-0.2,1-0.5,1.3-0.8l0.8,1.3c-0.4,0.4-0.9,0.7-1.6,1C336.7,47,335.9,47.1,335,47.1z
			 M332.1,40.2h5.1v-0.3c0-0.5-0.1-1-0.3-1.4c-0.2-0.4-0.5-0.8-0.8-1c-0.4-0.2-0.8-0.4-1.4-0.4c-0.5,0-0.9,0.1-1.2,0.4
			s-0.7,0.6-0.9,1.1S332.2,39.6,332.1,40.2L332.1,40.2z"/>
		<path d="M340.8,46.9v-1.3l1.7-0.3v-7.9l-1.7-0.3v-1.3h3.5l0.1,1.7c0.4-0.6,0.8-1,1.4-1.4s1.2-0.5,1.9-0.5c1.2,0,2.1,0.4,2.8,1.1
			c0.7,0.7,1,1.8,1,3.2v5.4l1.7,0.3v1.3h-5.4v-1.3l1.7-0.3v-5.4c0-1-0.2-1.7-0.6-2.1s-1-0.6-1.8-0.6c-0.6,0-1.1,0.1-1.5,0.4
			s-0.8,0.7-1.1,1.1v6.5l1.7,0.3v1.3L340.8,46.9L340.8,46.9z"/>
		<path d="M358.5,47.1c-0.8,0-1.5-0.2-2-0.7s-0.7-1.3-0.7-2.3v-6.7H354v-1.5h1.8v-2.8h2v2.7h2.4v1.5h-2.4V44c0,0.5,0.1,0.9,0.3,1.2
			s0.5,0.4,0.9,0.4c0.2,0,0.5,0,0.8-0.1c0.3,0,0.5-0.1,0.7-0.1l0.3,1.3c-0.3,0.1-0.7,0.2-1.1,0.2S358.9,47.1,358.5,47.1z"/>
		<path d="M367.1,47.1c-1,0-1.9-0.2-2.7-0.7c-0.8-0.5-1.3-1.1-1.8-2s-0.6-1.8-0.6-2.9v-0.4c0-1.1,0.2-2,0.7-2.8c0.4-0.8,1-1.5,1.7-2
			s1.5-0.7,2.4-0.7c1,0,1.8,0.2,2.5,0.6s1.2,1,1.5,1.7s0.5,1.6,0.5,2.6v1.3h-7.2v0.1c0,0.7,0.1,1.3,0.4,1.9c0.2,0.6,0.6,1,1,1.3
			s1,0.5,1.6,0.5c0.7,0,1.3-0.1,1.8-0.3c0.5-0.2,1-0.5,1.3-0.8l0.8,1.3c-0.4,0.4-0.9,0.7-1.6,1C368.8,47,368.1,47.1,367.1,47.1z
			 M364.2,40.2h5.1v-0.3c0-0.5-0.1-1-0.3-1.4c-0.2-0.4-0.5-0.8-0.8-1c-0.4-0.2-0.8-0.4-1.4-0.4c-0.5,0-0.9,0.1-1.2,0.4
			s-0.7,0.6-0.9,1.1S364.3,39.6,364.2,40.2L364.2,40.2z"/>
		<path d="M372.9,46.9v-1.3l1.7-0.3v-7.9l-1.7-0.3v-1.3h3.5l0.2,1.4v0.2c0.3-0.6,0.7-1,1.2-1.3s1-0.5,1.6-0.5c0.2,0,0.4,0,0.7,0.1
			c0.2,0,0.4,0.1,0.5,0.1l-0.3,1.9l-1.4-0.1c-0.5,0-1,0.1-1.3,0.4c-0.4,0.3-0.6,0.6-0.8,1.1v6.3l1.7,0.3V47h-5.6V46.9z"/>
	</g>
</g>
<g>
	<g>
		<path d="M535.5,47.1c-1.5,0-2.7-0.3-3.7-1s-1.8-1.6-2.3-2.7s-0.8-2.4-0.8-3.9v-0.2c0-1.5,0.3-2.8,0.8-3.9s1.3-2,2.3-2.7
			c1-0.7,2.2-1,3.5-1c1,0,1.8,0.2,2.6,0.5c0.8,0.3,1.5,0.7,2,1.1v3.2h-1.6l-0.2-2.4c-0.2-0.2-0.5-0.3-0.8-0.4s-0.6-0.2-0.9-0.3
			s-0.7-0.1-1.1-0.1c-1,0-1.8,0.3-2.5,0.8s-1.2,1.2-1.5,2.1s-0.5,1.9-0.5,3.1v0.2c0,1.3,0.2,2.3,0.6,3.2s0.9,1.6,1.6,2
			c0.7,0.5,1.6,0.7,2.6,0.7c0.5,0,0.9-0.1,1.4-0.2s0.8-0.3,1.1-0.5l0.2-2.1h1.6v3.2c-0.6,0.3-1.2,0.6-2,0.8
			C537.1,47,536.3,47.1,535.5,47.1z"/>
		<path d="M546.9,47.1c-1,0-1.9-0.2-2.7-0.7s-1.3-1.1-1.8-2s-0.6-1.8-0.6-2.9v-0.4c0-1.1,0.2-2,0.7-2.8c0.4-0.8,1-1.5,1.7-2
			s1.5-0.7,2.4-0.7c1,0,1.8,0.2,2.5,0.6s1.2,1,1.5,1.7s0.5,1.6,0.5,2.6v1.3h-7.2v0.1c0,0.7,0.1,1.3,0.4,1.9c0.2,0.6,0.6,1,1,1.3
			s1,0.5,1.6,0.5c0.7,0,1.3-0.1,1.8-0.3c0.5-0.2,1-0.5,1.3-0.8l0.8,1.3c-0.4,0.4-0.9,0.7-1.6,1C548.6,47,547.8,47.1,546.9,47.1z
			 M544,40.2h5.1v-0.3c0-0.5-0.1-1-0.3-1.4s-0.5-0.8-0.8-1c-0.4-0.2-0.8-0.4-1.4-0.4c-0.5,0-0.9,0.1-1.2,0.4s-0.7,0.6-0.9,1.1
			S544.1,39.6,544,40.2L544,40.2z"/>
		<path d="M552.7,46.9v-1.3l1.7-0.3v-7.9l-1.7-0.3v-1.3h3.5l0.2,1.4v0.2c0.3-0.6,0.7-1,1.2-1.3s1-0.5,1.6-0.5c0.2,0,0.4,0,0.7,0.1
			c0.2,0,0.4,0.1,0.5,0.1l-0.3,1.9l-1.4-0.1c-0.5,0-1,0.1-1.3,0.4c-0.4,0.3-0.6,0.6-0.8,1.1v6.3l1.7,0.3V47h-5.6V46.9z"/>
		<path d="M561.5,46.9v-1.3l1.7-0.3v-7.9l-1.7-0.3v-1.3h3.5l0.2,1.4v0.2c0.3-0.6,0.7-1,1.2-1.3s1-0.5,1.6-0.5c0.2,0,0.4,0,0.7,0.1
			c0.2,0,0.4,0.1,0.5,0.1l-0.3,1.9l-1.4-0.1c-0.5,0-1,0.1-1.3,0.4c-0.4,0.3-0.6,0.6-0.8,1.1v6.3l1.7,0.3V47h-5.6V46.9z"/>
		<path d="M575.3,47.1c-1,0-1.9-0.2-2.7-0.7c-0.7-0.5-1.3-1.1-1.7-2s-0.6-1.8-0.6-2.9v-0.2c0-1.1,0.2-2.1,0.6-2.9
			c0.4-0.9,1-1.5,1.7-2s1.6-0.7,2.6-0.7s1.9,0.2,2.7,0.7c0.7,0.5,1.3,1.2,1.7,2s0.6,1.8,0.6,2.9v0.2c0,1.1-0.2,2.1-0.6,2.9
			c-0.4,0.9-1,1.5-1.7,2S576.3,47.1,575.3,47.1z M575.3,45.5c0.6,0,1.2-0.2,1.6-0.5s0.8-0.8,1-1.4s0.3-1.3,0.3-2.1v-0.2
			c0-0.8-0.1-1.5-0.3-2.1s-0.6-1.1-1-1.4c-0.4-0.4-1-0.5-1.6-0.5s-1.2,0.2-1.6,0.5c-0.4,0.4-0.8,0.8-1,1.4s-0.3,1.3-0.3,2.1v0.2
			c0,0.8,0.1,1.5,0.3,2.1s0.5,1.1,1,1.4C574.1,45.3,574.6,45.5,575.3,45.5z"/>
		<path d="M592.4,47.1c-0.9,0-1.8-0.1-2.6-0.4s-1.6-0.7-2.4-1.2v-3.2h1.6l0.3,2.3c0.4,0.3,0.9,0.5,1.4,0.6s1.1,0.2,1.7,0.2
			c0.7,0,1.3-0.1,1.7-0.3c0.5-0.2,0.8-0.5,1.1-0.9s0.4-0.8,0.4-1.3s-0.1-0.9-0.3-1.2s-0.6-0.7-1.1-0.9c-0.5-0.3-1.2-0.5-2.1-0.7
			c-1-0.2-1.9-0.6-2.6-1c-0.7-0.4-1.2-0.9-1.6-1.5c-0.4-0.6-0.5-1.2-0.5-2s0.2-1.5,0.6-2.1c0.4-0.6,1-1.1,1.7-1.5
			c0.7-0.4,1.6-0.5,2.6-0.5s2,0.2,2.8,0.5c0.8,0.3,1.5,0.7,2,1.2v3h-1.6l-0.3-2.1c-0.3-0.2-0.7-0.5-1.1-0.6s-1-0.2-1.7-0.2
			c-0.6,0-1.1,0.1-1.5,0.3c-0.4,0.2-0.8,0.5-1,0.8s-0.4,0.8-0.4,1.3c0,0.4,0.1,0.8,0.3,1.1s0.6,0.6,1.1,0.8c0.5,0.2,1.2,0.5,2,0.7
			c1.6,0.4,2.8,1,3.6,1.7c0.8,0.8,1.2,1.7,1.2,2.8c0,0.8-0.2,1.5-0.6,2.1c-0.4,0.6-1,1.1-1.8,1.5C594.4,46.9,593.5,47.1,592.4,47.1z
			"/>
		<path d="M602.9,47.1c-1.2,0-2-0.3-2.6-0.8c-0.6-0.6-0.9-1.4-0.9-2.4c0-0.7,0.2-1.3,0.6-1.8c0.4-0.5,0.9-0.9,1.7-1.2
			s1.6-0.4,2.6-0.4h2v-1.1c0-0.7-0.2-1.2-0.6-1.6s-1-0.6-1.7-0.6c-0.5,0-0.9,0.1-1.2,0.2s-0.7,0.3-0.9,0.5l-0.2,1.5h-1.6v-2.5
			c0.5-0.4,1.1-0.7,1.7-0.9c0.7-0.2,1.4-0.3,2.2-0.3c1.3,0,2.4,0.3,3.2,1s1.1,1.6,1.1,2.8v5.3c0,0.1,0,0.3,0,0.4s0,0.3,0,0.4
			l1.1,0.1V47h-2.9c-0.1-0.3-0.1-0.6-0.1-0.8s-0.1-0.5-0.1-0.7c-0.4,0.5-0.9,0.9-1.5,1.2C604.2,46.9,603.6,47.1,602.9,47.1z
			 M603.2,45.4c0.7,0,1.3-0.2,1.8-0.5s1-0.7,1.2-1.2v-2h-2.1c-0.9,0-1.6,0.2-2.1,0.7s-0.7,0.9-0.7,1.5c0,0.5,0.2,0.9,0.5,1.1
			C602.2,45.3,602.6,45.4,603.2,45.4z"/>
		<path d="M611,46.9v-1.3l1.7-0.3v-7.9l-1.7-0.3v-1.3h3.5l0.1,1.7c0.4-0.6,0.8-1,1.4-1.4s1.2-0.5,1.9-0.5c1.2,0,2.1,0.4,2.8,1.1
			s1,1.8,1,3.2v5.4l1.7,0.3v1.3H618v-1.3l1.7-0.3v-5.4c0-1-0.2-1.7-0.6-2.1c-0.4-0.4-1-0.6-1.8-0.6c-0.6,0-1.1,0.1-1.5,0.4
			s-0.8,0.7-1.1,1.1v6.5l1.7,0.3v1.3L611,46.9L611,46.9z"/>
		<path d="M628.7,47.1c-0.8,0-1.5-0.2-2-0.7s-0.7-1.3-0.7-2.3v-6.7h-1.8v-1.5h1.8v-2.8h2v2.7h2.4v1.5H628V44c0,0.5,0.1,0.9,0.3,1.2
			s0.5,0.4,0.9,0.4c0.2,0,0.5,0,0.8-0.1c0.3,0,0.5-0.1,0.7-0.1l0.3,1.3c-0.3,0.1-0.7,0.2-1.1,0.2S629,47.1,628.7,47.1z"/>
		<path d="M635.8,47.1c-1.2,0-2-0.3-2.6-0.8c-0.6-0.6-0.9-1.4-0.9-2.4c0-0.7,0.2-1.3,0.6-1.8c0.4-0.5,0.9-0.9,1.7-1.2
			s1.6-0.4,2.6-0.4h2v-1.1c0-0.7-0.2-1.2-0.6-1.6s-1-0.6-1.7-0.6c-0.5,0-0.9,0.1-1.2,0.2s-0.7,0.3-0.9,0.5l-0.2,1.5H633v-2.5
			c0.5-0.4,1.1-0.7,1.7-0.9c0.7-0.2,1.4-0.3,2.2-0.3c1.3,0,2.4,0.3,3.2,1s1.1,1.6,1.1,2.8v5.3c0,0.1,0,0.3,0,0.4s0,0.3,0,0.4
			l1.1,0.1V47h-2.9c-0.1-0.3-0.1-0.6-0.1-0.8s-0.1-0.5-0.1-0.7c-0.4,0.5-0.9,0.9-1.5,1.2C637.1,46.9,636.5,47.1,635.8,47.1z
			 M636.1,45.4c0.7,0,1.3-0.2,1.8-0.5s1-0.7,1.2-1.2v-2H637c-0.9,0-1.6,0.2-2.1,0.7s-0.7,0.9-0.7,1.5c0,0.5,0.2,0.9,0.5,1.1
			C635,45.3,635.5,45.4,636.1,45.4z"/>
		<path d="M649.1,46.9v-1.3l1.7-0.3V33.5l-1.7-0.3v-1.3h1.7h2h1.7v1.3l-1.7,0.3v11.8h5.3l0.2-2.4h1.5v3.9L649.1,46.9L649.1,46.9z"/>
		<path d="M666.3,47.1c-1.2,0-2.1-0.4-2.8-1.2s-1-2-1-3.6v-5l-1.3-0.3v-1.3h1.3h2v6.6c0,1.2,0.2,2,0.5,2.4s0.9,0.7,1.6,0.7
			c0.7,0,1.3-0.1,1.8-0.4s0.8-0.7,1.1-1.2v-6.4l-1.5-0.3v-1.3h1.5h2v9.5l1.3,0.3v1.3h-3.1l-0.1-1.6c-0.3,0.6-0.8,1.1-1.3,1.4
			C667.7,46.9,667.1,47.1,666.3,47.1z"/>
		<path d="M679.2,47.1c-1,0-1.9-0.2-2.6-0.7c-0.7-0.5-1.3-1.1-1.7-2s-0.6-1.8-0.6-2.9v-0.4c0-1.1,0.2-2,0.6-2.8s1-1.5,1.7-2
			s1.6-0.7,2.7-0.7c0.9,0,1.7,0.1,2.4,0.4s1.2,0.7,1.7,1.2l0.1,2.7h-1.6l-0.3-1.9c-0.2-0.2-0.5-0.4-0.9-0.6s-0.8-0.2-1.2-0.2
			c-0.6,0-1.1,0.2-1.6,0.5c-0.5,0.4-0.8,0.8-1.1,1.4s-0.4,1.3-0.4,2v0.4c0,0.8,0.1,1.5,0.4,2.1c0.2,0.6,0.6,1.1,1,1.4s1,0.5,1.6,0.5
			c0.7,0,1.3-0.2,1.7-0.6s0.7-0.9,0.8-1.5h1.8v0.1c0,0.6-0.2,1.2-0.6,1.8s-0.8,1-1.5,1.3C680.9,46.9,680.2,47.1,679.2,47.1z"/>
		<path d="M685.1,46.9v-1.3l1.7-0.3v-7.9l-1.7-0.3v-1.3h3.7v9.5l1.7,0.3v1.3L685.1,46.9L685.1,46.9z M686.5,33.7l1.9-2.8h2.4V31
			l-2.8,2.7L686.5,33.7L686.5,33.7z"/>
		<path d="M695.4,47.1c-1.2,0-2-0.3-2.6-0.8c-0.6-0.6-0.9-1.4-0.9-2.4c0-0.7,0.2-1.3,0.6-1.8c0.4-0.5,0.9-0.9,1.7-1.2
			s1.6-0.4,2.6-0.4h2v-1.1c0-0.7-0.2-1.2-0.6-1.6s-1-0.6-1.7-0.6c-0.5,0-0.9,0.1-1.2,0.2s-0.7,0.3-0.9,0.5l-0.2,1.5h-1.6v-2.5
			c0.5-0.4,1.1-0.7,1.7-0.9c0.7-0.2,1.4-0.3,2.2-0.3c1.3,0,2.4,0.3,3.2,1s1.1,1.6,1.1,2.8v5.3c0,0.1,0,0.3,0,0.4s0,0.3,0,0.4
			l1.1,0.1V47H699c-0.1-0.3-0.1-0.6-0.1-0.8s-0.1-0.5-0.1-0.7c-0.4,0.5-0.9,0.9-1.5,1.2C696.7,46.9,696.1,47.1,695.4,47.1z
			 M695.7,45.4c0.7,0,1.3-0.2,1.8-0.5s1-0.7,1.2-1.2v-2h-2.1c-0.9,0-1.6,0.2-2.1,0.7s-0.7,0.9-0.7,1.5c0,0.5,0.2,0.9,0.5,1.1
			C694.7,45.3,695.1,45.4,695.7,45.4z"/>
	</g>
</g>
<g>
	<g>
		<path d="M1275.7,46.9l-5-13.5l-1.2-0.2v-1.3h4.7v1.3l-1.4,0.2l3.3,9.5l0.3,1.2h0.1l0.4-1.2l3.5-9.5l-1.5-0.2v-1.3h4.7v1.3
			l-1.2,0.2l-5,13.5H1275.7z"/>
		<path d="M1290.1,47.1c-1,0-1.9-0.2-2.7-0.7c-0.7-0.5-1.3-1.1-1.7-2c-0.4-0.9-0.6-1.8-0.6-2.9v-0.2c0-1.1,0.2-2.1,0.6-2.9
			c0.4-0.9,1-1.5,1.7-2s1.6-0.7,2.6-0.7s1.9,0.2,2.7,0.7c0.7,0.5,1.3,1.2,1.7,2s0.6,1.8,0.6,2.9v0.2c0,1.1-0.2,2.1-0.6,2.9
			c-0.4,0.9-1,1.5-1.7,2S1291.1,47.1,1290.1,47.1z M1290.1,45.5c0.6,0,1.2-0.2,1.6-0.5c0.4-0.4,0.8-0.8,1-1.4s0.3-1.3,0.3-2.1v-0.2
			c0-0.8-0.1-1.5-0.3-2.1c-0.2-0.6-0.6-1.1-1-1.4c-0.4-0.4-1-0.5-1.6-0.5s-1.2,0.2-1.6,0.5c-0.4,0.4-0.8,0.8-1,1.4s-0.3,1.3-0.3,2.1
			v0.2c0,0.8,0.1,1.5,0.3,2.1c0.2,0.6,0.5,1.1,1,1.4C1288.9,45.3,1289.4,45.5,1290.1,45.5z"/>
		<path d="M1296.5,46.9v-1.3l1.7-0.3V32.5l-1.7-0.3v-1.3h3.7v14.4l1.7,0.3v1.3L1296.5,46.9L1296.5,46.9z"/>
		<path d="M1308.3,47.1c-1,0-1.9-0.2-2.6-0.7s-1.3-1.1-1.7-2s-0.6-1.8-0.6-2.9v-0.4c0-1.1,0.2-2,0.6-2.8s1-1.5,1.7-2
			s1.6-0.7,2.7-0.7c0.9,0,1.7,0.1,2.4,0.4c0.7,0.3,1.2,0.7,1.7,1.2l0.1,2.7h-1.6l-0.3-1.9c-0.2-0.2-0.5-0.4-0.9-0.6
			s-0.8-0.2-1.2-0.2c-0.6,0-1.1,0.2-1.6,0.5c-0.5,0.4-0.8,0.8-1.1,1.4s-0.4,1.3-0.4,2v0.4c0,0.8,0.1,1.5,0.4,2.1
			c0.2,0.6,0.6,1.1,1,1.4s1,0.5,1.6,0.5c0.7,0,1.3-0.2,1.7-0.6s0.7-0.9,0.8-1.5h1.8v0.1c0,0.6-0.2,1.2-0.6,1.8s-0.8,1-1.5,1.3
			C1310,46.9,1309.2,47.1,1308.3,47.1z"/>
		<path d="M1317.8,47.1c-1.2,0-2-0.3-2.6-0.8c-0.6-0.6-0.9-1.4-0.9-2.4c0-0.7,0.2-1.3,0.6-1.8s0.9-0.9,1.7-1.2s1.6-0.4,2.6-0.4h2
			v-1.1c0-0.7-0.2-1.2-0.6-1.6s-1-0.6-1.7-0.6c-0.5,0-0.9,0.1-1.2,0.2c-0.3,0.1-0.7,0.3-0.9,0.5l-0.2,1.5h-1.6v-2.5
			c0.5-0.4,1.1-0.7,1.7-0.9c0.7-0.2,1.4-0.3,2.2-0.3c1.3,0,2.4,0.3,3.2,1s1.1,1.6,1.1,2.8v5.3c0,0.1,0,0.3,0,0.4s0,0.3,0,0.4
			l1.1,0.1V47h-2.9c-0.1-0.3-0.1-0.6-0.1-0.8s-0.1-0.5-0.1-0.7c-0.4,0.5-0.9,0.9-1.5,1.2C1319.1,46.9,1318.5,47.1,1317.8,47.1z
			 M1318.1,45.4c0.7,0,1.3-0.2,1.8-0.5s1-0.7,1.2-1.2v-2h-2.1c-0.9,0-1.6,0.2-2.1,0.7s-0.7,0.9-0.7,1.5c0,0.5,0.2,0.9,0.5,1.1
			C1317.1,45.3,1317.5,45.4,1318.1,45.4z M1317.7,33.7l1.9-2.8h2.4V31l-2.8,2.7L1317.7,33.7L1317.7,33.7z"/>
		<path d="M1325.8,46.9v-1.3l1.7-0.3v-7.9l-1.7-0.3v-1.3h3.5l0.1,1.7c0.4-0.6,0.8-1,1.4-1.4c0.6-0.3,1.2-0.5,1.9-0.5
			c1.2,0,2.1,0.4,2.8,1.1c0.7,0.7,1,1.8,1,3.2v5.4l1.7,0.3v1.3h-5.4v-1.3l1.7-0.3v-5.4c0-1-0.2-1.7-0.6-2.1s-1-0.6-1.8-0.6
			c-0.6,0-1.1,0.1-1.5,0.4s-0.8,0.7-1.1,1.1v6.5l1.7,0.3v1.3L1325.8,46.9L1325.8,46.9z"/>
		<path d="M1351.7,47.1c-1.5,0-2.7-0.3-3.7-1s-1.8-1.6-2.3-2.7s-0.8-2.4-0.8-3.9v-0.2c0-1.5,0.3-2.8,0.8-3.9s1.3-2,2.3-2.7
			c1-0.7,2.2-1,3.5-1c1,0,1.8,0.2,2.6,0.5c0.8,0.3,1.5,0.7,2,1.1v3.2h-1.6l-0.2-2.4c-0.2-0.2-0.5-0.3-0.8-0.4s-0.6-0.2-0.9-0.3
			c-0.3-0.1-0.7-0.1-1.1-0.1c-1,0-1.8,0.3-2.5,0.8s-1.2,1.2-1.5,2.1s-0.5,1.9-0.5,3.1v0.2c0,1.3,0.2,2.3,0.6,3.2
			c0.4,0.9,0.9,1.6,1.6,2c0.7,0.5,1.6,0.7,2.6,0.7c0.5,0,0.9-0.1,1.4-0.2s0.8-0.3,1.1-0.5l0.2-2.1h1.6v3.2c-0.6,0.3-1.2,0.6-2,0.8
			C1353.3,47,1352.5,47.1,1351.7,47.1z"/>
		<path d="M1357.8,46.9v-1.3l1.7-0.3V32.5l-1.7-0.3v-1.3h3.7v6.4c0.4-0.5,0.9-0.9,1.4-1.2s1.2-0.4,1.8-0.4c1.2,0,2.1,0.4,2.8,1.1
			s1,1.8,1,3.3v5.4l1.7,0.3v1.3h-5.4v-1.3l1.7-0.3v-5.4c0-0.9-0.2-1.6-0.6-2s-1-0.7-1.8-0.7c-0.6,0-1.1,0.1-1.5,0.4
			c-0.5,0.3-0.8,0.6-1.1,1.1v6.6l1.7,0.3v1.3h-5.4V46.9z"/>
		<path d="M1375.1,47.1c-1.2,0-2-0.3-2.6-0.8c-0.6-0.6-0.9-1.4-0.9-2.4c0-0.7,0.2-1.3,0.6-1.8s0.9-0.9,1.7-1.2s1.6-0.4,2.6-0.4h2
			v-1.1c0-0.7-0.2-1.2-0.6-1.6s-1-0.6-1.7-0.6c-0.5,0-0.9,0.1-1.2,0.2c-0.3,0.1-0.7,0.3-0.9,0.5l-0.2,1.5h-1.6v-2.5
			c0.5-0.4,1.1-0.7,1.7-0.9c0.7-0.2,1.4-0.3,2.2-0.3c1.3,0,2.4,0.3,3.2,1s1.1,1.6,1.1,2.8v5.3c0,0.1,0,0.3,0,0.4s0,0.3,0,0.4
			l1.1,0.1V47h-2.9c-0.1-0.3-0.1-0.6-0.1-0.8s-0.1-0.5-0.1-0.7c-0.4,0.5-0.9,0.9-1.5,1.2C1376.4,46.9,1375.8,47.1,1375.1,47.1z
			 M1375.4,45.4c0.7,0,1.3-0.2,1.8-0.5s1-0.7,1.2-1.2v-2h-2.1c-0.9,0-1.6,0.2-2.1,0.7s-0.7,0.9-0.7,1.5c0,0.5,0.2,0.9,0.5,1.1
			C1374.4,45.3,1374.8,45.4,1375.4,45.4z"/>
		<path d="M1383.1,46.9v-1.3l1.7-0.3v-7.9l-1.7-0.3v-1.3h3.7v9.5l1.7,0.3v1.3L1383.1,46.9L1383.1,46.9z M1384.6,33.1v-2.2h2.1v2.2
			H1384.6z"/>
		<path d="M1393.8,47.1c-0.8,0-1.5-0.2-2-0.7s-0.7-1.3-0.7-2.3v-6.7h-1.8v-1.5h1.8v-2.8h2v2.7h2.4v1.5h-2.4V44
			c0,0.5,0.1,0.9,0.3,1.2s0.5,0.4,0.9,0.4c0.2,0,0.5,0,0.8-0.1c0.3,0,0.5-0.1,0.7-0.1l0.3,1.3c-0.3,0.1-0.7,0.2-1.1,0.2
			C1394.5,47,1394.1,47.1,1393.8,47.1z"/>
		<path d="M1402.4,47.1c-1,0-1.9-0.2-2.7-0.7c-0.8-0.5-1.3-1.1-1.8-2c-0.4-0.8-0.6-1.8-0.6-2.9v-0.4c0-1.1,0.2-2,0.7-2.8
			c0.4-0.8,1-1.5,1.7-2s1.5-0.7,2.4-0.7c1,0,1.8,0.2,2.5,0.6s1.2,1,1.5,1.7s0.5,1.6,0.5,2.6v1.3h-7.2v0.1c0,0.7,0.1,1.3,0.4,1.9
			c0.2,0.6,0.6,1,1,1.3s1,0.5,1.6,0.5c0.7,0,1.3-0.1,1.8-0.3c0.5-0.2,1-0.5,1.3-0.8l0.8,1.3c-0.4,0.4-0.9,0.7-1.6,1
			C1404.1,47,1403.3,47.1,1402.4,47.1z M1399.5,40.2h5.1v-0.3c0-0.5-0.1-1-0.3-1.4c-0.2-0.4-0.5-0.8-0.8-1c-0.4-0.2-0.8-0.4-1.4-0.4
			c-0.5,0-0.9,0.1-1.2,0.4s-0.7,0.6-0.9,1.1S1399.5,39.6,1399.5,40.2L1399.5,40.2z M1400.8,33.7l1.9-2.8h2.4V31l-2.8,2.7
			L1400.8,33.7L1400.8,33.7z"/>
		<path d="M1408.2,46.9v-1.3l1.7-0.3v-7.9l-1.7-0.3v-1.3h3.5l0.1,1.7c0.4-0.6,0.8-1,1.4-1.4c0.6-0.3,1.2-0.5,1.9-0.5
			c1.2,0,2.1,0.4,2.8,1.1c0.7,0.7,1,1.8,1,3.2v5.4l1.7,0.3v1.3h-5.4v-1.3l1.7-0.3v-5.4c0-1-0.2-1.7-0.6-2.1s-1-0.6-1.8-0.6
			c-0.6,0-1.1,0.1-1.5,0.4s-0.8,0.7-1.1,1.1v6.5l1.7,0.3v1.3L1408.2,46.9L1408.2,46.9z"/>
	</g>
</g>
</svg>
