<?xml version="1.0" encoding="utf-8"?>
<!-- Generator: Adobe Illustrator 26.0.1, SVG Export Plug-In . SVG Version: 6.00 Build 0)  -->
<svg version="1.1" id="Capa_1" xmlns="http://www.w3.org/2000/svg" xmlns:xlink="http://www.w3.org/1999/xlink" x="0px" y="0px"
	 viewBox="0 0 1920 1080" style="enable-background:new 0 0 1920 1080;" xml:space="preserve">
<style type="text/css">
	.st0{fill:#7A7163;}
	.st1{fill:#3C3832;}
	.st2{fill:none;stroke:#4D4D4D;stroke-miterlimit:10;}
	.st3{fill:none;stroke:#4D4D4D;stroke-miterlimit:10;stroke-dasharray:5.9962,5.9962;}
	.st4{fill:none;stroke:#4D4D4D;stroke-miterlimit:10;stroke-dasharray:5.9488,5.9488;}
	.st5{fill:none;stroke:#4D4D4D;stroke-miterlimit:10;stroke-dasharray:6.0374,6.0374;}
	.st6{fill:#63605B;}
	.st7{fill:#8A8884;}
	.st8{fill:#A74F33;}
	.st9{fill:#494541;}
	.st10{fill:none;stroke:#4D4D4D;stroke-miterlimit:10;stroke-dasharray:6;}
</style>
<path class="st0" d="M300.4,648.2c2.7,14.2,2.7,80,2.7,80h-13.4l0.1-9.6c-0.7-51.1,2.2-70.1,2.2-70.1l0.2,0.1l0.5,1.4l0,0.7l0.4-0.2
	l0.1-1.8l0.3-0.8h4.7l0.2,2.4l0.7,0.1l0,1.6l1-1.5l-0.1-2.3L300.4,648.2z"/>
<path class="st1" d="M950.1,651.5l96.3-61.6l22-3.2l18.7-24.5l9-7.1h17.4l76.9-56.1l11.6-7.9l17.9-17.4l20.9-4.7l15.5-3.2l22,7.9
	h20.7l20,11.1l10.3,2.4l14.2,1.6l56.2-27.1l21.3-14.5h25.2l25.2-12.1h26.5l43.9,18.2l77.5,71.9l14.9,1.6l77.5,71.9
	c0,0,27.7,26.8,32.3,43.5c1.5,5.3,52,33.3,60.7,34.5c15.3,2.2,20.5,51.7,20.5,51.7l-153.7-0.3L1493.2,688l-288.5,39.9L917,728.9l0,0
	l12.4-50.5L950.1,651.5z"/>
<g>
	<g>
		<line class="st2" x1="190.2" y1="435" x2="193.2" y2="435"/>
		<line class="st3" x1="199.2" y1="435" x2="1479.4" y2="435"/>
		<line class="st2" x1="1482.4" y1="435" x2="1485.4" y2="435"/>
	</g>
</g>
<g>
	<g>
		<line class="st2" x1="190.2" y1="647.9" x2="193.2" y2="647.9"/>
		<line class="st4" x1="199.2" y1="647.9" x2="446.1" y2="647.9"/>
		<line class="st2" x1="449" y1="647.9" x2="452" y2="647.9"/>
	</g>
</g>
<line class="st2" x1="190.2" y1="728.2" x2="1869.9" y2="728.2"/>
<path class="st0" d="M415.9,726.7c0,0,1.2-22.2,10.3-28.3c9.1-6.1,14.2-12.7,14.2-12.7v-7.6l5.6-4.6v-11.1l6.1-7.6
	c0,0,15.2-18.7,16.7-18.7s8.6-2.5,8.6-2.5l6.6-11.1h10.6c0,0-1,4.6,0,4.6c1,0,6.6-4.6,6.6-4.6l2.5,4.6l8.6-4.6l3.5-11.1l5.1-6.6
	l7.6-10.6l5.1-4.1l5.1,3l5.1-3h6.1l4.8-3.5l5.8-3l5.1-8.1l6.1-2.5l3.5,4.6l2-4.6h4.6l8.1-5.6l4.6,2.5l6.6-19.7l2.5,13.7l6.1-4.1
	l4.6,2.5l11.1-0.5l6.6-3.5l5.1-5.1l6.6-3v7.6l6.1-4.1l5.6-3.5l6.5,5.1l6.6,5.6l-8.1,5.6l2.5,5.1l5.6,2l6.6-1.5l2.5-8.1l3.4,6.1
	l4.7,2v4.6l13.2,3.5l5.1-1.5l5.1,4.1l4.6,3l7.1-1.5l6.1-2.5l5.1,4.6l3,6.1l5.1,3.5l8.6,6.6l5.1,6.1c0,0,14.2-1,15.7,2
	c1.5,3,10.6,8.1,10.6,8.1l8.1,3.5l11.1,3.5l6.6,12.7l12.2,2.5l4.6,5.1l2.5,17.1l15.2,14.2l7.1,14.2l3.5,23.3l14.2,8.7l3.2,5.6
	L415.9,726.7z"/>
<g>
	<g>
		<line class="st2" x1="190.2" y1="550.1" x2="193.2" y2="550.1"/>
		<line class="st5" x1="199.3" y1="550.1" x2="1113.9" y2="550.1"/>
		<line class="st2" x1="1117" y1="550.1" x2="1120" y2="550.1"/>
	</g>
</g>
<path class="st6" d="M1204.7,727.9l6.8-50.2c0,0,36.1-62.4,60.4-66.3c24.4-3.9,40.9-4.9,40.9-4.9l23.4-24.7l19.5-10.4l30.2-8.8
	l34.1-27.3l23.4-47.8l14.5-35.5h59.6c0,0,31.2,61.9,31.2,70.6c0,8.8,16.6,48.7,16.6,48.7l50.7,30.2l26.3,57.5l29.2,24.4v44.3
	l-172.5-11.2L1204.7,727.9z"/>
<path class="st7" d="M1517.6,452.2c14.6,19.9,17.6,266.9,17.6,266.9l-36.1-2.3l-46.7,1.8c-13.2-149.1,5.6-266.3,5.6-266.3H1517.6z"
	/>
<path class="st8" d="M1473.7,458.5c0,0-16.8,85.3,0,250.5h42.9c0,0,1.4-179.4-9.7-250.5H1473.7z"/>
<polygon class="st9" points="929.4,678.4 1211.6,677.8 1204.7,727.9 917,728.9 "/>
<path class="st9" d="M1814.5,685.5c0,0-79.6,1.5-142.9-1.9v44.3l153.7,0.3C1825.3,728.2,1821.6,689.2,1814.5,685.5z"/>
<g>
	<g>
		<path d="M52.6,657.4V656l4.9-5.4c0.6-0.6,1-1.2,1.4-1.7c0.3-0.5,0.6-0.9,0.7-1.3s0.2-0.8,0.2-1.2c0-0.7-0.2-1.4-0.7-1.9
			c-0.5-0.5-1.1-0.8-1.9-0.8c-0.9,0-1.6,0.3-2,0.8s-0.7,1.3-0.7,2.2h-1.9l0-0.1c0-0.9,0.2-1.6,0.5-2.3c0.4-0.7,0.9-1.2,1.7-1.6
			c0.7-0.4,1.6-0.6,2.6-0.6c0.9,0,1.8,0.2,2.4,0.5c0.7,0.4,1.2,0.8,1.6,1.5s0.6,1.3,0.6,2.1c0,0.5-0.1,1.1-0.3,1.6
			c-0.2,0.5-0.5,1.1-0.9,1.7c-0.4,0.6-0.9,1.2-1.5,1.8l-3.9,4.3l0,0.1h5.3l0.2-1.7h1.7v3.3H52.6z"/>
		<path d="M68.5,657.6c-0.5,0-1.1,0-1.6-0.1c-0.5-0.1-1-0.3-1.5-0.5l0.3-1.5c0.4,0.2,0.8,0.3,1.3,0.4c0.4,0.1,0.9,0.1,1.5,0.1
			c1,0,1.7-0.4,2.3-1.1c0.6-0.7,0.9-1.9,0.9-3.6l0-0.1c-0.3,0.5-0.7,0.8-1.1,1.1s-1,0.4-1.7,0.4c-1,0-1.8-0.2-2.5-0.6
			s-1.2-1-1.6-1.8c-0.4-0.8-0.6-1.7-0.6-2.8c0-1,0.2-2,0.6-2.8c0.4-0.8,1-1.4,1.7-1.9c0.7-0.5,1.5-0.7,2.3-0.7c1,0,1.9,0.2,2.7,0.7
			c0.8,0.4,1.3,1.1,1.7,1.9c0.4,0.9,0.6,1.9,0.6,3.2v2.7c0,1.6-0.2,2.8-0.7,3.9s-1.1,1.8-1.8,2.3C70.5,657.3,69.5,657.6,68.5,657.6z
			 M68.8,651.1c0.7,0,1.4-0.2,1.9-0.5c0.5-0.3,0.9-0.7,1.1-1.2v-1.6c0-1.3-0.3-2.3-0.8-3c-0.5-0.7-1.2-1-2.2-1c-0.5,0-1,0.2-1.4,0.5
			c-0.4,0.3-0.7,0.8-1,1.3c-0.2,0.6-0.4,1.2-0.4,1.9c0,0.7,0.1,1.3,0.3,1.9c0.2,0.5,0.5,0.9,0.9,1.2
			C67.8,650.9,68.2,651.1,68.8,651.1z"/>
		<path d="M78.7,657.4l0.2-1.6c0.2-1.6,0.5-3,0.9-4.4s1-2.6,1.7-3.8s1.5-2.4,2.5-3.6h-6.2l-0.2,1.7h-1.7v-3.3h10.1v1.6
			c-0.9,1.1-1.6,2.1-2.2,3c-0.6,0.9-1.1,1.8-1.4,2.7c-0.4,0.9-0.6,1.8-0.8,2.8s-0.4,2-0.5,3.2l-0.2,1.6H78.7z"/>
		<path d="M92.6,657.4v-1.3l1.7-0.3v-7.9l-1.7-0.3v-1.3h3.5l0.1,1.4c0.4-0.5,0.8-0.9,1.4-1.2s1.2-0.4,1.9-0.4s1.4,0.2,1.9,0.5
			s0.9,0.9,1.2,1.5c0.3-0.6,0.8-1.1,1.4-1.5s1.2-0.6,2-0.6c1.1,0,2,0.4,2.7,1.2c0.7,0.8,1,1.9,1,3.5v5.1l1.7,0.3v1.3H106v-1.3
			l1.7-0.3v-5.1c0-1.1-0.2-1.9-0.6-2.3c-0.4-0.5-0.9-0.7-1.7-0.7c-0.7,0-1.3,0.2-1.7,0.7c-0.4,0.5-0.7,1.1-0.7,1.9v5.5l1.7,0.3v1.3
			h-5.4v-1.3l1.7-0.3v-5.1c0-1-0.2-1.8-0.6-2.3c-0.4-0.5-0.9-0.7-1.7-0.7c-0.6,0-1.1,0.1-1.5,0.4s-0.7,0.6-0.9,1.1v6.6l1.7,0.3v1.3
			H92.6z"/>
		<path d="M117.4,657.6c-0.7,0-1.4-0.1-2.1-0.2c-0.6-0.2-1.3-0.4-2.1-0.7l0-2.6h1.5l0.4,1.6c0.4,0.2,0.8,0.3,1.1,0.3
			c0.4,0.1,0.7,0.1,1.2,0.1c0.8,0,1.4-0.2,1.8-0.5s0.5-0.7,0.5-1.2c0-0.4-0.2-0.8-0.5-1.1c-0.4-0.3-1-0.6-2-0.8
			c-1.3-0.3-2.3-0.7-3-1.2c-0.6-0.5-0.9-1.2-0.9-2.1c0-0.6,0.2-1.1,0.5-1.6c0.3-0.5,0.8-0.9,1.5-1.1s1.3-0.4,2.2-0.4
			c0.8,0,1.6,0.1,2.2,0.3c0.6,0.2,1.1,0.4,1.6,0.8l0.1,2.5h-1.5l-0.3-1.5c-0.2-0.2-0.5-0.3-0.9-0.4s-0.7-0.1-1.1-0.1
			c-0.6,0-1.1,0.1-1.5,0.4c-0.4,0.3-0.6,0.7-0.6,1.1c0,0.3,0.1,0.5,0.2,0.7c0.1,0.2,0.3,0.4,0.7,0.5c0.3,0.2,0.8,0.3,1.4,0.5
			c1.5,0.4,2.6,0.8,3.2,1.4c0.6,0.6,0.9,1.3,0.9,2.1c0,0.9-0.3,1.7-1,2.4C120,657.3,118.9,657.6,117.4,657.6z"/>
		<path d="M124.1,657.4v-2.1h2v2.1H124.1z"/>
		<path d="M128.4,657.4v-1.3l1.7-0.3v-7.9l-1.7-0.3v-1.3h3.5l0.1,1.7c0.4-0.6,0.8-1,1.4-1.4c0.6-0.3,1.2-0.5,1.9-0.5
			c1.2,0,2.1,0.4,2.8,1.1c0.7,0.7,1,1.8,1,3.2v5.4l1.7,0.3v1.3h-5.4v-1.3l1.7-0.3v-5.4c0-1-0.2-1.7-0.6-2.1c-0.4-0.4-1-0.6-1.8-0.6
			c-0.6,0-1.1,0.1-1.5,0.4s-0.8,0.7-1.1,1.1v6.5l1.7,0.3v1.3H128.4z"/>
		<path d="M142.9,657.4v-2.1h2v2.1H142.9z"/>
		<path d="M147.2,657.4v-1.3l1.7-0.3v-7.9l-1.7-0.3v-1.3h3.5l0.1,1.4c0.4-0.5,0.8-0.9,1.4-1.2s1.2-0.4,1.9-0.4s1.4,0.2,1.9,0.5
			s0.9,0.9,1.2,1.5c0.3-0.6,0.8-1.1,1.4-1.5s1.2-0.6,2-0.6c1.1,0,2,0.4,2.7,1.2c0.7,0.8,1,1.9,1,3.5v5.1l1.7,0.3v1.3h-5.4v-1.3
			l1.7-0.3v-5.1c0-1.1-0.2-1.9-0.6-2.3c-0.4-0.5-0.9-0.7-1.7-0.7c-0.7,0-1.3,0.2-1.7,0.7c-0.4,0.5-0.7,1.1-0.7,1.9v5.5l1.7,0.3v1.3
			h-5.4v-1.3l1.7-0.3v-5.1c0-1-0.2-1.8-0.6-2.3c-0.4-0.5-0.9-0.7-1.7-0.7c-0.6,0-1.1,0.1-1.5,0.4s-0.7,0.6-0.9,1.1v6.6l1.7,0.3v1.3
			H147.2z"/>
	</g>
</g>
<g>
	<g>
		<path d="M57.9,557.8c-1,0-1.8-0.2-2.6-0.7c-0.8-0.5-1.4-1.2-1.8-2.1s-0.7-2-0.7-3.3v-2c0-1.6,0.2-2.9,0.7-4c0.5-1.1,1.1-1.9,2-2.4
			s1.8-0.8,2.9-0.8c0.5,0,1,0.1,1.5,0.2c0.5,0.1,0.9,0.3,1.2,0.4l-0.4,1.5c-0.3-0.2-0.7-0.3-1.1-0.4c-0.4-0.1-0.8-0.1-1.3-0.1
			c-1,0-1.9,0.4-2.5,1.2c-0.6,0.8-0.9,2-1,3.6l0,0c0.4-0.4,0.9-0.6,1.4-0.8c0.6-0.2,1.2-0.3,1.8-0.3c0.9,0,1.7,0.2,2.3,0.6
			c0.7,0.4,1.2,1,1.5,1.7c0.4,0.7,0.5,1.6,0.5,2.5c0,1-0.2,1.9-0.6,2.7s-0.9,1.4-1.6,1.8S58.9,557.8,57.9,557.8z M57.9,556.2
			c0.6,0,1-0.2,1.4-0.5s0.7-0.8,0.9-1.3c0.2-0.6,0.3-1.2,0.3-1.9c0-1-0.2-1.8-0.7-2.4c-0.5-0.6-1.2-1-2.1-1c-0.5,0-0.9,0.1-1.2,0.2
			c-0.4,0.1-0.7,0.3-1,0.5c-0.3,0.2-0.5,0.5-0.7,0.8v1.2c0,1.4,0.3,2.5,0.9,3.2C56.3,555.8,57.1,556.2,57.9,556.2z"/>
		<path d="M64.4,557.6v-1.4l4.9-5.4c0.6-0.6,1-1.2,1.4-1.7c0.3-0.5,0.6-0.9,0.7-1.3s0.2-0.8,0.2-1.2c0-0.7-0.2-1.4-0.7-1.9
			c-0.5-0.5-1.1-0.8-1.9-0.8c-0.9,0-1.6,0.3-2,0.8s-0.7,1.3-0.7,2.2h-1.9l0-0.1c0-0.9,0.2-1.6,0.5-2.3c0.4-0.7,0.9-1.2,1.7-1.6
			c0.7-0.4,1.6-0.6,2.6-0.6c0.9,0,1.8,0.2,2.4,0.5c0.7,0.4,1.2,0.8,1.6,1.5s0.6,1.3,0.6,2.1c0,0.5-0.1,1.1-0.3,1.6
			c-0.2,0.5-0.5,1.1-0.9,1.7s-0.9,1.2-1.5,1.8l-3.9,4.3l0,0.1h5.3l0.2-1.7H74v3.3H64.4z"/>
		<path d="M80.2,557.8c-0.5,0-1.1,0-1.6-0.1c-0.5-0.1-1-0.3-1.5-0.5l0.3-1.5c0.4,0.2,0.8,0.3,1.3,0.4c0.4,0.1,0.9,0.1,1.5,0.1
			c1,0,1.7-0.4,2.3-1.1c0.6-0.7,0.9-1.9,0.9-3.6l0-0.1c-0.3,0.5-0.7,0.8-1.1,1.1s-1,0.4-1.7,0.4c-1,0-1.8-0.2-2.5-0.6
			s-1.2-1-1.6-1.8c-0.4-0.8-0.6-1.7-0.6-2.8c0-1,0.2-2,0.6-2.8s1-1.4,1.7-1.9c0.7-0.5,1.5-0.7,2.3-0.7c1,0,1.9,0.2,2.7,0.7
			c0.8,0.4,1.3,1.1,1.7,1.9c0.4,0.9,0.6,1.9,0.6,3.2v2.7c0,1.6-0.2,2.8-0.7,3.9s-1.1,1.8-1.8,2.3C82.2,557.5,81.3,557.8,80.2,557.8z
			 M80.5,551.3c0.7,0,1.4-0.2,1.9-0.5s0.9-0.7,1.1-1.2V548c0-1.3-0.3-2.3-0.8-3c-0.5-0.7-1.2-1-2.2-1c-0.5,0-1,0.2-1.4,0.5
			c-0.4,0.3-0.7,0.8-1,1.3c-0.2,0.6-0.4,1.2-0.4,1.9c0,0.7,0.1,1.3,0.3,1.9c0.2,0.5,0.5,0.9,0.9,1.2S80,551.3,80.5,551.3z"/>
		<path d="M92.8,557.6v-1.3l1.7-0.3v-7.9l-1.7-0.3v-1.3h3.5l0.1,1.4c0.4-0.5,0.8-0.9,1.4-1.2s1.2-0.4,1.9-0.4s1.4,0.2,1.9,0.5
			s0.9,0.9,1.2,1.5c0.3-0.6,0.8-1.1,1.4-1.5s1.2-0.6,2-0.6c1.1,0,2,0.4,2.7,1.2c0.7,0.8,1,1.9,1,3.5v5.1l1.7,0.3v1.3h-5.4v-1.3
			l1.7-0.3v-5.1c0-1.1-0.2-1.9-0.6-2.3c-0.4-0.5-0.9-0.7-1.7-0.7c-0.7,0-1.3,0.2-1.7,0.7c-0.4,0.5-0.7,1.1-0.7,1.9v5.5l1.7,0.3v1.3
			h-5.4v-1.3l1.7-0.3v-5.1c0-1-0.2-1.8-0.6-2.3c-0.4-0.5-0.9-0.7-1.7-0.7c-0.6,0-1.1,0.1-1.5,0.4s-0.7,0.6-0.9,1.1v6.6l1.7,0.3v1.3
			H92.8z"/>
		<path d="M117.5,557.8c-0.7,0-1.4-0.1-2.1-0.2s-1.3-0.4-2.1-0.7l0-2.6h1.5l0.4,1.6c0.4,0.2,0.8,0.3,1.1,0.3
			c0.4,0.1,0.7,0.1,1.2,0.1c0.8,0,1.4-0.2,1.8-0.5s0.5-0.7,0.5-1.2c0-0.4-0.2-0.8-0.5-1.1c-0.4-0.3-1-0.6-2-0.8
			c-1.3-0.3-2.3-0.7-3-1.2c-0.6-0.5-0.9-1.2-0.9-2.1c0-0.6,0.2-1.1,0.5-1.6c0.3-0.5,0.8-0.9,1.5-1.1s1.3-0.4,2.2-0.4
			c0.8,0,1.6,0.1,2.2,0.3c0.6,0.2,1.1,0.4,1.6,0.8l0.1,2.5h-1.5l-0.3-1.5c-0.2-0.2-0.5-0.3-0.9-0.4s-0.7-0.1-1.1-0.1
			c-0.6,0-1.1,0.1-1.5,0.4c-0.4,0.3-0.6,0.7-0.6,1.1c0,0.3,0.1,0.5,0.2,0.7c0.1,0.2,0.3,0.4,0.7,0.5c0.3,0.2,0.8,0.3,1.4,0.5
			c1.5,0.4,2.6,0.8,3.2,1.4c0.6,0.6,0.9,1.3,0.9,2.1c0,0.9-0.3,1.7-1,2.4C120.1,557.5,119,557.8,117.5,557.8z"/>
		<path d="M124.3,557.6v-2.1h2v2.1H124.3z"/>
		<path d="M128.6,557.6v-1.3l1.7-0.3v-7.9l-1.7-0.3v-1.3h3.5l0.1,1.7c0.4-0.6,0.8-1,1.4-1.4c0.6-0.3,1.2-0.5,1.9-0.5
			c1.2,0,2.1,0.4,2.8,1.1c0.7,0.7,1,1.8,1,3.2v5.4l1.7,0.3v1.3h-5.4v-1.3l1.7-0.3v-5.4c0-1-0.2-1.7-0.6-2.1c-0.4-0.4-1-0.6-1.8-0.6
			c-0.6,0-1.1,0.1-1.5,0.4s-0.8,0.7-1.1,1.1v6.5l1.7,0.3v1.3H128.6z"/>
		<path d="M143.1,557.6v-2.1h2v2.1H143.1z"/>
		<path d="M147.4,557.6v-1.3l1.7-0.3v-7.9l-1.7-0.3v-1.3h3.5l0.1,1.4c0.4-0.5,0.8-0.9,1.4-1.2s1.2-0.4,1.9-0.4s1.4,0.2,1.9,0.5
			s0.9,0.9,1.2,1.5c0.3-0.6,0.8-1.1,1.4-1.5s1.2-0.6,2-0.6c1.1,0,2,0.4,2.7,1.2c0.7,0.8,1,1.9,1,3.5v5.1l1.7,0.3v1.3h-5.4v-1.3
			l1.7-0.3v-5.1c0-1.1-0.2-1.9-0.6-2.3c-0.4-0.5-0.9-0.7-1.7-0.7c-0.7,0-1.3,0.2-1.7,0.7c-0.4,0.5-0.7,1.1-0.7,1.9v5.5l1.7,0.3v1.3
			h-5.4v-1.3l1.7-0.3v-5.1c0-1-0.2-1.8-0.6-2.3c-0.4-0.5-0.9-0.7-1.7-0.7c-0.6,0-1.1,0.1-1.5,0.4s-0.7,0.6-0.9,1.1v6.6l1.7,0.3v1.3
			H147.4z"/>
	</g>
</g>
<g>
	<g>
		<path d="M56.9,443c-0.5,0-1.1,0-1.6-0.1c-0.5-0.1-1-0.3-1.5-0.5l0.3-1.5c0.4,0.2,0.8,0.3,1.3,0.4c0.4,0.1,0.9,0.1,1.5,0.1
			c1,0,1.7-0.4,2.3-1.1c0.6-0.7,0.9-1.9,0.9-3.6l0-0.1c-0.3,0.5-0.7,0.8-1.1,1.1s-1,0.4-1.7,0.4c-1,0-1.8-0.2-2.5-0.6
			s-1.2-1-1.6-1.8c-0.4-0.8-0.6-1.7-0.6-2.8c0-1,0.2-2,0.6-2.8s1-1.4,1.7-1.9c0.7-0.5,1.5-0.7,2.3-0.7c1,0,1.9,0.2,2.7,0.7
			c0.8,0.4,1.3,1.1,1.7,1.9s0.6,1.9,0.6,3.2v2.7c0,1.6-0.2,2.8-0.7,3.9s-1.1,1.8-1.8,2.3C58.9,442.8,57.9,443,56.9,443z M57.2,436.5
			c0.7,0,1.4-0.2,1.9-0.5s0.9-0.7,1.1-1.2v-1.6c0-1.3-0.3-2.3-0.8-3c-0.5-0.7-1.2-1-2.2-1c-0.5,0-1,0.2-1.4,0.5
			c-0.4,0.3-0.7,0.8-1,1.3c-0.2,0.6-0.4,1.2-0.4,1.9c0,0.7,0.1,1.3,0.3,1.9c0.2,0.5,0.5,0.9,0.9,1.2S56.6,436.5,57.2,436.5z"/>
		<path d="M69.8,443c-1,0-1.8-0.2-2.6-0.7s-1.4-1.2-1.8-2.1s-0.7-2-0.7-3.3v-2c0-1.6,0.2-2.9,0.7-4c0.5-1.1,1.1-1.9,2-2.4
			s1.8-0.8,2.9-0.8c0.5,0,1,0.1,1.5,0.2c0.5,0.1,0.9,0.3,1.2,0.4l-0.4,1.5c-0.3-0.2-0.7-0.3-1.1-0.4c-0.4-0.1-0.8-0.1-1.3-0.1
			c-1,0-1.9,0.4-2.5,1.2c-0.6,0.8-0.9,2-1,3.6l0,0c0.4-0.4,0.9-0.6,1.4-0.8s1.2-0.3,1.8-0.3c0.9,0,1.7,0.2,2.3,0.6
			c0.7,0.4,1.2,1,1.5,1.7c0.4,0.7,0.5,1.6,0.5,2.5c0,1-0.2,1.9-0.6,2.7s-0.9,1.4-1.6,1.8S70.7,443,69.8,443z M69.8,441.5
			c0.6,0,1-0.2,1.4-0.5s0.7-0.8,0.9-1.3c0.2-0.6,0.3-1.2,0.3-1.9c0-1-0.2-1.8-0.7-2.4c-0.5-0.6-1.2-1-2.1-1c-0.5,0-0.9,0.1-1.2,0.2
			c-0.4,0.1-0.7,0.3-1,0.5c-0.3,0.2-0.5,0.5-0.7,0.8v1.2c0,1.4,0.3,2.5,0.9,3.2C68.2,441.1,68.9,441.5,69.8,441.5z"/>
		<path d="M80.5,443c-0.8,0-1.6-0.2-2.3-0.5c-0.7-0.3-1.2-0.8-1.6-1.4c-0.4-0.6-0.6-1.4-0.5-2.3l0-0.1H78c0,0.8,0.2,1.4,0.7,1.9
			c0.5,0.5,1.1,0.7,1.8,0.7c0.9,0,1.5-0.3,2-0.9s0.7-1.4,0.7-2.5c0-1-0.2-1.8-0.7-2.4c-0.5-0.6-1.1-0.9-2-0.9
			c-0.8,0-1.4,0.1-1.7,0.4c-0.4,0.2-0.6,0.6-0.8,1.1l-1.7-0.2l0.9-8.2h7.9v3h-1.5l-0.2-1.2h-4.5l-0.5,4.2c0.2-0.2,0.4-0.3,0.7-0.4
			s0.5-0.2,0.8-0.3c0.3-0.1,0.6-0.1,0.9-0.1c0.9,0,1.7,0.2,2.4,0.6s1.2,1,1.5,1.7s0.5,1.6,0.5,2.7c0,1-0.2,1.9-0.5,2.6
			c-0.4,0.7-0.9,1.3-1.6,1.7C82.4,442.8,81.6,443,80.5,443z"/>
		<path d="M92.3,442.8v-1.3l1.7-0.3v-7.9l-1.7-0.3v-1.3h3.5l0.1,1.4c0.4-0.5,0.8-0.9,1.4-1.2s1.2-0.4,1.9-0.4s1.4,0.2,1.9,0.5
			s0.9,0.9,1.2,1.5c0.3-0.6,0.8-1.1,1.4-1.5s1.2-0.6,2-0.6c1.1,0,2,0.4,2.7,1.2s1,1.9,1,3.5v5.1l1.7,0.3v1.3h-5.4v-1.3l1.7-0.3v-5.1
			c0-1.1-0.2-1.9-0.6-2.3c-0.4-0.5-0.9-0.7-1.7-0.7c-0.7,0-1.3,0.2-1.7,0.7c-0.4,0.5-0.7,1.1-0.7,1.9v5.5l1.7,0.3v1.3H99v-1.3
			l1.7-0.3v-5.1c0-1-0.2-1.8-0.6-2.3c-0.4-0.5-0.9-0.7-1.7-0.7c-0.6,0-1.1,0.1-1.5,0.4s-0.7,0.6-0.9,1.1v6.6l1.7,0.3v1.3H92.3z"/>
		<path d="M117,443c-0.7,0-1.4-0.1-2.1-0.2s-1.3-0.4-2.1-0.7l0-2.6h1.5l0.4,1.6c0.4,0.2,0.8,0.3,1.1,0.3c0.4,0.1,0.7,0.1,1.2,0.1
			c0.8,0,1.4-0.2,1.8-0.5s0.5-0.7,0.5-1.2c0-0.4-0.2-0.8-0.5-1.1c-0.4-0.3-1-0.6-2-0.8c-1.3-0.3-2.3-0.7-3-1.2
			c-0.6-0.5-0.9-1.2-0.9-2.1c0-0.6,0.2-1.1,0.5-1.6s0.8-0.9,1.5-1.1s1.3-0.4,2.2-0.4c0.8,0,1.6,0.1,2.2,0.3c0.6,0.2,1.1,0.4,1.6,0.8
			l0.1,2.5h-1.5l-0.3-1.5c-0.2-0.2-0.5-0.3-0.9-0.4s-0.7-0.1-1.1-0.1c-0.6,0-1.1,0.1-1.5,0.4c-0.4,0.3-0.6,0.7-0.6,1.1
			c0,0.3,0.1,0.5,0.2,0.7c0.1,0.2,0.3,0.4,0.7,0.5c0.3,0.2,0.8,0.3,1.4,0.5c1.5,0.4,2.6,0.8,3.2,1.4c0.6,0.6,0.9,1.3,0.9,2.1
			c0,0.9-0.3,1.7-1,2.4C119.6,442.7,118.5,443,117,443z"/>
		<path d="M123.7,442.8v-2.1h2v2.1H123.7z"/>
		<path d="M128.1,442.8v-1.3l1.7-0.3v-7.9l-1.7-0.3v-1.3h3.5l0.1,1.7c0.4-0.6,0.8-1,1.4-1.4s1.2-0.5,1.9-0.5c1.2,0,2.1,0.4,2.8,1.1
			c0.7,0.7,1,1.8,1,3.2v5.4l1.7,0.3v1.3H135v-1.3l1.7-0.3v-5.4c0-1-0.2-1.7-0.6-2.1c-0.4-0.4-1-0.6-1.8-0.6c-0.6,0-1.1,0.1-1.5,0.4
			s-0.8,0.7-1.1,1.1v6.5l1.7,0.3v1.3H128.1z"/>
		<path d="M142.6,442.8v-2.1h2v2.1H142.6z"/>
		<path d="M146.9,442.8v-1.3l1.7-0.3v-7.9l-1.7-0.3v-1.3h3.5l0.1,1.4c0.4-0.5,0.8-0.9,1.4-1.2s1.2-0.4,1.9-0.4s1.4,0.2,1.9,0.5
			s0.9,0.9,1.2,1.5c0.3-0.6,0.8-1.1,1.4-1.5s1.2-0.6,2-0.6c1.1,0,2,0.4,2.7,1.2s1,1.9,1,3.5v5.1l1.7,0.3v1.3h-5.4v-1.3l1.7-0.3v-5.1
			c0-1.1-0.2-1.9-0.6-2.3c-0.4-0.5-0.9-0.7-1.7-0.7c-0.7,0-1.3,0.2-1.7,0.7c-0.4,0.5-0.7,1.1-0.7,1.9v5.5l1.7,0.3v1.3h-5.4v-1.3
			l1.7-0.3v-5.1c0-1-0.2-1.8-0.6-2.3c-0.4-0.5-0.9-0.7-1.7-0.7c-0.6,0-1.1,0.1-1.5,0.4s-0.7,0.6-0.9,1.1v6.6l1.7,0.3v1.3H146.9z"/>
	</g>
</g>
<line class="st10" x1="1825.3" y1="750.3" x2="917" y2="750.3"/>
<line class="st2" x1="917" y1="731.4" x2="917" y2="765.3"/>
<line class="st2" x1="1825.3" y1="734.4" x2="1825.3" y2="768.3"/>
<g>
	<g>
		<path d="M1348.7,781.5v-1.3l2.3-0.3v-11.2l-2.3,0v-1.3l4.4-0.9V780l2.3,0.3v1.3H1348.7z"/>
		<path d="M1361.9,781.8c-1,0-1.8-0.2-2.6-0.5c-0.7-0.3-1.3-0.8-1.7-1.4c-0.4-0.6-0.6-1.4-0.6-2.3c0-0.8,0.3-1.6,0.8-2.2
			s1.2-1.1,2.1-1.4c-0.7-0.3-1.3-0.7-1.8-1.3c-0.4-0.6-0.6-1.3-0.6-2c0-0.9,0.2-1.6,0.6-2.2c0.4-0.6,0.9-1.1,1.5-1.4
			s1.4-0.5,2.3-0.5c0.9,0,1.6,0.2,2.3,0.5s1.2,0.8,1.6,1.4c0.4,0.6,0.6,1.4,0.6,2.2c0,0.8-0.2,1.5-0.7,2c-0.4,0.6-1,1-1.8,1.3
			c0.9,0.3,1.5,0.8,2.1,1.4c0.5,0.6,0.8,1.4,0.8,2.2c0,0.9-0.2,1.7-0.6,2.3c-0.4,0.6-1,1.1-1.7,1.4
			C1363.7,781.6,1362.8,781.8,1361.9,781.8z M1361.9,780.2c0.6,0,1.1-0.1,1.5-0.3c0.4-0.2,0.8-0.5,1-0.9c0.2-0.4,0.4-0.9,0.4-1.5
			c0-0.5-0.1-1-0.4-1.5s-0.6-0.8-1-1s-0.9-0.4-1.5-0.4s-1,0.1-1.5,0.4s-0.8,0.6-1,1c-0.2,0.4-0.4,0.9-0.4,1.5c0,0.8,0.3,1.5,0.8,2
			C1360.3,779.9,1361,780.2,1361.9,780.2z M1361.9,773.1c0.5,0,0.9-0.1,1.3-0.3c0.4-0.2,0.7-0.5,0.9-0.9s0.3-0.8,0.3-1.3
			c0-0.5-0.1-0.9-0.3-1.3c-0.2-0.4-0.5-0.7-0.9-0.9c-0.4-0.2-0.8-0.3-1.3-0.3c-0.7,0-1.3,0.2-1.7,0.7c-0.4,0.5-0.7,1.1-0.7,1.9
			c0,0.8,0.2,1.4,0.7,1.8S1361.1,773.1,1361.9,773.1z"/>
		<path d="M1369,784.7l-1.1-0.8c0.3-0.5,0.6-1,0.7-1.5s0.2-1.1,0.2-1.6v-1.6h2v1.5c0,0.7-0.2,1.4-0.5,2.1S1369.6,784.3,1369,784.7z"
			/>
		<path d="M1377.2,781.8c-0.8,0-1.6-0.2-2.3-0.5c-0.7-0.3-1.2-0.8-1.6-1.4c-0.4-0.6-0.6-1.4-0.5-2.3l0-0.1h1.8
			c0,0.8,0.2,1.4,0.7,1.9c0.5,0.5,1.1,0.7,1.8,0.7c0.9,0,1.5-0.3,2-0.9s0.7-1.4,0.7-2.5c0-1-0.2-1.8-0.7-2.4c-0.5-0.6-1.1-0.9-2-0.9
			c-0.8,0-1.4,0.1-1.7,0.4c-0.4,0.2-0.6,0.6-0.8,1.1l-1.7-0.2l0.9-8.2h7.9v3h-1.5l-0.2-1.2h-4.5l-0.5,4.2c0.2-0.2,0.4-0.3,0.7-0.4
			c0.2-0.1,0.5-0.2,0.8-0.3c0.3-0.1,0.6-0.1,0.9-0.1c0.9,0,1.7,0.2,2.4,0.6c0.7,0.4,1.2,1,1.5,1.7c0.4,0.8,0.5,1.6,0.5,2.7
			c0,1-0.2,1.9-0.5,2.6c-0.4,0.7-0.9,1.3-1.6,1.7C1379.1,781.6,1378.2,781.8,1377.2,781.8z"/>
		<path d="M1388.8,781.5v-1.3l1.7-0.3v-12.8l-1.7-0.3v-1.3h3.7V780l1.7,0.3v1.3H1388.8z M1392.3,778.3l-0.7-1.6l4.8-4.8l0.1-0.1
			l-1.2-0.1v-1.3h4.8v1.3l-1.4,0.3L1392.3,778.3z M1395.9,781.5v-1.3l1.1-0.1l0,0l-3.2-4.1l1-1.6l4.5,5.7l1.6,0.2v1.3H1395.9z"/>
		<path d="M1402.1,781.5v-1.3l1.7-0.3V772l-1.7-0.3v-1.3h3.5l0.1,1.4c0.4-0.5,0.8-0.9,1.4-1.2s1.2-0.4,1.9-0.4s1.4,0.2,1.9,0.5
			c0.5,0.3,0.9,0.9,1.2,1.5c0.3-0.6,0.8-1.1,1.4-1.5s1.2-0.6,2-0.6c1.1,0,2,0.4,2.7,1.2c0.7,0.8,1,1.9,1,3.5v5.1l1.7,0.3v1.3h-5.4
			v-1.3l1.7-0.3v-5.1c0-1.1-0.2-1.9-0.6-2.3c-0.4-0.5-0.9-0.7-1.7-0.7c-0.7,0-1.3,0.2-1.7,0.7c-0.4,0.5-0.7,1.1-0.7,1.9v5.5l1.7,0.3
			v1.3h-5.4v-1.3l1.7-0.3v-5.1c0-1-0.2-1.8-0.6-2.3c-0.4-0.5-0.9-0.7-1.7-0.7c-0.6,0-1.1,0.1-1.5,0.4s-0.7,0.6-0.9,1.1v6.6l1.7,0.3
			v1.3H1402.1z"/>
	</g>
</g>
<g>
	<g>
		<path d="M236,400c-1.5,0-2.7-0.3-3.7-1c-1-0.7-1.8-1.6-2.3-2.7c-0.5-1.1-0.8-2.4-0.8-3.9v-0.2c0-1.5,0.3-2.8,0.8-3.9
			c0.5-1.1,1.3-2,2.3-2.7s2.2-1,3.5-1c1,0,1.8,0.2,2.6,0.5s1.5,0.7,2,1.1v3.2h-1.6l-0.2-2.4c-0.2-0.2-0.5-0.3-0.8-0.4
			s-0.6-0.2-0.9-0.3s-0.7-0.1-1.1-0.1c-1,0-1.8,0.3-2.5,0.8c-0.7,0.5-1.2,1.2-1.5,2.1s-0.5,1.9-0.5,3.1v0.2c0,1.3,0.2,2.3,0.6,3.2
			s0.9,1.6,1.6,2c0.7,0.5,1.6,0.7,2.6,0.7c0.5,0,0.9-0.1,1.4-0.2s0.8-0.3,1.1-0.5l0.2-2.1h1.6v3.2c-0.6,0.3-1.2,0.6-2,0.8
			C237.6,399.9,236.8,400,236,400z"/>
		<path d="M247.4,400c-1,0-1.9-0.2-2.7-0.7c-0.7-0.5-1.3-1.1-1.7-2c-0.4-0.9-0.6-1.8-0.6-2.9v-0.2c0-1.1,0.2-2.1,0.6-2.9
			c0.4-0.9,1-1.5,1.7-2s1.6-0.7,2.6-0.7c1,0,1.9,0.2,2.7,0.7c0.7,0.5,1.3,1.2,1.7,2s0.6,1.8,0.6,2.9v0.2c0,1.1-0.2,2.1-0.6,2.9
			c-0.4,0.9-1,1.5-1.7,2S248.5,400,247.4,400z M247.4,398.4c0.6,0,1.2-0.2,1.6-0.5s0.8-0.8,1-1.4c0.2-0.6,0.3-1.3,0.3-2.1v-0.2
			c0-0.8-0.1-1.5-0.3-2.1s-0.6-1.1-1-1.4c-0.4-0.4-1-0.5-1.6-0.5c-0.6,0-1.2,0.2-1.6,0.5c-0.4,0.4-0.8,0.8-1,1.4s-0.3,1.3-0.3,2.1
			v0.2c0,0.8,0.1,1.5,0.3,2.1c0.2,0.6,0.5,1.1,1,1.4C246.2,398.2,246.8,398.4,247.4,398.4z"/>
		<path d="M258.4,400c-0.7,0-1.4-0.1-2.1-0.2s-1.3-0.4-2.1-0.7l0-2.6h1.5l0.4,1.6c0.4,0.2,0.8,0.3,1.1,0.3c0.4,0.1,0.7,0.1,1.2,0.1
			c0.8,0,1.4-0.2,1.8-0.5s0.5-0.7,0.5-1.2c0-0.4-0.2-0.8-0.5-1.1c-0.4-0.3-1-0.6-2-0.8c-1.3-0.3-2.3-0.7-3-1.2
			c-0.6-0.5-0.9-1.2-0.9-2.1c0-0.6,0.2-1.1,0.5-1.6s0.8-0.9,1.5-1.1s1.3-0.4,2.2-0.4c0.8,0,1.6,0.1,2.2,0.3c0.6,0.2,1.1,0.4,1.6,0.8
			l0.1,2.5h-1.5l-0.3-1.5c-0.2-0.2-0.5-0.3-0.9-0.4s-0.7-0.1-1.1-0.1c-0.6,0-1.1,0.1-1.5,0.4c-0.4,0.3-0.6,0.7-0.6,1.1
			c0,0.3,0.1,0.5,0.2,0.7c0.1,0.2,0.3,0.4,0.7,0.5c0.3,0.2,0.8,0.3,1.4,0.5c1.5,0.4,2.6,0.8,3.2,1.4c0.6,0.6,0.9,1.3,0.9,2.1
			c0,0.9-0.3,1.7-1,2.4C261,399.7,259.9,400,258.4,400z"/>
		<path d="M268.3,400c-0.8,0-1.5-0.2-2-0.7c-0.5-0.5-0.7-1.3-0.7-2.3v-6.7h-1.8v-1.5h1.8V386h2v2.7h2.4v1.5h-2.4v6.7
			c0,0.5,0.1,0.9,0.3,1.2s0.5,0.4,0.9,0.4c0.2,0,0.5,0,0.8-0.1c0.3,0,0.5-0.1,0.7-0.1l0.3,1.3c-0.3,0.1-0.7,0.2-1.1,0.2
			S268.7,400,268.3,400z"/>
		<path d="M275.5,400c-1.2,0-2-0.3-2.6-0.8c-0.6-0.6-0.9-1.4-0.9-2.4c0-0.7,0.2-1.3,0.6-1.8c0.4-0.5,0.9-0.9,1.7-1.2
			s1.6-0.4,2.6-0.4h2v-1.1c0-0.7-0.2-1.2-0.6-1.6s-1-0.6-1.7-0.6c-0.5,0-0.9,0.1-1.2,0.2c-0.3,0.1-0.7,0.3-0.9,0.5l-0.2,1.5h-1.6
			v-2.5c0.5-0.4,1.1-0.7,1.7-0.9c0.7-0.2,1.4-0.3,2.2-0.3c1.3,0,2.4,0.3,3.2,1s1.1,1.6,1.1,2.8v5.3c0,0.1,0,0.3,0,0.4
			c0,0.1,0,0.3,0,0.4l1.1,0.1v1.3H279c-0.1-0.3-0.1-0.6-0.1-0.8s-0.1-0.5-0.1-0.7c-0.4,0.5-0.9,0.9-1.5,1.2
			C276.8,399.8,276.2,400,275.5,400z M275.8,398.3c0.7,0,1.3-0.2,1.8-0.5s1-0.7,1.2-1.2v-2h-2.1c-0.9,0-1.6,0.2-2.1,0.7
			s-0.7,0.9-0.7,1.5c0,0.5,0.2,0.9,0.5,1.1C274.7,398.2,275.2,398.3,275.8,398.3z"/>
		<path d="M283.5,399.8v-1.3l1.7-0.3v-7.9l-1.7-0.3v-1.3h3.5l0.1,1.7c0.4-0.6,0.8-1,1.4-1.4s1.2-0.5,1.9-0.5c1.2,0,2.1,0.4,2.8,1.1
			c0.7,0.7,1,1.8,1,3.2v5.4l1.7,0.3v1.3h-5.4v-1.3l1.7-0.3v-5.4c0-1-0.2-1.7-0.6-2.1c-0.4-0.4-1-0.6-1.8-0.6c-0.6,0-1.1,0.1-1.5,0.4
			s-0.8,0.7-1.1,1.1v6.5l1.7,0.3v1.3H283.5z"/>
		<path d="M302.3,400c-1,0-1.9-0.2-2.7-0.7c-0.8-0.5-1.3-1.1-1.8-2s-0.6-1.8-0.6-2.9V394c0-1.1,0.2-2,0.7-2.8c0.4-0.8,1-1.5,1.7-2
			c0.7-0.5,1.5-0.7,2.4-0.7c1,0,1.8,0.2,2.5,0.6c0.7,0.4,1.2,1,1.5,1.7c0.3,0.7,0.5,1.6,0.5,2.6v1.3h-7.2l0,0.1
			c0,0.7,0.1,1.3,0.4,1.9c0.2,0.6,0.6,1,1,1.3s1,0.5,1.6,0.5c0.7,0,1.3-0.1,1.8-0.3c0.5-0.2,1-0.5,1.3-0.8l0.8,1.3
			c-0.4,0.4-0.9,0.7-1.6,1C304,399.9,303.3,400,302.3,400z M299.4,393.1h5.1v-0.3c0-0.5-0.1-1-0.3-1.4c-0.2-0.4-0.5-0.8-0.8-1
			c-0.4-0.2-0.8-0.4-1.4-0.4c-0.5,0-0.9,0.1-1.2,0.4s-0.7,0.6-0.9,1.1S299.5,392.5,299.4,393.1L299.4,393.1z"/>
		<path d="M308.1,399.8v-1.3l1.7-0.3v-7.9l-1.7-0.3v-1.3h3.5l0.2,1.4l0,0.2c0.3-0.6,0.7-1,1.2-1.3c0.5-0.3,1-0.5,1.6-0.5
			c0.2,0,0.4,0,0.7,0.1c0.2,0,0.4,0.1,0.5,0.1l-0.3,1.9l-1.4-0.1c-0.5,0-1,0.1-1.3,0.4c-0.4,0.3-0.6,0.6-0.8,1.1v6.3l1.7,0.3v1.3
			H308.1z"/>
		<path d="M320.5,400c-1.2,0-2-0.3-2.6-0.8c-0.6-0.6-0.9-1.4-0.9-2.4c0-0.7,0.2-1.3,0.6-1.8c0.4-0.5,0.9-0.9,1.7-1.2
			s1.6-0.4,2.6-0.4h2v-1.1c0-0.7-0.2-1.2-0.6-1.6s-1-0.6-1.7-0.6c-0.5,0-0.9,0.1-1.2,0.2c-0.3,0.1-0.7,0.3-0.9,0.5l-0.2,1.5h-1.6
			v-2.5c0.5-0.4,1.1-0.7,1.7-0.9c0.7-0.2,1.4-0.3,2.2-0.3c1.3,0,2.4,0.3,3.2,1s1.1,1.6,1.1,2.8v5.3c0,0.1,0,0.3,0,0.4
			c0,0.1,0,0.3,0,0.4l1.1,0.1v1.3H324c-0.1-0.3-0.1-0.6-0.1-0.8s-0.1-0.5-0.1-0.7c-0.4,0.5-0.9,0.9-1.5,1.2
			C321.8,399.8,321.2,400,320.5,400z M320.8,398.3c0.7,0,1.3-0.2,1.8-0.5s1-0.7,1.2-1.2v-2h-2.1c-0.9,0-1.6,0.2-2.1,0.7
			s-0.7,0.9-0.7,1.5c0,0.5,0.2,0.9,0.5,1.1C319.7,398.2,320.2,398.3,320.8,398.3z"/>
		<path d="M338.7,400c-1,0-1.9-0.2-2.6-0.7c-0.7-0.5-1.3-1.1-1.7-2s-0.6-1.8-0.6-2.9V394c0-1.1,0.2-2,0.6-2.8s1-1.5,1.7-2
			s1.6-0.7,2.7-0.7c0.9,0,1.7,0.1,2.4,0.4s1.2,0.7,1.7,1.2l0.1,2.7h-1.6l-0.3-1.9c-0.2-0.2-0.5-0.4-0.9-0.6s-0.8-0.2-1.2-0.2
			c-0.6,0-1.1,0.2-1.6,0.5c-0.5,0.4-0.8,0.8-1.1,1.4s-0.4,1.3-0.4,2v0.4c0,0.8,0.1,1.5,0.4,2.1c0.2,0.6,0.6,1.1,1,1.4
			c0.4,0.3,1,0.5,1.6,0.5c0.7,0,1.3-0.2,1.7-0.6s0.7-0.9,0.8-1.5h1.8l0,0.1c0,0.6-0.2,1.2-0.6,1.8s-0.8,1-1.5,1.3
			C340.4,399.8,339.7,400,338.7,400z"/>
		<path d="M349.7,400c-1,0-1.9-0.2-2.7-0.7c-0.8-0.5-1.3-1.1-1.8-2s-0.6-1.8-0.6-2.9V394c0-1.1,0.2-2,0.7-2.8c0.4-0.8,1-1.5,1.7-2
			c0.7-0.5,1.5-0.7,2.4-0.7c1,0,1.8,0.2,2.5,0.6c0.7,0.4,1.2,1,1.5,1.7c0.3,0.7,0.5,1.6,0.5,2.6v1.3h-7.2l0,0.1
			c0,0.7,0.1,1.3,0.4,1.9c0.2,0.6,0.6,1,1,1.3s1,0.5,1.6,0.5c0.7,0,1.3-0.1,1.8-0.3c0.5-0.2,1-0.5,1.3-0.8l0.8,1.3
			c-0.4,0.4-0.9,0.7-1.6,1C351.4,399.9,350.6,400,349.7,400z M346.8,393.1h5.1v-0.3c0-0.5-0.1-1-0.3-1.4c-0.2-0.4-0.5-0.8-0.8-1
			c-0.4-0.2-0.8-0.4-1.4-0.4c-0.5,0-0.9,0.1-1.2,0.4s-0.7,0.6-0.9,1.1S346.9,392.5,346.8,393.1L346.8,393.1z"/>
		<path d="M355.5,399.8v-1.3l1.7-0.3v-7.9l-1.7-0.3v-1.3h3.5l0.1,1.7c0.4-0.6,0.8-1,1.4-1.4s1.2-0.5,1.9-0.5c1.2,0,2.1,0.4,2.8,1.1
			c0.7,0.7,1,1.8,1,3.2v5.4l1.7,0.3v1.3h-5.4v-1.3l1.7-0.3v-5.4c0-1-0.2-1.7-0.6-2.1c-0.4-0.4-1-0.6-1.8-0.6c-0.6,0-1.1,0.1-1.5,0.4
			s-0.8,0.7-1.1,1.1v6.5l1.7,0.3v1.3H355.5z"/>
		<path d="M373.2,400c-0.8,0-1.5-0.2-2-0.7c-0.5-0.5-0.7-1.3-0.7-2.3v-6.7h-1.8v-1.5h1.8V386h2v2.7h2.4v1.5h-2.4v6.7
			c0,0.5,0.1,0.9,0.3,1.2s0.5,0.4,0.9,0.4c0.2,0,0.5,0,0.8-0.1c0.3,0,0.5-0.1,0.7-0.1l0.3,1.3c-0.3,0.1-0.7,0.2-1.1,0.2
			S373.6,400,373.2,400z"/>
		<path d="M381.8,400c-1,0-1.9-0.2-2.7-0.7c-0.8-0.5-1.3-1.1-1.8-2s-0.6-1.8-0.6-2.9V394c0-1.1,0.2-2,0.7-2.8c0.4-0.8,1-1.5,1.7-2
			c0.7-0.5,1.5-0.7,2.4-0.7c1,0,1.8,0.2,2.5,0.6c0.7,0.4,1.2,1,1.5,1.7c0.3,0.7,0.5,1.6,0.5,2.6v1.3h-7.2l0,0.1
			c0,0.7,0.1,1.3,0.4,1.9c0.2,0.6,0.6,1,1,1.3s1,0.5,1.6,0.5c0.7,0,1.3-0.1,1.8-0.3c0.5-0.2,1-0.5,1.3-0.8l0.8,1.3
			c-0.4,0.4-0.9,0.7-1.6,1C383.5,399.9,382.8,400,381.8,400z M378.9,393.1h5.1v-0.3c0-0.5-0.1-1-0.3-1.4c-0.2-0.4-0.5-0.8-0.8-1
			c-0.4-0.2-0.8-0.4-1.4-0.4c-0.5,0-0.9,0.1-1.2,0.4s-0.7,0.6-0.9,1.1S379,392.5,378.9,393.1L378.9,393.1z"/>
		<path d="M387.6,399.8v-1.3l1.7-0.3v-7.9l-1.7-0.3v-1.3h3.5l0.2,1.4l0,0.2c0.3-0.6,0.7-1,1.2-1.3c0.5-0.3,1-0.5,1.6-0.5
			c0.2,0,0.4,0,0.7,0.1c0.2,0,0.4,0.1,0.5,0.1l-0.3,1.9l-1.4-0.1c-0.5,0-1,0.1-1.3,0.4c-0.4,0.3-0.6,0.6-0.8,1.1v6.3l1.7,0.3v1.3
			H387.6z"/>
	</g>
</g>
<g>
	<g>
		<path d="M550.2,400c-1.5,0-2.7-0.3-3.7-1c-1-0.7-1.8-1.6-2.3-2.7c-0.5-1.1-0.8-2.4-0.8-3.9v-0.2c0-1.5,0.3-2.8,0.8-3.9
			c0.5-1.1,1.3-2,2.3-2.7s2.2-1,3.5-1c1,0,1.8,0.2,2.6,0.5s1.5,0.7,2,1.1v3.2H553l-0.2-2.4c-0.2-0.2-0.5-0.3-0.8-0.4
			s-0.6-0.2-0.9-0.3s-0.7-0.1-1.1-0.1c-1,0-1.8,0.3-2.5,0.8c-0.7,0.5-1.2,1.2-1.5,2.1s-0.5,1.9-0.5,3.1v0.2c0,1.3,0.2,2.3,0.6,3.2
			s0.9,1.6,1.6,2c0.7,0.5,1.6,0.7,2.6,0.7c0.5,0,0.9-0.1,1.4-0.2s0.8-0.3,1.1-0.5l0.2-2.1h1.6v3.2c-0.6,0.3-1.2,0.6-2,0.8
			C551.8,399.9,551,400,550.2,400z"/>
		<path d="M561.6,400c-1,0-1.9-0.2-2.7-0.7c-0.8-0.5-1.3-1.1-1.8-2s-0.6-1.8-0.6-2.9V394c0-1.1,0.2-2,0.7-2.8c0.4-0.8,1-1.5,1.7-2
			c0.7-0.5,1.5-0.7,2.4-0.7c1,0,1.8,0.2,2.5,0.6c0.7,0.4,1.2,1,1.5,1.7c0.3,0.7,0.5,1.6,0.5,2.6v1.3h-7.2l0,0.1
			c0,0.7,0.1,1.3,0.4,1.9c0.2,0.6,0.6,1,1,1.3s1,0.5,1.6,0.5c0.7,0,1.3-0.1,1.8-0.3c0.5-0.2,1-0.5,1.3-0.8l0.8,1.3
			c-0.4,0.4-0.9,0.7-1.6,1C563.3,399.9,562.5,400,561.6,400z M558.7,393.1h5.1v-0.3c0-0.5-0.1-1-0.3-1.4c-0.2-0.4-0.5-0.8-0.8-1
			c-0.4-0.2-0.8-0.4-1.4-0.4c-0.5,0-0.9,0.1-1.2,0.4s-0.7,0.6-0.9,1.1S558.8,392.5,558.7,393.1L558.7,393.1z"/>
		<path d="M567.4,399.8v-1.3l1.7-0.3v-7.9l-1.7-0.3v-1.3h3.5l0.2,1.4l0,0.2c0.3-0.6,0.7-1,1.2-1.3c0.5-0.3,1-0.5,1.6-0.5
			c0.2,0,0.4,0,0.7,0.1c0.2,0,0.4,0.1,0.5,0.1l-0.3,1.9l-1.4-0.1c-0.5,0-1,0.1-1.3,0.4c-0.4,0.3-0.6,0.6-0.8,1.1v6.3l1.7,0.3v1.3
			H567.4z"/>
		<path d="M576.2,399.8v-1.3l1.7-0.3v-7.9l-1.7-0.3v-1.3h3.5l0.2,1.4l0,0.2c0.3-0.6,0.7-1,1.2-1.3c0.5-0.3,1-0.5,1.6-0.5
			c0.2,0,0.4,0,0.7,0.1c0.2,0,0.4,0.1,0.5,0.1l-0.3,1.9l-1.4-0.1c-0.5,0-1,0.1-1.3,0.4c-0.4,0.3-0.6,0.6-0.8,1.1v6.3l1.7,0.3v1.3
			H576.2z"/>
		<path d="M590,400c-1,0-1.9-0.2-2.7-0.7c-0.7-0.5-1.3-1.1-1.7-2c-0.4-0.9-0.6-1.8-0.6-2.9v-0.2c0-1.1,0.2-2.1,0.6-2.9
			c0.4-0.9,1-1.5,1.7-2s1.6-0.7,2.6-0.7c1,0,1.9,0.2,2.7,0.7c0.7,0.5,1.3,1.2,1.7,2s0.6,1.8,0.6,2.9v0.2c0,1.1-0.2,2.1-0.6,2.9
			c-0.4,0.9-1,1.5-1.7,2S591,400,590,400z M590,398.4c0.6,0,1.2-0.2,1.6-0.5s0.8-0.8,1-1.4c0.2-0.6,0.3-1.3,0.3-2.1v-0.2
			c0-0.8-0.1-1.5-0.3-2.1s-0.6-1.1-1-1.4c-0.4-0.4-1-0.5-1.6-0.5c-0.6,0-1.2,0.2-1.6,0.5c-0.4,0.4-0.8,0.8-1,1.4s-0.3,1.3-0.3,2.1
			v0.2c0,0.8,0.1,1.5,0.3,2.1c0.2,0.6,0.5,1.1,1,1.4C588.8,398.2,589.3,398.4,590,398.4z"/>
		<path d="M607.1,400c-0.9,0-1.8-0.1-2.6-0.4s-1.6-0.7-2.4-1.2v-3.2h1.6l0.3,2.3c0.4,0.3,0.9,0.5,1.4,0.6s1.1,0.2,1.7,0.2
			c0.7,0,1.3-0.1,1.7-0.3c0.5-0.2,0.8-0.5,1.1-0.9s0.4-0.8,0.4-1.3c0-0.5-0.1-0.9-0.3-1.2s-0.6-0.7-1.1-0.9
			c-0.5-0.3-1.2-0.5-2.1-0.7c-1-0.2-1.9-0.6-2.6-1c-0.7-0.4-1.2-0.9-1.6-1.5c-0.4-0.6-0.5-1.2-0.5-2c0-0.8,0.2-1.5,0.6-2.1
			c0.4-0.6,1-1.1,1.7-1.5s1.6-0.5,2.6-0.5c1,0,2,0.2,2.8,0.5c0.8,0.3,1.5,0.7,2,1.2v3h-1.6l-0.3-2.1c-0.3-0.2-0.7-0.5-1.1-0.6
			s-1-0.2-1.7-0.2c-0.6,0-1.1,0.1-1.5,0.3c-0.4,0.2-0.8,0.5-1,0.8s-0.4,0.8-0.4,1.3c0,0.4,0.1,0.8,0.3,1.1s0.6,0.6,1.1,0.8
			c0.5,0.2,1.2,0.5,2,0.7c1.6,0.4,2.8,1,3.6,1.7c0.8,0.8,1.2,1.7,1.2,2.8c0,0.8-0.2,1.5-0.6,2.1c-0.4,0.6-1,1.1-1.8,1.5
			C609.1,399.8,608.2,400,607.1,400z"/>
		<path d="M617.6,400c-1.2,0-2-0.3-2.6-0.8c-0.6-0.6-0.9-1.4-0.9-2.4c0-0.7,0.2-1.3,0.6-1.8c0.4-0.5,0.9-0.9,1.7-1.2
			s1.6-0.4,2.6-0.4h2v-1.1c0-0.7-0.2-1.2-0.6-1.6s-1-0.6-1.7-0.6c-0.5,0-0.9,0.1-1.2,0.2c-0.3,0.1-0.7,0.3-0.9,0.5l-0.2,1.5h-1.6
			v-2.5c0.5-0.4,1.1-0.7,1.7-0.9c0.7-0.2,1.4-0.3,2.2-0.3c1.3,0,2.4,0.3,3.2,1s1.1,1.6,1.1,2.8v5.3c0,0.1,0,0.3,0,0.4
			c0,0.1,0,0.3,0,0.4l1.1,0.1v1.3h-2.9c-0.1-0.3-0.1-0.6-0.1-0.8s-0.1-0.5-0.1-0.7c-0.4,0.5-0.9,0.9-1.5,1.2
			C618.9,399.8,618.3,400,617.6,400z M617.9,398.3c0.7,0,1.3-0.2,1.8-0.5s1-0.7,1.2-1.2v-2h-2.1c-0.9,0-1.6,0.2-2.1,0.7
			s-0.7,0.9-0.7,1.5c0,0.5,0.2,0.9,0.5,1.1C616.9,398.2,617.3,398.3,617.9,398.3z"/>
		<path d="M625.7,399.8v-1.3l1.7-0.3v-7.9l-1.7-0.3v-1.3h3.5l0.1,1.7c0.4-0.6,0.8-1,1.4-1.4s1.2-0.5,1.9-0.5c1.2,0,2.1,0.4,2.8,1.1
			c0.7,0.7,1,1.8,1,3.2v5.4l1.7,0.3v1.3h-5.4v-1.3l1.7-0.3v-5.4c0-1-0.2-1.7-0.6-2.1c-0.4-0.4-1-0.6-1.8-0.6c-0.6,0-1.1,0.1-1.5,0.4
			s-0.8,0.7-1.1,1.1v6.5l1.7,0.3v1.3H625.7z"/>
		<path d="M643.4,400c-0.8,0-1.5-0.2-2-0.7c-0.5-0.5-0.7-1.3-0.7-2.3v-6.7h-1.8v-1.5h1.8V386h2v2.7h2.4v1.5h-2.4v6.7
			c0,0.5,0.1,0.9,0.3,1.2s0.5,0.4,0.9,0.4c0.2,0,0.5,0,0.8-0.1c0.3,0,0.5-0.1,0.7-0.1l0.3,1.3c-0.3,0.1-0.7,0.2-1.1,0.2
			S643.7,400,643.4,400z"/>
		<path d="M650.5,400c-1.2,0-2-0.3-2.6-0.8c-0.6-0.6-0.9-1.4-0.9-2.4c0-0.7,0.2-1.3,0.6-1.8c0.4-0.5,0.9-0.9,1.7-1.2
			s1.6-0.4,2.6-0.4h2v-1.1c0-0.7-0.2-1.2-0.6-1.6s-1-0.6-1.7-0.6c-0.5,0-0.9,0.1-1.2,0.2c-0.3,0.1-0.7,0.3-0.9,0.5l-0.2,1.5h-1.6
			v-2.5c0.5-0.4,1.1-0.7,1.7-0.9c0.7-0.2,1.4-0.3,2.2-0.3c1.3,0,2.4,0.3,3.2,1s1.1,1.6,1.1,2.8v5.3c0,0.1,0,0.3,0,0.4
			c0,0.1,0,0.3,0,0.4l1.1,0.1v1.3h-2.9c-0.1-0.3-0.1-0.6-0.1-0.8s-0.1-0.5-0.1-0.7c-0.4,0.5-0.9,0.9-1.5,1.2
			C651.8,399.8,651.2,400,650.5,400z M650.8,398.3c0.7,0,1.3-0.2,1.8-0.5s1-0.7,1.2-1.2v-2h-2.1c-0.9,0-1.6,0.2-2.1,0.7
			s-0.7,0.9-0.7,1.5c0,0.5,0.2,0.9,0.5,1.1C649.7,398.2,650.2,398.3,650.8,398.3z"/>
		<path d="M663.8,399.8v-1.3l1.7-0.3v-11.8l-1.7-0.3v-1.3h1.7h2h1.7v1.3l-1.7,0.3v11.8h5.3l0.2-2.4h1.5v3.9H663.8z"/>
		<path d="M681,400c-1.2,0-2.1-0.4-2.8-1.2s-1-2-1-3.6v-5l-1.3-0.3v-1.3h1.3h2v6.6c0,1.2,0.2,2,0.5,2.4s0.9,0.7,1.6,0.7
			c0.7,0,1.3-0.1,1.8-0.4c0.5-0.3,0.8-0.7,1.1-1.2v-6.4l-1.5-0.3v-1.3h1.5h2v9.5l1.3,0.3v1.3h-3.1l-0.1-1.6
			c-0.3,0.6-0.8,1.1-1.3,1.4C682.4,399.8,681.8,400,681,400z"/>
		<path d="M693.9,400c-1,0-1.9-0.2-2.6-0.7c-0.7-0.5-1.3-1.1-1.7-2s-0.6-1.8-0.6-2.9V394c0-1.1,0.2-2,0.6-2.8s1-1.5,1.7-2
			s1.6-0.7,2.7-0.7c0.9,0,1.7,0.1,2.4,0.4s1.2,0.7,1.7,1.2l0.1,2.7h-1.6l-0.3-1.9c-0.2-0.2-0.5-0.4-0.9-0.6s-0.8-0.2-1.2-0.2
			c-0.6,0-1.1,0.2-1.6,0.5c-0.5,0.4-0.8,0.8-1.1,1.4s-0.4,1.3-0.4,2v0.4c0,0.8,0.1,1.5,0.4,2.1c0.2,0.6,0.6,1.1,1,1.4
			c0.4,0.3,1,0.5,1.6,0.5c0.7,0,1.3-0.2,1.7-0.6s0.7-0.9,0.8-1.5h1.8l0,0.1c0,0.6-0.2,1.2-0.6,1.8s-0.8,1-1.5,1.3
			C695.6,399.8,694.9,400,693.9,400z"/>
		<path d="M699.8,399.8v-1.3l1.7-0.3v-7.9l-1.7-0.3v-1.3h3.7v9.5l1.7,0.3v1.3H699.8z M701.2,386.6l1.9-2.8h2.4l0,0.1l-2.8,2.7H701.2
			L701.2,386.6z"/>
		<path d="M710.1,400c-1.2,0-2-0.3-2.6-0.8c-0.6-0.6-0.9-1.4-0.9-2.4c0-0.7,0.2-1.3,0.6-1.8c0.4-0.5,0.9-0.9,1.7-1.2
			s1.6-0.4,2.6-0.4h2v-1.1c0-0.7-0.2-1.2-0.6-1.6s-1-0.6-1.7-0.6c-0.5,0-0.9,0.1-1.2,0.2c-0.3,0.1-0.7,0.3-0.9,0.5l-0.2,1.5h-1.6
			v-2.5c0.5-0.4,1.1-0.7,1.7-0.9c0.7-0.2,1.4-0.3,2.2-0.3c1.3,0,2.4,0.3,3.2,1s1.1,1.6,1.1,2.8v5.3c0,0.1,0,0.3,0,0.4
			c0,0.1,0,0.3,0,0.4l1.1,0.1v1.3h-2.9c-0.1-0.3-0.1-0.6-0.1-0.8s-0.1-0.5-0.1-0.7c-0.4,0.5-0.9,0.9-1.5,1.2
			C711.4,399.8,710.8,400,710.1,400z M710.4,398.3c0.7,0,1.3-0.2,1.8-0.5s1-0.7,1.2-1.2v-2h-2.1c-0.9,0-1.6,0.2-2.1,0.7
			s-0.7,0.9-0.7,1.5c0,0.5,0.2,0.9,0.5,1.1C709.4,398.2,709.8,398.3,710.4,398.3z"/>
	</g>
</g>
<g>
	<g>
		<path d="M1290.4,399.8l-5-13.5l-1.2-0.2v-1.3h4.7v1.3l-1.4,0.2l3.3,9.5l0.3,1.2h0.1l0.4-1.2l3.5-9.5l-1.5-0.2v-1.3h4.7v1.3
			l-1.2,0.2l-5,13.5H1290.4z"/>
		<path d="M1304.8,400c-1,0-1.9-0.2-2.7-0.7c-0.7-0.5-1.3-1.1-1.7-2c-0.4-0.9-0.6-1.8-0.6-2.9v-0.2c0-1.1,0.2-2.1,0.6-2.9
			c0.4-0.9,1-1.5,1.7-2c0.7-0.5,1.6-0.7,2.6-0.7c1,0,1.9,0.2,2.7,0.7c0.7,0.5,1.3,1.2,1.7,2s0.6,1.8,0.6,2.9v0.2
			c0,1.1-0.2,2.1-0.6,2.9c-0.4,0.9-1,1.5-1.7,2S1305.8,400,1304.8,400z M1304.8,398.4c0.6,0,1.2-0.2,1.6-0.5c0.4-0.4,0.8-0.8,1-1.4
			c0.2-0.6,0.3-1.3,0.3-2.1v-0.2c0-0.8-0.1-1.5-0.3-2.1c-0.2-0.6-0.6-1.1-1-1.4c-0.4-0.4-1-0.5-1.6-0.5c-0.6,0-1.2,0.2-1.6,0.5
			c-0.4,0.4-0.8,0.8-1,1.4s-0.3,1.3-0.3,2.1v0.2c0,0.8,0.1,1.5,0.3,2.1c0.2,0.6,0.5,1.1,1,1.4
			C1303.6,398.2,1304.1,398.4,1304.8,398.4z"/>
		<path d="M1311.2,399.8v-1.3l1.7-0.3v-12.8l-1.7-0.3v-1.3h3.7v14.4l1.7,0.3v1.3H1311.2z"/>
		<path d="M1323,400c-1,0-1.9-0.2-2.6-0.7c-0.7-0.5-1.3-1.1-1.7-2s-0.6-1.8-0.6-2.9V394c0-1.1,0.2-2,0.6-2.8s1-1.5,1.7-2
			s1.6-0.7,2.7-0.7c0.9,0,1.7,0.1,2.4,0.4c0.7,0.3,1.2,0.7,1.7,1.2l0.1,2.7h-1.6l-0.3-1.9c-0.2-0.2-0.5-0.4-0.9-0.6
			s-0.8-0.2-1.2-0.2c-0.6,0-1.1,0.2-1.6,0.5c-0.5,0.4-0.8,0.8-1.1,1.4s-0.4,1.3-0.4,2v0.4c0,0.8,0.1,1.5,0.4,2.1
			c0.2,0.6,0.6,1.1,1,1.4c0.4,0.3,1,0.5,1.6,0.5c0.7,0,1.3-0.2,1.7-0.6s0.7-0.9,0.8-1.5h1.8l0,0.1c0,0.6-0.2,1.2-0.6,1.8
			s-0.8,1-1.5,1.3C1324.7,399.8,1323.9,400,1323,400z"/>
		<path d="M1332.5,400c-1.2,0-2-0.3-2.6-0.8c-0.6-0.6-0.9-1.4-0.9-2.4c0-0.7,0.2-1.3,0.6-1.8c0.4-0.5,0.9-0.9,1.7-1.2
			s1.6-0.4,2.6-0.4h2v-1.1c0-0.7-0.2-1.2-0.6-1.6c-0.4-0.4-1-0.6-1.7-0.6c-0.5,0-0.9,0.1-1.2,0.2c-0.3,0.1-0.7,0.3-0.9,0.5l-0.2,1.5
			h-1.6v-2.5c0.5-0.4,1.1-0.7,1.7-0.9c0.7-0.2,1.4-0.3,2.2-0.3c1.3,0,2.4,0.3,3.2,1s1.1,1.6,1.1,2.8v5.3c0,0.1,0,0.3,0,0.4
			c0,0.1,0,0.3,0,0.4l1.1,0.1v1.3h-2.9c-0.1-0.3-0.1-0.6-0.1-0.8s-0.1-0.5-0.1-0.7c-0.4,0.5-0.9,0.9-1.5,1.2
			C1333.8,399.8,1333.2,400,1332.5,400z M1332.8,398.3c0.7,0,1.3-0.2,1.8-0.5s1-0.7,1.2-1.2v-2h-2.1c-0.9,0-1.6,0.2-2.1,0.7
			s-0.7,0.9-0.7,1.5c0,0.5,0.2,0.9,0.5,1.1C1331.8,398.2,1332.2,398.3,1332.8,398.3z M1332.4,386.6l1.9-2.8h2.4l0,0.1l-2.8,2.7
			H1332.4L1332.4,386.6z"/>
		<path d="M1340.5,399.8v-1.3l1.7-0.3v-7.9l-1.7-0.3v-1.3h3.5l0.1,1.7c0.4-0.6,0.8-1,1.4-1.4c0.6-0.3,1.2-0.5,1.9-0.5
			c1.2,0,2.1,0.4,2.8,1.1c0.7,0.7,1,1.8,1,3.2v5.4l1.7,0.3v1.3h-5.4v-1.3l1.7-0.3v-5.4c0-1-0.2-1.7-0.6-2.1c-0.4-0.4-1-0.6-1.8-0.6
			c-0.6,0-1.1,0.1-1.5,0.4c-0.4,0.3-0.8,0.7-1.1,1.1v6.5l1.7,0.3v1.3H1340.5z"/>
		<path d="M1366.4,400c-1.5,0-2.7-0.3-3.7-1c-1-0.7-1.8-1.6-2.3-2.7c-0.5-1.1-0.8-2.4-0.8-3.9v-0.2c0-1.5,0.3-2.8,0.8-3.9
			c0.5-1.1,1.3-2,2.3-2.7s2.2-1,3.5-1c1,0,1.8,0.2,2.6,0.5s1.5,0.7,2,1.1v3.2h-1.6l-0.2-2.4c-0.2-0.2-0.5-0.3-0.8-0.4
			c-0.3-0.1-0.6-0.2-0.9-0.3c-0.3-0.1-0.7-0.1-1.1-0.1c-1,0-1.8,0.3-2.5,0.8c-0.7,0.5-1.2,1.2-1.5,2.1s-0.5,1.9-0.5,3.1v0.2
			c0,1.3,0.2,2.3,0.6,3.2c0.4,0.9,0.9,1.6,1.6,2c0.7,0.5,1.6,0.7,2.6,0.7c0.5,0,0.9-0.1,1.4-0.2s0.8-0.3,1.1-0.5l0.2-2.1h1.6v3.2
			c-0.6,0.3-1.2,0.6-2,0.8C1368,399.9,1367.2,400,1366.4,400z"/>
		<path d="M1372.5,399.8v-1.3l1.7-0.3v-12.8l-1.7-0.3v-1.3h3.7v6.4c0.4-0.5,0.9-0.9,1.4-1.2s1.2-0.4,1.8-0.4c1.2,0,2.1,0.4,2.8,1.1
			s1,1.8,1,3.3v5.4l1.7,0.3v1.3h-5.4v-1.3l1.7-0.3v-5.4c0-0.9-0.2-1.6-0.6-2c-0.4-0.4-1-0.7-1.8-0.7c-0.6,0-1.1,0.1-1.5,0.4
			c-0.5,0.3-0.8,0.6-1.1,1.1v6.6l1.7,0.3v1.3H1372.5z"/>
		<path d="M1389.8,400c-1.2,0-2-0.3-2.6-0.8c-0.6-0.6-0.9-1.4-0.9-2.4c0-0.7,0.2-1.3,0.6-1.8c0.4-0.5,0.9-0.9,1.7-1.2
			s1.6-0.4,2.6-0.4h2v-1.1c0-0.7-0.2-1.2-0.6-1.6c-0.4-0.4-1-0.6-1.7-0.6c-0.5,0-0.9,0.1-1.2,0.2c-0.3,0.1-0.7,0.3-0.9,0.5l-0.2,1.5
			h-1.6v-2.5c0.5-0.4,1.1-0.7,1.7-0.9c0.7-0.2,1.4-0.3,2.2-0.3c1.3,0,2.4,0.3,3.2,1s1.1,1.6,1.1,2.8v5.3c0,0.1,0,0.3,0,0.4
			c0,0.1,0,0.3,0,0.4l1.1,0.1v1.3h-2.9c-0.1-0.3-0.1-0.6-0.1-0.8s-0.1-0.5-0.1-0.7c-0.4,0.5-0.9,0.9-1.5,1.2
			C1391.1,399.8,1390.5,400,1389.8,400z M1390.1,398.3c0.7,0,1.3-0.2,1.8-0.5s1-0.7,1.2-1.2v-2h-2.1c-0.9,0-1.6,0.2-2.1,0.7
			s-0.7,0.9-0.7,1.5c0,0.5,0.2,0.9,0.5,1.1C1389.1,398.2,1389.5,398.3,1390.1,398.3z"/>
		<path d="M1397.8,399.8v-1.3l1.7-0.3v-7.9l-1.7-0.3v-1.3h3.7v9.5l1.7,0.3v1.3H1397.8z M1399.3,386v-2.2h2.1v2.2H1399.3z"/>
		<path d="M1408.5,400c-0.8,0-1.5-0.2-2-0.7c-0.5-0.5-0.7-1.3-0.7-2.3v-6.7h-1.8v-1.5h1.8V386h2v2.7h2.4v1.5h-2.4v6.7
			c0,0.5,0.1,0.9,0.3,1.2s0.5,0.4,0.9,0.4c0.2,0,0.5,0,0.8-0.1c0.3,0,0.5-0.1,0.7-0.1l0.3,1.3c-0.3,0.1-0.7,0.2-1.1,0.2
			C1409.2,399.9,1408.8,400,1408.5,400z"/>
		<path d="M1417.1,400c-1,0-1.9-0.2-2.7-0.7c-0.8-0.5-1.3-1.1-1.8-2c-0.4-0.8-0.6-1.8-0.6-2.9V394c0-1.1,0.2-2,0.7-2.8
			c0.4-0.8,1-1.5,1.7-2c0.7-0.5,1.5-0.7,2.4-0.7c1,0,1.8,0.2,2.5,0.6c0.7,0.4,1.2,1,1.5,1.7c0.3,0.7,0.5,1.6,0.5,2.6v1.3h-7.2l0,0.1
			c0,0.7,0.1,1.3,0.4,1.9c0.2,0.6,0.6,1,1,1.3s1,0.5,1.6,0.5c0.7,0,1.3-0.1,1.8-0.3c0.5-0.2,1-0.5,1.3-0.8l0.8,1.3
			c-0.4,0.4-0.9,0.7-1.6,1C1418.8,399.9,1418,400,1417.1,400z M1414.2,393.1h5.1v-0.3c0-0.5-0.1-1-0.3-1.4c-0.2-0.4-0.5-0.8-0.8-1
			c-0.4-0.2-0.8-0.4-1.4-0.4c-0.5,0-0.9,0.1-1.2,0.4s-0.7,0.6-0.9,1.1S1414.2,392.5,1414.2,393.1L1414.2,393.1z M1415.5,386.6
			l1.9-2.8h2.4l0,0.1l-2.8,2.7H1415.5L1415.5,386.6z"/>
		<path d="M1422.9,399.8v-1.3l1.7-0.3v-7.9l-1.7-0.3v-1.3h3.5l0.1,1.7c0.4-0.6,0.8-1,1.4-1.4c0.6-0.3,1.2-0.5,1.9-0.5
			c1.2,0,2.1,0.4,2.8,1.1c0.7,0.7,1,1.8,1,3.2v5.4l1.7,0.3v1.3h-5.4v-1.3l1.7-0.3v-5.4c0-1-0.2-1.7-0.6-2.1c-0.4-0.4-1-0.6-1.8-0.6
			c-0.6,0-1.1,0.1-1.5,0.4c-0.4,0.3-0.8,0.7-1.1,1.1v6.5l1.7,0.3v1.3H1422.9z"/>
	</g>
</g>
</svg>
