<svg xmlns="http://www.w3.org/2000/svg" viewBox="0 0 1065.63 1940.79"><defs><style>.cls-1{fill:#bcd4e8;stroke:#5f96c5;stroke-miterlimit:3.98;}.cls-1,.cls-7,.cls-8{stroke-width:2px;}.cls-2{fill:#5f96c5;}.cls-3,.cls-4{fill:#7a7163;}.cls-3{opacity:0.34;}.cls-4{opacity:0.66;}.cls-13,.cls-5{fill:#3d3831;}.cls-6{fill:#b44a29;}.cls-7,.cls-8{fill:#e0d8d2;stroke-miterlimit:4.29;}.cls-7{stroke:#3d3831;}.cls-8{stroke:#b44a29;}.cls-13,.cls-9{font-size:25px;font-family:RobotoSlab-Regular, Roboto Slab;}.cls-10{letter-spacing:-0.01em;}.cls-11{letter-spacing:-0.01em;}.cls-12{letter-spacing:0em;}.cls-14{letter-spacing:-0.01em;}.cls-15{letter-spacing:0.02em;}.cls-16{letter-spacing:0.02em;}</style></defs><g id="svg8326_copy" data-name="svg8326 copy"><g id="ar"><path id="path4200" class="cls-1" d="M590.86,1106.1q1.07-4.47-4.27-1.3l4.27,1.3" transform="translate(-14.37 -2.97)"/><path id="path4202" class="cls-1" d="M598.25,1115c.38-5-4.89-7.51-9.08-5.14a31.85,31.85,0,0,0,9.08,5.14" transform="translate(-14.37 -2.97)"/><path id="path4518" class="cls-1" d="M117.45,606c.83-4.26,5.8-5.3,6.79-9.26,1.35-5.4-1.87-13.39-1.62-19.18.72-16.48,10-23.28,16.15-37.27,4-9.1,3.91-18.44,6-27.92,1-4.64,2.16-9.87,4.87-13.9s7.76-.78,12-2.69c17.92-8.09-.55-18.79-6.55-28-6.83-10.51,5.25-17.07,1.45-27.28-2.7-7.27-24-44.59-5.76-45.2-1.84-4.61-11.59-15.44-10.16-20,3.37-10.68,10.41-18.19,20.72-22.69,9.12-4,23.81-7.51,28.16-17.4s3.63-23.29,5.37-33.87c.69-4.18-.65-16.06-2.47-20.25-1.25-2.86-8-.94-7.3-4,3.69.3,14.41-26.17,25.45-31.61,12.13-6,12.81-7.18,14.23-21.48,9.77,1.93,14.74,11.69,23.49,15.46,10.07,4.35,21.89-1.21,32.4.38,25,3.75,24,22.44,36.73,39.87.84-7.88.66-15.36,3.89-22.8,1.73-4,4.57-18.31,8.75-19.95,3.19-1.24,9.17-.61,12.91-1.51,6.88-1.67,14.79-.35,21.81-.35,4.15,0,13.33-2.2,14.64,2.41,1.78,6.23,14.53,13.66,19.18,18.22,5.37,5.27,9.14,6,12.49,12.85a84.53,84.53,0,0,0,9.82,15.48c8.69,10.88,23.25,18.55,34.58,26.51,6.5,4.56,9.63,11,15.57,15.88,5.51,4.5,13.13,4.22,19.51,6.7,8.61,3.35,14.24,5.57,23.8,5.57,7.25,0,12.41,6.46,18.4,9.47,15.52,7.84,27.65,22.64,44.79,28.06,5.05,1.6,11.06,2.1,15.1,5.78,5.89,5.37,8.44,2.23,14.46,5.76,5.81,3.42,13.52,3.94,17.88,9.35,3.07,3.83,6.49,7.29,9.53,11.17,6,7.63-5.38,15.68-6.91,24.51-2.28,13.16-14.27,16.63-11.5,32.1,2.53,14.16-8.19,18.53-11.32,30.58-1.56,6-3.72,3.86-.42,11,8.82-3.37,18.26-3.43,27.45-1.68,16.26,3.09,31.52,12.46,47.44,7.39,5-1.58,7.37,5.93,12.52,2.32,5-3.47,10.24,4.49,14.29,6,2.82-5.79,3.26-13.77,11.24-14.87,6.11-.85,9.25,6,14.54,5.31,8.4-1.1,7.08-11,9.13-16.54,2.37-6.32,16-5.67,15.31-9.33-.22-1.17,7.83-12.57,8.77-12.42,6,.95,4.82-12.79,5.53-17.62,1.41-9.66,1.27-20.16-1.26-29.64-2.58-9.67,3.61-6.37,9-3,1.22-7.7,11.6-6.93,17.08-5,9.49,3.3,11.44,12.95,14.55,21.32,4.39,11.84,5.63,18.51,6,31.21.18,6.62,1.88,12.59.86,19.28q-.88,5-1.69,10.1A6.51,6.51,0,0,0,809,500c-7.17,4-11.81,9.3-19.61,12.43-3.91,1.57-16.78,6-17.24,11.08-.7,7.78-9.45,8.49-14.81,11.88-3.12,2-3.68,6.22-6.36,8.82C747,548,742,550.82,738.49,555c3.61,1.19,5.18,4.22,3.43,7.67-8-8.07-23.66,24.06-28.13,30.32-7.78,10.92-9.82,33.18-24.37,38.93-6.55,2.59-6.06,11.27-9.26,16.39a10.56,10.56,0,0,1-7.49,4.83,13,13,0,0,1-3.34,13.6c-9.78,8.53,2,9.61,2.94,18.7.47,4.52-2.41,5.32-2.63,8.88-.25,4.2.32,5.23.73,9.36a20.08,20.08,0,0,1-1.87,11.61c-3.84,7.54,3.45,3.6,2.8,10.87-.83,9.22-6.2,11-4.44,21,1.5,8.61,6.76,11.84,3.91,20.57-2.57,7.87,2.88,17.55,6.88,24.12,7,11.45-8.71,7.27-8.1,13.91.8,8.69-4.44,17.5-.29,26.25,2.33,4.9,21.12,31.4,6,30.62,6.86,5.47,7.6,12.55,15.81,17.58a241.09,241.09,0,0,0,27.33,14c15.55,7.08,37.38,19.06,28.94,37.93-6.07,13.61,12.28,41,28.81,34.26,6.52-2.67,9.4,16.58,10.77,20,4.1,10.32-2.95,21.93-7.25,31.19-3.95,8.51-14.08,20.6-14.38,30-.32,10,.66,12.92-8.71,19.49-17,11.89-36.48,18-56.71,22-24.41,4.84-48.06,11.87-73.1,13a194.81,194.81,0,0,1-27.26-.6c-10.83-1-18.16-7.73-28.54-9a22.77,22.77,0,0,0,5.81,7.1c2.67,2.4-.28,7.6,1.24,10.59.86,1.66,20.58,16,8.1,11.23,5.75,4.12,8.49,7,9.76,14.07.91,5.07,1.7,13.48-6.27,9.29,1.18,5.13,2.67,10.35,2.48,15.65-.15,4.29-4.64,8-1.39,11.84,2.37,2.8,5.66,4.74,8.39,7.15,4.17,3.67,2,9.61,7.83,6.55-3.55,20.86-25.16,24-43,25.6-23.72,2.09-43.13-13.64-66.47-17.1,9.66-1.85-.47-5.29-3.56-3.72-4.08,2.06-6.52,7.19-6.7,11.51-.49,12.49,15,21.55,17.4,33.84,1.93,10,2.17,22.31,13.45,26.55,5.76,2.16,21.58,3.37,17.1,13,2.41.58,24.63,3,23.13-2.64-1.22-4.63-11.48-4.81-15-6.68,7.39,1.11,11.35-6.38,18.21-6.78,7.08-.42,14.38,9.25,15.57,15.28,1.11,5.58,8.29,13.79,4.33,19.53-2.75,4-12.87,5.21-17.23,4.69-7.27-.87-6.09-9-9.69-12.51-5.91-5.77-14-8.11-21.25-3.35-19.15,12.58,12.45,22.83,23.52,20.08-.92,5.93-7.37,7.87-12.22,9.83-9.58,3.88-9.18,8.15-12.89,16.52-3.85,8.72-4.46,11.68,1.65,19.83,2.13,2.82,5.09,6.27,5.46,10a14.34,14.34,0,0,0-.15,7.47,11.89,11.89,0,0,1,4,8.61c-.29,1.59.53,7.39-1.85,8-3.39.87-8,2.3-8.51,6.46-.79,7,10,8.1,8.87,13.6-1.27,6-44.3-2.55-35.08,12.78-18.58-3.85-23.5,18-26.06,31.33-4.31,22.28,10.58,31.12,27.66,42.45,8.39,5.57,15.64,12.94,25,17,12,5.16,26.48-1.8,37.84,4.8,15.87,9.22,18.3,40.09-6.47,37,4.56,1.8,7.84-2.18,12.14-2.53,6.54-.54,9.11,3.85,13,8.08-3.79.44-5,2.61-3.07,5.9-7.14-1.42-21.51,16.68-25.93,21a90.64,90.64,0,0,0-14.55,18c-2.89,4.64-5.7,7.39-5.45,13.12.21,4.56.68,8.89-3.42,12.15a5.7,5.7,0,0,0,7-4.72c.45,12.63,14.59,34.55-4.64,40.58-14.17,4.44-18.71-16.71-30.89-18.87,3.14,1.16,11.39,7.36,8.66,11.45-2,3-10.35.42-13.4,2.95,11.85-4.77,16.88,3,27.28,5.13-1.28,7.82-13.84,7.41-16.73,16.08-3.89,11.66,4.47,19.22-2.32,31.07,8.78-10.69,21.49,12.77,24.68,18.91,4.9,9.43-15,3.9-19.93,7.88,5.16-1.66,17.29,3.11,19.5,1.84,7.1-4.1,12.59,5.26,18,9.47,10.49,8.17,21.72,14.11,26.57,26-2.55-4.26-8.39-4.06-12.69-4.52-7.71-.8-14.76-4.9-22.13-7-18.56-5.31-38.56-7.58-57.8-7.58h-25.6c-7.17,0-22.29,2.86-28.49-.94-9.65-5.92-17.78-19.19-30.3-20.72,3.94-5.7.31-15-4.7-18.54-6.62-4.73-1.49-10.93-5.05-16.75-2.2-3.59-9-12.91-14.44-10.48-4.24,1.9-7.93-.78-12.18.27-3.15.78-4.79,4.49-7.49,6-5.7,3.23-13.76-11.62-15.54-15.13-3.56-7-17.86-11.77-19-18.88-.6-3.76-2.61-3.86-4.32-7-1.35-2.48-.25-5.65-1.25-8.31-1.41-3.75-5.93-5.12-7.33-8.91-1.58-4.28-.23-8.79-.9-13.16,7.22,1.14,7.76-3,9.55-8.49,1-3.13-.89-5.7,1.69-8.5,2.29-2.48,6.78-.73,9.14-3.42,4.66-5.31-.34-14-3.95-18.64-4.15-5.39,6.78-5.81,7.37-10.21.66-4.89-6.64-11.06-10.19-13.52-7.21-5-8.26-8.21-8.21-16.73,0-5.86,1.47-26.62,11.91-25-2.11-4.66-7.93-5.11-7.68-10,.16-3.14-3.13-5.67-1.72-9,1-2.33,3.57-3.5,4.71-5.79,4.72-9.38-11.5-24-18.21-28.76,5.88-.27,9.4-11.27,2.95-13.07-4.61-1.29-12.1-11.71-7.17-16.16,4.19-3.8,5.5-1.26,8.43-7.4,2.49-5.19,3.35-5.31-1.37-9.8a114.5,114.5,0,0,0-13.45-10.89c-6.68-4.67-16.11.24-22.19-6.3-5.17-5.55,28.35-3.17,31.06-6.89-1.5,2,.15-10.82.84-8.92-5.08-14-28.11.29-33.75-13.43q-2.11-3.35-4.14-6.76c-1-3.66,4.8-6.93,2.31-10.42-3.17-4.44-11.08-7-6.64-11.9,5.54-6.14-21.91-11-12-19.71,5.3-4.67-1.37-8.45-6.22-9.26-9.24-1.55-12.81-5-15.69-13.73-2.19-6.69-2.42-14.67-4.8-21-1.8-4.8-9.14-8.89-2.15-13.74,4.33-3,11.91-.58,6.44-7.8-4.67-6.17-14.82-14.73-13.93-23.12,1.53-14.52-13.66-28-16.21-41.14-1-5.33-.66-12.4,1.81-17.18,3.93-7.63-7.17-9.51-8.4-16,10.3,3.4,3.65-11.28.69-14.63-6-6.77-4.26-10.16,4.05-10.45-5.27-5-2.56-19.77-5-26.78-3.75-10.74,7.22-12.82,13.87-18.75,7.24-6.45-8.46-16.79-10.66-24.72-2.79-10-18.62-22.3-17-32.2,1.08-6.65-5.71-22.79-8.88-29.16-3.38-6.83-5.13-21.88.38-27.81,3-3.19,5.65.23,7.43-3.64,1.34-2.92,1-7.16,3.29-9.62,1.79-2,6.52-3.15,6.77-6.06.59-6.94-1.94-14.28-4.67-20.54-2.3-5.29-5.1-10.35-7.72-15.49-.64-1.27-5.93-4.7-5.93-5.27,0-4.64,5.82-2.6,6.41-7.86s-.46-10.39-1-15.51.74-28.36,8.48-27c7.49,1.31-3.12-17.15-3.75-18.63-2.92-6.87.82-30.57-7.43-33.19-4.68-1.48-1.84,6-8.27-1.85-4.72-5.77-3.38-8.55-2.38-15,.79-5-2.92-6.86-6.39-9.35-4.5-3.21-3-6.26-4.46-10.79-3.14-10-13.36-16.13-16.28-26.16,9.67,4.38-1.07-8.62-4.78-10.47-8.84-4.43-11.81-18.69-12.19-27.24-.46-10.51,7.7-6.62,5.36-17.81-1.7-8.21,6.77-23.19.79-29.86,14.63,9.59,9.1-15.21,7.12-20.5-2.89-7.73-16.56-28.21-11.9-35.65" transform="translate(-14.37 -2.97)"/><path id="path4520" class="cls-1" d="M579.62,1784.58c8.75,7.76,19.77,13.08,26.44,23-6-10.91-19.9,8.11,3.05,8.33,8.58.08,11.19,9.46,16.68,14.28,6.73,5.92,16.63,7.39,22.93,12.91,16.69,14.6,40.89,21.42,61.11,30.48,9.21,4.11,22.6,9.28,32.81,9,5-.14,10-1.16,15.07-.93,7.11.31,5.51,7.62,3.66,13.45-5.7-3.09-12.4,2.27-19.14-.28-7.34-2.79-17.46,6.48-26.68,4.54-10.34-2.18-19.36-4.64-30.09-5-12-.36-27.29.2-38.53-4.41-7.23-3-11.59,4.33-17.79-4.65-5.69-8.25-8.91-18.58-13.47-27.48-12.32-24.07-25.66-48.31-36-73.24" transform="translate(-14.37 -2.97)"/><path id="path4874" class="cls-1" d="M786.5,1894.63c5.9-7.19,18.79-5.19,26.81-8.08-10.9-2.73-21,.86-31.13,4.66a26,26,0,0,0,4.32,3.42" transform="translate(-14.37 -2.97)"/></g><g id="cl"><path id="path6426" class="cls-1" d="M614.66,1921.36a5.85,5.85,0,0,0-4.27-2.54q2.13,1.28,4.27,2.54" transform="translate(-14.37 -2.97)"/><path id="path6432" class="cls-1" d="M698.63,1942.61c.14-1.13.27-2.25.42-3.37a12.15,12.15,0,0,0-9.08,1.24,12.07,12.07,0,0,1,8.66,2.13" transform="translate(-14.37 -2.97)"/><path id="path6440" class="cls-1" d="M712.51,1942.19q1.07-4.35-4.33-1.71l4.33,1.71" transform="translate(-14.37 -2.97)"/><path id="path6442" class="cls-1" d="M718.58,1943.08a10.77,10.77,0,0,0-3.9-4.25l3.9,4.25" transform="translate(-14.37 -2.97)"/><path id="path6430" class="cls-1" d="M687.39,1929l3-3.83q-7.21-2.67-3,3.83" transform="translate(-14.37 -2.97)"/><path id="path6436" class="cls-1" d="M699.05,1898.88c.9,6.76,8,4.59,10.43,4.71-2.73-1.58-7.34-4.06-10.43-4.71" transform="translate(-14.37 -2.97)"/><path id="path6364" class="cls-1" d="M382.71,1814.32c-3.28,0-4.64-.73-4.75,3.42a43,43,0,0,0,4.75-3.42" transform="translate(-14.37 -2.97)"/><path id="path6372" class="cls-1" d="M399.6,1830.9l3.06-4.25c-5.36-1.45-6.38-.06-3.06,4.25" transform="translate(-14.37 -2.97)"/><path id="path6374" class="cls-1" d="M410.84,1821.11a56.54,56.54,0,0,0-6.49.88q1.68,2.15,3.48,4.19a88.14,88.14,0,0,0-9.07-2.07c3.87,1.39,17.84,6.07,12.08-3" transform="translate(-14.37 -2.97)"/><path id="path6376" class="cls-1" d="M453.27,1857.22a41.56,41.56,0,0,1,15.56-6.79c-4.65-1.61-5.45-9.23.85-6.37-1.63-8.86-10.87-4.49-14.32-9.91-2.54-4-10.22-7.78-9.48-.3-1.89-3.59-8.54-10-9.08-1.71-2.47-3.33-10.28-13.75-15.56-9.74q1.22,2.17,2.58,4.26a26.62,26.62,0,0,0-9.08,0c5.95,2.94,11.06,6.72,17.74,8-6.66.42-17.57-9-22.06-.41,3.57-.93,5.77.53,5.65,4.25,11.21-4.94,8,2.26,12.4,8.74,2.29,3.35,6.7,4.73,8.89.67,3-5.6,9.68-5.84,15.5-3.46-1.48,1.39-2.91,2.81-4.33,4.25q2.34,1.76,4.75,3.42a43.8,43.8,0,0,1-9.08,2.95,18.68,18.68,0,0,1,9.07,2.13" transform="translate(-14.37 -2.97)"/><path id="path6378" class="cls-1" d="M436,1857.22c.16-5.35-5.8-5.62-9.07-3a8.57,8.57,0,0,1,9.07,3" transform="translate(-14.37 -2.97)"/><path id="path6380" class="cls-1" d="M472.32,1854.27l-2.64.41c2.56,3.25,1.57,5.53-2.59,6,6.11,6.13,14.32-3.72,5.23-6.37" transform="translate(-14.37 -2.97)"/><path id="path6382" class="cls-1" d="M474.91,1871.68c1.23-2.67,1.08-4.06,4.75-3.43q-4.53-3.55-9.08,0a26,26,0,0,0,4.33,3.43" transform="translate(-14.37 -2.97)"/><path id="path6384" class="cls-1" d="M476.23,1843.65a10.14,10.14,0,0,0-4.32,1.64l4.32-1.64" transform="translate(-14.37 -2.97)"/><path id="path6386" class="cls-1" d="M493.06,1847.9c-3.81-1.3-6.49,2.32-8.45-1.8-1.72-3.6-9.54,3.78-12.28,3.92,2.15,7,21.3,7.51,18.57,16.58,11.82.22.29-8.45-2.58-11.92a7.24,7.24,0,0,0,8.65,2.12,16.21,16.21,0,0,1-3.91-8.9" transform="translate(-14.37 -2.97)"/><path id="path6388" class="cls-1" d="M484,1865.3a35.7,35.7,0,0,0-4.75-3.83l4.75,3.83" transform="translate(-14.37 -2.97)"/><path id="path6390" class="cls-1" d="M484.82,1873.8a8.69,8.69,0,0,0-4.27-1.3l4.27,1.3" transform="translate(-14.37 -2.97)"/><path id="path6392" class="cls-1" d="M487.47,1872.09q2.61-6.55-4.32-2.95l4.32,2.95" transform="translate(-14.37 -2.97)"/><path id="path6394" class="cls-1" d="M510,1851.27a26.6,26.6,0,0,0-15.56-1.66c1,.8,13.5,23.33,13.4,6.78-.13,10,11.53.43,9.5,10.21a36.44,36.44,0,0,0,9.55-3.42c-2.24-3.09-12.73-15.58-10.4-3.84a10.89,10.89,0,0,1-6.49-8.07" transform="translate(-14.37 -2.97)"/><path id="path6396" class="cls-1" d="M502.2,1887.37c-.49-3-.05-4.2-3.91-4.25l3.91,4.25" transform="translate(-14.37 -2.97)"/><path id="path6398" class="cls-1" d="M508.69,1862.29c.36,2.62.34,3.52,3.43,4.31l-3.43-4.31" transform="translate(-14.37 -2.97)"/><path id="path6402" class="cls-1" d="M542.83,1896.76l1.32-3.43c-6,.76-11.26-2.89-17.31-1.24a12.73,12.73,0,0,0,2.59,4.25c3.6-4.88,9.66-3.24,13.4.42" transform="translate(-14.37 -2.97)"/><path id="path6404" class="cls-1" d="M549.32,1858.1q1.86-7.81-4.32-1.71l4.32,1.71" transform="translate(-14.37 -2.97)"/><path id="path6408" class="cls-1" d="M555,1864c.89-5.45-5.9-4.37-8.65-2.54,2.87.87,5.76,1.71,8.65,2.54" transform="translate(-14.37 -2.97)"/><path id="path6410" class="cls-1" d="M562.79,1891.21a10.82,10.82,0,0,0-9.14,2.54,9,9,0,0,0,9.14-2.54" transform="translate(-14.37 -2.97)"/><path id="path6412" class="cls-1" d="M582.68,1895l-3.48,4.25c3.72-.34,3.31-1.29,3.48-4.25" transform="translate(-14.37 -2.97)"/><path id="path6414" class="cls-1" d="M588.75,1910.75a6.44,6.44,0,0,0-4.32-3l4.32,3" transform="translate(-14.37 -2.97)"/><path id="path6418" class="cls-1" d="M589.17,1901c7.66-1,16.63.35,22.9-5.13-6.51-1.45-21.38-3.76-26.8.89a24.49,24.49,0,0,0,3.9,4.24" transform="translate(-14.37 -2.97)"/><path id="path6422" class="cls-1" d="M592.6,1913.75c-4.1.61-3.52,1.72,1.74,3.36l-1.74-3.36" transform="translate(-14.37 -2.97)"/><path id="path6424" class="cls-1" d="M606.06,1918.82c-.93-2.6-.95-3.6-4.33-3l4.33,3" transform="translate(-14.37 -2.97)"/><path id="path6318" class="cls-1" d="M306.55,1748.05c5.17-1.53,1.07-7.18-1.75-8.49a9.56,9.56,0,0,0,1.75,8.49" transform="translate(-14.37 -2.97)"/><path id="path6322" class="cls-1" d="M317.79,1759.09c2.61-5.53,1.66-22.53-7.76-21.25a72.88,72.88,0,0,0,4.75,8.5c-7.95-1.61-1.1,9.88,3,12.75" transform="translate(-14.37 -2.97)"/><path id="path6326" class="cls-1" d="M322.12,1759.91c2.81-3.24,4.56-15.25-3-13.15-.11,4.63,2.39,8.66,3,13.15" transform="translate(-14.37 -2.97)"/><path id="path6328" class="cls-1" d="M331.68,1768.89c4.7-5.69-6.43-4.17-9.15-4.73,3.11,1.47,6.15,3,9.15,4.73" transform="translate(-14.37 -2.97)"/><path id="path6332" class="cls-1" d="M326,1756.55a10.24,10.24,0,0,0,6.91-4.66c-3.73-1-6.4,1-6.91,4.66" transform="translate(-14.37 -2.97)"/><path id="path6334" class="cls-1" d="M345.07,1751c.08-5.86-13.36-11.43-18.21-11,5.49,4.76,11.6,8,18.21,11" transform="translate(-14.37 -2.97)"/><path id="path6340" class="cls-1" d="M346.82,1743.39l3-2.12c-4.74-2.62-7.36-7.64-12.14-10.21,2.13,7.16,1.45,9.3,9.13,12.33" transform="translate(-14.37 -2.97)"/><path id="path6344" class="cls-1" d="M357.22,1772.25a7.59,7.59,0,0,0,5.59-3.83c-5.13-2.84-15.92-14.18-22.06-7.62,5.3-1.58,9.59,2.49,13.83,4.67-10.62-3-.16,5.67,2.64,6.78" transform="translate(-14.37 -2.97)"/><path id="path6346" class="cls-1" d="M407.83,1817.27a25.13,25.13,0,0,0,11.66.47c-6.71-1.7-11.52-7.1-18.16-9,13.54,13-18.51-12.72-4.32.41-9.35-6.9-18.83-7.11-29.5-9.83-8.35-2.12-15.28-11.08-24.6-8.81,11.28,5,19.16,12.08,31,15.61,6,1.8,12.27.74,18.15,3.07,4.9,1.94,9.68,10.29,15.77,8" transform="translate(-14.37 -2.97)"/><path id="path6348" class="cls-1" d="M350.25,1759.91c-1.36-2.34-1.54-3.06-4.75-2.12l4.75,2.12" transform="translate(-14.37 -2.97)"/><path id="path6350" class="cls-1" d="M356.32,1744.22c-.36-4.24-5.79-5.41-9.08-6a66.07,66.07,0,0,0,9.08,6" transform="translate(-14.37 -2.97)"/><path id="path6352" class="cls-1" d="M369.3,1764.16c-1.62-8.41-14.37-13.83-22.06-14.45,4.82,7.71,15.46,8.79,22.06,14.45" transform="translate(-14.37 -2.97)"/><path id="path6354" class="cls-1" d="M355.89,1748.47c-2-1.76-.4-3.27-4.32-2.12l4.32,2.12" transform="translate(-14.37 -2.97)"/><path id="path6356" class="cls-1" d="M368.88,1772.25l3-.83c-2.86-5.82-10-9.1-16.4-8.5,4.37,3.26,9.62,5.29,13.4,9.33" transform="translate(-14.37 -2.97)"/><path id="path6358" class="cls-1" d="M360.64,1753.54q4.65-3.55-3-4.25l3,4.25" transform="translate(-14.37 -2.97)"/><path id="path6360" class="cls-1" d="M363.71,1763.34c.73-3.07-.88-3.63-4.8-1.71l4.8,1.71" transform="translate(-14.37 -2.97)"/><path id="path6362" class="cls-1" d="M374.47,1788.83c6.09-3.32,3.57-16-4.26-14.62-6.09,1.08,4.29,12.23,4.26,14.62" transform="translate(-14.37 -2.97)"/><path id="path6366" class="cls-1" d="M386.19,1807.53a6.44,6.44,0,0,0,4.33,3l-4.33-3" transform="translate(-14.37 -2.97)"/><path id="path6368" class="cls-1" d="M400,1799.87c-1.18-5.82-9.5-5.22-13.41-2.95,4.79-1.62,9.63-.13,13.41,2.95" transform="translate(-14.37 -2.97)"/><path id="path6370" class="cls-1" d="M388.78,1755.67c3.44-1.23,5.65-4,3.9-7.62-3.2,1.37-5.17,4.15-3.9,7.62" transform="translate(-14.37 -2.97)"/><path id="path6272" class="cls-1" d="M255,1650.33c-3.27-8.84-12.65-13.18-21.64-14,1.21,4.62,5.63,10.94,10.82,6,.52,6,7.51,4.43,10.82,8.07" transform="translate(-14.37 -2.97)"/><path id="path6286" class="cls-1" d="M269.35,1669.87a22,22,0,0,1,6.49-8.09c-5,3.21-9.47,2.86-8.24-3.36a4.52,4.52,0,0,1-5.8-1c-3.63-2.75-8,.56-11.93.12,3.24,2.62,14.7,4.12,13.83,9.8-5.77,1.27-5-6.15-10.82-5.13.16,2.48.3,5.93,2.35,7.79,3.58,3.26,10.93-1.12,6.78,6.25a10,10,0,0,0,7.34-6.37" transform="translate(-14.37 -2.97)"/><path id="path6290" class="cls-1" d="M270.67,1694.06c1.35-4.24-2.38-7.83-4.39-11,3.39,1.71,6.14.47,6.49-3.36-4.79,1.13-9-2.71-13.4.82,4.21,1.43,4.76,4.42,1.32,7.2,5.45-.21,4.44,6.38,10,6.37" transform="translate(-14.37 -2.97)"/><path id="path6294" class="cls-1" d="M274.09,1674.53q-1.77-1.72-4.32-.41l4.32.41" transform="translate(-14.37 -2.97)"/><path id="path6300" class="cls-1" d="M282.74,1695c.6-3.78-.62-8.31-5.59-7.68a9.72,9.72,0,0,0,5.59,7.68" transform="translate(-14.37 -2.97)"/><path id="path6304" class="cls-1" d="M285.82,1679.66a10.34,10.34,0,0,0,3.42-6.37c-3.83.47-5.65,2.92-3.42,6.37" transform="translate(-14.37 -2.97)"/><path id="path6306" class="cls-1" d="M297.9,1698.78c.17-3.32-9.58-13.32-13-10.2-6.33,5.8,9.18,10.05,13,10.2" transform="translate(-14.37 -2.97)"/><path id="path6308" class="cls-1" d="M302.22,1709.82c2.57-4,7.42-6.81,12.15-4.25-7.32-4.82-8.1-15.19-19.06-13.63a71.42,71.42,0,0,1,6.92,9,105.71,105.71,0,0,0-13.83-2.13c.38,4.89,9.26,10.43,13.4,6.31.14,1.58.28,3.15.43,4.73" transform="translate(-14.37 -2.97)"/><path id="path6310" class="cls-1" d="M292.31,1735.31c6.35-1.65,3.16-10.51,3.84-14.87-3.25,2.46-6.14,1.06-7.33-2.55.18,5.3-.39,13.14,3.49,17.42" transform="translate(-14.37 -2.97)"/><path id="path6314" class="cls-1" d="M316.11,1696.6c.18-5-7.26-7.71-10.88-9.32,8.12,0,2.19-1.47-.83-4.6-3.41-3.54-6.78-5.41-11.67-3,3.74,2.12,4.88,5.78,7.33,9,4.09,5.33,10.74,4.69,16.05,8" transform="translate(-14.37 -2.97)"/><path id="path6316" class="cls-1" d="M300.9,1727.64c5.11-1.39,7.73-6.6,9.14-1.24a20.63,20.63,0,0,1,0-5.55c1.61.94,3.19,1.93,4.75,3-4.31-7-9.87-14.86-16.47-3.36,3.66,1.17,5.09,4,2.58,7.2" transform="translate(-14.37 -2.97)"/><path id="path6320" class="cls-1" d="M316.11,1714.48c.86-4.81-5.38-5-7-8.91-4.17,5.27,3.45,7.34,7,8.91" transform="translate(-14.37 -2.97)"/><path id="path6324" class="cls-1" d="M322.12,1714.89l3.07-.83c-3.61-4.36-6.9-9.13-11.73-12.33,2.75,4.47,5.55,8.92,8.66,13.16" transform="translate(-14.37 -2.97)"/><path id="path6330" class="cls-1" d="M333.83,1726.4a6.76,6.76,0,0,0-8.23-6.43,16.45,16.45,0,0,0,8.23,6.43" transform="translate(-14.37 -2.97)"/><path id="path6338" class="cls-1" d="M334.26,1722.56l3.91-2.59c-1.62-3.81-4.78-4.81-7.82-1.65a24.16,24.16,0,0,0,3.91,4.24" transform="translate(-14.37 -2.97)"/><path id="path6342" class="cls-1" d="M345.5,1722.56c.16-3.37-1.75-5.37-5.17-5.54-.15,3.37,1.76,5.38,5.17,5.54" transform="translate(-14.37 -2.97)"/><path id="path6206" class="cls-1" d="M226.49,1590.39c7.73-8-19.15-35.72-29.45-30.16,1.78,2.47,8.39,5.47,8.84,8.35.77,4.94,7,4.1-.61,7,4,1.62,8.78-3.24,10.59,1.33,1.72,4.32,6.35,11.32,10.63,13.48" transform="translate(-14.37 -2.97)"/><path id="path6218" class="cls-1" d="M207.92,1547.48q2.15-4.08-1.75-6.78a13,13,0,0,0-3.06,4.25l4.81,2.53" transform="translate(-14.37 -2.97)"/><path id="path6220" class="cls-1" d="M210.08,1590c6,1.3,9.67-3.22,6.49-8.5-3.91-6.51-7.65-1.89-13-.41,1.18,5.15,6.58,5.56,10.82,6.79l-4.27,2.12" transform="translate(-14.37 -2.97)"/><path id="path6226" class="cls-1" d="M213.93,1545q2.63-6.37-4.33-3.37l4.33,3.37" transform="translate(-14.37 -2.97)"/><path id="path6230" class="cls-1" d="M224.75,1559a10.58,10.58,0,0,0-4.75-12.33,6.86,6.86,0,0,0,0,8.49c-3.14-2.66-10.74-4-9.08,2.54,4.58-4.46,9,.5,13.83,1.3" transform="translate(-14.37 -2.97)"/><path id="path6234" class="cls-1" d="M233,1609.57c-.52-7.19-14-13.64-19.89-9.8,1.69,8.73,15.76,2.34,19.89,9.8" transform="translate(-14.37 -2.97)"/><path id="path6236" class="cls-1" d="M224.33,1561.94c-1.45-3.58-5.7-4.27-9.08-3.84a29.27,29.27,0,0,1,9.08,3.84" transform="translate(-14.37 -2.97)"/><path id="path6242" class="cls-1" d="M221.32,1610q1.08-4.35-4.33-1.71l4.33,1.71" transform="translate(-14.37 -2.97)"/><path id="path6254" class="cls-1" d="M226.91,1618.88c-1.32-5.65,9.16-10.08-1.27-13.15.81,5.66-10.11,11.44,1.27,13.15" transform="translate(-14.37 -2.97)"/><path id="path6258" class="cls-1" d="M233,1605.31l4.75-2.12a13.4,13.4,0,0,0-12.5-6.84q4.05,4.32,7.75,9" transform="translate(-14.37 -2.97)"/><path id="path6260" class="cls-1" d="M229.08,1557.28a44.69,44.69,0,0,0-3.43-4.66c1.14,1.55,2.28,3.11,3.43,4.66" transform="translate(-14.37 -2.97)"/><path id="path6262" class="cls-1" d="M232.56,1597.23a6.27,6.27,0,0,0-3.91-6.38c-1.81,3.56.32,5.81,3.91,6.38" transform="translate(-14.37 -2.97)"/><path id="path6264" class="cls-1" d="M249.45,1590c7.93-1.69-14.8-23.75-17.74-27.15q.79,4.47,1.69,8.92c1.34,3.26,4.68,5,5.65,8.49-3.29-7.76-12.46-3.16-8,4,3.34,5.37,13.29,3.48,18.42,5.77" transform="translate(-14.37 -2.97)"/><path id="path6266" class="cls-1" d="M234.3,1632.45a10.18,10.18,0,0,0-4.32-2.54l4.32,2.54" transform="translate(-14.37 -2.97)"/><path id="path6270" class="cls-1" d="M235.14,1592.56c4.73-2.65,2.74-4.78-2.16-4.24l2.16,4.24" transform="translate(-14.37 -2.97)"/><path id="path6274" class="cls-1" d="M235.14,1549.61c1.09-2.09,2.58-1.69,1.32-4.66l-1.32,4.66" transform="translate(-14.37 -2.97)"/><path id="path6280" class="cls-1" d="M245.54,1572.56c6.47-4.51-1.83-9.16-6.49-8.91q3.28,4.44,6.49,8.91" transform="translate(-14.37 -2.97)"/><path id="path6282" class="cls-1" d="M246,1554.75c5.14-1.54,11.15-.36,15.15-4.67-7.24-3.68-14.45-.86-22.06-1.71a7.68,7.68,0,0,0,6.92,6.38" transform="translate(-14.37 -2.97)"/><path id="path6284" class="cls-1" d="M258.53,1578.93c1.08-4.18-5.29-6.31-7.82-8.08-2.59,5.53,4.45,6.3,7.82,8.08" transform="translate(-14.37 -2.97)"/><path id="path6288" class="cls-1" d="M267.6,1580.23a8.53,8.53,0,0,0-9.07-4.66,51.1,51.1,0,0,0,9.07,4.66" transform="translate(-14.37 -2.97)"/><path id="path6292" class="cls-1" d="M271.09,1556.46c-.34-2.4-1.77-3.68-4.33-3.84l4.33,3.84" transform="translate(-14.37 -2.97)"/><path id="path6296" class="cls-1" d="M278.42,1635.88l3.91-3a15.84,15.84,0,0,0-8.66-5.9,51.48,51.48,0,0,0,4.75,8.91" transform="translate(-14.37 -2.97)"/><path id="path6298" class="cls-1" d="M278.42,1561.12a18.1,18.1,0,0,0-4.32-2.13l4.32,2.13" transform="translate(-14.37 -2.97)"/><path id="path6166" class="cls-1" d="M178.89,1441.27a12.23,12.23,0,0,0-4.75-2.13l4.75,2.13" transform="translate(-14.37 -2.97)"/><path id="path6176" class="cls-1" d="M181.47,1442.57l4.33.83a26.74,26.74,0,0,0-.84-8.5c-3.87,1.07-5.66,4-3.49,7.67" transform="translate(-14.37 -2.97)"/><path id="path6222" class="cls-1" d="M213.09,1451.89c.72-3.76,1.11-9.77-4.75-8.91a16.91,16.91,0,0,0,4.75,8.91" transform="translate(-14.37 -2.97)"/><path id="path6240" class="cls-1" d="M219.58,1455.31a10.52,10.52,0,0,1,6.07-5.54c-4.47-5.25-11.67.92-6.07,5.54" transform="translate(-14.37 -2.97)"/><path id="path6244" class="cls-1" d="M220.89,1444.28a6.85,6.85,0,0,0-3.9-4.72c1.3,1.57,2.61,3.14,3.9,4.72" transform="translate(-14.37 -2.97)"/><path id="path6248" class="cls-1" d="M223.9,1413.65a11.69,11.69,0,0,0-3.9-4.25l3.9,4.25" transform="translate(-14.37 -2.97)"/><path id="path6250" class="cls-1" d="M221.74,1514a5.55,5.55,0,0,0,3-5.55q-7.37-.8-3,5.55" transform="translate(-14.37 -2.97)"/><path id="path6252" class="cls-1" d="M229.5,1466.35c2-6.23-3.54-11.59-9.08-6.38a25.89,25.89,0,0,1,9.08,6.38" transform="translate(-14.37 -2.97)"/><path id="path6256" class="cls-1" d="M229.08,1457.44a8.24,8.24,0,0,0-6-5.08,5.4,5.4,0,0,0,6,5.08" transform="translate(-14.37 -2.97)"/><path id="path6144" class="cls-1" d="M165.9,1360.54c-2.19-.88-1.82-2.33-4.75-.83l4.75.83" transform="translate(-14.37 -2.97)"/><path id="path6174" class="cls-1" d="M184.54,1377.54c2.65-3.84-2.55-4.13-4.81-2.13l4.81,2.13" transform="translate(-14.37 -2.97)"/><path id="path6132" class="cls-1" d="M134.29,1337.65a26.87,26.87,0,0,0,4.38-3.42,7.19,7.19,0,0,0-8.65,0l4.27,3.42" transform="translate(-14.37 -2.97)"/><path id="path6134" class="cls-1" d="M148.59,1402.2c1.42-3.48-.68-5.51-4.32-4.25a34,34,0,0,0,4.32,4.25" transform="translate(-14.37 -2.97)"/><path id="path6136" class="cls-1" d="M156,1389.87c-.43-2.58-.43-3.49-3.49-4.25l3.49,4.25" transform="translate(-14.37 -2.97)"/><path id="path6138" class="cls-1" d="M162.48,1287.08q1.16-5.49-4.33-.42l4.33.42" transform="translate(-14.37 -2.97)"/><path id="path6140" class="cls-1" d="M168.49,1282.83a7,7,0,0,0-9.08-5.14,24.6,24.6,0,0,1,9.08,5.14" transform="translate(-14.37 -2.97)"/><path id="path6142" class="cls-1" d="M169.39,1390.76c-1.84-4.28-6.32-4-9.14-.89l9.14.89" transform="translate(-14.37 -2.97)"/><path id="path6146" class="cls-1" d="M169,1383.08a6.64,6.64,0,0,0,1.68-7.2,7.54,7.54,0,0,1-9.07,2.08,7.57,7.57,0,0,0,7.39,5.12" transform="translate(-14.37 -2.97)"/><path id="path6148" class="cls-1" d="M167.65,1362.25a8.71,8.71,0,0,0-4.33-.41l4.33.41" transform="translate(-14.37 -2.97)"/><path id="path6150" class="cls-1" d="M168.06,1370.75a4.17,4.17,0,0,0-4.33-.83l4.33.83" transform="translate(-14.37 -2.97)"/><path id="path6152" class="cls-1" d="M173.29,1352.52c-.47-3.22,1-6.18,4.75-6.38-4.87,1.47-10.08-1.08-13.89,3.37a20.13,20.13,0,0,1,9.14,3" transform="translate(-14.37 -2.97)"/><path id="path6154" class="cls-1" d="M176.3,1398.78c1-4.58-4.65-6.6-8.24-6.37a16.56,16.56,0,0,0,8.24,6.37" transform="translate(-14.37 -2.97)"/><path id="path6156" class="cls-1" d="M172,1248q.3-3.63-3.48-4.66L172,1248" transform="translate(-14.37 -2.97)"/><path id="path6158" class="cls-1" d="M178.89,1304.9a10,10,0,0,0-8.66-2.54c2.89.82,5.78,1.66,8.66,2.54" transform="translate(-14.37 -2.97)"/><path id="path6160" class="cls-1" d="M180.21,1396.24c4.63-1.86,8.06-6.25,13.4-6.37a18.72,18.72,0,0,0-16.94-3.85c-9.43,2.82-2.62,8.62,3.54,10.22" transform="translate(-14.37 -2.97)"/><path id="path6162" class="cls-1" d="M180.63,1372.06a17.18,17.18,0,0,1,1.74-5.55,16.53,16.53,0,0,0-9.56-.83,14.07,14.07,0,0,0,7.82,6.38" transform="translate(-14.37 -2.97)"/><path id="path6168" class="cls-1" d="M180.21,1354.64a4.08,4.08,0,0,0-4.33-1.3l4.33,1.3" transform="translate(-14.37 -2.97)"/><path id="path6170" class="cls-1" d="M183.63,1383.5c.59-1.28,1.16-2.56,1.75-3.83a54.43,54.43,0,0,0-9.08-2.13,10.07,10.07,0,0,0,7.33,6" transform="translate(-14.37 -2.97)"/><path id="path6172" class="cls-1" d="M183.63,1365.68a7.89,7.89,0,0,0-5.16-5.14c-.19,3.39,1.71,5.27,5.16,5.14" transform="translate(-14.37 -2.97)"/><path id="path6178" class="cls-1" d="M180.21,1405.63c5.29,2.15,11.85-1.07,16.83-2.59-5.48-4.4-13.43-4.08-16.83,2.59" transform="translate(-14.37 -2.97)"/><path id="path6180" class="cls-1" d="M187.54,1420.91c.94-3.68-2.4-6.49-5.65-7.25a7.69,7.69,0,0,0,5.65,7.25" transform="translate(-14.37 -2.97)"/><path id="path6182" class="cls-1" d="M187.12,1372.46q.78-6.8-4.75-.82l4.75.82" transform="translate(-14.37 -2.97)"/><path id="path6186" class="cls-1" d="M187.12,1425.57q1.62-6.36-4.33-1.71l4.33,1.71" transform="translate(-14.37 -2.97)"/><path id="path6188" class="cls-1" d="M191,1362.25c1.86-4.79-3.46-8-7.4-8.49a38.17,38.17,0,0,0,7.4,8.49" transform="translate(-14.37 -2.97)"/><path id="path6190" class="cls-1" d="M188.86,1378.84q3.62-4.08-3.06-4.25l3.06,4.25" transform="translate(-14.37 -2.97)"/><path id="path6192" class="cls-1" d="M190.13,1398.78a6.26,6.26,0,0,0,0-4.66,15.35,15.35,0,0,0-4.33,3.42l4.33,1.24" transform="translate(-14.37 -2.97)"/><path id="path6194" class="cls-1" d="M192.29,1444.69c5.92-2.89,7.72-14.82-.84-15.28-9.39-.51-.27,11.85.84,15.28" transform="translate(-14.37 -2.97)"/><path id="path6196" class="cls-1" d="M198.35,1405.63c-3.67,1.88-7.86,2.2-11.65,3.77,1.06,8.58,18.16,8.25,24.22,7.26-.84-5.62-6.61-11.12-12.57-11" transform="translate(-14.37 -2.97)"/><path id="path6198" class="cls-1" d="M202.27,1423.86c2.74-.3,5.49-.57,8.23-.83-2.58-4.93-12.52-7.27-17.31-4.66a21.06,21.06,0,0,0,9.08,5.49" transform="translate(-14.37 -2.97)"/><path id="path6200" class="cls-1" d="M200.52,1403.5c2.65-4.66-2.3-8.8-6.91-7.25a14.31,14.31,0,0,0,6.91,7.25" transform="translate(-14.37 -2.97)"/><path id="path6202" class="cls-1" d="M200.1,1392.88l5.65-1.3c-6.48-12.4-16.35-2.53-5.65,1.3" transform="translate(-14.37 -2.97)"/><path id="path6204" class="cls-1" d="M198.78,1262.41q1.29-4.8-4.33-2.12l4.33,2.12" transform="translate(-14.37 -2.97)"/><path id="path6208" class="cls-1" d="M201.43,1434.89c2.31-4.11,7.46-2.65,10.82-1.24-2.3-6.6-14.89-6.75-10.82,1.24" transform="translate(-14.37 -2.97)"/><path id="path6210" class="cls-1" d="M204,1397.54h3c0-3.64-1.9-5.47-5.59-4.25l2.58,4.25" transform="translate(-14.37 -2.97)"/><path id="path6212" class="cls-1" d="M207.44,1427.69q.67-5.75-4.75-1.29l4.75,1.29" transform="translate(-14.37 -2.97)"/><path id="path6214" class="cls-1" d="M209.18,1356.71c-.7-4.62-1.17-8.61-6.49-5.49a6.72,6.72,0,0,0,6.49,5.49" transform="translate(-14.37 -2.97)"/><path id="path6216" class="cls-1" d="M210.5,1442.15c6.51-4-3-10-7.81-6.78a13.21,13.21,0,0,0,7.81,6.78" transform="translate(-14.37 -2.97)"/><path id="path6238" class="cls-1" d="M225.23,1443.86c.27-2.2-2.38-16.22-6-14.9-10.82,3.9,2,11.6,6,14.9" transform="translate(-14.37 -2.97)"/><path id="path6464" class="cls-1" d="M199.2,1446l-1.26-4.72q8.82.86,1.26,4.72" transform="translate(-14.37 -2.97)"/><path id="path6470" class="cls-1" d="M401.76,1763.34l-.42-4.67a18.74,18.74,0,0,1,2.59,4.67h-2.17" transform="translate(-14.37 -2.97)"/><g id="g3355"><path id="path6428" class="cls-1" d="M700,1905.64c-6.82-8.91-43.2-16.74-51.09-5.08,6.63-3.23,7.95,5.44,11.52,8.61,3.09,2.75,22.68,2.6,12.28,3.72a58.18,58.18,0,0,0,9.14.42c2.44-.53-.54-2.83.6-3.78,3.54-3,6.93,4.88,8.92,5.79,5.59,2.57,10.43-5,8.63-9.68" transform="translate(-14.37 -2.97)"/><path id="path6434" class="cls-1" d="M706.44,1937.12a12.2,12.2,0,0,0-6.07-7.26,13.57,13.57,0,0,0-3,4.72c3,.88,6,1.73,9.07,2.54" transform="translate(-14.37 -2.97)"/><path id="path6438" class="cls-1" d="M710.35,1910.33a7.18,7.18,0,0,0-5.65,3,11.72,11.72,0,0,0,8.65,1.24l-3-4.25" transform="translate(-14.37 -2.97)"/><path id="path6444" class="cls-1" d="M722.85,1912.86c3.44-3.28.69-6.09-3.43-4.24a26.41,26.41,0,0,0,3.43,4.24" transform="translate(-14.37 -2.97)"/><path id="path6400" class="cls-1" d="M544.57,1861.88c-1.64-5.25-7.1-8.3-9.49-13.16q4.14,4.11,8.65.41c-6.79-3.16-6.13-12.91-12.57-16.1-9.49-4.72-5,8.06-.84,11a12.21,12.21,0,0,0-9.14.41c5.62,9,12.7,15.17,23.39,17.41" transform="translate(-14.37 -2.97)"/><path id="path6406" class="cls-1" d="M569.7,1909c1.43-3.79,2.63-7.09,7.33-4.26-2.26-6.06-11.89-4.66-16.89-5.49a7.83,7.83,0,0,0,7.82-5.07c-3.9-.34-6.56,3.8-10.32,3.15-4.19-.72-8.41-2-12.64-.61,4.1,10,19.88,1.83,24.7,12.28" transform="translate(-14.37 -2.97)"/><path id="path6420" class="cls-1" d="M587.85,1905.25c2,4,13.56,5.5,17.31,4.66-4,7.91,16.23,13.08,21.21,10.21q-4.49-3.33-9.15-6.4c-11.58-7.59,8.42-3.59-4.73-7.64,5.34-1.83,12.27,4.88,18.24,5.27,5.71.38,9.71,6.87,7.3,10,4.78-3,18.2.45,23.53,1.73,6.19,1.5,7.32,9.17,15,7.24-4.85-5.54-8.73-10.28-16-12.8-5.51-1.91-14.27-.82-18.21-5.9,4.7,4,12.47,2.28,17.79.82-10.86-7.33-27-1.15-36.36-11.44,8.51,3.25,11.33,2.07,19.73,2.21,6.6.11,2.82-6.31-1.7-7-6.65-1.1-13.66.9-20,2.8-3.58,1.07-23.62-2.1-17.11,6.71-2.8-7.27-12.62-4.59-16.89-.43" transform="translate(-14.37 -2.97)"/><path id="path6224" class="cls-1" d="M212.25,1595.1a22.32,22.32,0,0,0,9.91-6c-5.17-1.6-8.68,3.91-13.83,1.71a39.4,39.4,0,0,0,3.92,4.25" transform="translate(-14.37 -2.97)"/><path id="path6232" class="cls-1" d="M227.81,1577.7c13.58-9.88-6.4-17.55-15.56-16.17a61,61,0,0,0,15.56,16.17" transform="translate(-14.37 -2.97)"/><path id="path6268" class="cls-1" d="M269.35,1655c4,1.73,9.5,2,13,0a38.38,38.38,0,0,0-3.49-3.83c7.9,5.39,4.68-7.8-1.68-8.91,11.77,2.22-5.12-12.46-3.07-.84-1-9.94-1.56-24.33-9.77-31.61-3.11-2.76-1.27-7.1-5.75-8.49-3.07-1-6.53-16.75-6.53-5.39-4.67-18.14-21.49,7.66-9.08,2.13-9.91,2.5-.62,8.58,3.91,4.25-3.14,4,4.71,16.12,5.59,20.41a27.63,27.63,0,0,0-8.65-5.54c6,12-10.62-5.18,0,7.26a8.52,8.52,0,0,0-8.66-3.84,71,71,0,0,1,8.66,8.5c-4.68-2.84-8-7.42-13-9.8-.73,8,7.81,9.33,11.62,14.69,4.13,5.81,10.68,14.63,18.68,15,.41-5.75-6-7.92-6.49-13.15s5.26-5.63,5.65-10.63c5.06.64,6.57,6.6-.91,5.08-.1,3.54,2.34,6,5.65,6.84-1.6.81-3.18,1.65-4.74,2.54,1.44,3.3,6,3.81,8.74,5.52,6,3.7-4.63,7.79,5.09,5.93-1.53,1.35-3.11,2.63-4.76,3.83" transform="translate(-14.37 -2.97)"/><path id="path6276" class="cls-1" d="M249.45,1619.3c1.91-7.34-10.62-17.4-13.43-9.48-1.13,3.16,11.53,7.7,13.43,9.48" transform="translate(-14.37 -2.97)"/><path id="path6278" class="cls-1" d="M241.22,1618.47a4.47,4.47,0,0,0-4.33-1.71l4.33,1.71" transform="translate(-14.37 -2.97)"/><path id="path6130" class="cls-1" d="M150.34,1246.3c-4.28-3.21-5.37-.84-7.48,2.43-2.6,4-11.18-4.59-14.58-4.55,7.49,7.5.69,17.57,4.58,23.73,6.45,10.26,5.42,25.4,10.55,35.62,2.2,4.38-2.63,7.1-.63,11.91s7.95,6,12.39,7.21a90.58,90.58,0,0,0,11.74,2.65c8.17,1,1.25-10.77.74-13.14,12.58-1.47,0-10-3.91-13.64a27.94,27.94,0,0,0,8.66,0c-1.56-2.79-25.12-17.89-12.15-17.82-9.83-5.69.45-9,5.23-12.75-6.23-6.09-12.28-13.36-15.15-21.65" transform="translate(-14.37 -2.97)"/><path id="path6228" class="cls-1" d="M236,1392.41a29,29,0,0,0-3.43-4.66c6.42-1.7,5.06-8-.95-8.61A10.28,10.28,0,0,1,226,1378c-5.16-4.13-4.16,1.89-10.77-1.7-1.35,3.62.91,6.19,4.33,7.2a14.59,14.59,0,0,1-9.5,3c1.18,4.34,4.29,10.21,9.92,9-9.77,1.73.26,5.78,3.71,6.24,5.46.7,9.48-5.8,12.28-9.26" transform="translate(-14.37 -2.97)"/><path id="path6462" class="cls-1" d="M14.86,48.6c9.52-5.3,20.91-.52,24.7-13.64,1.75-6-6.69-14.9-1.86-20a4.54,4.54,0,0,1,3.73-.59c3.87-.05,7.27-6.31,9.37-8.74.05,7.37,8,10.64,10.05,17.19,2,6.35,6,8.74,12.43,10-6,5.57,2.77,21.17,4.83,27C83.45,75.1,86.56,84,99.79,94.55c12,9.5,6.68,12.54,1.52,24.54-.9,2.09,8.77,8.08,8.74,12.13-.06,5.06-8,5.49-11.23,7.42,6.49,5.89,1.22,12.25,5.23,18.7,2,3.21,7,2.33,9.08,5.49,2.76,4.32-.51,4.72,0,9,1.54,12.92,19.48,19.08,21,34,1.78,18.06,14.1,33.15,19.26,50.1,4,13,3.89,29.51,22.76,23.61,19.51-6.1,20.66,5.82,18.73,21.52-1.47,12.06-.53,34.74-11,43.66C161.56,351,146,360.76,141.1,374.78c-1.8,5.11,7.5,15.1,9.65,20.5-13.66.46-4.3,21.81-1.42,28,2.52,5.44,6.4,13.15,8.42,18.82,3.11,8.71-5.22,10.66-4.69,18.56.75,11,19.38,19.47,16.7,28.81-1.61,5.64-11.46,10.63-16.22,8.3-5.77-2.82-8.3,13.42-8.53,16.21a99.29,99.29,0,0,1-18.3,49.29c-8.66,11.82,2.58,20.73-2.14,33.81-2.35,6.51-9.63,7-7.2,15.21,2,6.91,7,12.59,9.07,19.44,1.18,4,2.54,6.91,3.73,10.89,1.09,3.62,3.19,6.5,4.27,9.79,2.38,7.22-5.25,18.11-12.24,9.68,5,5.62.39,16.87.39,23.27,0,4.46,2.82,11.16-1.62,15-3.26,2.81-3.53,2.14-3.89,8-.61,9.86,7,19.89,11.82,28,2.37,4,4.86,2.63,7.53,6.34,2.3,3.21,1.93,8.06-2.55,6,3.28,11.24,14.83,17.06,16.92,28.51.83,4.58,3.12,7.92,8,10.3,6.42,3.16-.22,10.15,1.08,15.16,3.42,13.24,17.43,1.78,17.26,16.85-.13,11.94-1.63,21.56,5,31.95,1,1.62,6.43,10.59.26,11-4.3.3-4.75,2.59-5.63,5.59a124.43,124.43,0,0,0-3.1,14.68c-1,6,1.1,11.38,1.74,17.31.89,8.17-3.6,10-6,9.22-4.84-1.59,1.15,3.27,3.56,6.65a75.46,75.46,0,0,1,13.81,35.3c.5,4-.18,6.33-4,6.75-3.58.39-5,6-5.09,8.67-.35,9.72-8.88.72-11.39,12.54a26,26,0,0,0,1.21,14.94c1.75,5,2,9.86,4.73,14.58,7.32,12.48,5.9,17.48,7,25.57,1.27,9.64,10.07,14.84,14.05,23.23,2.61,5.53,5,10.64,9,15.52,1.9,2.31,6.21,8.32,4.59,12-3.53,8.07-16.91,7.5-14.16,18.8,1.71,7-1.67,23.92,3.54,28.9-6,1.86-10.25,3.42-5,4.63,2.14.49,14.46,24.33,1.92,20.45,1.25,6.52,6,6.79,7.69,11.58,1.32,3.83-1.29,9.51-2,13.06-2.44,11.27,1.95,18.91,9.92,26.78,6.38,6.31,7.66,18.24,8.28,28.31.54,8.73,10.4,14.09,15.1,21.42-3.79,4.33-12,3.76-12.71,7.26-1.1,4.86,7.06,12.59,7.76,18.39.78,6.56,7.13,14,13,17.92,5.29,3.55,12.73,7.14,13.18,15.91.38,7.6-11.3,2,.33,11.3a77.42,77.42,0,0,1,7.94,6.78c4.72,5.13-.67,3.41.84,6.94,1.44,3.36,4.28,4.66,6.29,7.77,3.13,4.85-2,8,.45,12.26,3.11,5.5,3.39,10.05,9.63,11.21,8.41,1.58,18.65-1.6,25.09,5,1.71,1.74.61,11.75-1,13.19-6.16,5.47-16.62,2.87-23.54,3.14-15.07.57,1.12,6.23,7.77,6.77,15.1,1.23,36.38,16.25,19.48,29.46-1.78,1.39-4.57-.35-6,1.78-2.48,3.72,4.7,7.61,5.53,11,.76,3.1,4.1,3.66,5.86,5.94,2.89,3.74-1.95,11.24-6.26,11.43,6.12,4.38,23.21,19.6,18.24,28.25-2.33,4.06-5.84,5-3,10.68.81,1.6.07,6.7,2,7.53,3.21,1.42,4.22,3.82,5.69,7.07-6.63-1-12.13,16.23-11.8,21.09.38,5.61-1.3,10.91,2.5,15.76,3.29,4.19,18.92,12.41,17.25,18.62-1,3.82-6.46,4.2-7.54,7.74-1.82,5.93,9.35,12.69,4.16,20.9-2.7,4.29,0,4.52-1.83,9.27-1.66,4,3.5,6.73,1.07,14.55.13,2.28,8.73,11.08,6.29,19.89-.49,3.07.71,7.85-.5,15.26,1.58,4.67,2.26,3.48,6,11.9,3.83,5.33,7.44,11.8,12.9,16.54,4.51,2,5.19.89,8.54-1.45,4-2.77,7.09-1,11.44-.93,9.36.1,11.06,1,17,9.91,4.14,6.22-1.52,13.82,4.46,17.23,5.23,3,9.23,14.23,5.83,19.16,9,1.1,20.93,11,26.12,17.68,6,7.74,33.06,3,40.64,2.29,33.62-3.1,67.64,5,104.59,17.44-4.42,2.18-16.24-.21-24.8-1.76-15.62-2.84-8.4,2.14-13.25,8.55-4.28,5.65-12.88.31-17.9,5.77-6.07,6.58-17,5.31-25,7.8,5.25,6.83,5.68,15.36,7.45,23.39,1.72,7.83,6.67,12.24,10.42,18.93,10,17.81-13.81,11.78-22.86,10-10.88-2.22-35.6-8.91-39.77-20.65s19.12-5,9.3,2.79c5.59.15,3.85-6.53,6-9.41,1.55-2.07,13.79,8.51,7.81,14.13,9.47-3.18-7.79-17.51,10-20.61,3.07-.53,3.75-8.77,3.76-10.91,0-6-10.34-4.77-13.77-8,.25,6.3-9,12.08-13.4,15.28-7.53,5.45-14.26-3-21.64,1.72,5.37-1,9.58,3.55,13.4,6.37a14.52,14.52,0,0,1-9.08-.89,9,9,0,0,1-1.32,9c5.46.7,9.71,4.49,13.46,8.08-13.07,3.25-35.25-10.7-44.59-18.71,6.44,3,15.5,2.7,22.48,2.54-1.13-5.7-14.85-6.13-15.33-17.27-.3-6.68,11.61-9.39,9.31-1,7.58-2.19,8.71-1.48,14-7.76s19.56,3.08,27-2c-4.8-6.12-36.52-10.55-38,0-4.26-1.48-7.32-3.28-.42-6-4.08.14-20.47.36-16.89,8.08q4.35-4.11,9.08-.4a11.42,11.42,0,0,1-7.34,6.78c2.25,3.7,9.14,12.71.35,13.46-5.46.47-17.56-6.29-6.84-9.21-5.37,1.64-9.53-2.78-13.4-5.55a30.64,30.64,0,0,0,9.07,0,49.06,49.06,0,0,1-4.81-2.54c6-3.56-.7-10.52,7.4-8.49q-9.54-3.43,0-2.95a14.53,14.53,0,0,0-9.08,0c3.19,2.2,4,5.73,1.68,8.91a9.84,9.84,0,0,0-7.75-5.55,8.47,8.47,0,0,1-5.17,8.09q2.81-6.16-3.9-4.66c9.81-7.91-13.85-22.44-15.63-29.74,4.11,4.55,11.38,9,17.8,8.72,3-.13,14.4-10.2,11.23,1.48,4.55-2.66,13.2,1.87,6.49-6,2.35,10-3.91-3.16-3.91-8.08,5.09.44,9.55,5.56,13.27,8.5,6.89,5.45,2.56,10.25-1.61,15.69,4.23-2.7,9-.73,13.47-.41-5.91-2.91-1.46-9.86-6.77-13-3.25-1.9-14.1-10-4.47-11.2-5.85-4.51-8.45-11.69-15-15.53-7-4.11-15.68-4.25-21.84-10a13.1,13.1,0,0,0-2.59,4.25c5.47-.6,32.14,6.27,31.41,13.57-.59,6-27.94-8-31.83-7.61,2.76,3.72,6.84,2.92,10.2,5.53,3.6,2.8,1.29,8,7.12,8a17.78,17.78,0,0,0-4.33,8.49c-4.07-5.87-7.11-13-13-17.41,4.64,5.82,11.54,13.76,11.24,21.66-6.69-5.8-15.49-8.14-19-17q4.47,3.3,9.08,6.38c-2.35-4.05-9.6-6.7-8.24-12.34-2.81,0-5.87,2.77-8.65,2.13s-2.17-4.66-5.68-5.28c-3.69-.65-8.43-9.74-9.05-13,7.6,1.81,12.24,8.33,18.15,12.74-5.92-6.58-9.58-15-16.41-20.82,9.4,8.31,2.25-2.14-2.16-3-.43,1.42-.88,2.84-1.32,4.26a21.63,21.63,0,0,1-9.5-5.08c6.08,9.64-8.36-6.24-10.63-8.22-2.77-2.43,4.13-3.64,5.09-3.8a26.73,26.73,0,0,1,5.86-.28c7.47.56-7.12-8.39,4-2.16-3.9-3.22-3.61-9.91,2.58-9.79-5.07.15-10.67-4.7-6.9-9.74-4.86,4.24-.4,13.22-3.52,18.3-3.67,6-18.89-14.42-22-16.17a32.55,32.55,0,0,1,9.08,4.66c-9.07-8,.76-2.11,5.23-2.54-5.65-4.88-18.08-4.47-20.38-11.44,0,9.84-11.26-4.74-17.31-5.13,6.14-12,25.8,6.51,35.52,5.13-8.59-1.95-26.34-7-27.71-17.47,7.12-.37,12.09,6.92,19.48,4.25-4.65.28-5.69-3.2-3.9-6.78-4.25,10.18-25.18-5.45-10.4-8.09-3.35.85-15.29-2.84-8.46-6.77,9-5.17,15.8,4.3,23.61,6.77-5.69-3.4-12-7.11-16.83-10.15-2.52-1.58-6.71-2-6.49-6s4.5-4.73,7.33-3c-4.69-2.19-13.07-19.24-3.48-14.39q-4.86-3.11-9.08.82c2.27,2.13,2.56,19.33.9,22.07-6.64-6.35-17.17-17.71-16.64-27.38.12-2.26-7.88-6.36-4.17-9.2,2.76-2.1,9.39-2.29,12.57-1.19-1.4-1-23.6-3.33-15.5-10.69,3.38-3.07,12,1.36,15.5,2.61-3.63-1.9-5.11-5.4-2.58-8.92-3,.37-20.07-1-9.14-4.72-10.65,4.77-16.37-14.65-26.81-11.44-1.6-11.39,15.7,1.93,18.58,4.66a96.3,96.3,0,0,0-6.44-8.5c8.11-1.21,14.14,2.75,21.51,5.05,3.13,1,6.55-.06,9.39,1.95,4,2.79,9,1.29,12.32,4a5.47,5.47,0,0,0-.84-7.2c-1.86,9.39-16.32-3.45-16.89-8.5,5.49,4.24,11.91,3,18.21,4.66a18.36,18.36,0,0,0-7.23-1.15c-5-.47-7.28-5.61-11-8.17-3.29-2.28-6.32-1.2-9.08-4.66-2.18-2.75-.66-6.31-3.42-9,3.8,5,5,16.84-4.82,14.53-8.4-2-25.86-.36-32-6.45,3.75-.94,5.07-3.64,2.59-6.78,8.6-2.25,12.31,7.75,19.9,9.32-6.72-1.26-2.7-8,2.58-6-1-7.76-5.47-.23-10.32-2.78-3.33-1.75-4.86-6.14-9.15-6.14s1.83-19.91,9.08-8.49c-1.27-3.46,0-5.65,3.91-5.49a19,19,0,0,0-2.59-6c-.75,5.42-6,7.09-8.65,1.71a52.5,52.5,0,0,1,8.65-2.12c-2.85-3.9-8.87-4.67-12.78-7.17-8.14-5.23-10-7.88-19.67-2.62a8.12,8.12,0,0,1,9.07,3c-7.22-1.76-14.65-3.07-21.25-6.61-11.58-6.2-3.36-9-7.72-16.35-4.2,8.16-21.11,9.27-21.64,16.58,7.87-12.41,20.52,18.74,2.73,5.06-11.68-9-1.21-32.45,12.84-26.77-4.18-.61-5.55-3.36-3-6.79,7.16,5.5,3.56-7.52,10.76,0-5.77-4.32,2-9.66-4.74-13.57,3.92,16.26-16.77,2.82-4.33,3.36-4.47-.59-9.63-1.76-10.82-6.78,5.79,2.09,11.21-3.61,17.54-2.43,5.46,1,6.5,6.71,11.91,7.09-7.81-5.24.57-7.36,4.95-7.92,5.26-.67,3.66,5.84,9.36,6.27-3.13,4.15,3.57,11.89,1.68,2.95,12.89,5.73-6.45,14-13.82,10.62,5,2.94,21,5.47,26.8,5.07a8.34,8.34,0,0,1-5.16-8.08c3.73,2.42,8.23,3.59,9.94,8.17,1.84,4.92-3.52,9-.87,14,8.55-1.11,11.06-21.42,9.56-27.62-1.42,4.56-2.55,9.33-5.65,13.15.64-9-12-31.77,6.07-31.45-5.12-2.75-10.31,1.11-13,5.14-.91-4.1-3.78-9.35-2.58-13.63,1.38-4.9,7-5,8.6-9.74,3.24,3.85,8,5.32,12.34,7.52,5.61,2.82,7.11-3.16,2.48-2.75-3.73.32-6.05-1.38-9-3.21-5.51-3.39-11.67-.4-17-3.28,9.47-7-13.13-14.17,4.63-16.13,12.75-1.41,18.36-19.07,11.84-28.89-4.5,7.25-32-7.22-31.4-14.24q1.76-2.19,4.59-.22c-8-8.25,8.12-13.59,3-20.42-1.43,5.14-6.2,5.27-6.41-.3-.26-7-4.91-4.32-8.1-10.85-2.76-5.65.25-7.9,1.5-12.79.72-2.83-5.11-11.14,3.51-9.16,0-5.16-3.44-5.86-6.32-9.29-2.38-2.82-1.53-6.58-3.38-9.56-6.85-11.1,1.77-4.66,8.79-6.23-6.76-.89-13.72-8.26-15.56-14.45,9.65-3.37,14.4,4.7,19.05,11.44-1-8.87-7.31-17.87-11.72-25.44-8.79,8.09-21.42-3.7-10.66-10.68,6.81-4.42,16.15-7.64,7.24-16.11,5.37,23.29-13.18,6.33-23.8,3.82-8.12-1.92-2.51,10.72-7,13.61-6.68,4.32-31.66-2.92-18.14-8.93-23.75-.49-27-37-29.61-53-1.15-7.11-5.89-23.31-2.57-30.37s8.28-.84,6.82-9.88c-1-6.28,1.61-12.24,0-18.57-2.44-9.54-5.14-14.74-12-24.58-7-10-15.49-19.25-19-31.16-2.16-7.36,0-12.55-5.78-18.88-3.86-4.25-7.66-8.14-10.48-13.18-2.34-4.19.9-6.48-.66-9.63-2.81-5.67-5.92-9.65-5-16.31,5,3.63,14,6,16.63-1.63,3.29-9.44-6.6-16.65-3.22-26,.17,3.35,2.22,5.22,5.65,5.07a19.65,19.65,0,0,0-1.6-6.83c-1.14-4.29,2.49-9,2.44-13.53-.12-8.95-5.26-14.88.27-23.34,4.49-6.85-3.65-10.89-.28-19,2.54-6.17,7.37-16.64,8.25-23.07,2.13-15.66-4.65-32.2-3.91-47.62.41-8.55,8.51-15.86,8.11-23.47-.35-6.66-5.73-14.46-8.31-20.61-2.18-5.2,1.24-12.14,3.24-16.88,2.17-5.13-1.55-13.44-2.19-18.47-.46-3.63,1.8-6.68-.89-10-2.82-3.49-5.37-7-6.86-11.23C80,742.78,78.65,734,74.6,724.62c-7.36-17.06-15.51-35.6-18.7-54-1.62-9.32.32-10.25,6.93-14.95,5.15-3.67.05-11.87,3.54-16.62,3.32-4.51-7.41-29.25-11.14-32.26-4.69-3.79-10.65-14.77-7.36-20.82,4.59-8.43,5.22-16,8.15-25,1.86-5.75-2.41-15.79-2.31-22.1.17-10.24,8-16.44,4-26.82-6.07-15.55,2.34-34.87,2.46-51.36.12-14.4-9-26.27-8.32-39.92.41-7.87,8.93-9.23,8.64-16.74-.4-10-7.77-19.87-9.93-29.78-2.25-10.37-.47-20.59-2-30.89-.76-5.19-2.72-8.7-1.27-14.09,1.19-4.4,3.07-8.87,2.09-13.54-1.16-5.52-9.67-2.19-11.06-8.27-1.47-6.39.71-13.34,1.31-19.71,10.2,9,9.68-20.31,9.58-24.61-.55-24.91,4.6-53.57-4.85-77-10.11-25.05-3.43-52.59-13-78.11-4-10.63-8.33-23.43-10.3-34.55-1.3-7,2.07-21.19-6.22-25" transform="translate(-14.37 -2.97)"/><path id="path6472" class="cls-1" d="M523.36,1816.86c-3.11-4-7.88-12.47-4.33-17.41,1.21,5.71,10,5.23,9.08-.89-.51-3.26-10.65-6.62-13.41-7.61,5-4.55,11.46,1,16.58,2.15,11.15,2.53,6.11-10.4,9.5-15.09,3.63-5,13.76,6.48,17.58,7.44,6.83,1.71,12.19-6.16,18.41-2.37,6.85,4.17,7.3,13.47,11.53,19.55,5.86,8.43,10,17.86,14.12,27.2,9.47,21.64,23.49,41.67,31.29,63.91-4.2-2.48-9.2-3-13.4-5.49a20.49,20.49,0,0,0,8.66,5.08c-6.24,6.55-21.29,2.48-28.46-.13-3.67-1.34-7.84-7.34-12-6.16-5.48,1.57-6.45,3-11.1-1.33q1.54,2.73,3.06,5.49c-3.18-3.26-17.45,3.3-12.56-6-.84,4.53-15.89,6.89-19.89,5.13a83,83,0,0,1,8.65-6.37c-5.34-3.06-12.71,3.18-17.8,4.25a12.07,12.07,0,0,0-4.26-8.5c-2,10.67-9.7-1.81-13.47-3.83,6,8-6.1,5.08-10.22,4.41-3.28-.55-7.17,2.94-10.09,2-3.09-1-4.17-6.69-6.91-8.5,5.23-.37,8.93,3.77,13.82,4.67-.3-3.38-2.41-5.7-6.07-5.07a7.91,7.91,0,0,1,9.14,2.12c-9.86-9.17,19.06.51,22-3.15,2.49-3.09-.25-8.14,7.39-6.07,5.24,1.41-.1,15.61,8.64,13.47-2.84-1.93-4.64-5-3.91-8.5,7.52-.12,15,9.24,22.54,6-7.25-4-15.2-6-21.85-11.07-5.8-4.4-13.65-1-18-8.05,12.19,1.93,25.82,5.53,35.94,12.75-3.83-2.36-5.08-7.53,1.2-6.58,5.61.86,9.64,6.45,13.95,9.53a17.11,17.11,0,0,0-6.91-7.67c5.65-2,11.73,5.47,15.56,3,6.12-4,14.82,5.47,9.92,11.47,1.63-3.45,4.85-5,8.24-2.54-5.21-5.36-.54-5.62,3.9-5.08-15.94-13.4-48.19-8.88-60.39-27.77-8.64-13.39,24.47-10.56,20.48-22.7-5-15.14-36.38,9.79-46.21-5.64" transform="translate(-14.37 -2.97)"/></g></g></g><g id="region"><path class="cls-2" d="M167.65,1312.16c12.58-1.47,0-10-3.91-13.64a27.94,27.94,0,0,0,8.66,0c-1.56-2.79-25.12-17.89-12.15-17.82-9.83-5.69.45-9,5.23-12.75-6.23-6.09-12.28-13.36-15.15-21.65-4.27-3.21-5.36-.84-7.47,2.43-2.6,4-11.18-4.59-14.58-4.55,7.49,7.5.69,17.57,4.58,23.73,6.45,10.26,5.42,25.4,10.55,35.62,2.2,4.38-2.63,7.1-.63,11.91s7.95,6,12.39,7.21a90.58,90.58,0,0,0,11.74,2.65C175.08,1326.33,168.16,1314.53,167.65,1312.16Z" transform="translate(-14.37 -2.97)"/><polygon class="cls-2" points="135.97 1243.33 135.97 1243.33 135.97 1243.33 135.97 1243.33"/><path class="cls-2" d="M253.3,1318.54c-.45-8.77-7.89-12.36-13.18-15.91-5.84-3.93-12.19-11.36-13-17.92-.7-5.8-8.86-13.53-7.76-18.39.66-3.5,8.92-2.93,12.71-7.26-4.7-7.33-14.56-12.69-15.1-21.42-.62-10.07-1.9-22-8.28-28.31-8-7.87-12.36-15.51-9.92-26.78.75-3.55,3.36-9.23,2-13.06-.87-2.51-2.6-3.79-4.23-5.37-13.38,2.58-30.77,6.47-45.92,6.26-9.23-.12-15.39-4.86-25.78-3.37-8.85,1.26-6.89,7.14-11.67,7.14.59,2.82,1.14,5.35,1.45,7.23,2.59,16,5.86,52.53,29.61,53-13.52,6,11.46,13.25,18.14,8.93,4.48-2.89-1.13-15.53,7-13.61,10.62,2.51,29.17,19.47,23.8-3.82,8.91,8.47-.43,11.69-7.24,16.11-10.76,7,1.87,18.77,10.66,10.68,4.41,7.57,10.75,16.57,11.72,25.44-4.65-6.74-9.4-14.81-19.05-11.44,1.84,6.19,8.8,13.56,15.56,14.45-7,1.57-15.64-4.87-8.79,6.23,1.85,3,1,6.74,3.38,9.56,2.88,3.43,6.3,4.13,6.32,9.29-8.62-2-2.79,6.33-3.51,9.16-1.25,4.89-4.26,7.14-1.5,12.79,3.19,6.53,7.84,3.86,8.1,10.85.21,5.57,5,5.44,6.41.3,3.66,4.9-3.56,9-5,14l13.16-.81,13.36-11.81,12.92-14.29C245.42,1322,253.62,1324.92,253.3,1318.54Z" transform="translate(-14.37 -2.97)"/></g><g id="nube"><path class="cls-3" d="M204.88,1281.14C313.12,1163.26,497,1140,497,1140c117.56,5.8,297.48-161.84,420.78-197.18,108-31,162.25-68,162.25-68v576.74c-335.6-4-553.16-80.89-553.16-80.89-151-58.84-272.3-74.12-317.66-78.7C186.84,1289.7,204.88,1281.14,204.88,1281.14Z" transform="translate(-14.37 -2.97)"/><path class="cls-4" d="M205.88,1284.14c-4.63,2.92.55,5,.55,5,84,11.79,92.06,5.5,92.06,5.5,35.36-7.54,32.06-32.21,22.16-46.67-9.47-13.81-44.8-8.8-44.8-8.8C231.44,1249.83,205.88,1284.14,205.88,1284.14Z" transform="translate(-14.37 -2.97)"/></g><g id="ciudad"><circle class="cls-5" cx="514.77" cy="1322.8" r="7.04"/><circle class="cls-5" cx="217.91" cy="1201.56" r="7.04"/></g><g id="volcan"><polygon class="cls-6" points="189.16 1268.92 176.19 1292.69 202.13 1292.69 189.16 1268.92"/></g><g id="forma"><rect class="cls-7" x="522.77" y="1321.51" width="108.2" height="28.45" rx="6"/><rect class="cls-7" x="674.48" y="787.11" width="172.27" height="28.45" rx="6"/><rect class="cls-8" x="76.9" y="1300.54" width="150.09" height="28.45" rx="6"/><circle class="cls-5" cx="656.91" cy="782.49" r="7.04"/><rect class="cls-7" x="684.5" y="1082.23" width="105.94" height="28.45" rx="6"/><rect class="cls-7" x="230.69" y="1188.23" width="123.48" height="28.45" rx="6"/><circle class="cls-5" cx="676.5" cy="1083.51" r="7.04"/></g><g id="texto"><text class="cls-9" transform="translate(530.41 1344.97)">Rawson</text><text class="cls-9" transform="translate(683.05 810.45)">Bue<tspan class="cls-10" x="44.26" y="0">n</tspan><tspan x="60.47" y="0">os Ai</tspan><tspan class="cls-11" x="119.56" y="0">r</tspan><tspan class="cls-12" x="129.74" y="0">e</tspan><tspan x="142.72" y="0">s</tspan></text><text class="cls-13" transform="translate(82.26 1324)">Vn. Chaitén</text><text class="cls-9" transform="translate(236.09 1211.07)">Bari<tspan class="cls-14" x="48.34" y="0">l</tspan><tspan class="cls-15" x="56.07" y="0">o</tspan><tspan x="70.22" y="0">c</tspan><tspan class="cls-10" x="83.24" y="0">h</tspan><tspan x="99.11" y="0">e</tspan></text><text class="cls-9" transform="translate(692.14 1105.68)">Vi<tspan class="cls-16" x="26.37" y="0">e</tspan><tspan x="39.78" y="0">dma</tspan></text></g></svg>