<svg xmlns="http://www.w3.org/2000/svg" viewBox="0 0 359.37 1085.05"><defs><style>.cls-1{fill:#bcd4e8;}.cls-1,.cls-2{stroke:#5f96c5;}.cls-1,.cls-2,.cls-4{stroke-miterlimit:10;}.cls-1,.cls-2,.cls-5,.cls-6{stroke-width:2px;}.cls-2{fill:#5f96c5;}.cls-3,.cls-4{fill:#b44a29;}.cls-4,.cls-5{stroke:#3d3831;}.cls-4{stroke-width:3px;}.cls-5,.cls-6{fill:#e0d8d2;stroke-miterlimit:4.29;}.cls-6{stroke:#b44a29;}.cls-7,.cls-9{font-size:12.94px;}.cls-7{font-family:MyriadPro-Regular, Myriad Pro;}.cls-8{letter-spacing:-0.03em;}.cls-9{font-family:MyriadPro-BoldSemiExt, Myriad Pro;font-weight:700;}.cls-10{letter-spacing:-0.05em;}.cls-11{letter-spacing:-0.05em;}.cls-12{letter-spacing:-0.01em;}.cls-13{letter-spacing:0em;}.cls-14{letter-spacing:-0.04em;}.cls-15{letter-spacing:0.01em;}.cls-16{letter-spacing:-0.01em;}.cls-17{letter-spacing:-0.01em;}.cls-18{letter-spacing:-0.01em;}.cls-19{letter-spacing:-0.01em;}.cls-20{letter-spacing:0.03em;}.cls-21{letter-spacing:0.01em;}.cls-22{letter-spacing:-0.01em;}.cls-23{letter-spacing:-0.01em;}.cls-24{letter-spacing:-0.01em;}.cls-25{letter-spacing:0.01em;}.cls-26{letter-spacing:0em;}.cls-27{letter-spacing:0.01em;}.cls-28{letter-spacing:0.01em;}.cls-29{letter-spacing:-0.02em;}.cls-30{letter-spacing:0em;}.cls-31{letter-spacing:0em;}.cls-32{letter-spacing:0em;}.cls-33{letter-spacing:0em;}.cls-34{letter-spacing:0em;}.cls-35{letter-spacing:0em;}.cls-36{letter-spacing:-0.04em;}.cls-37{letter-spacing:-0.04em;}.cls-38{letter-spacing:-0.01em;}</style></defs><g id="Layer_1" data-name="Layer 1"><path id="CL-AI" class="cls-1" d="M422,722l.33-.07.69-1.44-.22-.59-1.3-.26-.47.47-.57.09-2.12-1-1.14-1.34-1-1-1.69-1.34-.69-.27-.47.13-.62.71-.41.55-.79.1-1-.12-.52-.12-.39-.33-.09-.68.32-1.54.53-.13,1.29-.06.42-.19.77-1.2-1.47-2.17-.62-1.28.15-1.08.47-.78.63-.28.43,0,1.33.3h.66l1.89-.67,4.27-2.34,1.15-1,2.59-2.32.84-1.76.63-1.59,1.78-4.88.14-2.76-1.17,1.06L424.8,692l-2.24-1.68-1.7-1.52V685.9l-2-1-1.39-.45-.69-.09-.9-.19-.6-.36-2.13-2.29-.15-1,.21-1,1.5-1.43,1.6-1.39v-1.16L417,674l1.84-3.77h.57l1-.25,2.19-.76-.14-.84h0l1.44,0,.44.36,1.37.36,4.21.73.31-1.22.72-1.09.93-1,.72-.51,1,.42.11,1.29,1.67,2.84.46.2,1,.09.64.45.72.94.4.82.17,1.2,3.05-.34.3-1.23,3.07-1.53.73,0,1.64.78h0l1.09,1.51,0,.67-.2.56-2,3.15-.7.76L445,681l.38.85.14.78-.08,3.48-1,.73-.23.62.57.86,1.07.25,3.33.06h1.76l1.41-.23,1.73-.07,4.47.92.74.66,1.15,2.6-.28,1-.51.56-1,.16-.92,2.21.1.78.15.89-.12.92-1.14,1.6-.59.17h-.52l-.66-.12-.56-.29-1-.78-.62-.44-.44.11h-.58l-.81.1-1.15.61-.44.17-.53.09-.43-.17-.45-.21-.45-.18-1.24-.28-.52.25-.4.67-.59.23-2.4-.29-.49-.22-.44-.21-.55-.31-.61-.15-.61.38-.14.63.32,3.49,2.87.63,2.78.26,1.44.2,3.43,1.17.73.74,1.12,2.33,3.66,4.78.67,2.28-3.66,5.31-3,1.39-.5,0-.44.07-.49.12-.87.34-.83.61-.68,3-.23,2.29.84,3.72.64.4.65.21,1,.46.44.63.54,2.29-.75.62-.14.08-.45.41-.74,1-.46.75-.42.89-.55.64-.58.26-.67.15-.58.06-1.1.52,1.45,1.62.74.27.74.37.44.79.12.77.35,5,.77,1.89.41,1.5.09,3.6-.14,1-.29.6-2.76,2.62-.79.34-1.47.11-.47.5-.81,6.92,1.81,2.58.66.76.22,1-.34,1.47-.32.46-2.92,1.42-1.39,2.41-1.68,1.86-.76.25-.78-.26h-.58l-.79.29-.44.2-.48.29-.32.47-.2.9.39.39.73.5-.46,2.9-.21.7-.29.61-1.12,1.77-.53.93-.6,1.36-1.72,4.92.07.84.35.64.8.89.61.41.93.23,1.85,2.27.47,3.63.18,5.12-2.91,1.88-1.41.56-1.43.8-.46.32-.38.53-.18.69.51,2.3.14.73.28,2.11.89,2.61v2.31l-.21.77-.58.84-2.7,2.67-.62.55-.41.28-.58.33-.66.27-1,.2-.88,0-.43.13-.8.34-.69.47-.53.67-1.58,2.35-2.2,5.22,0,.72.16.33h0l-.38-.27-6.58-5.67-5.3-4.58-7.69-6.69h0l-.06-.32-1.08-.68-1.22-.25-.61,0-.81.31-.47.22-.48.2-.81-.06-1.29-1.69L389,822l1-1.45,2.18-2.27,1.18-.81,1.14.69,2.3,1.69.43-.47.14-4-2-.64-.57-.75-.4-.39-.5-.1-1.26-.18.56-.6,2-.47L391.94,811l-3-2.7-2-2.33-2.08-1.54H384l-.57-.25-.24-1.56.56-1,2.35-1.44,2.48,1,1.46,1.16.45.78.31.69.41,1.25.44,2.81,1.37,1.43.68-.21L392,804.84l-1.36-2.46-.12-.64.58-.33,2.29-.09,2.74.11.56.41.69.84,1.25.49,2.34,0,1.91-.56,4,3.58.08,1.59.8,2,.31-1.23,1-1.1,1.07.1.52.18.58.38,1,.06,1.08-1,.36-.46.17-.9.06-1.11-.3-.74-.17,1.78-.42.63-.91.7-.43.1-.58-.25-1.91-1.25-2.06-2.4-1.47-2.17-.2-2.51h2.21l.19,1.06.74,1,.41.28.49.22,1.13.31,4.69.29-1-.84-1.55-.48-.77,0-.59.07-.78.21-.85-.16-1-.72-4.42-5.45-.66-1.67.13-.86.45-.68.69-.69.65-1-.43-2.18-1.1-1.18-1,2.11.87.62.12.74-1,5-.44.48-.55.37-2.65,1.16-1.81-.36-.42-.22-.57-1.4-.7-.13-1.1,0-3.76-.77-1.77-.41-1.92.55-.57.33-1.08.19-1.6-.26-.62-.22-1.5-.78-.62-1,3.07-4.65,1-.66.46-.08,1.93.2.61.22,1.23,1,.5,1.7.79,2.1L392,793l.78.39.83.11.54-.24-.63,0-1.13-.36-.61-.64-.36-1.26.92-1.59,2-.52,1.18.51h.58l1-.41-.35-2.66-1.54.8-.82.85-2.62.57-.44-.11-4.73-5-.25-.61,1.22-2.22,2.31-2.31.51-1,.31-.72.3-.77,2.81-.45.47.25.22.91,0,1.13,1.06,2.15.19.19-.19-.47-.62-2v-1.74l.21-1,.27-.51,1.56-1.5,2.29-3.54-1.63-1.61-.48-.21-.48,0-.42.22-.63.38-.63-.2-2.32-3.53-.37-1.82,0-.75-1.57-.65-5.95.59-.07,1.73.66-.16.86,0,2.41.72-.25.83-.6.47-.57,0-1.35-.17-1.67-.73L379,761.93l-2.57-1.29L375,757.78l-.06-.89.29-.71,1.15-1.44,1.48-1.49-.1-2-.48.77-.35,1-2.08,2.25-.81.66-1.46.94-3.46,1-.87-.19-.85-.08-1.56.49-1.4.66-.58.48-1.17,1.94.44.48,1-.86,2.34-1.58.58,0,.57.35,1.65,5-.2.77-1.3.92-1.15.5-.45.18-.18,0-.21,0-1.31-.43-1.57-1.86-1.46-2.67-.15-2.09.26-2.77,1.34-2,.42-.08.52.05.69.1,1-.52,2.65-2.3L368,751.3l1-1.12.51-.46,1.42-.75.95.87,0,.37.09-1.82.33-1.48,2.37-2.56.88-.09,1.92.07,2.87-3.1.71-1.68,1.39-4,.73-2.46.32-.43,4.64-.58,1.89-.46.72.25.4,1,1.11-.74,2.29-.35.42.33.54.78,1.12,3.32-.58,3.17-.32.87-.49.92-.47.48-.36.34.48,0,1.35-1.1.41-1.58-.05-.63-.18-.67.27-.56,1.66,1.61.15.65-.06.87-.28.8-.29.47-.55.61-1.06.93-1.13.65-1.4.65-2.5.73-.66.06-.65-.28-.93-.68-.51-.44-.94-.62,1.78,1.82.48.37.41.25.57,0,2.11-.55,1.69-.49.67-.37,1.11-.53.51-.1.88,2.79L400,748.1l.61.26.2,0,.22-.31-.58-.87-.52-.34-.69-.49-1.73-2,.71-1.67.49-.45,1.46-.14,2.77,3.1-.09,1.67-.21,1.12-.32.89-.36.72-1.53,1.89-.67.71L398,754.83l1.74,1.31.8,0,.6-.35.33-.43,1.13-2.45.27-.7.48-1.62,3.65-4.49.84-2.54,2.27-3.46-.37-.34-2.05,2.86-.87,1.49-.38,1-.64,1.28-.57.7-.72.25-.07-1.35.15-.62.73-1.55.33-1.18.26-1.28.06-1-.54-1.81-.44-1.32,2.61-5.13,2.17-2.47.4-.43.68-.58.57-.25.43-.06H413l1.18.13.68-.13.45-.47-2.92-1-.83.09-.91.31-.74.61-.59,1.11-.3.44-1.71,1.62-.44.11.21-2.76,1.19-6.9,2.5-2.32,2.18-1.56,1.7-.71.66.62.14.95.66.68.9.76,1.89,1.38,1.36.47L422,722Zm.48-23-.09.13-1.07.82-1,.53-1.46,1.58-.23.47-.25.4-.19.21-1.45,1.16-1.33.63-.61.21-.78.12-.35-.06-.32-.21L411,702.32l-.17-.34,0-.35.15-.29,2.14-.78.38.15.23.19.35.38.92-.22.19-.15-.58-.53-1.4-.61-.9.56-.25.29-.22.2h-.26l-.34-.19-.23-.29-.7-1.45-.29-.74-.4-1.94.86-1.28.18-.23.66-.13.24,0,2.12-.4.28-1.4.09-1.19-.05-.44.08-.37.43-1.19.23-.31.27-.12,2.76-.91,1.94-.48.25.08,2.58,2.11,1.72.61.41.33.95,1.62.15.35-.06.35L424,695.72l-.2.21-.24.17-.41.09-1.38-.13-.24-.19-.29-.33-1.15-.43,0,.41.19.32,1.32.9.65.22.87.18.19.47-.31.66-.33.52-.25.21ZM371.83,824.34l-.26.18-.51.16-1-2.36-.32-1.58-.48-3.1.07-.52.47-1.38-2.2-1.31-1.39.72-.32.11-.52.12H365l-.29-.08-.41-.27-.16-.29,0-.38.11-.39.42-.36.4-.28.61-.26.78-.06.55-.07.33-.11.43-.23.35-.32.37-.55.26-.52-.29-.09-1,.61-2.87.35-.24-.38-.8-7.07.14-.37.9-1.14.63-.49,3.16-.88.38.07.26.31,1.33,4.18.15.56.15,1.91.78,2.51.52,1.43.63.72.79,1.4,1.13,3.22.24,2.83-.15.61-.18.29-2.48,2.55Zm12.55-.41-2.65-2.45h-.39l-.36.72-.34.11h-.41l-2.53-.53-1.41-.81-.3-.26-.13-.32-.35-2.4.09-.61.2-.38.19-.28,1.55-1.74.35-.19,1.42-.17.26.06.19.44.45.75.1.44.18.37,1,.81,1-1.28.06-.36-.27-.39-.22-.14-.62-.14-.75-1.42-.17-.38-.88-1.22v-.41l.67-.44.93-4.83.2-.5.16-.29.28-.28.26.14.41.58.15.29v1.15l.23,1.26.26,2.29,2,3.54-.94,1.55v1.89l.61,1.46.13.57,1.07,1.45.31.08-.6-.26v-.32l.67-.32,0-.39.27-.12.23.11.26.2.2.24.05.47-.17.92-.14.58-.18.27-.25.22-1.11.7-.4.15-.46,0-.35-.22Zm-8.74-8.11-.31,0-.29-.15L372,808.8l-1.36-4.14.07-.95.74-.07,1.4.3,2.54.63.59.32,1.82,1.48,2.44.63.24.3.05.53-.06.68-.73,4.7-.19.27-.32.13-.61,0-1.13.77-.52.38-.61.5-.68.6Zm28.1-100.09-1.33-.42-.81-1-.91,0-1.22.33h-.39l-.84-.06-.29-.14-.24-.18-.23-.4-2-2.27-.67.36-1.47.34-.35-.08-.22-.21-.13-.76-.12-1V710l.15-.62.32-.43.75-.75.29-.24.41-.09.51,0,.21.12.4.14,1-.09,1.7-.31.47-.14.81-.52.26-.2.33-.07.48.07.39.14.23.12,1.33,1,.21.21.2.23.17.24.87,1.42.34.89,0,.37,0,.39-.06.84-.61,3ZM391,800.84l-.81-.42-2.67-1.1-.41-.37,0-.36,1.76-2,.22-.23.4-.24,2.06-1.1L392,795l4.88,1.64,2.62,1.06.58.08.32-.11.65-.56.28-.17.23,0,.27.18.35.43.09.33-.12.46-.41,1.22-.4.26-.71.26-.31,0-.81,0h-2.33l-.43-.06-.51-.2-.3-.17-.47-.09-.29,0-3.52,1-.62.22Zm1.19-99.77-.4-.07-.59-.21-.4-.24-.23-.19-.32-.32-.47-.62-.86-1.87v-.38l.06-1.29.26-.26,3-.78.33-.06h1.91l3.47.2.73.24.29.14.52.34.21.2.29.33.57.89.12.45-3.08.84-3.68,1.64-.54.29-1.14.72Zm-17.28,39.85-.26-.27-.15-.37-.25-1,.13-.34.24-.18,2.57-.72.3.14-.17-.68-.55-.13-.59.23-.8.06-.35-.09-.2-.45-.79-2.79.12-.31.35-.29.48-.13,2,.79.29.15.37.29,1.34-.76,1.85-1.69,1.13-.55.5-.08.23.52v.5l-.09.49-1,4.32-.14.31-.16.27-.58.73-2.32,2.25-.35.18-1.55.12-.52-.06-.77-.26-.28-.23ZM363.06,823.1l.56-.78.67.14.61-.18.34-.08.58-.3.24-.2.42-.51.12-.44-.2-.2-.4.38-.36.33-.29.15-.46.07h-.31l-1.48-.16-1-.52-.43-1,.41-3.5.64-1.16.43-.1,4.63-.45,1.05.22.12.47.43,4.63-.11.35-1,.91-.49.42-1.39,1.08-.66.46-.29.15-.33.11-.66.07-.78-.06-.43-.16-.16-.16ZM388,731l-.33-.13-.25-.41-.22-.58,0-.41.18-.37.51-.58-.52-.55V726.8l.7-1.31-.7-1V724l.53-.42.11-.57.09-.35.23-.67.29-.6.35-.56.49-.18,2,1,.37.29.22.29.45.9.21.62.5,1.61.26,1.26-.41,1.15-.18.26-3.36,2.62-.26.17L388,731Zm-8.57,72.63h-.31l-1.17-.37-1.33-.6-.29-.16-.17-.38.32-.65-.44-.38-.58-.13-.58,0-.43.26-.49.6-.36.56-.32.11-.54.1-.75.08-.45-.09-.31-.29,1.25-1.82.61-.5.26-.18,1.48-.45.69-.17.43,0,2-1.34,1.5-2.13,1.27-.64.32.23.16,1.1,0,.38,0,1.21,0,4.55-1.15.87-.21.12-.38.06Zm26.09-73.2-.2,0-.38-.23-2.25-2.55-.1-3.28v-.49l.06-.5.12-.34.23-.43,1.17-1.74.23-.18.45-.08.38,0,1.59.52.22.36.07,1.08-.72,5.91-.51,1.62-.22.32ZM391.89,708h-.21l-1.59-.43-.1-.28.3-.78,3.28-3.17.32-.23.4-.12h.4l3.92,1,.28.26.82,1,.15.37-.24.27-.78.47-.46.16L397,707l-.37,0L395,707l-1.12-.09-.39.12-.26.14-1.29.84Zm11.54-8.81h-.29l-1.37-1.93-.08-2.9.1-.47.32-.29,2.1-.52.37,0,.37.18.35.34.68,1.75.83,2.54-.05.32-.24.17-2.37.73-.72.06Zm-5.37-24.32-.58-.67-2.17-.66-1-.39-.17-.25.44-1.63.28-.29.35-.17,1.31.17.35.09,2.87-.43,1.21-1.07,1.52,1.73.45,1.36.12.67-2,.17-.29-.28-.36-.15-.11-.3.32-.26.21-.28-.32-.23-.58-.07-1.26.32-.13.65.26.31.08.33.54.31-.69.85-.37.14-.32,0Zm-.17,43.1-.29-.05-2.59-1-.23-.29-.49-2,.49-.64,1.33-.58.33,0,.31.13.2.23.27.84.2.23.26.17.35.09.38.06.81,0h.38l.78-.16.61-.09.58.09.29.16.22.2.3.53.2.61.05.58-.23.47-.22.1H400.6l-1.88.06-.83.2Zm-11.4,93.86-.2-.14-1.34-2.9-.06-.37,0-.58,0-.81,0-1.22.75-1.1H386l.42.37.69.67,2.35,2.38.52,1-.89,1.3-.24.22-2.35,1.13Zm16.35-67.31-.7-.66-.2-.23-2.61-3.5v-.51l.29-.84.25-.29.3-.11,1-.05.39.05,1.94.85.93.71.31.35.12.53-.15.57-1.18,2.33-.3.58-.26.17-.17,0Zm-13.65-51.19-2.41-.58-.38-.35-.12-.29-.28-1,.14-.44.47-.52.31-.21,4.15-1.27,1.08.37.75,1.23.25.48,0,.32-.52.18-1.92.49-1.47.32-.29.12.26,1.18Zm9,36.58H398l-1.15-.22-.27-.26-.67-1.72-.41-1.13,0-.64,1.08-1.36.72-.44.37,0,1,.55,1,1,.45.92v.48l-.18,1-.43,1.18-1.34.7Zm-35.31,97.47-.2,0-.26-.12-.34-.38-.1-.48.15-2,.52-.06,1,.44,1,.25.43.06.35-.08.25-.2,1.29-1.19,1.7-1.49,1,.72.31.88.09.35,0,.48-.42.64-.37.3-3.76,1.39-2.65.52Zm32-102.53-.11-.2,0-.35.11-.82.1-.47.2-.25.32-.24,0-.66.18-.41.29-.4.21-.4.13-.33.26-.28.32,0,.3.2.29.15.4,0,.49,0,.24.09.25.18.19.23.6.29.29.25.29.15.32-.08.53-.42.37-.14.34.26.09.47-.15.63-.23.53-.16.41-.38.65-.12.61-.29.07-.44-.3-.22,0-.33-.1-.38-.57-.45-.12-.42,0-.71-.31-.71-.17-.23.08-.35.29-.49.14-.34.35-.23.6-.2.35-.22.1Zm-.69,50-.28-.19-1-1.23,0-.43,0-.43.7-2.06.2-.35.23-.2.25-.08,2.82.16,1.24,1-1.77,2.52-.49.52-.25.19-.27.16-1.09.38Zm7.08-69.18-.82-.8-.69-.8-.23-.4-.12-.27-.15-2.26.13-.47.34-.4.32-.2.32-.07.47,0,.45.19.21.31,1.38,3.53.1.93-.12.41-.15.29-.34.29L402,706l-.27-.07-.29-.13ZM392,816.58l-.31-.46-.23-.21-.4-.29-1.52-1-.46-.25-1.1-.42-.31-.26-.32-.46-.09-.34,2.81-2.13.37-.19.29,0,.47.12.31.37,0,.53-.3.94,0,.39.26.51.63,1,.41.47.46.35.3.32-.11.45-.24.21-.61.38-.27.06Zm-9.32-87-.06-.35v-.58l.07-.38.4-1.64.14-.3.15-.29.29-.37.23-.18.27-.15,1.22-.58h.52l.25.2.09.32-.29,3-.66,1.63-.29.26-.26.17-.42.07-.29,0-1.12-.26-.21-.21,0-.29Zm17.22,8-.24-.09-.2-.32-.34-1,0-.48.2-.49.14-.29.6-.94.33-.42,3.18-1.89.3.06.28.48.1.3.11.51.09,1.58-.33-.23-.2-.22-.35-.08-.92.09-.43.18-.39,1.47-.71,1.36-1.19.41Zm-27.67,58.59.09-.55-.06-.36-.2-.25-.93-.35-.4-.08-.44,0-.38-.11-.26-.38.82-.89,2.7-1.49.38.18.66.89.27.59.4,1.28-.11.49-.32.55-.19.25-.29.27-.63.35-1.5.29.39-.64Zm25.18-60.79-1-2.4-.52-.91-.26-.78.24-.55.19-.24.79-.68.3-.07,1.5.53.06,1.06-.07,2.29-.11.45-.31.8-.67.47-.14,0Zm-7.86-32.62-.39-.06-1.35-.86-1.34-2.12,0-.44.23-.37.24-.17,1.3-.42.43.19L391.1,702l0,.32-1.37.35Zm-.06,17-2-1.22-.23-.18-.32-.32-.4-.55-.09-.33.15-.42.29-.29.44-.17.35-.05H389l.43.14.29.26.37.47.26.47.82,2.06-.23.25-.36.15-.43.09-.55-.17-.11-.18Zm7.45-26.17-.53-.12-.69-.2-.43-.23-.2-.21-.1-.4.1-2.15,2.26.32.57.11.44.2.23.18.23.29.14.37.12.47,0,.55-.09.46-.3.21-1.79.15Zm19.1-16-.64-.14-1.68-.84-.26-.41-.12-.58.06-.49.36-.79.28-.37,1.43-.78.43-.07.28.06.23.18.16.23.06.52-.32,3.19-.27.29Zm-18.27,9.14-.39,0-.26-.12-.84-.73-.36-.51-.7-2.61,1.32-1.46.32.07,1.36,1.64.77,1-1.25.46-.08.48v.38l.1,1.46Zm7.61-5.87-1.52-2.75-.63-1.48v-.49l.12-.47.29-.55.18-.23h.49l1.56,2.12.47,2.11-.12.79-.61.77-.22.17Zm-16.9,137.65-.44-1.08-1.08-2-.11-.32,0-.35.38-.41h.35l.57.26,1.62.93,1.08.75.38.31.18.36,0,.37-.29.27-.42.23-1.18.6-.55.23-.27,0-.16-.12Zm2.14-102.3-1.13-.91-.33-.31-.2-.23-.17-.33,0-.48.31-1.62.27-.53.56,0,.29.16,1.76,1.65-.66,2.7-.24.18-.28-.06-.21-.17Zm-2.84-18.29-.82,0h-2.7l-1-.5,0-.4.12-.3.87-.92.32-.2.43-.07h.3l.55.11,1.64.37.35.18.17,1.46Zm0,76.56-.52-1.1V772.2l.17-.27,1.31-.73.32-.11.74-.09.65.06.48.12.18.25-.06.47-.2.61-.18.27-2.4,2-.35.21-.19-.35.05-.2Zm-14.11-69.66h-.21l-.32-.22-.72-2.12-.09-.3,0-.34.06-.4.23-.41.47-.65.5-.14.32.21,1.18,2v1.41l-1,.94-.37.06Zm24.95-15-2.26-1.2-.32-.35-.45-1.71.38-.16,3.44,1.09.11,2.48-.14.29-.43-.1-.33-.34Zm-7.79,4.46-.18,0-.25-.21-.32-.41-.17-.34v-.36l.14-.29,1.52-.72,2.17-.18,1.16,1.63-1.1.3-3,.63Zm5.63,123.11-.18,0-.46-.29L394,815.77l-1.31-1.34-.2-.52.14-.46.44-.17h.63l.47.13,2.11,1.46.26.2.21.34.09.35-.35,1.59Zm8.2-78.53-.21,0-2.11-.59-.53-.42-.17-.39,0-.43,1-2.05.3-.23.25-.07,1,.93.62,3.08-.18.19Zm-.08-36.37-.76-.47-.41-.33-.17-1.24.15-.43,2.45-.62h.3l.29.24.06.34-.33,2.26-.38.41-.42.09-.55-.09-.23-.16Zm-3.78-19.78-1.67-.32-.74-.23-.31-.23-.2-.23-.13-.26-.1-.38.81-.84.57-.46.47-.09.23.09.93.66,1,1.22-.15.56-.14.29-.24.13-.29.09Zm-3.82,20-.55,0-2.24-.94-.31-.35.4-.27,1.22-.18.66-.14.3-.11.54-.29.38-.26.4-.1.87.21.19.37-.13,1.2-.25.29-.26.15-.77.36-.45.1Zm-20.73,91.8-.18,0-.86-.72-.18-.26-.52-1.87.23-.22h.5l1.77.38.22.12.39.49.49.82.13.39L378,794l-.85.33-.89.13Zm4.58-97-.21-.12-.45-.71-.09-.3-.1-.69,0-.56,0-1.19.15-.4.2-.23h.32l1.16.7.2.32.07.43,0,.41-.3,1.85-.51.33-.26.14-.18,0Zm18.79,22.89-1.54-.45-.58-.2-.12-.29.12-.41.31-.23,1-.35.45-.07,2.21,0,.27.15.07.45-.05.56-1.53.76-.24.05-.34,0ZM401,686.87l-2.15-.42-.26-.3-.11-1,3.36-.32.35.11.17,1.11,0,.46-.3.21-.33.08-.5.09-.18,0Zm17.68-18.2.94-.66,1.09-.21.82.87.55.21.37,0h0l-.32.31-1.38.12-2.07-.67Z" transform="translate(-360.31 2.07)"/><path id="CL-MA" class="cls-1" d="M415.54,938.16l-.49,0-.73-.21-.75-1.88-.39-3.86L413,928.4l-.43-3-.34-.83-1-1.1.21.82.68,1.81.24,1.75,1.12,11.36-.2,1.2-.64.36-.71-.39-4.27-3.56-.43-.54-.32-1L407,934l-.67-2.27-.94-2.52,1.09-.66.23.81,1.76,3.74,1.66,2.66.7-.24-1.69-3.65-2.4-5.37.83-.39.7-.48,1-1.26-3.15.89-1.84,2.39L403,925l-.63-2.42-1.39-.34-1.1-.39-.51-6.43.09-.82.43-1.14,2,.62,2.24,2.52.6,1.37,1.11,2.75.3,1.52.29-.2.13-.88-2.11-6.27-1.84-6.78.88-.58.82,1.27.23,1-.44-3.75-.49-.55-.54.34-2.11,2.5-.54.4-.44.12-4-1.14-1-.76-.52-3.84-1.32-.93-.5-.39-.25-3.62.52-.86.95-.69.91-.34,5,0,.49.33.76,1.22,1.56-4.25,0-3.44.64-.9,1.87-.57h.81l1.25,1.44.29,1.07.64.46.66-1.51-1.33-1.34-1-.2-.88-.28L404,886.64l-.06-.77.41-.79.52-.17.73-.16.57-.37.38-.46.69-2.87-4,4-.36.73-.56,2.17-.61,2.9.18.84.14,1-.23.63-2.29,2.23-.41.23-2.09-.25-1.65-1.94-.89-2.23-1.55-3.49-1.23-4.2,1.64-.56,2,.76.55.4.49.47.52.43.64.32,2.82.46-1.08-.77-1.1-.36-1.85-1.38-.94-1.16-3.73-.33-3.95-2.83L383,874.36l-.09-1,.5-.89.76-.88,1.07-.77,2.05-.68,1.28.44,1.82-.22,1.2,1.56L392,873l1.49,1.72,5.22,2.38,1.39.29.4,0,.3-.28L395,874.41l-.47,0-.51-.23-.67-.73-3.54-6.37.21-1.39.51-.77,1.49.19,1,.32,2.11,2.34,5.08,2.11.08-1-.29-.95-2.35-1-1.95-.83-4.31-2.25-.59-.88-.52-2.25,2.23-1.28,1.14-.41,1.05-.19.68.26.88-.21.21-1-2.76.4-1.92.52-.43-.12-.49-1.39-.14-1.7.14-.81,1.7-1.72,2.85-1,.52-.15,3,.73.38.72.47,1.91.58,1,.8.4.64.19,1.42,1.47.56,2,.25-1.06-.45-1.52-.53-1.26-.41-.4-1.65-.15-.55-2.29.08-1.91-.89-.64-1.65.21-2.26-.75-.35-.45-.24-2.31.84-4.52.32-.5h.67l.79.72.26.69.46.73,1.1.66.67.21.84-.23-1-.58-.68-.17-.4-.3-1.22-2-.66-5.34.26-.64.69-.93.38-.41.52-.26.69,0,.62.42.43.48.75.09-.06-.73-1.35-.72-3.26.36-.17,1.36.21,3-1.45,2.71-.9,2.79-.21,1.85-.75,4.53-.47.7-.51.1-.55-.39-2.36-3.19-1-2.84,1.52-6v-6.55l-1.37-1.1-.46-1.05L387.27,829v-.88l.23-.72,1.34-2.18.9.59.66.25.52-.12.87-.66.67-.23,1.81.17,1.44.56h0l7.58,6.54,5.23,4.47,6.48,5.54.37.26h0l1.78.49-1.08,1.22-6.29.19-.91.06-1.65,4.38-.92,3.25.29.61,1.17,1.54,1.51,6.22-.43.61-.78.73-.61.73-.55,3,.86.95.54.5.43.61-.09,1-.6.82-.51,1-.24,1.1.3,1,1.9,1.45,1.91,1.52.37.46.32.6.88,2.07.25.92.37,4.91.44,3.33,1.16,4.84.4.66.46.38.62.09.55-.14.7-.24.75-.41.76-.68,1.27-1.72.44-.4.72-.44,2.34-1.14h.63l.62.58.39.51.43.39.71.27.7-.09.44-.32.49-1,.48-.6.54-.27.58-.1,2.65.39,1.68,1.31-.14.84-.83,1.85.09.84.7.84.49.68.57,1.07.25.78-.51,5.36-.36.69-1.14.13-1.34,2.55.42,1.76.52.73.56.41.78.43.9,1.16-.3,1-.64.67-.42.93,0,1.66.08,1.38-.84,3-.47.49-.68.51,2.43,6.36.68.38,1.1.19.58.27.45.29.55.41,1.05.86,2.8,3.16.39.93v1l1,2.67,4.69,1.53L458,936h17.34l7,1.53h2.43l1.2-.81,3.85,1.75,6.61,2.11,3.77,1.53h1.18l4.36,1.11.9.4,1.21.87,2.32,1.74,2.2.36,1.71.26,1.59.29,3,.83-.12,1.74-.79-1.56-.67-.3-3.71-.63-2.6-.14-.44.05-2.69-.52-.87-.35-.44-.31-.89-.81-.53-.44-1.05-.66-.77-.35-.78-.07-.48,0-1.26.12-3.83,1.73-.55.43-.27.59-.06,1-.11,2.46-1.45,2.42-.54.71-1.12,1.13-.39.55-.5.35-2.31-.35-.62-.63-2.25.5-4.93,2.19-.64.33L474,961.38l-.68.06-3.39.43-2.76.5-.69,5.24.29,1-.08.48v3.07L465,977l-.41.72-.48.53-.35.76-.2,1.06-.81,6,0,1.14.08.87.24,1.17.34.91.29,1.16.17,1,.1,1.33-.1,1.13-.77,4.55-.45.92-1.07,1.31-4.09,1.86-1.08.41-3.65-1.82-.66-.19-.93-.12-1-.08h-.49l-.87-.1-1.4-.42L444,998.68l-1.77-.46-2.5-.75-1.41-.76-3.76-3.81-1.3-1.89-1-1.65-.52-.94-.7-1.8.64-3,3-2.62,3.73.44.62,1.65.14.81-.09,1.29-.29.85-1.39.92-1.52.79.84.34,1.82-.53.75-.48,1.27-.92.14-.74-.12-1.16-.2-1.45-.06-.76.19-1.13.52-.67h2.69l.65.76,1.1,6.55-.26.86-.43.43-.69.57-2.05,1.15-.59.25-.77.53v1.1l.7.18,1.07-.67,2.58-1,.67-.45.92-1.83-.12-2.39-.29-1.76.13-2.23.63-2.58,5.68-3,.65.07.58,0,.68-.18.45-.28.45-.33.41-.46,4.35-7.6.23-.9-1.05-1.91-1.91-.57-2.08-.14-5.53,3-4.61,2.94-1.78,1.5-.35,1-2.28,3.52-1.22.35-.62,0-.8-.54-.46-.59-.44-.84-.4-.7-.42-.45-1.79-.62-4.64,1.19-.61.72,1.75-.73h2.17l3.35,3.4.45.94-.26.68-3,.93-.71-.16-.84-.74-1.57-.49-1.05.55.55.94.79.36h.46l.67.35-2.14,4.2-.68.29-1.13-.37-.64-.9-.39-.44.19,1.37,1.81,2.14.6-.53.63-.14,2.21,3.39.32.9-.38.67-2.09.34h-.23l-.6-.72-4.24-3.51-2.9-1.63-1.67-1.18-.48-.68-2.29-1.86-.45-.2-.65,0-.55-.22-1.48-1.4-1.88-2.67,4.84.3,1.71-.36,1.16.18,2.09,1.72,1.54,2.6.49.5.95-.12.35-1.89-1.22-1.1-.91-1,.75-1.5,1,.11h1l-1-.72-1.44-.29-.6.18-.53.63-.55.18-1.82-1.6.54-.68.26-.36.46-1.61-.86-1.2-.64-2.08-.18-2.78.89-1.15L425.5,963l2.88,1.79,2.46.83,1-.28,2.51-2.17,2.49-3,.3-.69,3.45-.51,2.38,1.73,1,.24,1.17.07,1.54-.06.82-.1.6-.09.7-.24,3-1.52-.9-2.18-.54-.44-.83,0-.52.18h-.65L445.6,956l-3.14-.73-4.51-.57-3.07.15-.75.17-.68.89-.53,1.32-1.09,2.48-2.65-2.29,1-1.5.58-.43.65,0,.95-.51-.45-.6-2.27.75-.44.39-1.78.23-3.38,0-2.3,2.9.37.44,1.51-1,2.72,1.05,0,.81-1.6,2.38-.95,1-1.39,1.24-1.28.27-.53.17-.62.83-.52.91.68,2.2.56,2.37-.07,1.53-.62,1.37-2.23.81-.13.12-.7.4-1.66.16-2.44-1L410.14,972l2.91-2.24,1.62-1.74-2.58-.38-4.2-2.72,1.07-.87,2,.15.52.6,3.3-.4-.44-1.1-.08-1.34,3.28-7.41.89-.51,1.81.35,1.12.34.63.17-.57-.81-2-.45-.65-.09-.62.06-1.61.33-.56.58.31,1.87-.18.67-2,3.19-.8,0-.51-.35-.16-.7-.06-1.54-.58-.34-.52.22-2.37,2.09L407.86,961l-.77,1.32-.34.71-1.74-.84.22-4.32,1.13-1.42.85-.26.56.29.27-.6-1-.33-.37-.68-1.07-3.19,0-1,.34-.65.62.17.62.1.55-1.84-.38-3.27-1.28-2.28-1.66-2.51-.34-.93.16-1.14.59-.5.55.62.33,1.27,2.52,4,.64.09,1-.79,2.53,1.65.48.13,1.24-.27.47-.4.54-1.52,1.06-1.7,1.43-.77,1.54-.78.8.12.06,2.47-.07,1.61,1.58,2.16,1,.5.73-.85,1.23-4.86-.24-1.3-.68.72-.67,1.85,0,.87-.6,1.46-1.41-1,0-4.83,1.79-4.46,1.31-.66,2.34,1.69-.09,2,.85,1.47.86.44.4.39,1.06,2,.43,1-.91,4.22-.73.86-2.88,1.15-4.08,2.53.65.24,1.71-.62,4.05-1.58,1.18-.75,2-2,.5-3.93-.32-.75-1.47-1.78-2.16-2.78-.38-3,.7-.65,2.51.39.57-.27.47-.48.31-.55-.26-4.53-.83-2.09-3.3-3.86-1.18-1.09-.57-.31-.95-.16-1,0-1.88-.83-3-2-.48-.81-.87-.69-.93.17-1.81.51-.6.7.29.61.86.36.54-.17.85-.62,1.92.58,1.9,1,2.75,2.39,3.1,3.08.49.24,2.51.69.46.6-.35,1.72-1.32,1.48-2,.19-1.53-1-.53-1.13-3.59-1.59-4.33-3.19-1.4-.88-.92.12,1.24,3.3.72.44.85.16h.59l.77-.38.78.48.58.62.72,1.22-1.35,2.22-.5.33-.86.18-1.48.48,2.62-.37,1.36-1.1.79-.48.74.51.23.92-.72.75-1.5.61-1.33.66-1.11.71-.35.89-.69,4.26Zm100,99.41v3.64l-1.27.13-.16.05-.36,0-.26-.14-.46-.46-.78-.9-.44-.33-2.92-1.42.87,1.52.23.3.29.35.54.38.91.38.23.75-.46.62-.7.34-3.43.69-2.31.26-.52,0-.44-.09-8-2.95-1.49-.59-2.28-1.24-.21-.85.12-.42.64-.7.11-.41-.09-2.34-.23,0-1.66,1.15-.16,2.23-.39.82-7.58,1.67-2.67.18-.72,0-.73-.2-.55-.37-.3-.73-.08-1.23.35-.57.46-.58,1.14-2,.1-.51-.26-.21-1.88,2.41-.58,1.27-.21.61,0,.38-.66.24-.82-.22-4.26-.28-2.37,1.22-.3.08-.26,0-.84-.21-.46-.32-.3-.51,1-1.32.37-.29.34-.13.87-.18.65-.24,1.32-.78,1.86-1.22.39-.37,1.27-1.85.12-.44-.18-.2-.44,0-1.31.06-.29.09-1.45,1.6.33.34.55.35-.15.32-1,.64-1.95.69-1.56.41-2.11-.09-.49-1.18.31-1h1l1.71.21.23-.25-.24-.26-.33-.08h-.22l-1.36.42-1.41,1.14-1.66,2.14-.55.15-.21-.27v-.46l.2-.46.2-.32.32-.44.2-.34.16-.38.58-2.43,0-.79-.95-.21-.58.44.08.53-.12.41-.32.46-2.31,1.33-.35.17-2-.89-.43-.23-.21-.3,0-.41.28-.25.32,0,.3-1.16-.09-1.39-1.54-2.08-.41,0-1,1.18-1.63,4.27-.16.83-.22,0-.34-.19-3.45-2.61-.26-.34-.61-.08-.64.23-.92.83-.46.64-.41.17-2.07.13-.23,0-.52-.15-.34-.37-.23-.7-.5-2.18-.17-2.2.17-1.74.26-.26.32,0,1.16.45,1,1.14.31.8.07.41.29.47.42.25,1.61.64,1.36.47.26,0,2-1.06-2.52-2.93-.48-.27-.29.06-.75.38H446l-1-.59-.28-.38-.16-1.16,1.23-.72.57-.06.49,0,.23,0,.39.41.23,1,1.5,2.19.36.29.36.17.8.19,1.56-.62.11-.37-.38-.38-1.29-.18-.35-.19-.24-.26-.35-.65-.23-.83.35-.45.29,0,3.05,1.35,1.55-.72-1-.61.41-.58.83-.6.33,0,3.62,2.2,4.75,1.45.72-2v-.51l0-.45-.06-.43-.2-.93.23-.43.92-.58.85-.27.95-.05.75.05,2.35.24.23.05.84.32.12.32-1.27,2-.87,2.09-.46,2.22-.44,3,.75-.88,1.65,1.45-1-1.86-.17-.34-.22-.84.1-.63.7-2.21.17-.35.45-.7.29-.35.84-.83h.37l.27.67.31.52,2.27,2,.75.33.28.19.24.22,1.15,1,.23.29.19.3.25.52.29.47.46.2.44,0,2.41-1-2-1.53-.52-.38-.92-.51-.53-.24-1.09-.58-.39-.23-.48-.32-.85-.61-.26-.38-1.09-1.93.2-.71-.07-.57-.32-.56-.28-.37-.35-.41-.53-.37-1.29-.43-.42-.07-.95-.11-1.86.11-.77,0-.39-.11-.31-.21-.41-.42-.31-.52-.84-3.46.83-.26.53.47,1.64,1.21,2.87,1.5,6.58,3.72,4.07,3.8.38.18,1.5-1.71.08-.38-.26-.26-1.56-.38-.38-.14-.51-.51-.19-.43,0-.41,1.41-1.38.8-.72.37-.27.31-.06.23,0,1,.75.75,1,2.21,4.85,1.59,4.11.53.67.4-.2.3-2.7-1.43-3.51-.82-1.9-.37-.27-.47-.49.35-.93.2-.18.48,0,.87.24,2.45,1.29.5.52.57.76,5.34,1.33,2.88,1.72.31.22.2.3.1.54-.06.41-1.61,2-.23.17-.81.47-.31.35-.87,1.85-.26.64.69,2,.23.25.23-1.3.78-2,.56-1.26.24-.53.28-.37.67-.5.46-.14.26.11.2.3.29.72.35.93.11-.1.51-.9-.32-1.29-.23-.53,0-.76.16-.57.3-.59.25-.54.5,0,.22,0,.64.27.81.72.29,0,.29-.32,0-1.35-.32-.38-.3-.22-1.42-.88-4-2.36-3-1.41-.58-.19-1.79-.78-.31-.22-.29-.35-.44-.71-2.38-1-.61-.17-.43-.08-.48,0-.43-.08-.58-.2-1.92-.76-3.55-2.5-.38-.41-.19-.44-1.69-5.66-.61-3.15-.13-.86-.07-.68.08-.75.43-.79.38-.37,4.94-3.18.29-.08.67.09.47,0,.26,0,.44-.05,1.13-.38L498,990l.29-.22.29-.53.1-.72v-.38l-.35-3.72-.2-.48-.41-.4-4.14-.35-.7,0-6.27,1-.21.06-.9.34-.78.48-.88.74-.28.35-.49.83-.41.26-2.8,1.28-.32.07-.23,0-.35-.16-.44-.32-4-3.33-.13-.36-.61-2.81-.14-1.8v-.48l.64-6.5.13-.5.13-.37.31-.42,1.65-2,.27.26-.32.85,0,.56.43,1.76.37.09,2.5-.81.35-.14.45-.29.26-.24.23-.26.2-.29.15-.35.58-2.06.06-.44,0-.58-.22-.38-2.25-.4-1-1.63,0-.44-.2-.52-.4-.44-.52-.24-.65-.11h.19l-.43.36-.59.13-.31-.08-.12-.32.5-.73.61-.37,4-.73.41-.06.53.1.55.32.23.25.29.44.32.78.74,1.1.33.41.54.46.53.21.44.06.45,0,.52-.22,3.77-2.24.45-.41.4-.58,2-3.36.2-.67,0-.48-.12-2.87.46-.53.47-.38,2.46-1.32.76-.24,1.22,1.59.2.29.14.35.09.4,0,.44.19.43,2.41,3.31.24.24.66.58.58.4.6.15H504l.59-.26,2.46-1.22,2.82-1.87.28-.21.3-.44,2.54,1,1.68,1.3-.7.32,1.53,5.16L514,981.76l1.53,2.24L514,990.25l1.53,12.07-1.53,5.81v12.45l1.53.77-1.53,7.11,1.53,9.11ZM381.56,870l-.26-.07-1.69-.94-.44-.57.63-1.21.69-.64,1.42-.95.58-.25.49.33.77.54-1.07-1.45-.6-.13-.64.29-1.84,1.51-.77.15-.57-1,.14-1.63.44-3.24-.78-3.54.78-5.13.93-1,1.32-1.07,2.88-4-.88.31-1.37,1.83-2.48,2.92-1.8,1.2-.34-.71-.18-1.4-.78,1-.08.94,0,1.76.05,1.32.37.88.57.79-.49,4.56-.69,3.13-.75-.17-2.08-1.58-1.62-3.27-1.81-4.18.54-2-.44-2.42-.77-1.4-1-1-.77.37-.69.4-.55-1.84-.11-1,0-1.92.85-1.08.5-.19.49.11,1.18,2.11.26.92L370,848l1.79,2.32.64.46.19.06,0-.28-.83-1.48L371,848l-.41-.54-.47-.75-1-2.28.08-1.64,1-.27.49.58,1.21,2,.69.23,1.9-2.59.24-.66-.52-1.42.76.57,1.79,2.2,1.3,1.73.65-1.57,1.38-6.62-1.4-1.67-.81-.87-.51-.34-.45-.76-1.21-2.72-.84-2.33.27-1.49,1.62-1.23,3.07-2.13,2.2-.57,4.48,1.07.39,1.38.55,5,.54,1.5.09.7-.17,4.26.71,3.69.11.73,0,2.91-.6,4.17-.42,1.57-.53.93-.21,1.32.52,1.54-1.12,1.23-1.1,2.38.07,1,1.47-1.51-.09-.67.06-.73,1.4-.3.55.65.52,1.1.13,2.17-1.15,6.68-.3.55L386.56,868l-1.91,1.72-.71.2-2.38.07ZM515.9,1058.11l-.47-.72-.51-.15-.44-.61-.41-1-.54-.5h-.64l-.76.62,3,3.26,1.2-.35.64-.41.54-.25.67-.1,1.07.2,1.46.64,3.93,1.92.39.78-.16,1.07-.35.78.91.29,1.3-.17-.9,2,1.34,2.26.66.28,1,.14-.26,3.06-1.6,1.56-.28.23-.1,0-.6-.14-.29-.57-.72-1.13-1.71-2-.85-1.9.26-1.42-2.38-2-.43-.14-.73.92-1.25.09-1.47-1.33-1.5-.7-2.9,0-.85,1-1.16.51-.53,0-.94-.72-.95-1.13-.61-1.22.7-1.06,1.41-.43.55-.09.52.22.71-.16.3-1.87-2.7,1-.32-.71.41-2.11.64-1.87.86-.94.21-.7L507,1055l-1.33.33-2.39-.75-.53-.32-.58-.57-.48-.8-.59-2.44-2.74.51-.56.19-.48.34,1.34-.12,1.45.17.6,2.21-2.25.85-.32,1.53L500,1059l.06,2.27,1.86.43,1.47.11-.18,2.2-.37.38-3.28-.84-2.19.41-1.38-3.24.56-1.29,1.12-.27.38-.36-1.5-.83-.58,0-1.69,1.48-.82-1.59-1.92-.87.12-1.15.64-1.25,1.64-1.29.58-.18.7-.31.5-.73h-1.51l-1,.63-2.1,1.62-3.44,1-.58,0-1.43-1.37,1.26-.23.49-.4-1.41-1.52-2.55-.13-.39-.42.5-1.15,1.81-2,.83-.4,2.36-.55,3.44-.39,6.43-1.21,3.89-1,4.65-.4,3.67.14.53-.11,1.62-1.26,1.84-.34,3.38-.35,2.43,1,1.44,2,.37,1.58-.27,1.05-5.27,2.44-.4.62-1.36.35-2.83-.77-1.17-.76-.83-.84-.73-.65-.46-.36-2.59-1.8h-.5l-.4.89,2,2.3,1.49.93,2.51,1.47,3.82.16,3.21.06,1.41.11,2.2,1.46,1.47,1.64-.12.72-6.34.94-1.19,1.53Zm-103-56.17,1.07-.75.22-3.52-2.87.17-.93.68-.8.39-.64.19-1.88,0,1-.81.62-.37.41-.48-.19-1.49-.65,0-.87.09-.67-.09-.47-.47,0-1.47.29-.75.38-.36.93-.16.57.46.44,0,.5-.37.69-.67.44,0,1.67.91.41.58.27.7.55.93.63.4,1.89.59.63,0,2-.06,2-.34,0-1h-.65l-.46.43-1.48.12-1.44-.16-.7-.11-1.56-.41-.68-.48-2.68-4.32-.48-1.4.94-.11.77.28,1.2.61,4,.78-.58-1.87-.93-1.36,2.11-.7,1.63.19,1.92.79.83,4-.35,1.65-.4,1.4.69,2.06,1.29-3.83.19-1.14-.6-1.36-.52-1.39,1.59.58,1.13,1.42,1.33,3,1.86-1.5,2.21.33,1,.64.84,1.45-.1,1-.65-.08-.63.23-.39.75.91,2.44.73-1.07.8-1,2.4,1,.5.4,2.08,2.7-.77.54-.38.1-.41,1.52-.72.47-.55-.06-1.72-.38-2.11,1.2v2.63l1.14.35.89.41.7.22-.09,1.7L432,1010l-2.29,2.31h-.55l-.47-.54-.9-1.11-1.85,1-2.47,2.2H422.3l-2.61-1.91-.65-.74.44-.62,2.47-.05,2.51-1.66,1.06-6.32-1.6-.86-.59.39-1.41,1.23-.69.31-1.9-.12-.14-.84-.08-1-.79-.33-.92,3.83,0,.9-.65,2.55-2-.9-.77-1.91-.74-2.06-.48-1.45.15-.37Zm113.84,40.9h2.1l2.22-.52,1.9.18,3,.14,1.38-.14.49.34h2.64l1,.09,1.52.36.82.23.76.32.53.26.86.47.4.39,2.49,3.84,0,2.48-.58,1.69-.3.63-.2.33-2.93,3.89-.21.17-1,.13h-.3l-2.18-.67-.36-.15-.47-.3-.29-.36-.13-.38.06-.62.44-.54.24-.4.06-.41-.15-.34-.44-.47-.44-.33-.56-.2-.63-.15-.44,0-.41.11-.73.32-.25.25-.2.32-.23.54-.21.94.06.94-.24.27-.33.06-3.09-.23-.37-.13-1.15-.7.32-.4h.23l0-1.44-.66-1.18-.41.16-2.86,1.54-.7.43h-.15l-.48-.06-.36-.15-.32-.22-.4-.39-.15-.37-.86-4.06.14-.64-.49-3.59-.43.11-2,.1-.66-.82-.29-1.31.35-.49.25-.14,2.88-1.23,2.87,1.52ZM411.63,981.55l1.45-.28.26.09,1.59,1.07,2.46,1.74.24.42-.23.51-.32.19h-.23l-2.47-.15-5.4-1.43-.2-1-.14-.42-1.5-.69-.62-1.33-2.51-2.4-.35.1-2.1-2.1-1.35-1.74-1.83.42-.91.48-1,.66-5.1-.2-.51-.3-.53-2.13-1.6-2-.43,0-1.36-.35-1.75-1.39-.19-.41.19-.63.41-1.72-.6-1-.21-.15-.55-.12-1-.5-.31-.2-1.11-1.5.91-1.39.28,0,1,.69,3.13,3.07,1.23,1.45.84,2,.94,1.08,2.41.55.28-.49.88-.24,1.47-.28,2.27.89,2.78,1.63,1.36,1.19.9.57,1.64.82,1.35,0,0-.69,1,.26.92,1.22.15.29.38,1.54-.21.43-.34.43-.2.49.8,2.16.23.39.33.18.83-1.5-.23-.67-.21-.81-.22-1.25.28-.38.32,0,.39.12.63.28,2.38,3,.09.41-1.19,1.06Zm45.31,27.19.52,2.3,1.76.38,1.94-.85,1.48,1,.19.42.4,2.81.09,3.39-2.62,4.06-.26.25-.4,0-.38-.39-.82-1.08-1.24-.29-2.05-1-2.07-3.89-.11-.62.17-.62.26-.24.68-.06.33-.18.15-.29-.84-1.38-1.79,1.48-.82,2.45-.12.39-.07.83-2.19-.51-.39-.26-.45-1.16-.23-.78-.17-.7.09-.5,1.28-1.56-.55-4.27.26-.83.46-.56.35-.28.92-.18,2.18,0,2,.88,1.66.92.2.18.18.63Zm15.76,7.11-.19-.06-1.71-.7-.82-.38-.77-.43-.26-.21-1.83-1.72-.38-.44-1.2-2.22-.38-3.46,0-.42,0-1.94.15-.33,1.1-.81,1-.38.33.06,1.74.59.45.4.25.1.22,0,.37-.21.27-.46v-.43l-.2-.49-.36-.46-.27-.2-.88-.42-.18-.29-.12-.45-.08-2.24.11-.48.61-.19L470,997l.27-.2.35-.34.46-.5.28-.41.16-.33.17-.55.16-.69.15-.44.17-.3.32-.27.94-.15.31.32-.1,2.52-.09.39-.11.38-.06.41,0,.7V998l.06.41,1,4.75,1.17,3,.74,2.05-.07.53-.42.46-.42.15-.76,0-.21,0-.38-.1-.33-.15-.56-.4-.62-.57-.54-.87-.26-.33-1.9-1.89-.13.37v.44L470,1007l.13.34.15.3.42.54.35.36.2.27.4.65.87,2.83.14.56.33,2.58-.24.42Zm-24.22-9L447.4,1008l.23.41.47.49.78,3-.07.59-1.27,1.88-.4.51-.3.07-.23,0-.81-.24-.32-.2-.28-.24-.33-.43-1.84-2.93,0-.58.09-.8-.18-.32-.34,0-.24.53,0,.49.1.5.75,2.6.8,1,.3.18.52.29,2.12,2.69,0,.57-.2.44-1.73,2.82-.23.16-.32,0-1.84-.43-.4-.76.29-2-3.42-3.47-2-2.13-.29-.35-.21-.42-.14-.36-.63-3.91-.09-.82.11-.6.92-.18.22,0,.23.05,1.33.56.31.34.26.73H440l1.13-2.71.35-1,.57-.31.44-.18,4.79,1.77,1.48.77-.09.59-.2.26Zm-73.56-129.8-.48.74-2.73,3.68-.29.33-.5.19-1.64-.13-.23-.09-.1-.33V881l.25-.57.79-.5.63-.79,1-1.45-.31-.3-1.51.43-1.11.72-2.28,1h-.3l-.23-.24v-.57l.3-2.44.55-1.93.6-1.7.17-.46.27-.34.3-.16.41,0,.38.14,1.49.63.1.34-.24.38-.22.14-.63.13h-.9l-.14.28.33.62.33.28.95.5,1.79.44,1.2-.19-.08-1.71-.25-1.07-1.54-.49L369.36,871l-1.78-1.52-.39-1.25,1.82-1.45.38,0,3.54.88.27.22,2.94,3.59-1.1,1.09-.33.39-.17.36,1,0,3.68-.9.4-.88-.22-.41.94-.42.33.39.22.76-.06,1.18-.4,1.1-4.29,2.53-.32.17-.86.29Zm7,28.2-3.57-1.71-1.63-3-.09-.36v-.55l.09-.54.58-1.52.26-.2,1.25.1,2.53.68,1.21.48,1.63-.9.12-2.7-.06-.67L384,894l-.58-.61-.26-.12-.37-.23-.13-.32.1-.37.48-.29.77.19,1.5.7,1.36.91,1.74,1.76.18.44.09.58.55,5.62-.44,2-.23.26-.27-.13-.09-.69-.34-1.24-.61-.93-.34-.14-.24.08-2.47,1.5-.43,1.43-.17.29-1.79.63-.12,0Zm95.58,136.44.61.07.22.23-2.83,1.31-.93.1-.43.36-.06.61.08.64-.2.36-2.4.38-.74-.06-.58-.2-.49-.31-.26.16-.26.64,1.72.73,3.53.46,2.78-.46.33,0,1.13,0,.22.12.14.75.32,2.29-.65.63-.58.06-.29-.11-.25-.24-.2-.58-.55-.61-.45-.09-.22-.1-.74.6-.07.87.19.32.59.32.47.08.24.15.14.37-.23.53-3.2,1.48-.4,0-.22-.31-.12-.52-.06-.7v-1l.38-.84-1.23-1.47-2,1.7-.47-.11-4.7-1.79-1.55-1.26-.16-3,.29-.36.32-.2,2.39-.52,1.79.41.92.29,1,.51,2.71.09.38-.22-1.19-.51.15-.39,2.2-1.26.29-.09,1.33-.07,1.87-.19Zm-84.1-146.1-.58-1.59-.26-.32-.47-.35-1,.52-.11.37-1.88-.72-2.15-1.72-.21-.26-1-2.32-.17-.51-.1-.67.09-.4,1.63-1.58,1.53-1.58-1.64-.68-.23,0-.76.28h-.32l-2.3-1.2,1.29-1.19.28-.21.7-.46.4-.17.29,0,3.63,2.41,1.94,4.46.81,1.92,1.2,3.13.11.69,0,.81-.26,1.11-.22.16-.18,0Zm93.44,151.55.17-1.09,0-.46-.38-.84-.64-.21-.12-.56.48-2.37.22-.17,1.29-.47.22,0,2.4-.41,1.16,0,6.13,1.31.63.15,3.66,1.18.83.78-.38.26-.71.06-4.06,1-2.12.64-3.21.58L490,1047l-3.15.19ZM399.71,962h-.2l-.3-.2-2.83-3.31-.18-.42v-.35l.48-1.31.21-.28,1.25-1.46,3.47-3.28,1.34-.89.31,0,.3.09.28.23.23.39.93,2-1.25,4.44-1.21,2.65-.17.33-.3.44-.39.19-.36-.12-.23,0-.73.44-.66.47Zm-23.28-43.57h-.2l-.49-.34.12-.9,1.53-1.2,1.13-.51.46-.24,1.6-1.77.18-.43-.22-.06-2.34,1.31-.46.37-.44-.15-.25-.4-.09-.47.08-.42.18-.32,3.47-3.72,1.69-.49,2.22-.09,1,1.16.17.3.55,1.55-.17,2.87-.27.47-.9,1-.22.13h-.5l-.28-.21-.76-2.55-.88.47-.46,1-1,2-.3.17-.93.2-.83.06-1.19.15-.38.22-.84.74Zm-7.36-24.13-2.11-.58-.44-.19-.23-.26L365,889.77l.18-.43,1-1,.7-.45.31,0,.32.07.55.38.12-1-.67-1.62-.63-.53-.75-.54.05-.47,1-.95.49-.06,4.42,1,1.88.11.22.23-.14.45-2.17,2.87-.35.1-.24,0-.4-.1-.34-.16-.38-.33-.06,1,.09,2.21.09,2.52L370,894l-.38.26-.35.12-.2-.09Zm3.22-30.14-.36-.64L370.67,862l-.52-.18.19,1,.17.61v.36l-.29.15-.52-.2-.69-.7-.41-.51-.56-1.13,0-.41.09-.41-1.23-1L364.46,862l-.43-.17-.59-1.36-.11-.33-.24-4.1.88-1.17,3.89-.37.26.08.26.21.32.38.8,1.15,2.39,4.91.11.34.44,2.43-.15.21Zm4.57,76.38-.39-.72-1.58-4.47,1.89-5.11.37-.51.65.72.08.37-.26.48.05.39.53.1.72-.1.46-.16.5-.61-.66-4.21-.64-1.74-.58-.29-.3-.29-.05-.38.24-.39.42-.3.3-.15.44-.11,1.38.52.35.47.09.37.32,3.1.11,1.14-.34,1.47-1.08,4.29L378.73,938l-1.08,1.92-.32.42-.26.21Zm-6-104.09L369.75,833l-.18-.44-2,1-.65,1.26-.17.26-.3.24-.44,0-2.82-2.21-.14-.27-.11-.28-.07-.52v-.37l0-.43.07-.37.35-1,.23-.31,1.56-.52,3.54.24.33.11.77.33.24.2.42.61L372,835v.38l-.77.84-.23.19-.14.07Zm6.37,6.78-2-2.41L372,839.76l-1-.68.05-.55.2-.44.59-1.07.29-.41,1.42-1.8,3.15.2.58.46,1.19,1.34.09,1.18v.42l-.78,5.48-.31-.24-.24-.4Zm-7.76,80.52-.17-.52.06-2.69.9-1,.92-1.47.2-1.73.06-2.42,0-.58,0-.48.11-.4.17-.31,1-.91.35-.24.28,0,2.71,2.41.18,1-.08,1-.1.4-.34.25h-.28l-.32-.28-.4-.08-.21.15-1.33,3,.09.59,0,.62-.05.56-.15.49-.25.6L370,923.68l-.24.09Zm25.28,26.34-1-.76-.81-1.57-.16-2.78.16-.35.33-.26.25-.11.46.06.51.26.25.25.55.32.26-.09-.87-1.91-.23-.26-.55-.43-1.89-.64-1.24.18-.35.13-.51,0-.42-.2-.61-.5-.05-.46,1.47-1.39.38-.21.43-.16h.22l.32.18.28.22,1.71,1.48,1.43,1.48.91,1.05,3.29,4.06v.49l-.92.69-2.75,1.43-.7,0-.17-.17ZM365,843.05l-.2,0-2.43-1.33-.34-.24-.12-.32,1.19-2.37,1.16-.79.31-.08.41.2,1.1-1,.61-1.66,1-1.33.38-.3.39-.17.26.09.32.78.82,2.35.09.46-.43.88-.36.57-.2.24-3.1,3.38-.88.71Zm17.7,54.64-1.74-.15-.87-.26-2.29-.81-.27-.43-.55-2.38.11-1.16.12-.38,1.31-1.7,1.51-.53.32.11,1.35,1.28,1.78,4,.05.4-.23,1.28-.31.68-.29.08Zm11.64,36.88-1.48-.27-3.1-1.89-1.16-1.48L387,926.15l2.81.94,4.38,3.59L396,931.9l0,.38-.91,2-.23.26Zm67.37,109.29-.37,0-1.59-.76-1.2-1-2.6,1.65-.34.17-1.45-.41-1-2.28,1.15-2.14,1,.1,3.35.71,1.4.45.6.44.73.32.53-.11.48-.29.33-.44.26-.06,1.13.84.67,1.78-.44.2-.72,0-1.93.88Zm-57.85-99.71-.12-.31-.6-1.1-1-1.53-1.49-1.58-.42-.32-1.31-.92-2.79-1.68-.31-.2-.38-.33,0-1.24.4-1.42.76-.58.28.06.41.32L401,936.7l1.13,1.08.77.79.2.4,1.12,2.55.47,1.92,0,.57-.13.64-.33,0-.34-.48Zm-6.47-14.26-.49-.14-.32-.17-3-2.24-.46-.4-.35-.47,0-.64.17-.32,1-.22.95,0,1.13-1.94-.35-2.11.14-.35.19-.15.33.06.35.32,2.88,7.31V929l-.31.37-.27.2-.55.29-.46.12-.23,0Zm145.13,145.83,0-1.17-.19-.2-1.16-.31-1.3.34-2-.72-.09-1,.29-1.87,2.47-2.73,1.27-.66h.38l1.85,5.62.35,1.52-.1.43-.49.43-.48.18-.81.12ZM379,941.21l-.14-.06-.44-.84,2.23-7.57.17-.47.45-1,.25-.52.24-.37.28,0,2.82.4-.09.53-3.57,7.91-.23.27-1.82,1.68-.15.12Zm55.93,69.94,1.21,1.11.66,1.35-.95,2-1.08,2-.45.16-2.33.14-.83-.12-.47-.31-.24-.27-.22-1.5,2.7-4.12.45-.44.74-.38.57,0,.2.17,0,.17Zm-33.57-61-.9-1.15-.71-2.06-1.87-1.59-1.68-2.18-.16-.31-.19-.76.32-.47.69-.4h.24l1,.69.9,1.45,3,1.67.44.52.26.45.09.39.55,2.41-.09.56-.29.38-.93.52h-.54l-.17-.12Zm8.92,36,.47.22.28.45-1.54,2.1,1.38,2,.16.54L409,992.6l-.44-.17-2.92-1.74-2.67-2-.33-.52-.39-.72.08-.38.37,0,.77.85.72.55.46.32.37.16.23,0,.9.08,1.84-.7,0-.39-.2-.18-.67-.35.31-1.39,2.49.06.24,0,.17,0ZM371.71,833.88l-.43-.92-1.8-5.49.71-.05,1.08.35.32.15.61.33.73.45.74.55.26.29.18.26.3.58.11.34.4,1.66-.06.38-.19.29-2.21,1-.38,0-.37-.14Zm16.14,74.68-2.9-1.39-.3-.29L384,905l.1-1,2.3-1.7.37,0,.24.12.26.44,1.34,2.79.13.34.06.4v1l-.52,1.2-.28.07-.15-.05Zm3.94.41-.9-4.59-.31-1.94-.23-3.25.15-.34.57,0,.43.92,1.29,4.19.77,3.1.17,1.27-1.24,1.54-.31.17-.3,0-.17-.31.05-.58,0-.12Zm86.86,109.45h-.26l-.46-.08-2.91-1.21-.41-.22-.86-1.3-.17-.34,0-.46.13-.65.2-.45.29-.07.43.09,3.82,1.53,1.26.81.39.61-.07.58-.26.44-.54.59-.29.1-.25,0Zm-64.94-5.18-1.34-.73-2.68-1.24-.23-.38,1.71-1.57.81,0,.72,0,1.48.2.28.12,1.2.67.11.39.37,1.81-.32.38-.39.1-1.72.24Zm139,41.11.42.46.49,1.89-.33.9-.69.55-.41.12-2.35-.12-1.09-.09-.21-.18-.23-1.88.63-1,.48-.29,1.7-.67.61-.06.41.09.37.15.2.14ZM417.16,938.05l-.09-.73.12-.65.15-.48.15-.35.92-2,.2-.16,1.74-.88,1.72-.64-.1,1.13-2.11,4.41-.59.24-1.23.43-.45.08-.23-.14-.2-.31Zm-21-23.57-.26-.18-.26-.35-.38-2.34,0-.35.24-1.66.17-.32.24-.12.42,0,1.58.26.55.37.14.48L399,912l-.06.8-2.07,1.75-.61-.06ZM373.39,828.6l-.15-.08L370.89,827l-.06-.5,1.31-1.73,2.29-2.62.29-.06.15.39.08.36.09.55,0,.42,0,.46-.57,2.4-.53,1.49-.23.37-.26.08Zm8.06,55.48-.47-.16-.15-.26.67-3.26,1.22-.93.24-.1.4,0,1.31.15L386,880l.06.36-.3.53L384,882.46l-1.79,1.48-.32.14Zm7.15-29.62-.22-1.3-.24-3,.15-1.33.11-.52.26-.11,1.29,1.15.55.52.22.35,1,2.07-.11.31-2.68,2.34-.29-.46Zm-14.77,78.25-.18-.18-.11-.35.58-3.3.4-1.39.14-.37.33-.41.48-.36.42-.16.55.11.46.46.08.55-.2,1.31L376.4,930l-.34,1.05-.21.42-.25.25-1,.84-.5.19-.31-.08ZM395,917.05l-1.32-.75-.87-.63-.26-.32-.3-1.84-.06-1.06.09-.64,1.68-.59.29.18,1.14,3.13.13.35,0,1.85-.12.38-.27.06-.17-.12Zm164,139.53-1-.26-.22-.3-.12-.66V1055l.36-1.56,1.9-1.37.5,0,.34,0,1.49.71.26.67-2,2.52-1.3.62Zm-84.35-17.68.54.16.42.21.52.72-.23.41-.27.09-4,.83H470l-1.13-.68-.3-.53.3-.31.73-.42,2.34-.67,1.62-.19,1,.34.12,0ZM374.78,894.53l-.27-.3-.17-.31-.52-1.53-.05-.62.72-2.08.29-.17,1.65.06.18.28.06.49-.16,4.52-.26.2-.71-.08-.76-.46Zm56.5,129.64-.26-.12-1.08-1.47-.34-1.55,2.43-1.39.47,0,2.34,1,.1.4-.21.78-1.51.69-.26,0-1.68,1.68Zm-49.12-85.64.2-.78.13-.38.25-.37,3.34-3.37.76.47.43.55v1l-.25.7-1.25.86-2.58,1.6-.95.47-.23-.2.16-.59ZM477.08,1014l-.23,0-1.92-1.4-.62-.66-.29-.46-.1-.52.15-.36.21-.17,3.68-.7.2.32.25.7.12.75-.51,1.45-.32.7-.26.25-.36.13Zm-75.74-20.74-.24-.14-.46-1.79.25-2.85.21-.31.29.05,2.81,2,.46.41-.05.47-.18.34-2.2,1.5-.32.16-.35.13-.22.06Zm9.35-23.1-.63.08-.29,0-.73-.76-.17-.32.23-.48.36,0,.22-.13-.76-.5-.86-.31-1.76-.15-.39.06L404,968l-.45.28-.23-.28,1.14-1.08,2.67-.64,3.19.91.28.21.88,1.1-.27,1.61-.5.09Zm-8.37-40.29h-.21l-.52-.1-.4-.23-.17-.31-1.86-3.84,0-.69.17-.32.5,0,1.44.78,1.13,1.49.64,1.47,0,.42-.66,1.36ZM536.62,1080l-.71-1.88-.24-.17-1.27,0-2.56.75-.29-.12-.22-.33,0-.61.32-.79.69-.18.25,0,.58.21.42.11.87.17,2.28.06.82-.63.25-.12,1,.29.37.49-.64,1.8-.25.29-1-.35-.26,0-.33,1Zm12.94-34.56,1.05.29,2.37.88.28.37.85,2.88-.32.17-.43-.2-4.84-3.34-.24-.52.11-.4.18-.21.43-.08.41.11Zm-167.91-98-1.33-1.35-.23-1.78,3.79-1,.5.13.11.37-1.56,3-.65.44-.43.17-.2,0Zm20.88-33.16L401,914l-.21-.15-.54-.54-.45-1.37.13-.35.51-.58.85-.83.37-.09.38.12.38.23.29.31.2.27.17.31.14.59-.05.74-.32,1.31-.14.35-.14,0Zm-26.47-88.16-.52,0-.29-.22,0-.43.78-1.93.37-.5,1.85,0,1.08.15.64.32-2,1.91-.37.3-.29.16-.66.21-.58.06Zm5.07,116.74-.38-.11-.2-.29-.09-.37,0-.73.29-.76,3.83-2.26.28.7-1.82,3.13-1.34.58-.39.09-.21,0Zm153,126.45-.21-.29.78-3.94.32-.47.47-.31.32,0,.37.39.23.29.33.44.22.31.23.63-.07,1.31-1.1.85-.47.34-.58.21-.84.22Zm-52.82-23.42-.22,0-.33-.18-.32-.34v-.4l.29-.35.26-.24,3.13-1.7.37-.15.32,0,.21.18.26.4,0,.56-.75,1.15-2,.82-1.2.26Zm-84.57-64.77-.11.42-1,1.64-.61.39-1.36.45-.38,0-.23-.15-.38-.49-.06-.4,1.19-1.19.91-.82.92-.69h.26l.3.2.46.43Zm147.86,98.6-2.22-1.21L541,1077.4l.14-.53.23-.17.4-.14,1.2.09,1.59.52.75,1.07.07,1.36-.81.14ZM401,932.8l-1.74-.33-.24-.25-.19-1.63.66-1.33.28-.21.27,0,.24.23.22.26.41.54.95,1.55-.1.51-.45.44-.31.18Z" transform="translate(-360.31 2.07)"/><path id="CL-TA" class="cls-1" d="M474.36,40.08l3.46-.17,3.37-2.1,3.36-2.53h6.11l3.4,2.09,3.39-.43.43-2.55L500,32.23h3.28l-.27.67,1.42,2.55L507,37.22l.91.81,1.79,2,.35.34.73.35.57.15.67.35,1.3,1.15,1,1.48L512,46.32l-.46.61-.64.94-1.84,2.2L509,51l1.39,1,1.29,1.1.94,1.91-1.17,3.14-.72,0-.87.12-2.75.75-.17.58.4.5,1,2.32.38,2.32L508,65l-.43.49.05,1.16.29.61.32.48.73.77.62.43.71.35.64.26.64.22.46.19,1.23.86.55.59-.1.46-.81.49-.43.37-1.2,1.07,0,3.23.12.48.05.06h0l-1.62-.1-3.9-.52-1.89.24-.48.12-.41.25-.23.54.32.45.61.37,1.69.66h.59l.54,0,1.18-.26.62.15.26.58-.17,1-.21.62-.88,1.62-.34.54-.28.59-.13.65v.73l-2,.86-2.69.29-5.77,1.74-6.89,1.62-1.62.36-1.5-.54-1.33-.23-2.42-.27-.54-.05-2.34.12-.32.12h0l-.7-1.34-.1-.73.5-.77-1.18-4.49-.52-1.17-.46-1,.36-1.26.39-.74-.16-1.19-.35-.64-.37-.29-.8-.71.9-9.3.63-2.07.11-.62L477,62l.24-1.73.29-.66.21-.67,0-1.77v-.63l-.3-1.51-.78-6-.65-3.5-.75-2.77L474.32,41Z" transform="translate(-360.31 2.07)"/><path id="CL-AN" class="cls-1" d="M513.16,78.53l.62.09.58-.06H515l4.47,6.81.94,1.48.06,7.26.37.42.71.92.39.72.39,1.1.34,1.74.06.52,0,.87,0,.76.05,1.13,2,2,.55.31.66,1,.48,3.13v.81l-.22.61,1,2.95.93,3-.79,3.69.18,2.71,1.91,1.16,4.92.55,5.61-1.13,3.49-.73,1.81,1.84,2.39,2.4-1.08,2.86-1,2.75-1,2.75-.29.79L540,150.64l-7,3-6,2.52-6.69,2.78-1.45.65-.55,1.16-.95,1.17-1.08-.17-.57.34-1.66,2.4-1,1.56-.76,1.4-.61,1.25-.08.75.53,1.33,1.1.61,3.33,5.4-1.49.74-1.52.23-.24.22-.42.65-.45,1.7h-1.31l-.88.1-.69.43-.89.75-.73.69-.52.38-.53.12-1.09-.06-.84-.12-.7.1-.76.31-.63.34-.47.32-1.1.87-.44,1.19-.22,1.66-.44.84-.47,0,.21,4.27h-6.36l-.86,2.49-2.12.43L488.54,198l-3.41-2.55-1.72-2.32-.29,0-1.47-.14-.64-.12-.79-.06-.78.32-.41.23-.81.51-.51.45L475,196l-1.54.15-2,.31-.93.18-.61.15-.55.2-.41.22-.4.24-1.2.9-1,1.44h0l.59-1.07.1-.47-.08-.78-.43-1.32-.61-.64-.43-.49-.71-1.75.68-2.52.37-1.11,1.07-2.33,1.3-1.71.79-.59,1.88-2.52.83-2.52V178.6l-.94-1.32-1-1.4.12-3.16-.69-1.4-.39-1.3-.8-3,.35-3.75.43-3.82.18-1.15-.27-.48.38-2,.34-1.2.24-.46.17-1.64-.11-1.42-.36-.84,0-.8.21-3,.29-1.62.66-.87.57-.44.35-.64.44-1.1.2-.64,1.19-.55v-.93l-.18-.74-.26-.73-.28-.35-.7-.52-.59-.3-.45.19-.57,1.32-1.77-.34.46-2.85.11-3.44.41-3.88.73-.87.75-.35.16,1,.41.57,1.24-.25.67-.35.41-.38.36-.44.24-.42.6-1.48.44-1.29-.11-.69-.18-.5-.2-1.07.55-3.39.53-4.54.32-3.22.41-3.52.31-1.48.44-1.73.79-5.89-.09-.72,0-1.57.37-1.25.95-.86.12-1.16.67-2.47h0l.31-.12,2.27-.13.52,0,2.35.27,1.28.23,1.45.55,1.57-.36,6.68-1.64,5.59-1.75,2.61-.29,1.93-.87V85l.13-.65.26-.6.34-.55.85-1.63.2-.63.16-1-.24-.58-.6-.15-1.15.26-.52,0h-.49l-1.81-.67-.65-.37-.34-.45.25-.55.43-.25.52-.12,2-.24,4.17.51,1.73.11h0l.11.25.48.5Z" transform="translate(-360.31 2.07)"/><path id="CL-AT" class="cls-1" d="M511.54,182l-.44,1.85-.09.47-.06.74.07.58.94,2.85,1.14,2.41.17.6.84,3.89,1.19,6.11-.43.68-1.31,1.21-.87.61-.55.44-.41.54-.29,1.13-.08.75-.07,1.32v1.65l.12.49.22.49.59.93,2.28,2.7,3,4.74.17.5L517,222.4l-.67.41-.82.44-.42.2L510,225.19l-1.07-.7-1-.16-.94.07-.55.3-.87,1.41-.42.8-.25.75.2.93-.75,2.08-3.07,5.79-.61.7-.87,2.5-.15,1-.76,3.13-.2.56-.29.65-.34.45-.62.16-.8.07-.81.41-.65,1.53-.25,1.08-.29.55-1,1.33-2.9,3.28-1.59,1.33L488,256l-.15,3.45-.15.84-.69.38-1.7,1.94,0,1.24.15.55.21.55.14.82-.73,2.19-.68,3.2,0,1.33-.13.61-.28.44-.7.47-1.37.15-1.27,1.54-1.49,2.22-.12,1.5.12.56.56,1.22.82,2.75.08.29h0l-2.6-.24-3.82-1.69-1.69-.85-3-.85.12-.67,0-1-.3-1-.26-.39-2.84-3.32-.5-.52-.6-.56-.7-.47-.62-.38-.7-.2-1.66,1.29-.85,1.71L459,279.35l-3.39.43-1.68-2.54-1.42-3.07-.3.18-.44.2-2.62.59-.82.17-.81,0h0l.34-1.87-.64-3.27-.06-2,.18-.6.75-.84,2-1.9,1.75-2.15.18-1.3.11-1.48.53-1.06.61-1,1.44-3.07.12-2.8V250l1-4.72.77-2.87.48-1.43.81-1.51.81-1.13.93-.44,1.12-.84.47-3.33-.37-1.3-.59-2.44-.66-3.76.19-.59.27-.66.49-.38,1.28-.28,1.09-1.49.62-1.22-.35-1.5-.37-.81-.12-.64,2.63-6.55.21-.82.23-3,1-3.25-1.2-2.45v-.8l.76-1.91h0l1-1.44,1.2-.9.4-.24.41-.22.55-.2.61-.15.93-.18,2-.31L475,196l2.76-1.66.51-.45.81-.51.41-.23.78-.32.79.06.64.12,1.47.14.29,0,1.72,2.32,3.41,2.55,2.12-2.55,2.12-.43.86-2.49H500l-.21-4.27.47,0,.45-.84.21-1.66.44-1.19,1.1-.87.47-.32.63-.34.76-.31.71-.1.84.12,1.08.06.53-.12.52-.38.74-.69.88-.75.69-.43.88-1.63,1.18,1.53h-.11l-.44,1Z" transform="translate(-360.31 2.07)"/><path id="CL-CO" class="cls-1" d="M448.11,275.31l.81,0,.83-.17,2.62-.59.45-.2.3-.19,1.42,3.09,1.69,2.55,3.41-.43,1.69-4.24.86-1.71,1.66-1.3.7.2.63.38.7.47.6.57.5.52,2.86,3.32.26.4.3,1,0,1-.13.67,3,.85,1.7.86,3.83,1.69,2.61.25h0l0,.21.06,1.11-.15.69-.1.67.13.57.28.39.7.48.06.18.21,2-.06,3-.24,1.39-.14.64,1.35,2.6.47.41.27.59-.06,1.16-1.46,3.36-.86,1.19-1.3.57-.68.08-.48-.08-1.78,1.13-1.68,3-.89,2-.36,1-1,3.68-.24,1.67-.09,1,.07.64.8,1-.08.85-1.45,1.6-1.48.52-.46-.48-1.51,1.63-.23.56-.62,3.56-.17,3.73-.25,1.54-.16.85,2.78,6.83.25.41.37.5.4.26.84.18,1.49-.09.43.25,1,1.17.11.69-.7,2-.92.14-.91,1,.7,3.62-.09.94h0l-2.05.26-.61-.36-.18-.6-.34-1.22-.61-.52-.59-.18-.45,0-.59,0-1-.17-1-.73,0-.63-.08-.84-1.49-.91-6.63.19-.67,1.09-1,1.16-.46.3-4.52,1-.91,0h0l-.6-.22-1-.5h-.61l-.51.34-.47.52h0l.14-2.43.23-1.22.14-.6-.49-1v-2.2l.56-3.08-.62-1.5,1.59-2.58v-1.57l-2.24-.67-1.11-5.27-.84-3.39-1.92-.47V324l2-1.36.11-2.31-.26-.88-.34-.6-.1-.56.08-3.61v-2.61l-.46-2.45.06-1.35.38-4.1.72-1.73.65-.24.26.41.72.27.52,0,.78-.38,2.27-2.29.43-.76,1-5,1.08-1.1-.05-1.88-.65-.69-.4-1.48.09-4.88.32-1.88.28-.84,0-.57-.7-2.33-.3-.52-.54-.52-1.16-.84-.53-.3-.46-.36-.25-.54Z" transform="translate(-360.31 2.07)"/><path id="CL-RM" class="cls-1" d="M479.17,405.07l0-.55L479,404l-.55-.4-1-.41-.71-.75-.11-.54.08-1.73-.26-1.08-.38-.29-.6.05-.62.44-.52.14-1.53-.52.2-1.33-.86-2.84-.49-.45-.77-.26h-.76l-2.56,1-.86.54-1.6.12-.6-.2-1.79,1.12-2.87,3.33-.09.6.08,1.1-1.8.41-2.08.06-.06,0-1.78-2.6-2.75-1.18-1.38-2.55-3.52.2-2.16-.89h0l1.16-.75h0l.71-2.41h.47l1.24.06,1.11.34.72-.05,1.07-1.15.95-3.59-.81-2-.32-1.79v-.53l.59-.3,1.53-1.55.67-.88.19-.59L453.5,378l.29-.56,1.35-.23,1.34,0,1.51-1-.07-3.25-.28-1.18.2-1,.45-.22,2.51-1h3l2.05.5,1.12.42.89.84.29,1,.75,1.09.52,0,1.41-1.2.51.06,1.52,1.69,2.24,1,1.82-1.6,1.1-.6h0l.33.65-.14,1.19-.22.79.13.69,2.07,3.09.53-.07.45-.8.61-.63.54-.09.6.2,1.56.87.63,2.82-.19.66-.56.66L483.05,386l-.77,5.83,0,1.27.43,1.69.78,5.38.67,3.61-1.53,1.14-1-.07-.51-.14h-.63l-.93.18Z" transform="translate(-360.31 2.07)"/><path id="CL-VS" class="cls-1" d="M449.78,350.51l.92.05,4.52-1,.47-.31,1-1.16.67-1.08,6.62-.2,1.5.92.09.84,0,.62,1,.73,1,.17h1l.6.19.61.51.33,1.23.18.58.62.36,2-.26h0l.17.49,1.5.66.29.81,1.66,3.43.17.78-.12.95.87,1L479,362.1l2,2.53.2,2.15-.93,1.56-.62,1.88-1.09,1.46-.62,1.2h0l-1.09.59-1.82,1.59-2.23-1-1.51-1.68-.51-.06-1.4,1.19-.52,0-.75-1.08-.29-1-.88-.86-1.12-.39-2-.52h-3l-2.51,1-.44.23-.2,1,.28,1.16.09,3.24-1.51,1-1.33,0-1.36.23-.29.55,0,1.83-.18.6-.65.87-1.55,1.52-.58.31v.52l.32,1.78.82,2L450.7,391l-1.07,1.15-.72,0-1.1-.33-1.24,0-.47,0-.7,2.39h0l-2,1.33h0l-.76,1-.76-.14-.83-.18-.56-.47-1,0h0l.66-2.38.75-1.77.58-.22.76-.15.63-.32.76-.67.4-1,.12-.51.14-.83.2-2-1.19-4.75-.26-3-1.09-3.87.22-.47,1,.06,2.8-2.06,1-2.82.53-3.53.9-1.77.25-.75.09-.79v-3.68l.77-2.49-1.38-2.38-.9-1.36-.59-1.54h0l.48-.54.51-.33.61,0h0l1,.51.58.21Z" transform="translate(-360.31 2.07)"/><path id="CL-AR" class="cls-1" d="M404.85,513.32l.09,0,.43.21.67.37,1.79,1.19,5.71-5.62.35-.69.15-.53.17-.84-.4-.66-.76-.38-.79-2.15,2.59-4,.63-.75.24-2.47-.29-.55-1.37-.12-.48-.58,2-2.51,3-.44.92.5.91.6.78.46,3,.71,1.85,0,1.32,1.56.61,1.49,1.35,1.93,1,.61.46.18.73.12.78.2.55.27,1.86,1.61.26.65.7.87.46.32,3.27.55,2.69-.26.64-.18.74.29.71,1v1.13l-.09.84,0,.9.09.65.43,1.61.27.55.78.57.35-.7.29-.69.35-.38,1.93-.92,1.42-.75.36-.35.34-.93,2.26-.49,5-.1,1.39.22h0l0,1.26-.27,2,.22,1.59.69,3.59.46,1,.93,1,.58.35.79.64.4.93-.09.91-.69,2.82-1.34,1.4-.49.23-1.05,0-.69-.07-.59.09-1,.49-3.07,1.8L452,528.66l-.58.37-.71.69-.37.61-.17.7-.09,1.48,0,.72.21.73.21,1.77.32,3.09-.33,2.51-1,2.95-.77,3.53-.17,1.05-.3.52-2,.11-.57-.26-.9-1.27-.33,0h0l-.06-.61-.14-.71L444,546l-.46-.08-1.46,0-1.23-.85-.59-.58-.69-.47-.55-.19-3.46-.3-.58.1-.55.28-.64.61-.43.47-.55.31-2.06.79-.83-.12-1-.5-3.21-1.12h-.64l-1.63.3-.63,0-.67-.06-.63-.14-.55-.38-.64-.72-.64-1.17-.23-1.6-.49-.39-3.14.07-1.07,1.32-.43.74-.58.59-.67.35-.67.08-.61-.08-.55-.13-.73-.22h0l.55-1-.16-3.09-1.22-4.33-3.83-11-1.27-4.24L404,516l0-.88.39-1.6Z" transform="translate(-360.31 2.07)"/><path id="CL-LI" class="cls-1" d="M445.18,395.07l2.12.9,3.44-.2,1.35,2.57,2.69,1.19,1.74,2.63.06,0,2-.06,1.75-.42-.07-1.11.09-.61,2.8-3.36L465,395.5l.58.21,1.56-.13.84-.54,2.51-1h.75l.75.27.48.45.84,2.86-.2,1.35,1.5.52.51-.14.6-.45.59,0,.37.29.26,1.09-.08,1.75.11.54.69.76,1,.41.54.41.15.52v.56h0l-.1.26V407l.15,1.2-2.22,3.49-1.77,3.46-1.4,5.13-1.32,3.82h0l-.16,0-1.26-.1-3.87-.4-2.4-1.9-.9-1-.42-.26-6-1.84-.81-.22h-.6l-3.79.31-1.77,1.58.07.59.09.91-3.27-.6-3.23-.22-2.18-.68-2.94-1.24-.73-1.15-1.23-1.56-.39-.28-.63-.26h0l.21-1,.31-3.54-.16-1.57-.06-1,.45-.76.79-.47.21-.68v-1.36l-.14-2-.45-.62-.16-.53.07-.88,2.55-4.79.59-.77h0l1,0,.56.48.81.19.73.12.75-1h0Z" transform="translate(-360.31 2.07)"/><path id="CL-LL" class="cls-2" d="M379.9,664.72l-.41.39-.49,0-.58-.08-.32.08-.42.17-.26.13-.78.64-.19,0-.33-.19-.75-1.2-.14-.25-.12-.29-.09-.29.06-.49,1.83-.92.26,0,1.85.93.21.2.49.53.18.6Zm26.48-31.94-.05,1-.41-.08-.2-.78-.11-.29-.14-.26-.33-.27-2-1.07-.29-.12-.7-.16-.31-.21-.59-1.69.06-.29.35-.14.5-.06.75,0,.52.12.41.31,2.57,4Zm-10.22-21-.42.6h-.62l-.54-.4-.45-.14-.33.62.74.82,1.93.69.56-.45.89-.61,2.29-1.42,2.14-.29.64.08,1.51,1-.49,3.82,1.66,2.61-.35,1-.59.23-.16.64.26.81,1.47,1,.56.14.55,1.68-.24,1.05-.28.66-2.27.53-1.19-.16-.52,0-1.48.8-.49.3-.35.57-.15,2.47.68.72.58.3.36.4-2.36,1-1.2-1.09.41-1.16-.7.22-.58,1.17.26,2.69,4.09,4.1,1,.37,1.19.86.37.39.3,1.57-.16.68-1.68.27-.83-.07-.71.39-.2,1.15.67.84,1.11.9.13.46L404,648l.57.79.26.92-.51.43-4.87-.43-.88.35.32,2.49.52.59.61.43.4,1.07-.45,2.64-.42.19-2.87.65-.77-.58-.58-.56-.56-.19-2-.09-2.29-.3-2.79-.81-1.94-1-.4-.34-.36-.62,1.57-4.06,2.06-2.52-.31-1,.68-.66.94-2.43.72-7-.12-2.07-.41-1.53-.39-.32-.53-.38.38-2.49.44-5.33.22-.52.41-.61.44-.56,1-1,.67-2.29.73-4.4-.84-1.69-.24-.63v-.58l.72-1.15,2.53.23.52,1.16Zm3-44,6.52.55,1.29,2.12,2.12.43,3.4-2.55,3.41,1.27,2.12,3.81,3,2.13,3.81,3.4,4.25,1.69,2.55-3,1.69-2.55,3.4-.43,4,.53h0l-.08,1.21,0,.78-.43,1.22-.42.61-.46.47-.66.57-.42.73L439,583l1.39,3,.26,1.24-.46,1.6.42,1.36-.46,5.25-.09.7-.38.81-.34,1.8.12.87L440,601l.38,3.37-.91,1.58.08.56v.83l.82,3.31,1.36,2.75.23.74.3,1.71.08,1.56.61.87.1,1.91-1.09,1-2.83,1.35-.67-.13-.21-.74-.31-.51-.7-.14-.52.28-.46.44-2,4,.46.88,1.13,1,.26.58-1.45,4.62-.32.62-.2.64-.09.62.23,2.29.38,1.53.07,1.17.11,2.78-.06.8-.2,1-.27.66-.16.58-.07,1.46.4,1,.87,1.47.55.47,1.16.51.87,0,.61,0,1.35.14.71.18,2.07,1.28.14,3-.15.57-.41.29-.8-.2-2.18.73-.73,1.83-.13,2,1.88,1.4,3.19,3,.25,1.93-.28.69-1.37.91-.43.17-.58.26v.86l1.13,1.69,1.26,1.44h0l-1.65-.78-.74,0L438,673.4l-.31,1.21-3.07.34-.17-1.18L434,673l-.72-.93-.65-.44-1-.1-.46-.2-1.68-2.8-.11-1.28-1.05-.42-.72.51-.94,1-.73,1.08-.31,1.2-4.24-.72-1.37-.36-.45-.35-1.45,0v-1.22l0,1h0l-.37,0-.55-.21-.82-.87-1.09.21-.94.66h0l-.1-1,.16-3.51L413,660.62l-.22-.68.75-3.83.46-.54.84-.56.62-.39.51-.29.44-.15,1.74-.33v-2.17l-1.39-1.25.17-.74.87-1.61.78-.89.72,0,1.91,1v-4l-1-.84-.64-.39-.62-.64-.34-.86-.31-1.72,0-1.58.11-4.15.76-1.94.49-.2,1.94.11.63.12.45.6,1.7,1.11.64.19.28-.37-.55-.9-1-.28-.7-.33-.87-.72-3.57-5.56,1.05-1.25,1.07-.78,3.19-1,.69.38.62,1.15V625l2,5.72.38.29.3-.53-.18-2.18-.76-3.88-.29-1.25-.28-2.14.05-.81.14-1.11.15-.78.2-.74.06-.93-.4.25h-.93l-.75.32-1.42.84-2.73-.41-1.68-.92-.9-1.28.18-.75,1.16-1.85,3.29-3.34.9,0,.73.15,2.24-.53,1.53-.77,1.21-1.08.38-.47.49-5.79-.8.29-.76,5.16-.49.92-1.56.78-2.23.73h-.73l-.5-.21-.87-.69-.64-1.94-.74-1-1.43-1.71-.84-.48-2-.5-1.66.5-.72.31-1.35,2.12.31,1.15.41.38.31,1.69-1.53,1.6L411,611.24l-.74.12L408.7,611l-.71-.23-1.43.05-.43.18-1.05.5-.58.2-.37,0-1.39-.89-2.58-.52-1.13-.06.34-2.21,1-1.48.39-.28.72,0,.72.11.81-.25,1.42-2.64-.68.64-.44,1-.43.58-.62.2-2.61-.26-1.33-.86-2-2.46-.05-1.07.4-.93-.08-1.94-.26-1.11-.75-2.11-.68-.87-.34-.73-.44-2.75-.48-3.22,1-3.13,2.49-6.72,1-1.29.89-1.91-.17-1-.61-1.56.92-4.17Z" transform="translate(-360.31 2.07)"/><path id="CL-ML" class="cls-1" d="M458.48,463.43l-.14-.07-.64-.75-.23-.95-.15-.79-.75-.38-.5.07-.42.31-1.72,2.2-.17.68-.06.58-.63.71-.88-.13L450,463.72l-.45-.44-2.33-1.92-1.82-.55-1.36-.54-.79-.5-.54-.52-.27-.67-.55-1.19-1.42-.23-.52.15-.55.23-.49,0-1.17-.27-.38-.34-.16-.5-.29-.68L435.27,454l-.16.83,0,.67-1.55,1.76-2.68-.08-.55-.18-4.15-2.17L423.08,452l-.16-.93-.33-.37-2.43-1.08h0l.41-.28,1.09-1L424,446l.27-.55.19-.84-.05-1-.52-1.27-.91-2.26.06-.75.48-.58.91-.5,1.49-1.27,1.39-3.51.76-2.21.32-.64.92-1.1.7-.46.84-.49,1.24-1.21.44-1,.2-1.18.06-.79,0-.93,0-.77.19-1.43,1.19-2.64.48-.52.43-.66.52-1.55h0l.64.25.4.28L438,418l.75,1.13,3,1.22,2.22.67,3.29.22,3.33.59-.09-.9-.08-.58,1.8-1.55,3.87-.31h.61l.82.21,6.09,1.82.43.26.92.93,2.44,1.88,3.94.4,1.28.09.17,0h0l-.05.2,0,1,0,1,.09.54-.12,1.18-.38.64-1.53.78-.67.14-.75,0-.52.14-.53.83,0,.69.37.77.38.3,2.4,1.5.56,4-.16,2.64-.32.55.21,1,.75,1.66.67,2-.69.58-.58,1-.21.6.09,2.09.24,2.78-.61,1.61-.3.42-.63.35-.81-.06-1.83.07-2.52,2.84-.29,2,.47,1.25-.22.65-5.35,1.93-.62-.09Z" transform="translate(-360.31 2.07)"/><path id="CL-AP" class="cls-1" d="M503.28,32.23H500l-2.12,2.16-.43,2.55-3.39.43-3.4-2.09h-6l-3.39,2.09-3.41,2.12-3.49.17h0l0-.93.26-.56-.06-1L473.53,31l-.35-.93L473,25.63l.21-1.31.62-3.16-.57-.84-.55-.57-.72-.55-.19-.07.33-.31.5-.27.84-.08,1.71.19,1.06.06.49,0,1-.19,3.08-1.16.7-.47,2-2.08.51-.58,1-2.1.47-1.23.11-.74-.94-3.44-.19-.43-.35-.33-.26-.41.09-.93.24-.62.43-.65,1,.1,1.88.16,4-3.59.27,2.89L494.09,5l.45.41.61,1.2.2.62-.06,1.51.13.8.2.65.32.54,3.42,1.11,1.35.23,0,.67-.19.43-.8.49-.44.38-.21.56.29.68.45.47.52.63.35,3.72.31.5.46.62.2.41.15.55-.05.55-.15,1.19.08,1.17.09,1.07.52,1.92,1.07,2.36.41.84Z" transform="translate(-360.31 2.07)"/><path id="CL-LR" class="cls-1" d="M440.93,575.21l-4-.53-3.4.42-1.7,2.55-2.55,3-4.24-1.71-3.83-3.39-3-2.14-2.12-3.81-3.39-1.27-3.4,2.55-2.13-.43L406,568.31l-6.52-.55h0l.46-2.66,1.47-1.77-.11-1.65-.23-.74-.56-.69-.29-.61.44-.7.32-.37,4.09-2,1.89.34.57-.86-.05-3.33,1.61-4.1.33-.63.78-2,.67-2.23-.47-.87h0l.73.22.55.13.61.08.67-.08.67-.35.58-.59.43-.74,1.07-1.32,3.15-.07.48.39.23,1.6.64,1.17.65.72.55.38.62.14.67.06.63,0,1.63-.3h.64l3.21,1.12,1,.5.82.12,2.06-.79.55-.31.43-.47.64-.61.55-.28.58-.1,3.46.3.55.19.69.47.6.58,1.22.85,1.46,0,.46.08.26.67.14.71.06.61h0l-.17.22-.41,1.44.08,2.84.77,3.57.78,2.7-.71,2.74-1.82,1.19-.89.71-.58,2.54.58,1.17,1.56,1.61.37-.66.73.5.11,1.07-.83,2-.3.53-.43.12-.5-.48-.46,0Z" transform="translate(-360.31 2.07)"/><path id="CL-BI" class="cls-1" d="M456.38,480.49l-.54.13-.86-.57-.57.21-.86.22-.86-.29-.57-.57-.64-.22-.58-.21-.35.5-.43-.07-.72-.43-.14-.57-.72-.57-.57-.5-.8.21v1.72l-.13.57L447,481l-.5-.22-.71.29H445l-.65.36-.57-.43-.57-.22-.93-.35-.79.07-.57.28-.36.86-.49.5-.86.36-.93-1.43h-.65l-.93,1.53H435.6l-1.07-.38-.86.56-1.5-.35-.27.28v-.86l.24-1,.78-.4.94-1-.24-.71-.54-.23-.63-.47h-.94l-1-.71-1.33-2-.47.55-1.25-.08-.39-.78h-.57l-.37.72-3.18-.28.29-.94,1.95.14-.29-.65.44-.72-.79-.44-.37-1.44.15-.65L424,469.6l-1.23-1.31-1.23-.21-.51-1-.5-.51-.65.29-.43-1.59-.29-.87.43-.58-.14-1.08h-1l-.29-1V462l-.1.26-1,2.58-.84,3-.43,2-.31.38-.43.19h-.55l-.68-.16-.51-.5-.79-.34-.34,5.15-.42,4.85-.54,2.06-.33.73-.52.69-.55.41-.91.4-1.2.35-.57.09h-.45l-.94,0-1.77-.78-.57-.37-1-1.06-.92.64-.25.61-.83,4,.23.51.57.5.51.63.42.83.11,1-.26,1-.67.65-.82,1-.28.71.39,3.31,1.36,1.46,1.57,2.63,1,2.32.49,1.41.28,1.12-.38,4.06-.28.56-.44.45-.34.68.34,1.42h.1l.43.22.68.36,1.82,1.17,5.79-5.54.36-.68.15-.53.17-.83-.4-.64-.77-.38-.81-2.12,2.63-3.92.64-.74.25-2.44-.3-.54-1.39-.12-.48-.58,2-2.47,3-.43.93.49.93.59.79.45,3,.71,1.88,0,1.35,1.53.62,1.48,1.36,1.9,1,.6.46.18.75.12.79.2.56.27,1.89,1.58.26.65.71.86.47.31,3.32.54,2.72-.25.66-.18.76.28.71,1v1l-.5.84,0,.9.09.64.43,1.62.27.55.78.56.35-.7.29-.69.35-.38,1.93-.91,1.42-.75.36-.35.34-.93,2.26-.49,5-.11,1.39.23,0-1.05-2.11-5.16-.62-1.22-.29-1.29-.52-1.23-.41-1.35-.05-1,.14-.9.39-.47.75-.57.32-3.53-.21-.64-.6-.8-.45-.72-.64-2.09.29-.92.76-.88.38-1.2.36-2Z" transform="translate(-360.31 2.07)"/><path id="CL-NU" class="cls-1" d="M420.17,450.29l-.31.37-.43,3.8-.45,5.32-.82,2.07v-.13l.29,1h1l.14,1.08-.43.58.29.87.43,1.59.65-.29.5.51.51,1,1.23.21L424,469.6l.29,1.08-.15.65.37,1.44.79.44-.44.72.29.65-1.95-.14-.29.94,3.18.28.37-.72h.57l.39.78,1.25.08.47-.55,1.33,2,1,.71h.94l.63.47.54.23.24.71-.94,1-.78.4-.24,1h0v.85l.27-.28,1.5.36.86-.57,1.07-1.15H436l.29,1.53h1.82l.93-.07.85-.35.49-.48.36-.84.57-.28.78-.07.93.35.57.21.56.42.64-.42h.78l.72-.21.49.21.08-.9.28-.56v-1.66l.64-.21.57.48.71.56.14.55.71.42.43.07.35-.49.57.21.64.21.57.56.85.27.86-.2.57-.21.85.55.54-.12,0-.12-.77-3.67-.82-3.41,1.06-2.71,1.78-5.1.43-1.65.4-.21-.14-.07-.64-.73-.22-.92-.15-.77-.75-.37-.5.08-.41.29-1.71,2.14-.17.66-.06.57-.62.68-.88-.12L449.88,464l-.45-.43-2.32-1.86-1.8-.54-1.35-.52-.79-.49-.53-.5-.28-.65-.54-1.16-1.41-.22-.52.15-.55.22-.48,0-1.17-.27-.38-.32-.15-.49-.29-.66-1.67-1.72-.17.8.05.65-1.55,1.71-2.65-.07-.55-.18-4.13-2.11-3.13-2.7-.15-.9-.33-.36-2.42-1Z" transform="translate(-360.31 2.07)"/></g><g id="volcanes"><polygon class="cls-3" points="79.16 631.23 69.42 648.1 88.9 648.1 79.16 631.23"/><polygon class="cls-3" points="174.15 131.72 164.41 148.6 183.9 148.6 174.15 131.72"/><polygon class="cls-3" points="124.65 377.24 114.91 394.12 134.4 394.12 124.65 377.24"/><polygon class="cls-3" points="108.9 432.01 99.16 448.89 118.65 448.89 108.9 432.01"/><polygon class="cls-3" points="92.03 464.07 82.29 480.95 101.77 480.95 92.03 464.07"/><polygon class="cls-3" points="92.03 482.07 82.29 498.95 101.77 498.95 92.03 482.07"/><polygon class="cls-3" points="83.74 512.52 74 529.39 93.48 529.39 83.74 512.52"/><polygon class="cls-3" points="75.87 533.89 66.12 550.77 85.61 550.77 75.87 533.89"/><polygon class="cls-3" points="84.87 542.89 75.12 559.77 94.61 559.77 84.87 542.89"/><polygon class="cls-3" points="79.44 565.98 69.7 582.85 89.19 582.85 79.44 565.98"/><polygon class="cls-3" points="65.38 589.6 55.64 606.48 75.12 606.48 65.38 589.6"/><polygon class="cls-4" points="70.16 635.17 60.42 652.04 79.9 652.04 70.16 635.17"/><polygon class="cls-3" points="62.29 717.82 52.54 734.7 72.03 734.7 62.29 717.82"/></g><g id="forma"><rect class="cls-5" x="139.21" y="380.37" width="133.38" height="17.98" rx="6"/><rect class="cls-5" x="189.26" y="135.69" width="103.86" height="16" rx="6"/><rect class="cls-5" x="122.46" y="437.05" width="235.91" height="16.7" rx="6"/><rect class="cls-5" x="118.63" y="468.63" width="127.24" height="16" rx="6"/><rect class="cls-5" x="113.57" y="489.56" width="99.68" height="16" rx="6"/><rect class="cls-5" x="106.82" y="517.07" width="103.86" height="16" rx="6"/><rect class="cls-5" x="101.19" y="537.32" width="103.86" height="16" rx="6"/><rect class="cls-5" x="111.32" y="557" width="167.74" height="16" rx="6"/><rect class="cls-5" x="101.76" y="576.13" width="185.74" height="16" rx="6"/><rect class="cls-5" x="92.19" y="597.5" width="111.49" height="16" rx="6"/><rect class="cls-5" x="109.91" y="625.07" width="142.99" height="16" rx="6"/><rect class="cls-6" x="102.04" y="643.69" width="124.43" height="16" rx="6"/><rect class="cls-5" x="99.23" y="723.89" width="103.86" height="16" rx="6"/></g><g id="texto"><text class="cls-7" transform="translate(102.62 735.11)">13.<tspan class="cls-8" x="15.95" y="0">V</tspan><tspan x="22.74" y="0">olcn Hudson</tspan></text><text class="cls-9" transform="translate(106.07 655.12)">12.<tspan class="cls-10" x="18.95" y="0"> </tspan><tspan class="cls-11" x="21.15" y="0">V</tspan><tspan x="29.55" y="0">olcn </tspan><tspan class="cls-12" x="65.99" y="0">C</tspan><tspan x="74.48" y="0">hai</tspan><tspan class="cls-13" x="93.67" y="0">t</tspan><tspan x="98.6" y="0">n</tspan></text><text class="cls-7" transform="translate(114.43 637.43)">11.<tspan class="cls-14" x="15.95" y="0"> </tspan><tspan class="cls-8" x="18.23" y="0">V</tspan><tspan x="25.02" y="0">olcn </tspan><tspan class="cls-15" x="57.13" y="0">M</tspan><tspan x="67.69" y="0">ichimahuida</tspan></text><text class="cls-7" transform="translate(96.05 608.66)">10.<tspan class="cls-14" x="15.95" y="0"> </tspan><tspan class="cls-8" x="18.23" y="0">V</tspan><tspan x="25.02" y="0">olcn </tspan><tspan class="cls-16" x="57.13" y="0">C</tspan><tspan x="64.54" y="0">albu</tspan><tspan class="cls-17" x="88.32" y="0">c</tspan><tspan x="94.04" y="0">o</tspan></text><text class="cls-7" transform="translate(104.8 588.08)">9.<tspan class="cls-14" x="9.31" y="0"> </tspan><tspan class="cls-8" x="11.59" y="0">V</tspan><tspan x="18.38" y="0">olcn </tspan><tspan class="cls-18" x="50.49" y="0">P</tspan><tspan x="57.18" y="0">u</tspan><tspan class="cls-19" x="64.31" y="0">y</tspan><tspan x="70.28" y="0">ehu</tspan><tspan class="cls-20" x="91.07" y="0">e</tspan><tspan class="cls-21" x="97.91" y="0">-</tspan><tspan class="cls-22" x="102.06" y="0">C</tspan><tspan x="109.43" y="0">o</tspan><tspan class="cls-23" x="116.53" y="0">r</tspan><tspan x="120.63" y="0">dn </tspan><tspan class="cls-24" x="144.95" y="0">C</tspan><tspan x="152.36" y="0">aulle</tspan></text><text class="cls-7" transform="translate(114.11 569.24)">8.<tspan class="cls-14" x="9.31" y="0"> </tspan><tspan class="cls-8" x="11.59" y="0">V</tspan><tspan x="18.38" y="0">olcn </tspan><tspan class="cls-25" x="50.49" y="0">M</tspan><tspan class="cls-26" x="60.97" y="0">och</tspan><tspan class="cls-27" x="81.05" y="0">o</tspan><tspan class="cls-28" x="88.35" y="0">-</tspan><tspan x="92.5" y="0">Choshuen</tspan><tspan class="cls-17" x="147.38" y="0">c</tspan><tspan x="153.1" y="0">o </tspan></text><text class="cls-7" transform="translate(104.97 550)">7.<tspan class="cls-14" x="9.31" y="0"> </tspan><tspan class="cls-8" x="11.59" y="0">V</tspan><tspan x="18.38" y="0">olcn</tspan><tspan class="cls-14" x="47.75" y="0"> </tspan><tspan class="cls-29" x="50.03" y="0">V</tspan><tspan x="57.04" y="0">illa</tspan><tspan class="cls-30" x="72.41" y="0">rr</tspan><tspan x="80.97" y="0">ica</tspan></text><text class="cls-7" transform="translate(114.85 529)">6.<tspan class="cls-14" x="9.31" y="0"> </tspan><tspan class="cls-8" x="11.59" y="0">V</tspan><tspan x="18.38" y="0">olcn Llaima </tspan></text><text class="cls-7" transform="translate(119.05 500.75)">5.<tspan class="cls-14" x="9.31" y="0"> </tspan><tspan class="cls-8" x="11.59" y="0">V</tspan><tspan x="18.38" y="0">olcn </tspan><tspan class="cls-31" x="50.49" y="0">A</tspan><tspan class="cls-32" x="58.37" y="0">n</tspan><tspan x="65.5" y="0">tu</tspan><tspan class="cls-17" x="76.91" y="0">c</tspan><tspan x="82.63" y="0">o</tspan></text><text class="cls-7" transform="translate(122.16 480.86)">4. Ne<tspan class="cls-33" x="27.05" y="0">v</tspan><tspan x="33.22" y="0">ados de Chilln</tspan></text><text class="cls-7" transform="translate(132.18 449.04)">3.<tspan class="cls-14" x="9.31" y="0"> </tspan><tspan class="cls-8" x="11.59" y="0">V</tspan><tspan x="18.38" y="0">olcn </tspan><tspan class="cls-34" x="50.49" y="0">D</tspan><tspan x="59.16" y="0">escabezado G</tspan><tspan class="cls-13" x="133.91" y="0">r</tspan><tspan x="138.08" y="0">ande </tspan><tspan class="cls-21" x="168.01" y="0">-</tspan><tspan class="cls-35" x="172.17" y="0">Q</tspan><tspan x="181.12" y="0">uizapu</tspan></text><text class="cls-7" transform="translate(146.17 392.94)">2.<tspan class="cls-14" x="9.31" y="0"> </tspan><tspan class="cls-8" x="11.59" y="0">V</tspan><tspan x="18.38" y="0">olcn</tspan><tspan class="cls-36" x="47.75" y="0"> </tspan><tspan class="cls-37" x="49.96" y="0">T</tspan><tspan x="55.81" y="0">upung</tspan><tspan class="cls-33" x="91.84" y="0">a</tspan><tspan x="98.03" y="0">ti</tspan><tspan class="cls-38" x="105.34" y="0">t</tspan><tspan x="109.54" y="0">o</tspan></text><text class="cls-7" transform="translate(198.32 147.9)">1.<tspan class="cls-14" x="9.31" y="0"> </tspan><tspan class="cls-8" x="11.59" y="0">V</tspan><tspan x="18.38" y="0">olcn Lascar</tspan></text></g></svg>