<?xml version="1.0" encoding="utf-8"?>
<!-- Generator: Adobe Illustrator 26.0.1, SVG Export Plug-In . SVG Version: 6.00 Build 0)  -->
<svg version="1.1" xmlns="http://www.w3.org/2000/svg" xmlns:xlink="http://www.w3.org/1999/xlink" x="0px" y="0px"
	 viewBox="0 0 1920 1080" style="enable-background:new 0 0 1920 1080;" xml:space="preserve">
<style type="text/css">
	.st0{display:none;}
	.st1{fill:#C4B9A5;}
	.st2{opacity:0.5;fill:#5F96C5;}
	.st3{fill:#5F96C5;}
	.st4{fill:#E0D8D2;}
	.st5{fill:#B44A29;}
	.st6{fill:#3D3831;}
	.st7{fill:#BCD4E8;}
	.st8{opacity:0.5;fill:#B44A29;}
	.st9{fill:#3C3832;}
	.st10{fill:none;stroke:#3D3831;stroke-width:3;stroke-miterlimit:10;}
</style>
<g id="Referencia" class="st0">
</g>
<g id="Diagrama">
	<rect x="1677.7" y="867.8" class="st5" width="25.1" height="35.6"/>
	<rect x="1677.7" y="915.6" class="st3" width="25.1" height="35.6"/>
	<rect x="1677.7" y="963.3" class="st7" width="25.1" height="35.6"/>
	<g>
		<rect x="123.2" y="194.4" class="st5" width="25" height="35.3"/>
		<rect x="154.4" y="194.4" class="st5" width="25" height="35.3"/>
		<rect x="185.5" y="194.4" class="st5" width="25" height="35.3"/>
		<rect x="216.7" y="194.4" class="st5" width="25" height="35.3"/>
		<rect x="247.8" y="194.4" class="st5" width="25" height="35.3"/>
		<rect x="279" y="194.4" class="st5" width="25" height="35.3"/>
		<rect x="310.1" y="194.4" class="st5" width="25" height="35.3"/>
		<rect x="341.2" y="194.4" class="st5" width="25" height="35.3"/>
		<rect x="372.4" y="194.4" class="st5" width="25" height="35.3"/>
		<rect x="403.5" y="194.4" class="st5" width="25" height="35.3"/>
		<rect x="434.7" y="194.4" class="st5" width="25" height="35.3"/>
		<rect x="465.8" y="194.4" class="st5" width="25" height="35.3"/>
		<rect x="497" y="194.4" class="st5" width="25" height="35.3"/>
		<rect x="528.1" y="194.4" class="st5" width="25" height="35.3"/>
		<rect x="559.3" y="194.4" class="st5" width="25" height="35.3"/>
		<rect x="590.4" y="194.4" class="st5" width="25" height="35.3"/>
		<rect x="621.5" y="194.4" class="st5" width="25" height="35.3"/>
		<rect x="652.7" y="194.4" class="st5" width="25" height="35.3"/>
		<rect x="683.8" y="194.4" class="st5" width="25" height="35.3"/>
		<rect x="715" y="194.4" class="st5" width="25" height="35.3"/>
		<rect x="746.1" y="194.4" class="st5" width="25" height="35.3"/>
		<rect x="777.3" y="194.4" class="st5" width="25" height="35.3"/>
		<rect x="808.4" y="194.4" class="st5" width="25" height="35.3"/>
		<rect x="839.6" y="194.4" class="st5" width="25" height="35.3"/>
		<rect x="870.7" y="194.4" class="st5" width="25" height="35.3"/>
		<rect x="901.8" y="194.4" class="st5" width="25" height="35.3"/>
		<rect x="933" y="194.4" class="st5" width="25" height="35.3"/>
		<rect x="964.1" y="194.4" class="st5" width="25" height="35.3"/>
		<rect x="995.3" y="194.4" class="st5" width="25" height="35.3"/>
		<rect x="1026.4" y="194.4" class="st5" width="25" height="35.3"/>
		<rect x="123.2" y="235.9" class="st5" width="25" height="35.3"/>
		<rect x="154.4" y="235.9" class="st5" width="25" height="35.3"/>
		<rect x="185.5" y="235.9" class="st5" width="25" height="35.3"/>
		<rect x="216.7" y="235.9" class="st5" width="25" height="35.3"/>
		<rect x="247.8" y="235.9" class="st5" width="25" height="35.3"/>
		<rect x="279" y="235.9" class="st5" width="25" height="35.3"/>
		<rect x="310.1" y="235.9" class="st5" width="25" height="35.3"/>
		<rect x="341.2" y="235.9" class="st5" width="25" height="35.3"/>
		<rect x="372.4" y="235.9" class="st5" width="25" height="35.3"/>
		<rect x="403.5" y="235.9" class="st5" width="25" height="35.3"/>
		<rect x="434.7" y="235.9" class="st5" width="25" height="35.3"/>
		<rect x="465.8" y="235.9" class="st5" width="25" height="35.3"/>
		<rect x="497" y="235.9" class="st5" width="25" height="35.3"/>
		<rect x="528.1" y="235.9" class="st5" width="25" height="35.3"/>
		<rect x="559.3" y="235.9" class="st5" width="25" height="35.3"/>
		<rect x="590.4" y="235.9" class="st5" width="25" height="35.3"/>
		<rect x="621.5" y="235.9" class="st5" width="25" height="35.3"/>
		<rect x="652.7" y="235.9" class="st5" width="25" height="35.3"/>
		<rect x="683.8" y="235.9" class="st5" width="25" height="35.3"/>
		<rect x="715" y="235.9" class="st5" width="25" height="35.3"/>
		<rect x="746.1" y="235.9" class="st5" width="25" height="35.3"/>
		<rect x="777.3" y="235.9" class="st5" width="25" height="35.3"/>
		<rect x="808.4" y="235.9" class="st5" width="25" height="35.3"/>
		<rect x="839.6" y="235.9" class="st5" width="25" height="35.3"/>
		<rect x="870.7" y="235.9" class="st5" width="25" height="35.3"/>
		<rect x="901.8" y="235.9" class="st5" width="25" height="35.3"/>
		<rect x="933" y="235.9" class="st5" width="25" height="35.3"/>
		<rect x="964.1" y="235.9" class="st5" width="25" height="35.3"/>
		<rect x="995.3" y="235.9" class="st5" width="25" height="35.3"/>
		<rect x="1026.4" y="235.9" class="st5" width="25" height="35.3"/>
		<rect x="123.2" y="277.4" class="st5" width="25" height="35.3"/>
		<rect x="154.4" y="277.4" class="st5" width="25" height="35.3"/>
		<rect x="185.5" y="277.4" class="st5" width="25" height="35.3"/>
		<rect x="216.7" y="277.4" class="st5" width="25" height="35.3"/>
		<rect x="247.8" y="277.4" class="st5" width="25" height="35.3"/>
		<rect x="279" y="277.4" class="st5" width="25" height="35.3"/>
		<rect x="310.1" y="277.4" class="st5" width="25" height="35.3"/>
		<rect x="341.2" y="277.4" class="st5" width="25" height="35.3"/>
		<rect x="372.4" y="277.4" class="st5" width="25" height="35.3"/>
		<rect x="403.5" y="277.4" class="st5" width="25" height="35.3"/>
		<rect x="434.7" y="277.4" class="st5" width="25" height="35.3"/>
		<rect x="465.8" y="277.4" class="st5" width="25" height="35.3"/>
		<rect x="497" y="277.4" class="st5" width="25" height="35.3"/>
		<rect x="528.1" y="277.4" class="st5" width="25" height="35.3"/>
		<rect x="559.3" y="277.4" class="st5" width="25" height="35.3"/>
		<rect x="590.4" y="277.4" class="st5" width="25" height="35.3"/>
		<rect x="621.5" y="277.4" class="st5" width="25" height="35.3"/>
		<rect x="652.7" y="277.4" class="st5" width="25" height="35.3"/>
		<rect x="683.8" y="277.4" class="st5" width="25" height="35.3"/>
		<rect x="715" y="277.4" class="st5" width="25" height="35.3"/>
		<rect x="746.1" y="277.4" class="st5" width="25" height="35.3"/>
		<rect x="777.3" y="277.4" class="st5" width="25" height="35.3"/>
		<rect x="808.4" y="277.4" class="st5" width="25" height="35.3"/>
		<rect x="839.6" y="277.4" class="st5" width="25" height="35.3"/>
		<rect x="870.7" y="277.4" class="st5" width="25" height="35.3"/>
		<rect x="901.8" y="277.4" class="st5" width="25" height="35.3"/>
		<rect x="933" y="277.4" class="st5" width="25" height="35.3"/>
		<rect x="964.1" y="277.4" class="st5" width="25" height="35.3"/>
		<rect x="995.3" y="277.4" class="st5" width="25" height="35.3"/>
		<rect x="1026.4" y="277.4" class="st5" width="25" height="35.3"/>
		<rect x="123.2" y="319" class="st5" width="25" height="35.3"/>
		<rect x="154.4" y="319" class="st5" width="25" height="35.3"/>
		<rect x="185.5" y="319" class="st5" width="25" height="35.3"/>
		<rect x="216.7" y="319" class="st5" width="25" height="35.3"/>
		<rect x="247.8" y="319" class="st5" width="25" height="35.3"/>
		<rect x="279" y="319" class="st5" width="25" height="35.3"/>
		<rect x="310.1" y="319" class="st5" width="25" height="35.3"/>
		<rect x="341.2" y="319" class="st5" width="25" height="35.3"/>
		<rect x="372.4" y="319" class="st5" width="25" height="35.3"/>
		<rect x="403.5" y="319" class="st5" width="25" height="35.3"/>
		<rect x="434.7" y="319" class="st5" width="25" height="35.3"/>
		<rect x="465.8" y="319" class="st5" width="25" height="35.3"/>
		<rect x="497" y="319" class="st5" width="25" height="35.3"/>
		<rect x="528.1" y="319" class="st5" width="25" height="35.3"/>
		<rect x="559.3" y="319" class="st5" width="25" height="35.3"/>
		<rect x="590.4" y="319" class="st5" width="25" height="35.3"/>
		<rect x="621.5" y="319" class="st5" width="25" height="35.3"/>
		<rect x="652.7" y="319" class="st5" width="25" height="35.3"/>
		<rect x="683.8" y="319" class="st5" width="25" height="35.3"/>
		<rect x="715" y="319" class="st5" width="25" height="35.3"/>
		<rect x="746.1" y="319" class="st5" width="25" height="35.3"/>
		<rect x="777.3" y="319" class="st5" width="25" height="35.3"/>
		<rect x="808.4" y="319" class="st5" width="25" height="35.3"/>
		<rect x="839.6" y="319" class="st5" width="25" height="35.3"/>
		<rect x="870.7" y="319" class="st5" width="25" height="35.3"/>
		<rect x="901.8" y="319" class="st5" width="25" height="35.3"/>
		<rect x="933" y="319" class="st5" width="25" height="35.3"/>
		<rect x="964.1" y="319" class="st5" width="25" height="35.3"/>
		<rect x="995.3" y="319" class="st5" width="25" height="35.3"/>
		<rect x="1026.4" y="319" class="st5" width="25" height="35.3"/>
		<rect x="123.2" y="360.5" class="st5" width="25" height="35.3"/>
		<rect x="154.4" y="360.5" class="st5" width="25" height="35.3"/>
		<rect x="185.5" y="360.5" class="st5" width="25" height="35.3"/>
		<rect x="216.7" y="360.5" class="st5" width="25" height="35.3"/>
		<rect x="247.8" y="360.5" class="st5" width="25" height="35.3"/>
		<rect x="279" y="360.5" class="st5" width="25" height="35.3"/>
		<rect x="310.1" y="360.5" class="st5" width="25" height="35.3"/>
		<rect x="341.2" y="360.5" class="st5" width="25" height="35.3"/>
		<rect x="372.4" y="360.5" class="st5" width="25" height="35.3"/>
		<rect x="403.5" y="360.5" class="st5" width="25" height="35.3"/>
		<rect x="434.7" y="360.5" class="st5" width="25" height="35.3"/>
		<rect x="465.8" y="360.5" class="st5" width="25" height="35.3"/>
		<rect x="497" y="360.5" class="st5" width="25" height="35.3"/>
		<rect x="528.1" y="360.5" class="st5" width="25" height="35.3"/>
		<rect x="559.3" y="360.5" class="st5" width="25" height="35.3"/>
		<rect x="590.4" y="360.5" class="st5" width="25" height="35.3"/>
		<rect x="621.5" y="360.5" class="st5" width="25" height="35.3"/>
		<rect x="652.7" y="360.5" class="st5" width="25" height="35.3"/>
		<rect x="683.8" y="360.5" class="st5" width="25" height="35.3"/>
		<rect x="715" y="360.5" class="st5" width="25" height="35.3"/>
		<rect x="746.1" y="360.5" class="st5" width="25" height="35.3"/>
		<rect x="777.3" y="360.5" class="st5" width="25" height="35.3"/>
		<rect x="808.4" y="360.5" class="st5" width="25" height="35.3"/>
		<rect x="839.6" y="360.5" class="st5" width="25" height="35.3"/>
		<rect x="870.7" y="360.5" class="st5" width="25" height="35.3"/>
		<rect x="901.8" y="360.5" class="st5" width="25" height="35.3"/>
		<rect x="933" y="360.5" class="st5" width="25" height="35.3"/>
		<rect x="964.1" y="360.5" class="st5" width="25" height="35.3"/>
		<rect x="995.3" y="360.5" class="st5" width="25" height="35.3"/>
		<rect x="1026.4" y="360.5" class="st5" width="25" height="35.3"/>
		<rect x="123.2" y="402" class="st5" width="25" height="35.3"/>
		<rect x="154.4" y="402" class="st5" width="25" height="35.3"/>
		<rect x="185.5" y="402" class="st5" width="25" height="35.3"/>
		<rect x="216.7" y="402" class="st5" width="25" height="35.3"/>
		<rect x="247.8" y="402" class="st5" width="25" height="35.3"/>
		<rect x="279" y="402" class="st5" width="25" height="35.3"/>
		<rect x="310.1" y="402" class="st5" width="25" height="35.3"/>
		<rect x="341.2" y="402" class="st5" width="25" height="35.3"/>
		<rect x="372.4" y="402" class="st5" width="25" height="35.3"/>
		<rect x="403.5" y="402" class="st5" width="25" height="35.3"/>
		<rect x="434.7" y="402" class="st5" width="25" height="35.3"/>
		<rect x="465.8" y="402" class="st5" width="25" height="35.3"/>
		<rect x="497" y="402" class="st5" width="25" height="35.3"/>
		<rect x="528.1" y="402" class="st5" width="25" height="35.3"/>
		<rect x="559.3" y="402" class="st5" width="25" height="35.3"/>
		<rect x="590.4" y="402" class="st5" width="25" height="35.3"/>
		<rect x="621.5" y="402" class="st5" width="25" height="35.3"/>
		<rect x="652.7" y="402" class="st5" width="25" height="35.3"/>
		<rect x="683.8" y="402" class="st5" width="25" height="35.3"/>
		<rect x="715" y="402" class="st5" width="25" height="35.3"/>
		<rect x="746.1" y="402" class="st5" width="25" height="35.3"/>
		<rect x="777.3" y="402" class="st5" width="25" height="35.3"/>
		<rect x="808.4" y="402" class="st5" width="25" height="35.3"/>
		<rect x="839.6" y="402" class="st5" width="25" height="35.3"/>
		<rect x="870.7" y="402" class="st5" width="25" height="35.3"/>
		<rect x="901.8" y="402" class="st5" width="25" height="35.3"/>
		<rect x="933" y="402" class="st5" width="25" height="35.3"/>
		<rect x="964.1" y="402" class="st5" width="25" height="35.3"/>
		<rect x="995.3" y="402" class="st5" width="25" height="35.3"/>
		<rect x="1026.4" y="402" class="st5" width="25" height="35.3"/>
		<rect x="123.2" y="443.6" class="st5" width="25" height="35.3"/>
		<rect x="154.4" y="443.6" class="st5" width="25" height="35.3"/>
		<rect x="185.5" y="443.6" class="st5" width="25" height="35.3"/>
		<rect x="216.7" y="443.6" class="st5" width="25" height="35.3"/>
		<rect x="247.8" y="443.6" class="st5" width="25" height="35.3"/>
		<rect x="279" y="443.6" class="st5" width="25" height="35.3"/>
		<rect x="310.1" y="443.6" class="st5" width="25" height="35.3"/>
		<rect x="341.2" y="443.6" class="st5" width="25" height="35.3"/>
		<rect x="372.4" y="443.6" class="st5" width="25" height="35.3"/>
		<rect x="403.5" y="443.6" class="st5" width="25" height="35.3"/>
		<rect x="434.7" y="443.6" class="st5" width="25" height="35.3"/>
		<rect x="465.8" y="443.6" class="st5" width="25" height="35.3"/>
		<rect x="497" y="443.6" class="st5" width="25" height="35.3"/>
		<rect x="528.1" y="443.6" class="st5" width="25" height="35.3"/>
		<rect x="559.3" y="443.6" class="st5" width="25" height="35.3"/>
		<rect x="590.4" y="443.6" class="st5" width="25" height="35.3"/>
		<rect x="621.5" y="443.6" class="st5" width="25" height="35.3"/>
		<rect x="652.7" y="443.6" class="st5" width="25" height="35.3"/>
		<rect x="683.8" y="443.6" class="st5" width="25" height="35.3"/>
		<rect x="715" y="443.6" class="st5" width="25" height="35.3"/>
		<rect x="746.1" y="443.6" class="st5" width="25" height="35.3"/>
		<rect x="777.3" y="443.6" class="st5" width="25" height="35.3"/>
		<rect x="808.4" y="443.6" class="st5" width="25" height="35.3"/>
		<rect x="839.6" y="443.6" class="st5" width="25" height="35.3"/>
		<rect x="870.7" y="443.6" class="st5" width="25" height="35.3"/>
		<rect x="901.8" y="443.6" class="st5" width="25" height="35.3"/>
		<rect x="933" y="443.6" class="st5" width="25" height="35.3"/>
		<rect x="964.1" y="443.6" class="st5" width="25" height="35.3"/>
		<rect x="995.3" y="443.6" class="st5" width="25" height="35.3"/>
		<rect x="1026.4" y="443.6" class="st5" width="25" height="35.3"/>
		<rect x="123.2" y="485.1" class="st5" width="25" height="35.3"/>
		<rect x="154.4" y="485.1" class="st5" width="25" height="35.3"/>
		<rect x="185.5" y="485.1" class="st5" width="25" height="35.3"/>
		<rect x="216.7" y="485.1" class="st5" width="25" height="35.3"/>
		<rect x="247.8" y="485.1" class="st5" width="25" height="35.3"/>
		<rect x="279" y="485.1" class="st5" width="25" height="35.3"/>
		<rect x="310.1" y="485.1" class="st5" width="25" height="35.3"/>
		<rect x="341.2" y="485.1" class="st5" width="25" height="35.3"/>
		<rect x="372.4" y="485.1" class="st5" width="25" height="35.3"/>
		<rect x="403.5" y="485.1" class="st5" width="25" height="35.3"/>
		<rect x="434.7" y="485.1" class="st5" width="25" height="35.3"/>
		<rect x="465.8" y="485.1" class="st5" width="25" height="35.3"/>
		<rect x="497" y="485.1" class="st5" width="25" height="35.3"/>
		<rect x="528.1" y="485.1" class="st5" width="25" height="35.3"/>
		<rect x="559.3" y="485.1" class="st5" width="25" height="35.3"/>
		<rect x="590.4" y="485.1" class="st5" width="25" height="35.3"/>
		<rect x="621.5" y="485.1" class="st5" width="25" height="35.3"/>
		<rect x="652.7" y="485.1" class="st5" width="25" height="35.3"/>
		<rect x="683.8" y="485.1" class="st5" width="25" height="35.3"/>
		<rect x="715" y="485.1" class="st5" width="25" height="35.3"/>
		<rect x="746.1" y="485.1" class="st5" width="25" height="35.3"/>
		<rect x="777.3" y="485.1" class="st5" width="25" height="35.3"/>
		<rect x="808.4" y="485.1" class="st5" width="25" height="35.3"/>
		<rect x="839.6" y="485.1" class="st5" width="25" height="35.3"/>
		<rect x="870.7" y="485.1" class="st5" width="25" height="35.3"/>
		<rect x="901.8" y="485.1" class="st5" width="25" height="35.3"/>
		<rect x="933" y="485.1" class="st5" width="25" height="35.3"/>
		<rect x="964.1" y="485.1" class="st5" width="25" height="35.3"/>
		<rect x="995.3" y="485.1" class="st5" width="25" height="35.3"/>
		<rect x="1026.4" y="485.1" class="st5" width="25" height="35.3"/>
		<rect x="123.2" y="526.6" class="st5" width="25" height="35.3"/>
		<rect x="154.4" y="526.6" class="st5" width="25" height="35.3"/>
		<rect x="185.5" y="526.6" class="st5" width="25" height="35.3"/>
		<rect x="216.7" y="526.6" class="st5" width="25" height="35.3"/>
		<rect x="247.8" y="526.6" class="st5" width="25" height="35.3"/>
		<rect x="279" y="526.6" class="st5" width="25" height="35.3"/>
		<rect x="310.1" y="526.6" class="st5" width="25" height="35.3"/>
		<rect x="341.2" y="526.6" class="st5" width="25" height="35.3"/>
		<rect x="372.4" y="526.6" class="st5" width="25" height="35.3"/>
		<rect x="403.5" y="526.6" class="st5" width="25" height="35.3"/>
		<rect x="434.7" y="526.6" class="st5" width="25" height="35.3"/>
		<rect x="465.8" y="526.6" class="st5" width="25" height="35.3"/>
		<rect x="497" y="526.6" class="st5" width="25" height="35.3"/>
		<rect x="528.1" y="526.6" class="st5" width="25" height="35.3"/>
		<rect x="559.3" y="526.6" class="st5" width="25" height="35.3"/>
		<rect x="590.4" y="526.6" class="st5" width="25" height="35.3"/>
		<rect x="621.5" y="526.6" class="st5" width="25" height="35.3"/>
		<rect x="652.7" y="526.6" class="st5" width="25" height="35.3"/>
		<rect x="683.8" y="526.6" class="st5" width="25" height="35.3"/>
		<rect x="715" y="526.6" class="st5" width="25" height="35.3"/>
		<rect x="746.1" y="526.6" class="st5" width="25" height="35.3"/>
		<rect x="777.3" y="526.6" class="st5" width="25" height="35.3"/>
		<rect x="808.4" y="526.6" class="st5" width="25" height="35.3"/>
		<rect x="839.6" y="526.6" class="st5" width="25" height="35.3"/>
		<rect x="870.7" y="526.6" class="st5" width="25" height="35.3"/>
		<rect x="901.8" y="526.6" class="st5" width="25" height="35.3"/>
		<rect x="933" y="526.6" class="st5" width="25" height="35.3"/>
		<rect x="964.1" y="526.6" class="st5" width="25" height="35.3"/>
		<rect x="995.3" y="526.6" class="st5" width="25" height="35.3"/>
		<rect x="1026.4" y="526.6" class="st5" width="25" height="35.3"/>
		<rect x="123.2" y="568.2" class="st5" width="25" height="35.3"/>
		<rect x="154.4" y="568.2" class="st5" width="25" height="35.3"/>
		<rect x="185.5" y="568.2" class="st5" width="25" height="35.3"/>
		<rect x="216.7" y="568.2" class="st5" width="25" height="35.3"/>
		<rect x="247.8" y="568.2" class="st5" width="25" height="35.3"/>
		<rect x="279" y="568.2" class="st5" width="25" height="35.3"/>
		<rect x="310.1" y="568.2" class="st5" width="25" height="35.3"/>
		<rect x="341.2" y="568.2" class="st5" width="25" height="35.3"/>
		<rect x="372.4" y="568.2" class="st5" width="25" height="35.3"/>
		<rect x="403.5" y="568.2" class="st5" width="25" height="35.3"/>
		<rect x="434.7" y="568.2" class="st5" width="25" height="35.3"/>
		<rect x="465.8" y="568.2" class="st5" width="25" height="35.3"/>
		<rect x="497" y="568.2" class="st5" width="25" height="35.3"/>
		<rect x="528.1" y="568.2" class="st5" width="25" height="35.3"/>
		<rect x="559.3" y="568.2" class="st5" width="25" height="35.3"/>
		<rect x="590.4" y="568.2" class="st5" width="25" height="35.3"/>
		<rect x="621.5" y="568.2" class="st5" width="25" height="35.3"/>
		<rect x="652.7" y="568.2" class="st5" width="25" height="35.3"/>
		<rect x="683.8" y="568.2" class="st5" width="25" height="35.3"/>
		<rect x="715" y="568.2" class="st5" width="25" height="35.3"/>
		<rect x="746.1" y="568.2" class="st5" width="25" height="35.3"/>
		<rect x="777.3" y="568.2" class="st5" width="25" height="35.3"/>
		<rect x="808.4" y="568.2" class="st5" width="25" height="35.3"/>
		<rect x="839.6" y="568.2" class="st5" width="25" height="35.3"/>
		<rect x="870.7" y="568.2" class="st5" width="25" height="35.3"/>
		<rect x="901.8" y="568.2" class="st5" width="25" height="35.3"/>
		<rect x="933" y="568.2" class="st5" width="25" height="35.3"/>
		<rect x="964.1" y="568.2" class="st5" width="25" height="35.3"/>
		<rect x="995.3" y="568.2" class="st5" width="25" height="35.3"/>
		<rect x="1026.4" y="568.2" class="st5" width="25" height="35.3"/>
		<rect x="123.2" y="609.7" class="st5" width="25" height="35.3"/>
		<rect x="154.4" y="609.7" class="st5" width="25" height="35.3"/>
		<rect x="185.5" y="609.7" class="st5" width="25" height="35.3"/>
		<rect x="216.7" y="609.7" class="st5" width="25" height="35.3"/>
		<rect x="247.8" y="609.7" class="st5" width="25" height="35.3"/>
		<rect x="279" y="609.7" class="st5" width="25" height="35.3"/>
		<rect x="310.1" y="609.7" class="st5" width="25" height="35.3"/>
		<rect x="341.2" y="609.7" class="st5" width="25" height="35.3"/>
		<rect x="372.4" y="609.7" class="st5" width="25" height="35.3"/>
		<rect x="403.5" y="609.7" class="st5" width="25" height="35.3"/>
		<rect x="434.7" y="609.7" class="st5" width="25" height="35.3"/>
		<rect x="465.8" y="609.7" class="st5" width="25" height="35.3"/>
		<rect x="497" y="609.7" class="st5" width="25" height="35.3"/>
		<rect x="528.1" y="609.7" class="st5" width="25" height="35.3"/>
		<rect x="559.3" y="609.7" class="st5" width="25" height="35.3"/>
		<rect x="590.4" y="609.7" class="st5" width="25" height="35.3"/>
		<rect x="621.5" y="609.7" class="st5" width="25" height="35.3"/>
		<rect x="652.7" y="609.7" class="st5" width="25" height="35.3"/>
		<rect x="683.8" y="609.7" class="st5" width="25" height="35.3"/>
		<rect x="715" y="609.7" class="st5" width="25" height="35.3"/>
		<rect x="746.1" y="609.7" class="st5" width="25" height="35.3"/>
		<rect x="777.3" y="609.7" class="st5" width="25" height="35.3"/>
		<rect x="808.4" y="609.7" class="st5" width="25" height="35.3"/>
		<rect x="839.6" y="609.7" class="st5" width="25" height="35.3"/>
		<rect x="870.7" y="609.7" class="st5" width="25" height="35.3"/>
		<rect x="901.8" y="609.7" class="st5" width="25" height="35.3"/>
		<rect x="933" y="609.7" class="st5" width="25" height="35.3"/>
		<rect x="964.1" y="609.7" class="st5" width="25" height="35.3"/>
		<rect x="995.3" y="609.7" class="st5" width="25" height="35.3"/>
		<rect x="1026.4" y="609.7" class="st5" width="25" height="35.3"/>
		<rect x="123.2" y="651.2" class="st5" width="25" height="35.3"/>
		<rect x="154.4" y="651.2" class="st5" width="25" height="35.3"/>
		<rect x="185.5" y="651.2" class="st5" width="25" height="35.3"/>
		<rect x="216.7" y="651.2" class="st5" width="25" height="35.3"/>
		<rect x="247.8" y="651.2" class="st5" width="25" height="35.3"/>
		<rect x="279" y="651.2" class="st5" width="25" height="35.3"/>
		<rect x="310.1" y="651.2" class="st5" width="25" height="35.3"/>
		<rect x="341.2" y="651.2" class="st5" width="25" height="35.3"/>
		<rect x="372.4" y="651.2" class="st5" width="25" height="35.3"/>
		<rect x="403.5" y="651.2" class="st5" width="25" height="35.3"/>
		<rect x="434.7" y="651.2" class="st5" width="25" height="35.3"/>
		<rect x="465.8" y="651.2" class="st5" width="25" height="35.3"/>
		<rect x="497" y="651.2" class="st5" width="25" height="35.3"/>
		<rect x="528.1" y="651.2" class="st5" width="25" height="35.3"/>
		<rect x="559.3" y="651.2" class="st5" width="25" height="35.3"/>
		<rect x="590.4" y="651.2" class="st5" width="25" height="35.3"/>
		<rect x="621.5" y="651.2" class="st5" width="25" height="35.3"/>
		<rect x="652.7" y="651.2" class="st5" width="25" height="35.3"/>
		<rect x="683.8" y="651.2" class="st5" width="25" height="35.3"/>
		<rect x="715" y="651.2" class="st5" width="25" height="35.3"/>
		<rect x="746.1" y="651.2" class="st5" width="25" height="35.3"/>
		<rect x="777.3" y="651.2" class="st5" width="25" height="35.3"/>
		<rect x="808.4" y="651.2" class="st5" width="25" height="35.3"/>
		<rect x="839.6" y="651.2" class="st5" width="25" height="35.3"/>
		<rect x="870.7" y="651.2" class="st5" width="25" height="35.3"/>
		<rect x="901.8" y="651.2" class="st5" width="25" height="35.3"/>
		<rect x="933" y="651.2" class="st5" width="25" height="35.3"/>
		<rect x="964.1" y="651.2" class="st5" width="25" height="35.3"/>
		<rect x="995.3" y="651.2" class="st5" width="25" height="35.3"/>
		<rect x="1026.4" y="651.2" class="st5" width="25" height="35.3"/>
		<rect x="123.2" y="692.8" class="st5" width="25" height="35.3"/>
		<rect x="154.4" y="692.8" class="st5" width="25" height="35.3"/>
		<rect x="185.5" y="692.8" class="st5" width="25" height="35.3"/>
		<rect x="216.7" y="692.8" class="st5" width="25" height="35.3"/>
		<rect x="247.8" y="692.8" class="st5" width="25" height="35.3"/>
		<rect x="279" y="692.8" class="st5" width="25" height="35.3"/>
		<rect x="310.1" y="692.8" class="st5" width="25" height="35.3"/>
		<rect x="341.2" y="692.8" class="st5" width="25" height="35.3"/>
		<rect x="372.4" y="692.8" class="st5" width="25" height="35.3"/>
		<rect x="403.5" y="692.8" class="st5" width="25" height="35.3"/>
		<rect x="434.7" y="692.8" class="st5" width="25" height="35.3"/>
		<rect x="465.8" y="692.8" class="st5" width="25" height="35.3"/>
		<rect x="497" y="692.8" class="st5" width="25" height="35.3"/>
		<rect x="528.1" y="692.8" class="st5" width="25" height="35.3"/>
		<rect x="559.3" y="692.8" class="st5" width="25" height="35.3"/>
		<rect x="590.4" y="692.8" class="st5" width="25" height="35.3"/>
		<rect x="621.5" y="692.8" class="st5" width="25" height="35.3"/>
		<rect x="652.7" y="692.8" class="st5" width="25" height="35.3"/>
		<rect x="683.8" y="692.8" class="st5" width="25" height="35.3"/>
		<rect x="715" y="692.8" class="st5" width="25" height="35.3"/>
		<rect x="746.1" y="692.8" class="st5" width="25" height="35.3"/>
		<rect x="777.3" y="692.8" class="st5" width="25" height="35.3"/>
		<rect x="808.4" y="692.8" class="st5" width="25" height="35.3"/>
		<rect x="839.6" y="692.8" class="st5" width="25" height="35.3"/>
		<rect x="870.7" y="692.8" class="st5" width="25" height="35.3"/>
		<rect x="901.8" y="692.8" class="st5" width="25" height="35.3"/>
		<rect x="933" y="692.8" class="st5" width="25" height="35.3"/>
		<rect x="964.1" y="692.8" class="st5" width="25" height="35.3"/>
		<rect x="995.3" y="692.8" class="st5" width="25" height="35.3"/>
		<rect x="1026.4" y="692.8" class="st5" width="25" height="35.3"/>
		<rect x="123.2" y="734.3" class="st5" width="25" height="35.3"/>
		<rect x="154.4" y="734.3" class="st5" width="25" height="35.3"/>
		<rect x="185.5" y="734.3" class="st5" width="25" height="35.3"/>
		<rect x="216.7" y="734.3" class="st5" width="25" height="35.3"/>
		<rect x="247.8" y="734.3" class="st5" width="25" height="35.3"/>
		<rect x="279" y="734.3" class="st5" width="25" height="35.3"/>
		<rect x="310.1" y="734.3" class="st5" width="25" height="35.3"/>
		<rect x="341.2" y="734.3" class="st5" width="25" height="35.3"/>
		<rect x="372.4" y="734.3" class="st5" width="25" height="35.3"/>
		<rect x="403.5" y="734.3" class="st5" width="25" height="35.3"/>
		<rect x="434.7" y="734.3" class="st5" width="25" height="35.3"/>
		<rect x="465.8" y="734.3" class="st5" width="25" height="35.3"/>
		<rect x="497" y="734.3" class="st5" width="25" height="35.3"/>
		<rect x="528.1" y="734.3" class="st5" width="25" height="35.3"/>
		<rect x="559.3" y="734.3" class="st5" width="25" height="35.3"/>
		<rect x="590.4" y="734.3" class="st5" width="25" height="35.3"/>
		<rect x="621.5" y="734.3" class="st5" width="25" height="35.3"/>
		<rect x="652.7" y="734.3" class="st5" width="25" height="35.3"/>
		<rect x="683.8" y="734.3" class="st5" width="25" height="35.3"/>
		<rect x="715" y="734.3" class="st5" width="25" height="35.3"/>
		<rect x="746.1" y="734.3" class="st5" width="25" height="35.3"/>
		<rect x="777.3" y="734.3" class="st5" width="25" height="35.3"/>
		<rect x="808.4" y="734.3" class="st5" width="25" height="35.3"/>
		<rect x="839.6" y="734.3" class="st5" width="25" height="35.3"/>
		<rect x="870.7" y="734.3" class="st5" width="25" height="35.3"/>
		<rect x="901.8" y="734.3" class="st5" width="25" height="35.3"/>
		<rect x="933" y="734.3" class="st5" width="25" height="35.3"/>
		<rect x="964.1" y="734.3" class="st5" width="25" height="35.3"/>
		<rect x="995.3" y="734.3" class="st5" width="25" height="35.3"/>
		<rect x="1026.4" y="734.3" class="st5" width="25" height="35.3"/>
		<rect x="123.2" y="775.8" class="st5" width="25" height="35.3"/>
		<rect x="154.4" y="775.8" class="st5" width="25" height="35.3"/>
		<rect x="185.5" y="775.8" class="st5" width="25" height="35.3"/>
		<rect x="216.7" y="775.8" class="st5" width="25" height="35.3"/>
		<rect x="247.8" y="775.8" class="st5" width="25" height="35.3"/>
		<rect x="279" y="775.8" class="st5" width="25" height="35.3"/>
		<rect x="310.1" y="775.8" class="st5" width="25" height="35.3"/>
		<rect x="341.2" y="775.8" class="st5" width="25" height="35.3"/>
		<rect x="372.4" y="775.8" class="st5" width="25" height="35.3"/>
		<rect x="403.5" y="775.8" class="st5" width="25" height="35.3"/>
		<rect x="434.7" y="775.8" class="st5" width="25" height="35.3"/>
		<rect x="465.8" y="775.8" class="st5" width="25" height="35.3"/>
		<rect x="497" y="775.8" class="st5" width="25" height="35.3"/>
		<rect x="528.1" y="775.8" class="st5" width="25" height="35.3"/>
		<rect x="559.3" y="775.8" class="st5" width="25" height="35.3"/>
		<rect x="590.4" y="775.8" class="st5" width="25" height="35.3"/>
		<rect x="621.5" y="775.8" class="st5" width="25" height="35.3"/>
		<rect x="652.7" y="775.8" class="st5" width="25" height="35.3"/>
		<rect x="683.8" y="775.8" class="st5" width="25" height="35.3"/>
		<rect x="715" y="775.8" class="st5" width="25" height="35.3"/>
		<rect x="746.1" y="775.8" class="st5" width="25" height="35.3"/>
		<rect x="777.3" y="775.8" class="st5" width="25" height="35.3"/>
		<rect x="808.4" y="775.8" class="st5" width="25" height="35.3"/>
		<rect x="839.6" y="775.8" class="st5" width="25" height="35.3"/>
		<rect x="870.7" y="775.8" class="st5" width="25" height="35.3"/>
		<rect x="901.8" y="775.8" class="st5" width="25" height="35.3"/>
		<rect x="933" y="775.8" class="st5" width="25" height="35.3"/>
		<rect x="964.1" y="775.8" class="st5" width="25" height="35.3"/>
		<rect x="995.3" y="775.8" class="st5" width="25" height="35.3"/>
		<rect x="1026.4" y="775.8" class="st5" width="25" height="35.3"/>
		<rect x="123.2" y="817.4" class="st5" width="25" height="35.3"/>
		<rect x="154.4" y="817.4" class="st5" width="25" height="35.3"/>
		<rect x="185.5" y="817.4" class="st5" width="25" height="35.3"/>
		<rect x="216.7" y="817.4" class="st5" width="25" height="35.3"/>
		<rect x="247.8" y="817.4" class="st5" width="25" height="35.3"/>
		<rect x="279" y="817.4" class="st5" width="25" height="35.3"/>
		<rect x="310.1" y="817.4" class="st5" width="25" height="35.3"/>
		<rect x="341.2" y="817.4" class="st5" width="25" height="35.3"/>
		<rect x="372.4" y="817.4" class="st5" width="25" height="35.3"/>
		<rect x="403.5" y="817.4" class="st5" width="25" height="35.3"/>
		<rect x="434.7" y="817.4" class="st5" width="25" height="35.3"/>
		<rect x="465.8" y="817.4" class="st5" width="25" height="35.3"/>
		<rect x="497" y="817.4" class="st5" width="25" height="35.3"/>
		<rect x="528.1" y="817.4" class="st5" width="25" height="35.3"/>
		<rect x="559.3" y="817.4" class="st5" width="25" height="35.3"/>
		<rect x="590.4" y="817.4" class="st5" width="25" height="35.3"/>
		<rect x="621.5" y="817.4" class="st5" width="25" height="35.3"/>
		<rect x="652.7" y="817.4" class="st5" width="25" height="35.3"/>
		<rect x="683.8" y="817.4" class="st5" width="25" height="35.3"/>
		<rect x="715" y="817.4" class="st5" width="25" height="35.3"/>
		<rect x="746.1" y="817.4" class="st5" width="25" height="35.3"/>
		<rect x="777.3" y="817.4" class="st5" width="25" height="35.3"/>
		<rect x="808.4" y="817.4" class="st5" width="25" height="35.3"/>
		<rect x="839.6" y="817.4" class="st5" width="25" height="35.3"/>
		<rect x="870.7" y="817.4" class="st5" width="25" height="35.3"/>
		<rect x="901.8" y="817.4" class="st5" width="25" height="35.3"/>
		<rect x="933" y="817.4" class="st5" width="25" height="35.3"/>
		<rect x="964.1" y="817.4" class="st5" width="25" height="35.3"/>
		<rect x="995.3" y="817.4" class="st5" width="25" height="35.3"/>
		<rect x="1026.4" y="817.4" class="st5" width="25" height="35.3"/>
		<rect x="123.2" y="858.9" class="st5" width="25" height="35.3"/>
		<rect x="154.4" y="858.9" class="st5" width="25" height="35.3"/>
		<rect x="185.5" y="858.9" class="st5" width="25" height="35.3"/>
		<rect x="216.7" y="858.9" class="st5" width="25" height="35.3"/>
		<rect x="247.8" y="858.9" class="st5" width="25" height="35.3"/>
		<rect x="279" y="858.9" class="st5" width="25" height="35.3"/>
		<rect x="310.1" y="858.9" class="st5" width="25" height="35.3"/>
		<rect x="341.2" y="858.9" class="st5" width="25" height="35.3"/>
		<rect x="372.4" y="858.9" class="st5" width="25" height="35.3"/>
		<rect x="403.5" y="858.9" class="st5" width="25" height="35.3"/>
		<rect x="434.7" y="858.9" class="st5" width="25" height="35.3"/>
		<rect x="465.8" y="858.9" class="st5" width="25" height="35.3"/>
		<rect x="497" y="858.9" class="st5" width="25" height="35.3"/>
		<rect x="528.1" y="858.9" class="st5" width="25" height="35.3"/>
		<rect x="559.3" y="858.9" class="st5" width="25" height="35.3"/>
		<rect x="590.4" y="858.9" class="st5" width="25" height="35.3"/>
		<rect x="621.5" y="858.9" class="st5" width="25" height="35.3"/>
		<rect x="652.7" y="858.9" class="st5" width="25" height="35.3"/>
		<rect x="683.8" y="858.9" class="st5" width="25" height="35.3"/>
		<rect x="715" y="858.9" class="st5" width="25" height="35.3"/>
		<rect x="746.1" y="858.9" class="st5" width="25" height="35.3"/>
		<rect x="777.3" y="858.9" class="st5" width="25" height="35.3"/>
		<rect x="808.4" y="858.9" class="st5" width="25" height="35.3"/>
		<rect x="839.6" y="858.9" class="st5" width="25" height="35.3"/>
		<rect x="870.7" y="858.9" class="st5" width="25" height="35.3"/>
		<rect x="901.8" y="858.9" class="st5" width="25" height="35.3"/>
		<rect x="933" y="858.9" class="st5" width="25" height="35.3"/>
		<rect x="964.1" y="858.9" class="st5" width="25" height="35.3"/>
		<rect x="995.3" y="858.9" class="st5" width="25" height="35.3"/>
		<rect x="1026.4" y="858.9" class="st5" width="25" height="35.3"/>
		<rect x="123.2" y="900.4" class="st5" width="25" height="35.3"/>
		<rect x="154.4" y="900.4" class="st5" width="25" height="35.3"/>
		<rect x="185.5" y="900.4" class="st5" width="25" height="35.3"/>
		<rect x="216.7" y="900.4" class="st5" width="25" height="35.3"/>
		<rect x="247.8" y="900.4" class="st5" width="25" height="35.3"/>
		<rect x="279" y="900.4" class="st5" width="25" height="35.3"/>
		<rect x="310.1" y="900.4" class="st5" width="25" height="35.3"/>
		<rect x="341.2" y="900.4" class="st5" width="25" height="35.3"/>
		<rect x="372.4" y="900.4" class="st5" width="25" height="35.3"/>
		<rect x="403.5" y="900.4" class="st5" width="25" height="35.3"/>
		<rect x="434.7" y="900.4" class="st5" width="25" height="35.3"/>
		<rect x="465.8" y="900.4" class="st5" width="25" height="35.3"/>
		<rect x="497" y="900.4" class="st5" width="25" height="35.3"/>
		<rect x="528.1" y="900.4" class="st5" width="25" height="35.3"/>
		<rect x="559.3" y="900.4" class="st5" width="25" height="35.3"/>
		<rect x="590.4" y="900.4" class="st5" width="25" height="35.3"/>
		<rect x="621.5" y="900.4" class="st5" width="25" height="35.3"/>
		<rect x="652.7" y="900.4" class="st5" width="25" height="35.3"/>
		<rect x="683.8" y="900.4" class="st5" width="25" height="35.3"/>
		<rect x="715" y="900.4" class="st5" width="25" height="35.3"/>
		<rect x="746.1" y="900.4" class="st5" width="25" height="35.3"/>
		<rect x="777.3" y="900.4" class="st5" width="25" height="35.3"/>
		<rect x="808.4" y="900.4" class="st5" width="25" height="35.3"/>
		<rect x="839.6" y="900.4" class="st5" width="25" height="35.3"/>
		<rect x="870.7" y="900.4" class="st5" width="25" height="35.3"/>
		<rect x="901.8" y="900.4" class="st5" width="25" height="35.3"/>
		<rect x="933" y="900.4" class="st5" width="25" height="35.3"/>
		<rect x="964.1" y="900.4" class="st5" width="25" height="35.3"/>
		<rect x="995.3" y="900.4" class="st5" width="25" height="35.3"/>
		<rect x="1026.4" y="900.4" class="st5" width="25" height="35.3"/>
		<rect x="123.2" y="942" class="st5" width="25" height="35.3"/>
		<rect x="154.4" y="942" class="st5" width="25" height="35.3"/>
		<rect x="185.5" y="942" class="st5" width="25" height="35.3"/>
		<rect x="216.7" y="942" class="st5" width="25" height="35.3"/>
		<rect x="247.8" y="942" class="st5" width="25" height="35.3"/>
		<rect x="279" y="942" class="st5" width="25" height="35.3"/>
		<rect x="310.1" y="942" class="st5" width="25" height="35.3"/>
		<rect x="341.2" y="942" class="st5" width="25" height="35.3"/>
		<rect x="372.4" y="942" class="st5" width="25" height="35.3"/>
		<rect x="403.5" y="942" class="st5" width="25" height="35.3"/>
		<rect x="434.7" y="942" class="st5" width="25" height="35.3"/>
		<rect x="465.8" y="942" class="st5" width="25" height="35.3"/>
		<rect x="497" y="942" class="st5" width="25" height="35.3"/>
		<rect x="528.1" y="942" class="st5" width="25" height="35.3"/>
		<rect x="559.3" y="942" class="st5" width="25" height="35.3"/>
		<rect x="590.4" y="942" class="st5" width="25" height="35.3"/>
		<rect x="621.5" y="942" class="st5" width="25" height="35.3"/>
		<rect x="652.7" y="942" class="st5" width="25" height="35.3"/>
		<rect x="683.8" y="942" class="st5" width="25" height="35.3"/>
		<rect x="715" y="942" class="st5" width="25" height="35.3"/>
		<rect x="746.1" y="942" class="st5" width="25" height="35.3"/>
		<rect x="777.3" y="942" class="st5" width="25" height="35.3"/>
		<rect x="808.4" y="942" class="st5" width="25" height="35.3"/>
		<rect x="839.6" y="942" class="st5" width="25" height="35.3"/>
		<rect x="870.7" y="942" class="st5" width="25" height="35.3"/>
		<rect x="901.8" y="942" class="st5" width="25" height="35.3"/>
		<rect x="933" y="942" class="st5" width="25" height="35.3"/>
		<rect x="964.1" y="942" class="st5" width="25" height="35.3"/>
		<rect x="995.3" y="942" class="st5" width="25" height="35.3"/>
		<rect x="1026.4" y="942" class="st5" width="25" height="35.3"/>
	</g>
	<rect x="324.1" y="130.4" class="st9" width="25.1" height="35.6"/>
	<g>
		<rect x="1100.8" y="194.4" class="st3" width="24.9" height="35.4"/>
		<rect x="1131.9" y="194.4" class="st3" width="24.9" height="35.4"/>
		<rect x="1163" y="194.4" class="st3" width="24.9" height="35.4"/>
		<rect x="1194.1" y="194.4" class="st3" width="24.9" height="35.4"/>
		<rect x="1225.2" y="194.4" class="st3" width="24.9" height="35.4"/>
		<rect x="1256.3" y="194.4" class="st3" width="24.9" height="35.4"/>
		<rect x="1287.4" y="194.4" class="st3" width="24.9" height="35.4"/>
		<rect x="1318.5" y="194.4" class="st3" width="24.9" height="35.4"/>
		<rect x="1349.6" y="194.4" class="st3" width="24.9" height="35.4"/>
		<rect x="1380.7" y="194.4" class="st3" width="24.9" height="35.4"/>
		<rect x="1411.8" y="194.4" class="st3" width="24.9" height="35.4"/>
		<rect x="1442.9" y="194.4" class="st3" width="24.9" height="35.4"/>
		<rect x="1474" y="194.4" class="st3" width="24.9" height="35.4"/>
		<rect x="1505.1" y="194.4" class="st3" width="24.9" height="35.4"/>
		<rect x="1100.8" y="235.9" class="st3" width="24.9" height="35.4"/>
		<rect x="1131.9" y="235.9" class="st3" width="24.9" height="35.4"/>
		<rect x="1163" y="235.9" class="st3" width="24.9" height="35.4"/>
		<rect x="1194.1" y="235.9" class="st3" width="24.9" height="35.4"/>
		<rect x="1225.2" y="235.9" class="st3" width="24.9" height="35.4"/>
		<rect x="1256.3" y="235.9" class="st3" width="24.9" height="35.4"/>
		<rect x="1287.4" y="235.9" class="st3" width="24.9" height="35.4"/>
		<rect x="1318.5" y="235.9" class="st3" width="24.9" height="35.4"/>
		<rect x="1349.6" y="235.9" class="st3" width="24.9" height="35.4"/>
		<rect x="1380.7" y="235.9" class="st3" width="24.9" height="35.4"/>
		<rect x="1411.8" y="235.9" class="st3" width="24.9" height="35.4"/>
		<rect x="1442.9" y="235.9" class="st3" width="24.9" height="35.4"/>
		<rect x="1474" y="235.9" class="st3" width="24.9" height="35.4"/>
		<rect x="1505.1" y="235.9" class="st3" width="24.9" height="35.4"/>
		<rect x="1100.8" y="277.5" class="st3" width="24.9" height="35.4"/>
		<rect x="1131.9" y="277.5" class="st3" width="24.9" height="35.4"/>
		<rect x="1163" y="277.5" class="st3" width="24.9" height="35.4"/>
		<rect x="1194.1" y="277.5" class="st3" width="24.9" height="35.4"/>
		<rect x="1225.2" y="277.5" class="st3" width="24.9" height="35.4"/>
		<rect x="1256.3" y="277.5" class="st3" width="24.9" height="35.4"/>
		<rect x="1287.4" y="277.5" class="st3" width="24.9" height="35.4"/>
		<rect x="1318.5" y="277.5" class="st3" width="24.9" height="35.4"/>
		<rect x="1349.6" y="277.5" class="st3" width="24.9" height="35.4"/>
		<rect x="1380.7" y="277.5" class="st3" width="24.9" height="35.4"/>
		<rect x="1411.8" y="277.5" class="st3" width="24.9" height="35.4"/>
		<rect x="1442.9" y="277.5" class="st3" width="24.9" height="35.4"/>
		<rect x="1474" y="277.5" class="st3" width="24.9" height="35.4"/>
		<rect x="1505.1" y="277.5" class="st3" width="24.9" height="35.4"/>
		<rect x="1100.8" y="319" class="st3" width="24.9" height="35.4"/>
		<rect x="1131.9" y="319" class="st3" width="24.9" height="35.4"/>
		<rect x="1163" y="319" class="st3" width="24.9" height="35.4"/>
		<rect x="1194.1" y="319" class="st3" width="24.9" height="35.4"/>
		<rect x="1225.2" y="319" class="st3" width="24.9" height="35.4"/>
		<rect x="1256.3" y="319" class="st3" width="24.9" height="35.4"/>
		<rect x="1287.4" y="319" class="st3" width="24.9" height="35.4"/>
		<rect x="1318.5" y="319" class="st3" width="24.9" height="35.4"/>
		<rect x="1349.6" y="319" class="st3" width="24.9" height="35.4"/>
		<rect x="1380.7" y="319" class="st3" width="24.9" height="35.4"/>
		<rect x="1411.8" y="319" class="st3" width="24.9" height="35.4"/>
		<rect x="1442.9" y="319" class="st3" width="24.9" height="35.4"/>
		<rect x="1474" y="319" class="st3" width="24.9" height="35.4"/>
		<rect x="1505.1" y="319" class="st3" width="24.9" height="35.4"/>
		<rect x="1100.8" y="360.5" class="st3" width="24.9" height="35.4"/>
		<rect x="1131.9" y="360.5" class="st3" width="24.9" height="35.4"/>
		<rect x="1163" y="360.5" class="st3" width="24.9" height="35.4"/>
		<rect x="1194.1" y="360.5" class="st3" width="24.9" height="35.4"/>
		<rect x="1225.2" y="360.5" class="st3" width="24.9" height="35.4"/>
		<rect x="1256.3" y="360.5" class="st3" width="24.9" height="35.4"/>
		<rect x="1287.4" y="360.5" class="st3" width="24.9" height="35.4"/>
		<rect x="1318.5" y="360.5" class="st3" width="24.9" height="35.4"/>
		<rect x="1349.6" y="360.5" class="st3" width="24.9" height="35.4"/>
		<rect x="1380.7" y="360.5" class="st3" width="24.9" height="35.4"/>
		<rect x="1411.8" y="360.5" class="st3" width="24.9" height="35.4"/>
		<rect x="1442.9" y="360.5" class="st3" width="24.9" height="35.4"/>
		<rect x="1474" y="360.5" class="st3" width="24.9" height="35.4"/>
		<rect x="1505.1" y="360.5" class="st3" width="24.9" height="35.4"/>
		<rect x="1100.8" y="402.1" class="st3" width="24.9" height="35.4"/>
		<rect x="1131.9" y="402.1" class="st3" width="24.9" height="35.4"/>
		<rect x="1163" y="402.1" class="st3" width="24.9" height="35.4"/>
		<rect x="1194.1" y="402.1" class="st3" width="24.9" height="35.4"/>
		<rect x="1225.2" y="402.1" class="st3" width="24.9" height="35.4"/>
		<rect x="1256.3" y="402.1" class="st3" width="24.9" height="35.4"/>
		<rect x="1287.4" y="402.1" class="st3" width="24.9" height="35.4"/>
		<rect x="1318.5" y="402.1" class="st3" width="24.9" height="35.4"/>
		<rect x="1349.6" y="402.1" class="st3" width="24.9" height="35.4"/>
		<rect x="1380.7" y="402.1" class="st3" width="24.9" height="35.4"/>
		<rect x="1411.8" y="402.1" class="st3" width="24.9" height="35.4"/>
		<rect x="1442.9" y="402.1" class="st3" width="24.9" height="35.4"/>
		<rect x="1474" y="402.1" class="st3" width="24.9" height="35.4"/>
		<rect x="1505.1" y="402.1" class="st3" width="24.9" height="35.4"/>
		<rect x="1100.8" y="443.6" class="st3" width="24.9" height="35.4"/>
		<rect x="1131.9" y="443.6" class="st3" width="24.9" height="35.4"/>
		<rect x="1163" y="443.6" class="st3" width="24.9" height="35.4"/>
		<rect x="1194.1" y="443.6" class="st3" width="24.9" height="35.4"/>
		<rect x="1225.2" y="443.6" class="st3" width="24.9" height="35.4"/>
		<rect x="1256.3" y="443.6" class="st3" width="24.9" height="35.4"/>
		<rect x="1287.4" y="443.6" class="st3" width="24.9" height="35.4"/>
		<rect x="1318.5" y="443.6" class="st3" width="24.9" height="35.4"/>
		<rect x="1349.6" y="443.6" class="st3" width="24.9" height="35.4"/>
		<rect x="1380.7" y="443.6" class="st3" width="24.9" height="35.4"/>
		<rect x="1411.8" y="443.6" class="st3" width="24.9" height="35.4"/>
		<rect x="1442.9" y="443.6" class="st3" width="24.9" height="35.4"/>
		<rect x="1474" y="443.6" class="st3" width="24.9" height="35.4"/>
		<rect x="1505.1" y="443.6" class="st3" width="24.9" height="35.4"/>
		<rect x="1100.8" y="485.2" class="st3" width="24.9" height="35.4"/>
		<rect x="1131.9" y="485.2" class="st3" width="24.9" height="35.4"/>
		<rect x="1163" y="485.2" class="st3" width="24.9" height="35.4"/>
		<rect x="1194.1" y="485.2" class="st3" width="24.9" height="35.4"/>
		<rect x="1225.2" y="485.2" class="st3" width="24.9" height="35.4"/>
		<rect x="1256.3" y="485.2" class="st3" width="24.9" height="35.4"/>
		<rect x="1287.4" y="485.2" class="st3" width="24.9" height="35.4"/>
		<rect x="1318.5" y="485.2" class="st3" width="24.9" height="35.4"/>
		<rect x="1349.6" y="485.2" class="st3" width="24.9" height="35.4"/>
		<rect x="1380.7" y="485.2" class="st3" width="24.9" height="35.4"/>
		<rect x="1411.8" y="485.2" class="st3" width="24.9" height="35.4"/>
		<rect x="1442.9" y="485.2" class="st3" width="24.9" height="35.4"/>
		<rect x="1474" y="485.2" class="st3" width="24.9" height="35.4"/>
		<rect x="1505.1" y="485.2" class="st3" width="24.9" height="35.4"/>
		<rect x="1100.8" y="526.7" class="st3" width="24.9" height="35.4"/>
		<rect x="1131.9" y="526.7" class="st3" width="24.9" height="35.4"/>
		<rect x="1163" y="526.7" class="st3" width="24.9" height="35.4"/>
		<rect x="1194.1" y="526.7" class="st3" width="24.9" height="35.4"/>
		<rect x="1225.2" y="526.7" class="st3" width="24.9" height="35.4"/>
		<rect x="1256.3" y="526.7" class="st3" width="24.9" height="35.4"/>
		<rect x="1287.4" y="526.7" class="st3" width="24.9" height="35.4"/>
		<rect x="1318.5" y="526.7" class="st3" width="24.9" height="35.4"/>
		<rect x="1349.6" y="526.7" class="st3" width="24.9" height="35.4"/>
		<rect x="1380.7" y="526.7" class="st3" width="24.9" height="35.4"/>
		<rect x="1411.8" y="526.7" class="st3" width="24.9" height="35.4"/>
		<rect x="1442.9" y="526.7" class="st3" width="24.9" height="35.4"/>
		<rect x="1474" y="526.7" class="st3" width="24.9" height="35.4"/>
		<rect x="1505.1" y="526.7" class="st3" width="24.9" height="35.4"/>
		<rect x="1100.8" y="568.3" class="st3" width="24.9" height="35.4"/>
		<rect x="1131.9" y="568.3" class="st3" width="24.9" height="35.4"/>
		<rect x="1163" y="568.3" class="st3" width="24.9" height="35.4"/>
		<rect x="1194.1" y="568.3" class="st3" width="24.9" height="35.4"/>
		<rect x="1225.2" y="568.3" class="st3" width="24.9" height="35.4"/>
		<rect x="1256.3" y="568.3" class="st3" width="24.9" height="35.4"/>
		<rect x="1287.4" y="568.3" class="st3" width="24.9" height="35.4"/>
		<rect x="1318.5" y="568.3" class="st3" width="24.9" height="35.4"/>
		<rect x="1349.6" y="568.3" class="st3" width="24.9" height="35.4"/>
		<rect x="1380.7" y="568.3" class="st3" width="24.9" height="35.4"/>
		<rect x="1411.8" y="568.3" class="st3" width="24.9" height="35.4"/>
		<rect x="1442.9" y="568.3" class="st3" width="24.9" height="35.4"/>
		<rect x="1474" y="568.3" class="st3" width="24.9" height="35.4"/>
		<rect x="1505.1" y="568.3" class="st3" width="24.9" height="35.4"/>
		<rect x="1100.8" y="609.8" class="st3" width="24.9" height="35.4"/>
		<rect x="1131.9" y="609.8" class="st3" width="24.9" height="35.4"/>
		<rect x="1163" y="609.8" class="st3" width="24.9" height="35.4"/>
		<rect x="1194.1" y="609.8" class="st3" width="24.9" height="35.4"/>
		<rect x="1225.2" y="609.8" class="st3" width="24.9" height="35.4"/>
		<rect x="1256.3" y="609.8" class="st3" width="24.9" height="35.4"/>
		<rect x="1287.4" y="609.8" class="st3" width="24.9" height="35.4"/>
		<rect x="1318.5" y="609.8" class="st3" width="24.9" height="35.4"/>
		<rect x="1349.6" y="609.8" class="st3" width="24.9" height="35.4"/>
		<rect x="1380.7" y="609.8" class="st3" width="24.9" height="35.4"/>
		<rect x="1411.8" y="609.8" class="st3" width="24.9" height="35.4"/>
		<rect x="1442.9" y="609.8" class="st3" width="24.9" height="35.4"/>
		<rect x="1474" y="609.8" class="st3" width="24.9" height="35.4"/>
		<rect x="1505.1" y="609.8" class="st3" width="24.9" height="35.4"/>
		<rect x="1100.8" y="651.3" class="st3" width="24.9" height="35.4"/>
		<rect x="1131.9" y="651.3" class="st3" width="24.9" height="35.4"/>
		<rect x="1163" y="651.3" class="st3" width="24.9" height="35.4"/>
		<rect x="1194.1" y="651.3" class="st3" width="24.9" height="35.4"/>
		<rect x="1225.2" y="651.3" class="st3" width="24.9" height="35.4"/>
		<rect x="1256.3" y="651.3" class="st3" width="24.9" height="35.4"/>
		<rect x="1287.4" y="651.3" class="st3" width="24.9" height="35.4"/>
		<rect x="1318.5" y="651.3" class="st3" width="24.9" height="35.4"/>
		<rect x="1349.6" y="651.3" class="st3" width="24.9" height="35.4"/>
		<rect x="1380.7" y="651.3" class="st3" width="24.9" height="35.4"/>
		<rect x="1411.8" y="651.3" class="st3" width="24.9" height="35.4"/>
		<rect x="1442.9" y="651.3" class="st3" width="24.9" height="35.4"/>
		<rect x="1474" y="651.3" class="st3" width="24.9" height="35.4"/>
		<rect x="1505.1" y="651.3" class="st3" width="24.9" height="35.4"/>
		<rect x="1100.8" y="692.9" class="st3" width="24.9" height="35.4"/>
		<rect x="1131.9" y="692.9" class="st3" width="24.9" height="35.4"/>
		<rect x="1163" y="692.9" class="st3" width="24.9" height="35.4"/>
		<rect x="1194.1" y="692.9" class="st3" width="24.9" height="35.4"/>
		<rect x="1225.2" y="692.9" class="st3" width="24.9" height="35.4"/>
		<rect x="1256.3" y="692.9" class="st3" width="24.9" height="35.4"/>
		<rect x="1287.4" y="692.9" class="st3" width="24.9" height="35.4"/>
		<rect x="1318.5" y="692.9" class="st3" width="24.9" height="35.4"/>
		<rect x="1349.6" y="692.9" class="st3" width="24.9" height="35.4"/>
		<rect x="1380.7" y="692.9" class="st3" width="24.9" height="35.4"/>
		<rect x="1411.8" y="692.9" class="st3" width="24.9" height="35.4"/>
		<rect x="1442.9" y="692.9" class="st3" width="24.9" height="35.4"/>
		<rect x="1474" y="692.9" class="st3" width="24.9" height="35.4"/>
		<rect x="1505.1" y="692.9" class="st3" width="24.9" height="35.4"/>
		<rect x="1100.8" y="734.4" class="st3" width="24.9" height="35.4"/>
		<rect x="1131.9" y="734.4" class="st3" width="24.9" height="35.4"/>
		<rect x="1163" y="734.4" class="st3" width="24.9" height="35.4"/>
		<rect x="1194.1" y="734.4" class="st3" width="24.9" height="35.4"/>
		<rect x="1225.2" y="734.4" class="st3" width="24.9" height="35.4"/>
		<rect x="1256.3" y="734.4" class="st3" width="24.9" height="35.4"/>
		<rect x="1287.4" y="734.4" class="st3" width="24.9" height="35.4"/>
		<rect x="1318.5" y="734.4" class="st3" width="24.9" height="35.4"/>
		<rect x="1349.6" y="734.4" class="st3" width="24.9" height="35.4"/>
		<rect x="1380.7" y="734.4" class="st3" width="24.9" height="35.4"/>
		<rect x="1411.8" y="734.4" class="st3" width="24.9" height="35.4"/>
		<rect x="1442.9" y="734.4" class="st3" width="24.9" height="35.4"/>
		<rect x="1474" y="734.4" class="st3" width="24.9" height="35.4"/>
		<rect x="1505.1" y="734.4" class="st3" width="24.9" height="35.4"/>
		<rect x="1100.8" y="776" class="st3" width="24.9" height="35.4"/>
		<rect x="1131.9" y="776" class="st3" width="24.9" height="35.4"/>
		<rect x="1163" y="776" class="st3" width="24.9" height="35.4"/>
		<rect x="1194.1" y="776" class="st3" width="24.9" height="35.4"/>
		<rect x="1225.2" y="776" class="st3" width="24.9" height="35.4"/>
		<rect x="1256.3" y="776" class="st3" width="24.9" height="35.4"/>
		<rect x="1287.4" y="776" class="st3" width="24.9" height="35.4"/>
		<rect x="1318.5" y="776" class="st3" width="24.9" height="35.4"/>
		<rect x="1349.6" y="776" class="st3" width="24.9" height="35.4"/>
		<rect x="1380.7" y="776" class="st3" width="24.9" height="35.4"/>
		<rect x="1411.8" y="776" class="st3" width="24.9" height="35.4"/>
		<rect x="1442.9" y="776" class="st3" width="24.9" height="35.4"/>
		<rect x="1474" y="776" class="st3" width="24.9" height="35.4"/>
		<rect x="1505.1" y="776" class="st3" width="24.9" height="35.4"/>
	</g>
	<g>
		<rect x="1578" y="194.4" class="st7" width="24.9" height="35.4"/>
		<rect x="1609.1" y="194.4" class="st7" width="24.9" height="35.4"/>
		<rect x="1640.2" y="194.4" class="st7" width="24.9" height="35.4"/>
		<rect x="1671.3" y="194.4" class="st7" width="24.9" height="35.4"/>
		<rect x="1578" y="235.9" class="st7" width="24.9" height="35.4"/>
		<rect x="1609.1" y="235.9" class="st7" width="24.9" height="35.4"/>
		<rect x="1640.2" y="235.9" class="st7" width="24.9" height="35.4"/>
		<rect x="1671.3" y="235.9" class="st7" width="24.9" height="35.4"/>
		<rect x="1578" y="277.5" class="st7" width="24.9" height="35.4"/>
		<rect x="1609.1" y="277.5" class="st7" width="24.9" height="35.4"/>
		<rect x="1640.2" y="277.5" class="st7" width="24.9" height="35.4"/>
		<rect x="1671.3" y="277.5" class="st7" width="24.9" height="35.4"/>
		<rect x="1578" y="319" class="st7" width="24.9" height="35.4"/>
		<rect x="1609.1" y="319" class="st7" width="24.9" height="35.4"/>
		<rect x="1640.2" y="319" class="st7" width="24.9" height="35.4"/>
		<rect x="1671.3" y="319" class="st7" width="24.9" height="35.4"/>
		<rect x="1578" y="360.5" class="st7" width="24.9" height="35.4"/>
		<rect x="1609.1" y="360.5" class="st7" width="24.9" height="35.4"/>
		<rect x="1640.2" y="360.5" class="st7" width="24.9" height="35.4"/>
		<rect x="1671.3" y="360.5" class="st7" width="24.9" height="35.4"/>
		<rect x="1578" y="402.1" class="st7" width="24.9" height="35.4"/>
		<rect x="1609.1" y="402.1" class="st7" width="24.9" height="35.4"/>
		<rect x="1640.2" y="402.1" class="st7" width="24.9" height="35.4"/>
		<rect x="1671.3" y="402.1" class="st7" width="24.9" height="35.4"/>
		<rect x="1578" y="443.6" class="st7" width="24.9" height="35.4"/>
		<rect x="1609.1" y="443.6" class="st7" width="24.9" height="35.4"/>
		<rect x="1640.2" y="443.6" class="st7" width="24.9" height="35.4"/>
		<rect x="1671.3" y="443.6" class="st7" width="24.9" height="35.4"/>
		<rect x="1578" y="485.2" class="st7" width="24.9" height="35.4"/>
		<rect x="1609.1" y="485.2" class="st7" width="24.9" height="35.4"/>
		<rect x="1640.2" y="485.2" class="st7" width="24.9" height="35.4"/>
		<rect x="1671.3" y="485.2" class="st7" width="24.9" height="35.4"/>
	</g>
</g>
<g id="Textos">
	<g>
		<g>
			<path class="st6" d="M124.9,157.5v-1.7l3.1-0.4v-14.9l-3.1,0.1v-1.7l5.8-1.3v17.8l3.1,0.4v1.7H124.9z"/>
			<path class="st6" d="M142.8,157.8c-2,0-3.5-0.7-4.6-2c-1.1-1.4-1.7-3.3-1.7-5.8v-4.7c0-2.5,0.6-4.5,1.7-5.8c1.1-1.4,2.7-2,4.6-2
				c2,0,3.5,0.7,4.6,2c1.1,1.4,1.7,3.3,1.7,5.8v4.7c0,2.5-0.6,4.5-1.7,5.8C146.3,157.1,144.7,157.8,142.8,157.8z M142.8,155.7
				c1.2,0,2.1-0.4,2.7-1.3s0.9-2.2,0.9-3.9v-5.8c0-1.7-0.3-3-0.9-3.9c-0.6-0.9-1.5-1.3-2.7-1.3c-1.2,0-2.1,0.4-2.7,1.3
				c-0.6,0.9-0.9,2.2-0.9,3.9v5.8c0,1.7,0.3,3,0.9,3.9C140.7,155.3,141.6,155.7,142.8,155.7z"/>
			<path class="st6" d="M158.3,163.2v-1.7l2.1-0.4v-16.2l-2.2-0.4v-1.7h4.5l0.2,1.8c0.5-0.7,1.1-1.2,1.8-1.5
				c0.7-0.4,1.5-0.5,2.5-0.5c1.2,0,2.3,0.3,3.1,1c0.9,0.7,1.5,1.6,2,2.8c0.5,1.2,0.7,2.6,0.7,4.2v0.3c0,1.4-0.2,2.7-0.7,3.7
				c-0.5,1.1-1.1,1.9-2,2.5c-0.9,0.6-1.9,0.9-3.1,0.9c-0.9,0-1.7-0.2-2.4-0.5c-0.7-0.3-1.3-0.8-1.8-1.4v5.1l2.4,0.4v1.7H158.3z
				 M166.4,155.7c1.3,0,2.2-0.5,2.9-1.4s1-2.1,1-3.6v-0.3c0-1.1-0.1-2.1-0.4-3c-0.3-0.9-0.7-1.5-1.3-2c-0.6-0.5-1.3-0.7-2.2-0.7
				c-0.8,0-1.4,0.2-2,0.5c-0.5,0.3-1,0.8-1.3,1.4v7.2c0.3,0.6,0.8,1.1,1.3,1.4C165,155.5,165.6,155.7,166.4,155.7z"/>
			<path class="st6" d="M181.8,157.8c-1.4,0-2.6-0.3-3.6-0.9c-1-0.6-1.8-1.5-2.3-2.6c-0.6-1.1-0.8-2.4-0.8-3.9v-0.6
				c0-1.4,0.3-2.7,0.9-3.8c0.6-1.1,1.3-2,2.3-2.6c1-0.6,2-1,3.2-1c1.3,0,2.4,0.3,3.3,0.8c0.9,0.5,1.6,1.3,2,2.3
				c0.5,1,0.7,2.2,0.7,3.5v1.7h-9.6l0,0.1c0,0.9,0.2,1.8,0.5,2.5c0.3,0.7,0.8,1.3,1.4,1.7c0.6,0.4,1.3,0.6,2.1,0.6
				c0.9,0,1.7-0.1,2.4-0.4c0.7-0.3,1.3-0.6,1.8-1.1l1.1,1.8c-0.5,0.5-1.2,0.9-2.1,1.3C184.1,157.6,183,157.8,181.8,157.8z
				 M178,148.7h6.8v-0.4c0-0.7-0.1-1.3-0.4-1.9c-0.2-0.6-0.6-1-1.1-1.3c-0.5-0.3-1.1-0.5-1.9-0.5c-0.6,0-1.1,0.2-1.6,0.5
				c-0.5,0.4-0.9,0.8-1.2,1.4C178.2,147.1,178,147.8,178,148.7L178,148.7z"/>
			<path class="st6" d="M189.5,157.5v-1.7l2.2-0.4v-10.6l-2.2-0.4v-1.7h4.6l0.2,1.9l0,0.3c0.4-0.8,0.9-1.3,1.6-1.8
				c0.6-0.4,1.3-0.6,2.1-0.6c0.3,0,0.6,0,0.9,0.1c0.3,0.1,0.5,0.1,0.6,0.1l-0.4,2.5l-1.9-0.1c-0.7,0-1.3,0.1-1.8,0.5
				c-0.5,0.4-0.9,0.9-1.1,1.5v8.4l2.2,0.4v1.7H189.5z"/>
			<path class="st6" d="M207.2,157.8c-1,0-1.9-0.1-2.8-0.3c-0.9-0.2-1.8-0.5-2.8-0.9l0-3.5h2l0.5,2.1c0.5,0.2,1,0.4,1.5,0.5
				s1,0.1,1.6,0.1c1.1,0,1.9-0.2,2.4-0.6c0.5-0.4,0.7-0.9,0.7-1.6c0-0.6-0.2-1.1-0.7-1.5c-0.5-0.4-1.3-0.7-2.6-1
				c-1.8-0.4-3.1-1-3.9-1.6c-0.8-0.7-1.3-1.6-1.3-2.8c0-0.8,0.2-1.5,0.7-2.2c0.5-0.6,1.1-1.1,1.9-1.5c0.8-0.4,1.8-0.6,2.9-0.6
				c1.1,0,2.1,0.1,2.9,0.4c0.8,0.3,1.5,0.6,2.1,1l0.1,3.4h-2l-0.4-2c-0.3-0.2-0.7-0.4-1.1-0.5c-0.4-0.1-0.9-0.2-1.5-0.2
				c-0.8,0-1.5,0.2-2,0.6c-0.5,0.4-0.8,0.9-0.8,1.5c0,0.3,0.1,0.6,0.2,0.9c0.2,0.3,0.4,0.5,0.9,0.7c0.4,0.2,1.1,0.4,1.9,0.6
				c2.1,0.5,3.5,1.1,4.3,1.8c0.8,0.7,1.2,1.7,1.2,2.8c0,1.2-0.5,2.3-1.4,3.1C210.7,157.4,209.2,157.8,207.2,157.8z"/>
			<path class="st6" d="M221.9,157.8c-1.4,0-2.5-0.3-3.5-1c-1-0.6-1.8-1.5-2.3-2.7c-0.5-1.1-0.8-2.4-0.8-3.9V150
				c0-1.5,0.3-2.8,0.8-3.9c0.5-1.1,1.3-2,2.3-2.7c1-0.6,2.2-1,3.5-1c1.4,0,2.5,0.3,3.5,1c1,0.6,1.8,1.5,2.3,2.7
				c0.5,1.1,0.8,2.4,0.8,3.9v0.3c0,1.5-0.3,2.8-0.8,3.9c-0.5,1.1-1.3,2-2.3,2.7C224.4,157.5,223.3,157.8,221.9,157.8z M221.9,155.7
				c0.9,0,1.6-0.2,2.2-0.7c0.6-0.5,1-1.1,1.3-1.9c0.3-0.8,0.4-1.7,0.4-2.8V150c0-1-0.1-2-0.4-2.8c-0.3-0.8-0.7-1.5-1.3-1.9
				c-0.6-0.5-1.3-0.7-2.2-0.7c-0.9,0-1.6,0.2-2.2,0.7c-0.6,0.5-1,1.1-1.3,1.9c-0.3,0.8-0.4,1.7-0.4,2.8v0.3c0,1,0.1,2,0.4,2.8
				c0.3,0.8,0.7,1.5,1.3,1.9C220.3,155.5,221,155.7,221.9,155.7z"/>
			<path class="st6" d="M230.6,157.5v-1.7l2.2-0.4v-10.6l-2.2-0.4v-1.7h4.6l0.2,2.2c0.5-0.8,1.1-1.4,1.9-1.8
				c0.7-0.4,1.6-0.6,2.5-0.6c1.6,0,2.8,0.5,3.7,1.4c0.9,0.9,1.3,2.4,1.3,4.3v7.2l2.2,0.4v1.7h-7.2v-1.7l2.2-0.4v-7.2
				c0-1.3-0.3-2.2-0.8-2.8c-0.5-0.5-1.3-0.8-2.4-0.8c-0.8,0-1.5,0.2-2.1,0.6c-0.6,0.4-1.1,0.9-1.4,1.5v8.7l2.2,0.4v1.7H230.6z"/>
			<path class="st6" d="M253.7,157.8c-1.5,0-2.7-0.4-3.5-1.1c-0.8-0.8-1.2-1.8-1.2-3.2c0-0.9,0.3-1.8,0.8-2.5
				c0.5-0.7,1.3-1.2,2.2-1.6c1-0.4,2.1-0.6,3.5-0.6h2.6v-1.4c0-0.9-0.3-1.6-0.8-2.1c-0.5-0.5-1.3-0.7-2.3-0.7
				c-0.6,0-1.2,0.1-1.6,0.2c-0.5,0.2-0.9,0.4-1.2,0.6l-0.3,2.1h-2.1v-3.4c0.7-0.5,1.4-0.9,2.3-1.2c0.9-0.3,1.9-0.4,2.9-0.4
				c1.8,0,3.2,0.4,4.2,1.3c1,0.9,1.5,2.1,1.5,3.7v7.1c0,0.2,0,0.4,0,0.6c0,0.2,0,0.4,0,0.5l1.4,0.2v1.7h-3.9
				c-0.1-0.4-0.1-0.8-0.2-1.1c0-0.3-0.1-0.6-0.1-1c-0.5,0.7-1.2,1.2-1.9,1.7S254.6,157.8,253.7,157.8z M254.1,155.6
				c0.9,0,1.7-0.2,2.4-0.6c0.7-0.4,1.3-0.9,1.6-1.5v-2.7h-2.7c-1.2,0-2.2,0.3-2.8,0.9c-0.6,0.6-0.9,1.3-0.9,2c0,0.6,0.2,1.1,0.6,1.5
				C252.7,155.4,253.3,155.6,254.1,155.6z"/>
			<path class="st6" d="M270.4,157.8c-1,0-1.9-0.1-2.8-0.3c-0.9-0.2-1.8-0.5-2.8-0.9l0-3.5h2l0.5,2.1c0.5,0.2,1,0.4,1.5,0.5
				s1,0.1,1.6,0.1c1.1,0,1.9-0.2,2.4-0.6c0.5-0.4,0.7-0.9,0.7-1.6c0-0.6-0.2-1.1-0.7-1.5c-0.5-0.4-1.3-0.7-2.6-1
				c-1.8-0.4-3.1-1-3.9-1.6c-0.8-0.7-1.3-1.6-1.3-2.8c0-0.8,0.2-1.5,0.7-2.2c0.5-0.6,1.1-1.1,1.9-1.5c0.8-0.4,1.8-0.6,2.9-0.6
				c1.1,0,2.1,0.1,2.9,0.4c0.8,0.3,1.5,0.6,2.1,1l0.1,3.4h-2l-0.4-2c-0.3-0.2-0.7-0.4-1.1-0.5c-0.4-0.1-0.9-0.2-1.5-0.2
				c-0.8,0-1.5,0.2-2,0.6c-0.5,0.4-0.8,0.9-0.8,1.5c0,0.3,0.1,0.6,0.2,0.9c0.2,0.3,0.4,0.5,0.9,0.7c0.4,0.2,1.1,0.4,1.9,0.6
				c2.1,0.5,3.5,1.1,4.3,1.8c0.8,0.7,1.2,1.7,1.2,2.8c0,1.2-0.5,2.3-1.4,3.1C273.8,157.4,272.4,157.8,270.4,157.8z"/>
		</g>
	</g>
	<g>
		<g>
			<path class="st6" d="M1727.1,894.6c-2,0-3.7-0.4-5-1.3s-2.3-2.1-3-3.6c-0.7-1.5-1-3.2-1-5.2v-0.3c0-2,0.4-3.7,1.1-5.2
				s1.7-2.7,3-3.6s2.9-1.3,4.7-1.3c1.3,0,2.5,0.2,3.5,0.6c1.1,0.4,2,0.9,2.7,1.5v4.3h-2.1l-0.3-3.1c-0.3-0.2-0.6-0.4-1-0.6
				c-0.4-0.2-0.8-0.3-1.3-0.4s-1-0.1-1.5-0.1c-1.3,0-2.4,0.3-3.3,1s-1.6,1.6-2.1,2.8s-0.7,2.5-0.7,4.1v0.3c0,1.7,0.2,3.1,0.7,4.3
				c0.5,1.2,1.2,2.1,2.2,2.7c1,0.6,2.1,0.9,3.5,0.9c0.6,0,1.3-0.1,1.9-0.2c0.6-0.2,1.1-0.4,1.5-0.6l0.3-2.8h2.1v4.3
				c-0.7,0.5-1.6,0.8-2.7,1.1S1728.2,894.6,1727.1,894.6z"/>
			<path class="st6" d="M1735.3,894.3v-1.7l2.2-0.4v-17.1l-2.2-0.4V873h4.9v8.5c0.5-0.7,1.1-1.3,1.9-1.7c0.7-0.4,1.6-0.6,2.5-0.6
				c1.6,0,2.8,0.5,3.7,1.4c0.9,0.9,1.3,2.4,1.3,4.4v7.2l2.2,0.4v1.7h-7.2v-1.7l2.2-0.4V885c0-1.2-0.3-2.1-0.8-2.7
				c-0.5-0.6-1.3-0.9-2.3-0.9c-0.7,0-1.4,0.2-2,0.5c-0.6,0.4-1.1,0.8-1.5,1.4v8.8l2.2,0.4v1.7H1735.3z"/>
			<path class="st6" d="M1758.4,894.6c-1.5,0-2.7-0.4-3.5-1.1s-1.2-1.8-1.2-3.2c0-0.9,0.3-1.8,0.8-2.5s1.3-1.2,2.2-1.6
				c1-0.4,2.1-0.6,3.5-0.6h2.6v-1.4c0-0.9-0.3-1.6-0.8-2.1s-1.3-0.7-2.3-0.7c-0.6,0-1.2,0.1-1.6,0.2s-0.9,0.4-1.2,0.6l-0.3,2.1h-2.1
				v-3.4c0.7-0.5,1.4-0.9,2.3-1.2c0.9-0.3,1.9-0.4,2.9-0.4c1.8,0,3.2,0.4,4.2,1.3c1,0.9,1.5,2.1,1.5,3.7v7.1c0,0.2,0,0.4,0,0.6
				c0,0.2,0,0.4,0,0.5l1.4,0.2v1.7h-3.9c-0.1-0.4-0.1-0.8-0.2-1.1c0-0.3-0.1-0.6-0.1-1c-0.5,0.7-1.2,1.2-1.9,1.7
				S1759.3,894.6,1758.4,894.6z M1758.8,892.4c0.9,0,1.7-0.2,2.4-0.6c0.7-0.4,1.3-0.9,1.6-1.5v-2.7h-2.7c-1.2,0-2.2,0.3-2.8,0.9
				c-0.6,0.6-0.9,1.3-0.9,2c0,0.6,0.2,1.1,0.6,1.5S1758,892.4,1758.8,892.4z"/>
			<path class="st6" d="M1769,894.3v-1.7l2.2-0.4v-10.6l-2.2-0.4v-1.7h4.9v12.7l2.2,0.4v1.7H1769z M1771.1,875.9V873h2.8v2.9H1771.1
				z"/>
			<path class="st6" d="M1783.2,894.6c-1.1,0-2-0.3-2.6-1s-1-1.7-1-3.1v-9h-2.3v-2h2.3V876h2.7v3.6h3.2v2h-3.2v9
				c0,0.7,0.1,1.2,0.4,1.6c0.3,0.3,0.7,0.5,1.1,0.5c0.3,0,0.7,0,1.1-0.1c0.4-0.1,0.7-0.1,0.9-0.2l0.4,1.8c-0.4,0.1-0.9,0.2-1.4,0.3
				C1784.2,894.5,1783.7,894.6,1783.2,894.6z"/>
			<path class="st6" d="M1794.7,894.6c-1.4,0-2.6-0.3-3.6-0.9c-1-0.6-1.8-1.5-2.3-2.6c-0.6-1.1-0.8-2.4-0.8-3.9v-0.6
				c0-1.4,0.3-2.7,0.9-3.8s1.3-2,2.3-2.6s2-1,3.2-1c1.3,0,2.4,0.3,3.3,0.8s1.6,1.3,2,2.3c0.5,1,0.7,2.2,0.7,3.5v1.7h-9.6l0,0.1
				c0,0.9,0.2,1.8,0.5,2.5c0.3,0.7,0.8,1.3,1.4,1.7c0.6,0.4,1.3,0.6,2.1,0.6c0.9,0,1.7-0.1,2.4-0.4s1.3-0.6,1.8-1.1l1.1,1.8
				c-0.5,0.5-1.2,0.9-2.1,1.3S1795.9,894.6,1794.7,894.6z M1790.8,885.5h6.8v-0.4c0-0.7-0.1-1.3-0.4-1.9s-0.6-1-1.1-1.3
				c-0.5-0.3-1.1-0.5-1.9-0.5c-0.6,0-1.1,0.2-1.6,0.5c-0.5,0.4-0.9,0.8-1.2,1.4S1790.9,884.6,1790.8,885.5L1790.8,885.5z
				 M1792.6,876.7l2.5-3.7h3.1l0,0.1l-3.7,3.6h-1.9H1792.6z"/>
			<path class="st6" d="M1802.4,894.3v-1.7l2.2-0.4v-10.6l-2.2-0.4v-1.7h4.6l0.2,2.2c0.5-0.8,1.1-1.4,1.9-1.8
				c0.7-0.4,1.6-0.6,2.5-0.6c1.6,0,2.8,0.5,3.7,1.4c0.9,0.9,1.3,2.4,1.3,4.3v7.2l2.2,0.4v1.7h-7.2v-1.7l2.2-0.4v-7.2
				c0-1.3-0.3-2.2-0.8-2.8s-1.3-0.8-2.4-0.8c-0.8,0-1.5,0.2-2.1,0.6c-0.6,0.4-1.1,0.9-1.4,1.5v8.7l2.2,0.4v1.7H1802.4z"/>
		</g>
	</g>
	<g>
		<g>
			<path class="st6" d="M1718.1,942.1v-1.7l2.2-0.4v-15.7l-2.2-0.4v-1.7h15v4.8h-2.2l-0.3-2.7h-7.6v6.9h7.3v2.1h-7.3v6.7l2.2,0.4
				v1.7H1718.1z"/>
			<path class="st6" d="M1741.6,942.4c-1.6,0-2.9-0.5-3.8-1.5c-0.9-1-1.4-2.6-1.4-4.8v-6.6l-1.7-0.4v-1.7h1.7h2.7v8.8
				c0,1.6,0.2,2.7,0.7,3.3c0.5,0.6,1.2,0.9,2.2,0.9c1,0,1.7-0.2,2.4-0.6c0.6-0.4,1.1-0.9,1.4-1.6v-8.5l-2-0.4v-1.7h2h2.7V940
				l1.7,0.4v1.7h-4.1l-0.2-2.2c-0.5,0.8-1.1,1.4-1.8,1.8S1742.6,942.4,1741.6,942.4z"/>
			<path class="st6" d="M1757.4,942.4c-1.1,0-2-0.3-2.6-1s-1-1.7-1-3.1v-9h-2.3v-2h2.3v-3.6h2.7v3.6h3.2v2h-3.2v9
				c0,0.7,0.1,1.2,0.4,1.6c0.3,0.3,0.7,0.5,1.1,0.5c0.3,0,0.7,0,1.1-0.1c0.4-0.1,0.7-0.1,0.9-0.2l0.4,1.8c-0.4,0.1-0.9,0.2-1.4,0.3
				C1758.4,942.3,1757.9,942.4,1757.4,942.4z"/>
			<path class="st6" d="M1766.9,942.4c-1.5,0-2.7-0.4-3.5-1.1s-1.2-1.8-1.2-3.2c0-0.9,0.3-1.8,0.8-2.5s1.3-1.2,2.2-1.6
				c1-0.4,2.1-0.6,3.5-0.6h2.6V932c0-0.9-0.3-1.6-0.8-2.1s-1.3-0.7-2.3-0.7c-0.6,0-1.2,0.1-1.6,0.2s-0.9,0.4-1.2,0.6l-0.3,2.1h-2.1
				v-3.4c0.7-0.5,1.4-0.9,2.3-1.2c0.9-0.3,1.9-0.4,2.9-0.4c1.8,0,3.2,0.4,4.2,1.3c1,0.9,1.5,2.1,1.5,3.7v7.1c0,0.2,0,0.4,0,0.6
				c0,0.2,0,0.4,0,0.5l1.4,0.2v1.7h-3.9c-0.1-0.4-0.1-0.8-0.2-1.1c0-0.3-0.1-0.6-0.1-1c-0.5,0.7-1.2,1.2-1.9,1.7
				S1767.8,942.4,1766.9,942.4z M1767.3,940.2c0.9,0,1.7-0.2,2.4-0.6c0.7-0.4,1.3-0.9,1.6-1.5v-2.7h-2.7c-1.2,0-2.2,0.3-2.8,0.9
				c-0.6,0.6-0.9,1.3-0.9,2c0,0.6,0.2,1.1,0.6,1.5S1766.5,940.2,1767.3,940.2z"/>
			<path class="st6" d="M1777.5,942.1v-1.7l2.2-0.4v-17.1l-2.2-0.4v-1.7h4.9V940l2.2,0.4v1.7H1777.5z"/>
			<path class="st6" d="M1793.3,942.4c-1.4,0-2.6-0.3-3.6-0.9c-1-0.6-1.8-1.5-2.3-2.6c-0.6-1.1-0.8-2.4-0.8-3.9v-0.6
				c0-1.4,0.3-2.7,0.9-3.8s1.3-2,2.3-2.6s2-1,3.2-1c1.3,0,2.4,0.3,3.3,0.8s1.6,1.3,2,2.3c0.5,1,0.7,2.2,0.7,3.5v1.7h-9.6l0,0.1
				c0,0.9,0.2,1.8,0.5,2.5c0.3,0.7,0.8,1.3,1.4,1.7c0.6,0.4,1.3,0.6,2.1,0.6c0.9,0,1.7-0.1,2.4-0.4s1.3-0.6,1.8-1.1l1.1,1.8
				c-0.5,0.5-1.2,0.9-2.1,1.3S1794.5,942.4,1793.3,942.4z M1789.4,933.2h6.8v-0.4c0-0.7-0.1-1.3-0.4-1.9s-0.6-1-1.1-1.3
				c-0.5-0.3-1.1-0.5-1.9-0.5c-0.6,0-1.1,0.2-1.6,0.5c-0.5,0.4-0.9,0.8-1.2,1.4S1789.5,932.4,1789.4,933.2L1789.4,933.2z"/>
			<path class="st6" d="M1801,942.1v-1.7l2.2-0.4v-10.7h-2.3v-2h2.3v-1.9c0-1.6,0.4-2.8,1.2-3.7s2-1.3,3.5-1.3c0.3,0,0.6,0,1,0.1
				c0.4,0.1,0.7,0.1,1.1,0.2l-0.3,2.1c-0.2,0-0.4-0.1-0.7-0.1s-0.5,0-0.8,0c-0.8,0-1.4,0.2-1.8,0.7c-0.4,0.5-0.6,1.2-0.6,2v1.9h3.2
				v2h-3.2V940l2.5,0.4v1.7H1801z"/>
			<path class="st6" d="M1817.4,942.4c-1.6,0-2.9-0.5-3.8-1.5c-0.9-1-1.4-2.6-1.4-4.8v-6.6l-1.7-0.4v-1.7h1.7h2.7v8.8
				c0,1.6,0.2,2.7,0.7,3.3c0.5,0.6,1.2,0.9,2.2,0.9c1,0,1.7-0.2,2.4-0.6c0.6-0.4,1.1-0.9,1.4-1.6v-8.5l-2-0.4v-1.7h2h2.7V940
				l1.7,0.4v1.7h-4.1l-0.2-2.2c-0.5,0.8-1.1,1.4-1.8,1.8S1818.4,942.4,1817.4,942.4z M1816.6,924.5l2.5-3.7h3.1l0,0.1l-3.7,3.6h-1.9
				H1816.6z"/>
		</g>
	</g>
	<g>
		<g>
			<path class="st6" d="M1718.1,989.9v-1.7l2.2-0.4v-15.7l-2.2-0.4V970h2.2h6.9c1.4,0,2.6,0.2,3.6,0.7c1,0.5,1.8,1.2,2.3,2.1
				c0.5,0.9,0.8,1.9,0.8,3.1c0,1.2-0.3,2.3-0.8,3.1c-0.5,0.9-1.3,1.6-2.3,2.1s-2.2,0.7-3.6,0.7h-4.2v5.9l2.2,0.4v1.7H1718.1z
				 M1723,979.8h4.2c1.3,0,2.4-0.4,3-1.1s1-1.6,1-2.7c0-1.1-0.3-2-1-2.8s-1.7-1.1-3-1.1h-4.2V979.8z"/>
			<path class="st6" d="M1740.5,990.2c-1.5,0-2.7-0.4-3.5-1.1s-1.2-1.8-1.2-3.2c0-0.9,0.3-1.8,0.8-2.5s1.3-1.2,2.2-1.6
				c1-0.4,2.1-0.6,3.5-0.6h2.6v-1.4c0-0.9-0.3-1.6-0.8-2.1s-1.3-0.7-2.3-0.7c-0.6,0-1.2,0.1-1.6,0.2s-0.9,0.4-1.2,0.6l-0.3,2.1h-2.1
				v-3.4c0.7-0.5,1.4-0.9,2.3-1.2c0.9-0.3,1.9-0.4,2.9-0.4c1.8,0,3.2,0.4,4.2,1.3c1,0.9,1.5,2.1,1.5,3.7v7.1c0,0.2,0,0.4,0,0.6
				c0,0.2,0,0.4,0,0.5l1.4,0.2v1.7h-3.9c-0.1-0.4-0.1-0.8-0.2-1.1c0-0.3-0.1-0.6-0.1-1c-0.5,0.7-1.2,1.2-1.9,1.7
				S1741.4,990.2,1740.5,990.2z M1740.9,987.9c0.9,0,1.7-0.2,2.4-0.6c0.7-0.4,1.3-0.9,1.6-1.5v-2.7h-2.7c-1.2,0-2.2,0.3-2.8,0.9
				c-0.6,0.6-0.9,1.3-0.9,2c0,0.6,0.2,1.1,0.6,1.5S1740.1,987.9,1740.9,987.9z"/>
			<path class="st6" d="M1751,989.9v-1.7l2.2-0.4v-17.1l-2.2-0.4v-1.7h4.9v19.2l2.2,0.4v1.7H1751z"/>
			<path class="st6" d="M1766.8,990.2c-1.4,0-2.6-0.3-3.6-0.9c-1-0.6-1.8-1.5-2.3-2.6c-0.6-1.1-0.8-2.4-0.8-3.9v-0.6
				c0-1.4,0.3-2.7,0.9-3.8s1.3-2,2.3-2.6s2-1,3.2-1c1.3,0,2.4,0.3,3.3,0.8s1.6,1.3,2,2.3c0.5,1,0.7,2.2,0.7,3.5v1.7h-9.6l0,0.1
				c0,0.9,0.2,1.8,0.5,2.5c0.3,0.7,0.8,1.3,1.4,1.7c0.6,0.4,1.3,0.6,2.1,0.6c0.9,0,1.7-0.1,2.4-0.4s1.3-0.6,1.8-1.1l1.1,1.8
				c-0.5,0.5-1.2,0.9-2.1,1.3S1768.1,990.2,1766.8,990.2z M1763,981h6.8v-0.4c0-0.7-0.1-1.3-0.4-1.9s-0.6-1-1.1-1.3
				c-0.5-0.3-1.1-0.5-1.9-0.5c-0.6,0-1.1,0.2-1.6,0.5c-0.5,0.4-0.9,0.8-1.2,1.4S1763,980.2,1763,981L1763,981z"/>
			<path class="st6" d="M1774.6,989.9v-1.7l2.2-0.4v-10.6l-2.2-0.4v-1.7h4.6l0.2,2.2c0.5-0.8,1.1-1.4,1.9-1.8
				c0.7-0.4,1.6-0.6,2.5-0.6c1.6,0,2.8,0.5,3.7,1.4c0.9,0.9,1.3,2.4,1.3,4.3v7.2l2.2,0.4v1.7h-7.2v-1.7l2.2-0.4v-7.2
				c0-1.3-0.3-2.2-0.8-2.8s-1.3-0.8-2.4-0.8c-0.8,0-1.5,0.2-2.1,0.6c-0.6,0.4-1.1,0.9-1.4,1.5v8.7l2.2,0.4v1.7H1774.6z"/>
			<path class="st6" d="M1797.7,990.2c-1.5,0-2.7-0.4-3.5-1.1s-1.2-1.8-1.2-3.2c0-0.9,0.3-1.8,0.8-2.5s1.3-1.2,2.2-1.6
				c1-0.4,2.1-0.6,3.5-0.6h2.6v-1.4c0-0.9-0.3-1.6-0.8-2.1s-1.3-0.7-2.3-0.7c-0.6,0-1.2,0.1-1.6,0.2s-0.9,0.4-1.2,0.6l-0.3,2.1h-2.1
				v-3.4c0.7-0.5,1.4-0.9,2.3-1.2c0.9-0.3,1.9-0.4,2.9-0.4c1.8,0,3.2,0.4,4.2,1.3c1,0.9,1.5,2.1,1.5,3.7v7.1c0,0.2,0,0.4,0,0.6
				c0,0.2,0,0.4,0,0.5l1.4,0.2v1.7h-3.9c-0.1-0.4-0.1-0.8-0.2-1.1c0-0.3-0.1-0.6-0.1-1c-0.5,0.7-1.2,1.2-1.9,1.7
				S1798.6,990.2,1797.7,990.2z M1798.1,987.9c0.9,0,1.7-0.2,2.4-0.6c0.7-0.4,1.3-0.9,1.6-1.5v-2.7h-2.7c-1.2,0-2.2,0.3-2.8,0.9
				c-0.6,0.6-0.9,1.3-0.9,2c0,0.6,0.2,1.1,0.6,1.5S1797.3,987.9,1798.1,987.9z"/>
		</g>
	</g>
	<g>
		<g>
			<path class="st6" d="M291.4,145.5V142h15.3v3.6H291.4z M291.4,153v-3.6h15.3v3.6H291.4z"/>
		</g>
	</g>
</g>
</svg>
